#VRML V2.0 utf8
# 3D model generated by easyeda2kicad.py (https://github.com/uPesy/easyeda2kicad.py)

Shape{
    appearance Appearance {
        material  Material 	{
            diffuseColor 0.7529411764705882 0.7529411764705882 0.7529411764705882
            specularColor 0.3764705882352941 0.3764705882352941 0.3764705882352941
            ambientIntensity 0.7529
            transparency 0.0
            shininess 0.5
        }
    }
    geometry IndexedFaceSet {
        ccw TRUE
        solid FALSE
        coord DEF co Coordinate {
            point [
                3.3425 1.5591 0.0, 3.3425 1.4409 0.0, 2.0 1.4262 0.0, -3.9265 1.9291 0.0, -3.8976 1.958 0.0, -3.937 1.8898 0.0, -3.8583 1.9685 0.0, -3.937 1.4262 0.0, -3.7628 -1.5738 0.0, -3.8583 -1.9685 0.0, -3.937 -1.8898 0.0, -3.8884 -1.9625 0.0, -3.9139 -1.9454 0.0, -3.931 -1.9199 0.0, 2.0 -1.5738 0.0, 3.937 -1.5738 0.0, 3.937 -1.8898 0.0, 3.931 -1.9199 0.0, 3.9139 -1.9454 0.0, 2.0 -1.9685 0.0, 3.8583 -1.9685 0.0, 3.8884 -1.9625 0.0, 3.937 1.4262 0.0, 3.6575 1.4409 0.0, 3.937 1.8898 0.0, 3.6575 1.5591 0.0, 3.9265 1.9291 0.0, -3.4114 1.4262 0.0, -3.4114 1.5886 0.0, -2.2417 1.9685 0.0, -3.5886 1.4114 0.0, -3.7628 0.2392 0.0, -3.7628 1.4262 0.0, -3.7628 1.9685 0.0, -3.5886 1.5886 0.0, -3.5886 1.4262 0.0, -3.4114 1.4114 0.0, -2.2417 0.2392 0.0, -2.2417 1.4262 0.0, -3.4114 -1.4262 0.0, -3.4114 -1.4114 0.0, -2.2417 -0.003 0.0, -3.7628 -1.4262 0.0, -3.7628 -0.003 0.0, -3.5886 -1.4114 0.0, -3.5886 -1.4262 0.0, -3.5886 -1.5738 0.0, -3.7628 -1.9685 0.0, -0.2779 0.2392 0.0, -0.2862 0.2419 0.0, -0.156 1.4262 0.0, -0.424 1.4262 0.0, -0.156 0.2392 0.0, -0.1848 0.1798 0.0, -0.2252 0.2224 0.0, -0.1696 0.1195 0.0, -0.156 -0.003 0.0, -0.1768 0.0746 0.0, -0.156 -1.4262 0.0, -0.2801 -0.003 0.0, -0.2435 0.0035 0.0, -0.2205 0.0161 0.0, -0.207 0.0273 0.0, -0.1995 0.0353 0.0, -0.424 -1.4262 0.0, -0.3088 -0.0056 0.0, -0.297 -0.0061 0.0, -0.2967 0.2423 0.0, -0.3111 0.2392 0.0, -0.424 0.2392 0.0, -0.3543 0.2301 0.0, -0.3998 0.0435 0.0, -0.3545 0.0062 0.0, -0.424 -0.003 0.0, -0.3276 -0.0029 0.0, -0.3268 -0.003 0.0, -0.3785 0.2152 0.0, -0.3923 0.2021 0.0, -0.3998 0.1929 0.0, -0.243 0.2051 0.0, -0.2064 0.1721 0.0, -0.2954 0.218 0.0, -0.1912 0.1274 0.0, -0.1908 0.1179 0.0, -0.203 0.0692 0.0, -0.2356 0.0351 0.0, -0.282 0.0189 0.0, -0.3812 0.0575 0.0, -0.3812 0.1787 0.0, -0.3435 0.0282 0.0, -0.3429 0.2083 0.0, -0.2968 0.0182 0.0, -0.3206 0.2155 0.0, -0.3051 0.2177 0.0, -3.5886 -1.5886 0.0, -3.4114 -1.5886 0.0, -2.2417 -1.9685 0.0, -2.2417 -1.5738 0.0, -0.8328 -1.9685 0.0, -0.8328 -1.5738 0.0, -0.424 -1.9685 0.0, -0.424 -1.5738 0.0, -0.156 -1.9685 0.0, -0.156 -1.5738 0.0, 3.937 -1.4262 0.0, 3.6575 -1.4409 0.0, 3.3425 -1.4409 0.0, 0.1561 -1.5738 0.0, 0.3425 -1.5591 0.0, 0.6575 -1.5591 0.0, 0.6575 -1.4409 0.0, 2.0 -1.4262 0.0, 0.1561 -1.9685 0.0, 0.3425 -1.4409 0.0, 0.1561 -1.4262 0.0, -2.2417 -1.4262 0.0, -0.8328 -1.4262 0.0, -3.4114 -1.5738 0.0, -0.8328 -0.003 0.0, 3.6575 -1.5591 0.0, 3.3425 -1.5591 0.0, 2.0 -0.003 0.0, 3.937 -0.003 0.0, 2.0 0.2392 0.0, 3.937 0.2392 0.0, 0.1561 -0.003 0.0, 0.1561 0.2392 0.0, -0.1423 0.0242 0.0, -0.1423 0.0 0.0, -0.0303 0.0 0.0, -0.0515 0.0242 0.0, -0.0515 0.2362 0.0, -0.0303 0.2362 0.0, -0.7465 0.2277 0.0, -0.7891 0.1991 0.0, -0.8328 0.2392 0.0, -0.7701 0.0165 0.0, -0.7226 0.0013 0.0, -0.6971 0.0 0.0, -0.6239 0.0 0.0, -0.4694 0.212 0.0, -0.4694 0.1393 0.0, -0.5815 0.212 0.0, -0.5815 0.1393 0.0, -0.5815 0.1151 0.0, -0.8132 0.1523 0.0, -0.8177 0.1151 0.0, -0.8044 0.0557 0.0, -0.6239 0.2362 0.0, -0.6716 0.2362 0.0, -0.7094 0.2348 0.0, -0.4694 0.1151 0.0, -0.4694 0.0242 0.0, -0.5815 0.0242 0.0, -0.5815 0.0 0.0, -0.4482 0.0 0.0, -0.4482 0.2362 0.0, -0.5815 0.2362 0.0, -0.8711 0.0 0.0, -0.848 0.0 0.0, -1.049 0.0 0.0, -1.0141 0.0757 0.0, -0.907 0.0757 0.0, -0.96 0.2362 0.0, -0.9631 0.2362 0.0, 0.1561 1.4262 0.0, -0.8328 1.4262 0.0, -1.0721 0.0 0.0, -3.937 -1.5738 0.0, -3.937 -1.4262 0.0, -3.937 -0.003 0.0, -3.937 0.2392 0.0, -0.8328 1.9685 0.0, -0.424 1.9685 0.0, -0.156 1.9685 0.0, 0.1561 1.9685 0.0, 2.0 1.9685 0.0, 3.8583 1.9685 0.0, 3.8976 1.958 0.0, 3.937 1.8898 4.0551, 3.937 -1.8898 4.0551, 3.8583 1.9685 4.0551, -3.8583 1.9685 4.0551, -3.937 1.8898 4.0551, -3.937 -1.8898 4.0551, 3.8583 -1.9685 4.0551, -3.8583 -1.9685 4.0551, -3.3538 -1.3295 4.1339, -3.2564 -1.3034 4.1339, -3.8583 1.8898 4.1339, 3.8583 1.8898 4.1339, -3.0876 -1.5957 4.1339, -3.1589 -1.667 4.1339, 3.8583 -1.8898 4.1339, -3.2564 -1.6932 4.1339, -3.8583 -1.8898 4.1339, -3.3538 -1.667 4.1339, -3.1589 -1.3295 4.1339, -3.0876 -1.4008 4.1339, -3.0615 -1.4983 4.1339, -3.4252 -1.5957 4.1339, -3.4513 -1.4983 4.1339, -3.4252 -1.4008 4.1339
            ]
        }
        coordIndex [
            0,1,2,-1,3,4,5,-1,5,4,6,-1,5,6,7,-1,8,9,10,-1,11,12,9,-1,9,12,13,-1,9,13,10,-1,14,15,16,-1,16,17,18,-1,19,14,20,-1,20,14,16,-1,20,16,21,-1,21,16,18,-1,2,1,22,-1,22,1,23,-1,22,23,24,-1,24,23,25,-1,24,25,26,-1,27,28,29,-1,30,31,32,-1,29,28,33,-1,33,28,34,-1,33,34,32,-1,32,34,35,-1,32,35,30,-1,30,36,37,-1,37,36,38,-1,39,40,41,-1,42,43,44,-1,44,45,42,-1,42,45,46,-1,42,46,8,-1,8,46,47,-1,8,47,9,-1,48,49,50,-1,50,49,51,-1,52,53,54,-1,53,52,55,-1,55,52,56,-1,55,56,57,-1,58,59,56,-1,56,59,60,-1,56,60,61,-1,61,62,56,-1,56,62,63,-1,56,63,57,-1,64,65,58,-1,58,65,66,-1,58,66,59,-1,49,67,51,-1,51,67,68,-1,51,68,69,-1,69,68,70,-1,71,72,73,-1,73,72,74,-1,73,74,75,-1,70,76,69,-1,69,76,77,-1,69,77,78,-1,79,80,81,-1,81,80,82,-1,81,82,83,-1,83,84,81,-1,81,84,85,-1,81,85,86,-1,73,69,71,-1,71,69,78,-1,71,78,87,-1,87,78,88,-1,87,88,89,-1,89,88,90,-1,89,90,91,-1,91,90,92,-1,91,92,86,-1,86,92,93,-1,86,93,81,-1,46,94,47,-1,47,94,95,-1,47,95,96,-1,96,95,97,-1,96,97,98,-1,98,97,99,-1,98,99,100,-1,100,99,101,-1,100,101,102,-1,102,101,103,-1,104,105,106,-1,107,108,109,-1,110,111,109,-1,109,111,14,-1,109,14,107,-1,107,14,19,-1,107,19,112,-1,108,107,113,-1,113,107,114,-1,113,114,110,-1,97,115,99,-1,99,115,116,-1,99,116,101,-1,101,116,64,-1,101,64,103,-1,103,64,58,-1,95,117,97,-1,97,117,39,-1,97,39,115,-1,115,39,41,-1,115,41,116,-1,116,41,118,-1,116,118,64,-1,105,104,119,-1,119,104,15,-1,119,15,120,-1,120,15,14,-1,120,14,106,-1,106,14,111,-1,106,111,104,-1,104,111,121,-1,104,121,122,-1,122,121,123,-1,122,123,124,-1,110,114,111,-1,111,114,125,-1,111,125,121,-1,121,125,126,-1,121,126,123,-1,52,127,56,-1,56,127,128,-1,56,128,129,-1,130,127,131,-1,131,127,52,-1,131,52,132,-1,132,52,126,-1,132,126,129,-1,129,126,125,-1,129,125,56,-1,56,125,114,-1,56,114,58,-1,58,114,107,-1,58,107,103,-1,103,107,112,-1,103,112,102,-1,133,134,135,-1,136,137,118,-1,118,137,138,-1,138,139,118,-1,118,139,73,-1,118,73,64,-1,64,73,75,-1,64,75,65,-1,140,141,142,-1,142,141,143,-1,143,144,139,-1,134,145,135,-1,135,145,146,-1,135,146,118,-1,118,146,147,-1,118,147,136,-1,148,149,135,-1,135,149,150,-1,135,150,133,-1,151,152,144,-1,144,152,153,-1,144,153,139,-1,139,153,154,-1,139,154,73,-1,73,154,155,-1,73,155,69,-1,69,155,156,-1,69,156,157,-1,158,159,118,-1,160,161,162,-1,118,159,135,-1,135,159,163,-1,135,163,164,-1,30,37,31,-1,31,37,41,-1,31,41,43,-1,43,41,40,-1,43,40,44,-1,54,48,52,-1,52,48,50,-1,52,50,126,-1,126,50,165,-1,126,165,123,-1,123,165,2,-1,123,2,124,-1,124,2,22,-1,143,139,142,-1,142,139,148,-1,142,148,157,-1,157,148,135,-1,157,135,69,-1,69,135,166,-1,69,166,51,-1,162,158,160,-1,160,158,118,-1,160,118,167,-1,167,118,41,-1,167,41,164,-1,164,41,37,-1,164,37,135,-1,135,37,38,-1,135,38,166,-1,10,168,8,-1,8,168,169,-1,8,169,42,-1,42,169,170,-1,42,170,43,-1,43,170,171,-1,43,171,31,-1,31,171,7,-1,31,7,32,-1,32,7,6,-1,32,6,33,-1,36,27,38,-1,38,27,29,-1,38,29,166,-1,166,29,172,-1,166,172,51,-1,51,172,173,-1,51,173,50,-1,50,173,174,-1,50,174,165,-1,165,174,175,-1,165,175,2,-1,2,175,176,-1,2,176,0,-1,0,176,177,-1,0,177,25,-1,25,177,178,-1,25,178,26,-1,22,24,179,-1,180,16,15,-1,15,104,180,-1,180,104,122,-1,180,122,179,-1,179,122,124,-1,179,124,22,-1,177,176,181,-1,181,176,175,-1,181,175,182,-1,175,174,182,-1,182,174,173,-1,182,173,172,-1,172,29,182,-1,182,29,33,-1,182,33,6,-1,5,7,183,-1,183,7,171,-1,183,171,184,-1,184,171,170,-1,170,169,184,-1,184,169,168,-1,184,168,10,-1,19,20,185,-1,9,47,186,-1,186,47,96,-1,186,96,98,-1,98,100,186,-1,186,100,102,-1,186,102,185,-1,185,102,112,-1,185,112,19,-1,187,188,189,-1,189,188,190,-1,191,192,193,-1,193,192,194,-1,193,194,195,-1,195,194,196,-1,188,197,190,-1,190,197,198,-1,190,198,193,-1,193,198,199,-1,193,199,191,-1,196,200,195,-1,195,200,201,-1,195,201,189,-1,189,201,202,-1,189,202,187,-1,
        ]
    }
}
Shape{
    appearance Appearance {
        material  Material 	{
            diffuseColor 0.796078431372549 0.8235294117647058 0.9372549019607843
            specularColor 0.396078431372549 0.4117647058823529 0.4666666666666667
            ambientIntensity 0.8283
            transparency 0.0
            shininess 0.5
        }
    }
    geometry IndexedFaceSet {
        ccw TRUE
        solid FALSE
        coord DEF co Coordinate {
            point [
                -3.5886 -1.4114 -1.3386, -3.5886 -1.4114 0.0, -3.4114 -1.4114 -1.3386, -3.4114 -1.4114 0.0, -3.4508 -1.4508 -1.378, -3.4508 -1.5492 -1.378, -3.5492 -1.4508 -1.378, -3.5492 -1.5492 -1.378, -3.4114 -1.5886 -1.3386, -3.4114 -1.5886 0.0, -3.5886 -1.5886 -1.3386, -3.5886 -1.5886 0.0, -3.5886 -1.4262 0.0, -3.5886 -1.5738 0.0, -3.4114 -1.5738 0.0, -3.4114 -1.4262 0.0, -3.5886 1.5886 -1.3386, -3.5886 1.5886 0.0, -3.4114 1.5886 -1.3386, -3.4114 1.5886 0.0, -3.4508 1.5492 -1.378, -3.4508 1.4508 -1.378, -3.5492 1.5492 -1.378, -3.5492 1.4508 -1.378, -3.4114 1.4114 -1.3386, -3.4114 1.4114 0.0, -3.5886 1.4114 -1.3386, -3.5886 1.4114 0.0, -3.5886 1.4262 0.0, -3.4114 1.4262 0.0, 3.6575 1.4409 -1.3386, 3.6575 1.4409 0.0, 3.3425 1.4409 -1.3386, 3.3425 1.4409 0.0, 3.3819 1.4803 -1.378, 3.3819 1.5197 -1.378, 3.6181 1.4803 -1.378, 3.6181 1.5197 -1.378, 3.3425 1.5591 -1.3386, 3.3425 1.5591 0.0, 3.6575 1.5591 -1.3386, 3.6575 1.5591 0.0, 3.6575 -1.5591 -1.3386, 3.6575 -1.5591 0.0, 3.3425 -1.5591 -1.3386, 3.3425 -1.5591 0.0, 3.3819 -1.5197 -1.378, 3.3819 -1.4803 -1.378, 3.6181 -1.5197 -1.378, 3.6181 -1.4803 -1.378, 3.3425 -1.4409 -1.3386, 3.3425 -1.4409 0.0, 3.6575 -1.4409 -1.3386, 3.6575 -1.4409 0.0, 0.6575 -1.5591 -1.3386, 0.6575 -1.5591 0.0, 0.3425 -1.5591 -1.3386, 0.3425 -1.5591 0.0, 0.3819 -1.5197 -1.378, 0.3819 -1.4803 -1.378, 0.6181 -1.5197 -1.378, 0.6181 -1.4803 -1.378, 0.3425 -1.4409 -1.3386, 0.3425 -1.4409 0.0, 0.6575 -1.4409 -1.3386, 0.6575 -1.4409 0.0
            ]
        }
        coordIndex [
            0,1,2,-1,2,1,3,-1,4,5,6,-1,6,5,7,-1,8,9,10,-1,10,9,11,-1,1,0,12,-1,12,0,10,-1,12,10,13,-1,13,10,11,-1,9,8,14,-1,14,8,2,-1,14,2,15,-1,15,2,3,-1,16,17,18,-1,18,17,19,-1,20,21,22,-1,22,21,23,-1,24,25,26,-1,26,25,27,-1,17,16,28,-1,28,16,26,-1,28,26,27,-1,25,24,29,-1,29,24,18,-1,29,18,19,-1,30,31,32,-1,32,31,33,-1,34,35,36,-1,36,35,37,-1,38,39,40,-1,40,39,41,-1,40,41,30,-1,30,41,31,-1,32,33,38,-1,38,33,39,-1,42,43,44,-1,44,43,45,-1,46,47,48,-1,48,47,49,-1,50,51,52,-1,52,51,53,-1,52,53,42,-1,42,53,43,-1,44,45,50,-1,50,45,51,-1,54,55,56,-1,56,55,57,-1,58,59,60,-1,60,59,61,-1,62,63,64,-1,64,63,65,-1,64,65,54,-1,54,65,55,-1,56,57,62,-1,62,57,63,-1,
        ]
    }
}
Shape{
    appearance Appearance {
        material  Material 	{
            diffuseColor 0.7529411764705882 0.7529411764705882 0.7529411764705882
            specularColor 0.3764705882352941 0.3764705882352941 0.3764705882352941
            ambientIntensity 0.7529
            transparency 0.0
            shininess 0.5
        }
    }
    geometry IndexedFaceSet {
        ccw TRUE
        solid FALSE
        coord DEF co Coordinate {
            point [
                -0.96 0.2362 0.0394, -0.9631 0.2362 0.0394, -0.96 0.2362 0.0, -0.9631 0.2362 0.0, -1.0721 -0.0 0.0394, -1.0721 0.0 0.0, -1.049 0.0 0.0394, -1.049 0.0 0.0, -1.0141 0.0757 0.0394, -1.0141 0.0757 0.0, -0.907 0.0757 0.0394, -0.907 0.0757 0.0, -0.8711 -0.0 0.0394, -0.8711 0.0 0.0, -0.848 0.0 0.0394, -0.848 0.0 0.0, -1.0029 0.0999 0.0394, -0.9185 0.0999 0.0394, -0.9613 0.1902 0.0394, -1.0029 0.0999 0.0, -0.9613 0.1902 0.0, -0.9185 0.0999 0.0, -0.6971 0.0 0.0394, -0.6239 0.0 0.0394, -0.6971 0.0 0.0, -0.6239 0.0 0.0, -0.6239 0.2362 0.0394, -0.6239 0.2362 0.0, -0.6716 0.2362 0.0394, -0.6716 0.2362 0.0, -0.7465 0.2277 0.0394, -0.7465 0.2277 0.0, -0.7094 0.2348 0.0, -0.7094 0.2348 0.0394, -0.8177 0.1151 0.0394, -0.8177 0.1151 0.0, -0.8132 0.1523 0.0, -0.8132 0.1523 0.0394, -0.7891 0.1991 0.0, -0.7891 0.1991 0.0394, -0.7226 0.0013 0.0, -0.7226 0.0013 0.0394, -0.7701 0.0165 0.0, -0.7701 0.0165 0.0394, -0.8044 0.0557 0.0, -0.8044 0.0557 0.0394, -0.7927 0.0858 0.0394, -0.7735 0.0512 0.0394, -0.7397 0.0302 0.0394, -0.7062 0.0252 0.0394, -0.6722 0.0242 0.0394, -0.6451 0.0242 0.0394, -0.6451 0.212 0.0394, -0.6617 0.212 0.0394, -0.6982 0.2109 0.0394, -0.7343 0.2054 0.0394, -0.7604 0.1928 0.0394, -0.7861 0.1624 0.0394, -0.7965 0.1152 0.0394, -0.6451 0.212 0.0, -0.6451 0.0242 0.0, -0.6617 0.212 0.0, -0.6982 0.2109 0.0, -0.7343 0.2054 0.0, -0.7604 0.1928 0.0, -0.7861 0.1624 0.0, -0.7965 0.1152 0.0, -0.7927 0.0858 0.0, -0.7735 0.0512 0.0, -0.7397 0.0302 0.0, -0.7062 0.0252 0.0, -0.6722 0.0242 0.0, -0.4482 0.0 0.0394, -0.4482 0.2362 0.0394, -0.4482 0.0 0.0, -0.4482 0.2362 0.0, -0.5815 0.2362 0.0394, -0.5815 0.2362 0.0, -0.5815 0.212 0.0394, -0.5815 0.212 0.0, -0.4694 0.212 0.0394, -0.4694 0.212 0.0, -0.4694 0.1393 0.0394, -0.4694 0.1393 0.0, -0.5815 0.1393 0.0394, -0.5815 0.1393 0.0, -0.5815 0.1151 0.0394, -0.5815 0.1151 0.0, -0.4694 0.1151 0.0394, -0.4694 0.1151 0.0, -0.4694 0.0242 0.0394, -0.4694 0.0242 0.0, -0.5815 0.0242 0.0394, -0.5815 0.0242 0.0, -0.5815 0.0 0.0394, -0.5815 0.0 0.0, -0.2967 0.2423 0.0, -0.2967 0.2423 0.0394, -0.3111 0.2392 0.0, -0.3543 0.2301 0.0394, -0.3543 0.2301 0.0, -0.3785 0.2152 0.0394, -0.3785 0.2152 0.0, -0.3923 0.2021 0.0394, -0.3923 0.2021 0.0, -0.3998 0.1929 0.0394, -0.3998 0.1929 0.0, -0.3812 0.1787 0.0394, -0.3812 0.1787 0.0, -0.2954 0.218 0.0394, -0.2954 0.218 0.0, -0.3051 0.2177 0.0, -0.3051 0.2177 0.0394, -0.3206 0.2155 0.0, -0.3206 0.2155 0.0394, -0.3429 0.2083 0.0, -0.3429 0.2083 0.0394, -0.1908 0.1179 0.0394, -0.1908 0.1179 0.0, -0.1912 0.1274 0.0, -0.1912 0.1274 0.0394, -0.2064 0.1721 0.0, -0.2064 0.1721 0.0394, -0.243 0.2051 0.0, -0.243 0.2051 0.0394, -0.2968 0.0182 0.0394, -0.2968 0.0182 0.0, -0.282 0.0189 0.0, -0.282 0.0189 0.0394, -0.2356 0.0351 0.0, -0.2356 0.0351 0.0394, -0.203 0.0692 0.0, -0.203 0.0692 0.0394, -0.3812 0.0575 0.0394, -0.3812 0.0575 0.0, -0.3435 0.0282 0.0, -0.3435 0.0282 0.0394, -0.3998 0.0435 0.0394, -0.3998 0.0435 0.0, -0.297 -0.0061 0.0394, -0.297 -0.0061 0.0, -0.3088 -0.0056 0.0, -0.3088 -0.0056 0.0394, -0.3268 -0.003 0.0, -0.3276 -0.0029 0.0394, -0.3276 -0.0029 0.0, -0.3545 0.0062 0.0, -0.3545 0.0062 0.0394, -0.2801 -0.003 0.0, -0.2435 0.0035 0.0394, -0.2435 0.0035 0.0, -0.2205 0.0161 0.0394, -0.2205 0.0161 0.0, -0.207 0.0273 0.0394, -0.207 0.0273 0.0, -0.1995 0.0353 0.0394, -0.1995 0.0353 0.0, -0.1696 0.1195 0.0394, -0.1696 0.1195 0.0, -0.1768 0.0746 0.0, -0.1768 0.0746 0.0394, -0.2862 0.2419 0.0, -0.2862 0.2419 0.0394, -0.2779 0.2392 0.0, -0.2252 0.2224 0.0394, -0.2252 0.2224 0.0, -0.1848 0.1798 0.0, -0.1848 0.1798 0.0394, -0.0303 0.0 0.0394, -0.0303 0.2362 0.0394, -0.0303 0.0 0.0, -0.0303 0.2362 0.0, -0.0515 0.2362 0.0394, -0.0515 0.2362 0.0, -0.0515 0.0242 0.0394, -0.0515 0.0242 0.0, -0.1423 0.0242 0.0394, -0.1423 0.0242 0.0, -0.1423 0.0 0.0394, -0.1423 0.0 0.0
            ]
        }
        coordIndex [
            0,1,2,-1,2,1,3,-1,1,4,3,-1,3,4,5,-1,4,6,5,-1,5,6,7,-1,6,8,7,-1,7,8,9,-1,8,10,9,-1,9,10,11,-1,10,12,11,-1,11,12,13,-1,12,14,13,-1,13,14,15,-1,14,0,15,-1,15,0,2,-1,16,4,1,-1,0,17,1,-1,1,17,18,-1,1,18,16,-1,14,12,10,-1,6,4,8,-1,8,4,16,-1,8,16,10,-1,10,16,17,-1,10,17,14,-1,14,17,0,-1,16,18,19,-1,19,18,20,-1,17,16,21,-1,21,16,19,-1,18,17,20,-1,20,17,21,-1,22,23,24,-1,24,23,25,-1,23,26,25,-1,25,26,27,-1,26,28,27,-1,27,28,29,-1,30,31,32,-1,30,32,33,-1,33,32,29,-1,33,29,28,-1,34,35,36,-1,34,36,37,-1,37,36,38,-1,37,38,39,-1,39,38,31,-1,39,31,30,-1,22,24,40,-1,22,40,41,-1,41,40,42,-1,41,42,43,-1,43,42,44,-1,43,44,45,-1,45,44,35,-1,45,35,34,-1,46,47,43,-1,43,47,48,-1,43,48,41,-1,41,48,49,-1,41,49,22,-1,22,49,50,-1,22,50,23,-1,23,50,51,-1,23,51,26,-1,26,51,52,-1,26,52,28,-1,28,52,53,-1,28,53,33,-1,33,53,54,-1,33,54,30,-1,30,54,55,-1,30,55,39,-1,39,55,56,-1,39,56,37,-1,37,56,57,-1,37,57,34,-1,34,57,58,-1,34,58,45,-1,45,58,46,-1,45,46,43,-1,52,51,59,-1,59,51,60,-1,53,52,61,-1,61,52,59,-1,53,61,62,-1,53,62,54,-1,54,62,63,-1,54,63,55,-1,55,63,64,-1,55,64,56,-1,56,64,65,-1,56,65,57,-1,57,65,66,-1,57,66,58,-1,58,66,67,-1,58,67,46,-1,46,67,68,-1,46,68,47,-1,47,68,69,-1,47,69,48,-1,48,69,70,-1,48,70,49,-1,49,70,71,-1,49,71,50,-1,51,50,60,-1,60,50,71,-1,72,73,74,-1,74,73,75,-1,73,76,75,-1,75,76,77,-1,76,78,77,-1,77,78,79,-1,78,80,79,-1,79,80,81,-1,80,82,81,-1,81,82,83,-1,82,84,83,-1,83,84,85,-1,84,86,85,-1,85,86,87,-1,86,88,87,-1,87,88,89,-1,88,90,89,-1,89,90,91,-1,90,92,91,-1,91,92,93,-1,92,94,93,-1,93,94,95,-1,94,72,95,-1,95,72,74,-1,72,94,92,-1,92,90,72,-1,72,90,88,-1,72,88,73,-1,78,76,80,-1,80,76,73,-1,80,73,82,-1,82,73,88,-1,82,88,84,-1,84,88,86,-1,96,97,98,-1,98,97,99,-1,98,99,100,-1,100,99,101,-1,100,101,102,-1,102,101,103,-1,102,103,104,-1,104,103,105,-1,104,105,106,-1,105,107,106,-1,106,107,108,-1,109,110,111,-1,109,111,112,-1,112,111,113,-1,112,113,114,-1,114,113,115,-1,114,115,116,-1,116,115,108,-1,116,108,107,-1,117,118,119,-1,117,119,120,-1,120,119,121,-1,120,121,122,-1,122,121,123,-1,122,123,124,-1,124,123,110,-1,124,110,109,-1,125,126,127,-1,125,127,128,-1,128,127,129,-1,128,129,130,-1,130,129,131,-1,130,131,132,-1,132,131,118,-1,132,118,117,-1,133,134,135,-1,133,135,136,-1,136,135,126,-1,136,126,125,-1,133,137,134,-1,134,137,138,-1,139,140,141,-1,139,141,142,-1,142,141,143,-1,142,143,144,-1,143,145,144,-1,144,145,146,-1,144,146,147,-1,147,146,138,-1,147,138,137,-1,140,139,148,-1,148,139,149,-1,148,149,150,-1,150,149,151,-1,150,151,152,-1,152,151,153,-1,152,153,154,-1,154,153,155,-1,154,155,156,-1,157,158,159,-1,157,159,160,-1,160,159,156,-1,160,156,155,-1,97,96,161,-1,97,161,162,-1,162,161,163,-1,162,163,164,-1,163,165,164,-1,164,165,166,-1,164,166,167,-1,167,166,158,-1,167,158,157,-1,137,133,147,-1,147,133,136,-1,157,160,132,-1,132,160,130,-1,130,160,155,-1,130,155,153,-1,107,105,103,-1,107,103,116,-1,116,103,101,-1,116,101,99,-1,153,151,130,-1,130,151,149,-1,130,149,128,-1,128,149,139,-1,128,139,125,-1,125,139,142,-1,125,142,136,-1,136,142,144,-1,136,144,147,-1,132,117,157,-1,157,117,120,-1,157,120,167,-1,167,120,122,-1,167,122,164,-1,164,122,124,-1,164,124,162,-1,162,124,109,-1,162,109,97,-1,97,109,112,-1,97,112,99,-1,99,112,114,-1,99,114,116,-1,168,169,170,-1,170,169,171,-1,169,172,171,-1,171,172,173,-1,172,174,173,-1,173,174,175,-1,174,176,175,-1,175,176,177,-1,176,178,177,-1,177,178,179,-1,178,168,179,-1,179,168,170,-1,172,169,174,-1,174,169,168,-1,174,168,176,-1,176,168,178,-1,20,21,19,-1,59,60,61,-1,61,60,71,-1,61,71,62,-1,62,71,70,-1,62,70,63,-1,69,68,70,-1,70,68,67,-1,70,67,66,-1,66,65,70,-1,70,65,64,-1,70,64,63,-1,
        ]
    }
}
Shape{
    appearance Appearance {
        material  Material 	{
            diffuseColor 0.796078431372549 0.8235294117647058 0.9372549019607843
            specularColor 0.396078431372549 0.4117647058823529 0.4666666666666667
            ambientIntensity 0.8283
            transparency 0.0
            shininess 0.5
        }
    }
    geometry IndexedFaceSet {
        ccw TRUE
        solid FALSE
        coord DEF co Coordinate {
            point [
                -3.5886 1.4114 -1.3386, -3.5492 1.4508 -1.378, -3.4114 1.4114 -1.3386, -3.4508 1.4508 -1.378, -3.5886 1.5886 -1.3386, -3.5492 1.5492 -1.378, -3.4508 1.5492 -1.378, -3.4114 1.5886 -1.3386, -3.5886 -1.5886 -1.3386, -3.5492 -1.5492 -1.378, -3.4114 -1.5886 -1.3386, -3.4508 -1.5492 -1.378, -3.5886 -1.4114 -1.3386, -3.5492 -1.4508 -1.378, -3.4508 -1.4508 -1.378, -3.4114 -1.4114 -1.3386, 0.6575 -1.4409 -1.3386, 0.6181 -1.4803 -1.378, 0.3425 -1.4409 -1.3386, 0.3819 -1.4803 -1.378, 0.6575 -1.5591 -1.3386, 0.6181 -1.5197 -1.378, 0.3819 -1.5197 -1.378, 0.3425 -1.5591 -1.3386, 3.6575 -1.4409 -1.3386, 3.6181 -1.4803 -1.378, 3.3425 -1.4409 -1.3386, 3.3819 -1.4803 -1.378, 3.6575 -1.5591 -1.3386, 3.6181 -1.5197 -1.378, 3.3819 -1.5197 -1.378, 3.3425 -1.5591 -1.3386, 3.6575 1.5591 -1.3386, 3.6181 1.5197 -1.378, 3.3425 1.5591 -1.3386, 3.3819 1.5197 -1.378, 3.6575 1.4409 -1.3386, 3.6181 1.4803 -1.378, 3.3819 1.4803 -1.378, 3.3425 1.4409 -1.3386
            ]
        }
        coordIndex [
            0,1,2,-1,2,1,3,-1,4,5,0,-1,0,5,1,-1,6,7,3,-1,3,7,2,-1,7,6,4,-1,4,6,5,-1,8,9,10,-1,10,9,11,-1,12,13,8,-1,8,13,9,-1,14,15,11,-1,11,15,10,-1,15,14,12,-1,12,14,13,-1,16,17,18,-1,18,17,19,-1,20,21,16,-1,16,21,17,-1,22,23,19,-1,19,23,18,-1,23,22,20,-1,20,22,21,-1,24,25,26,-1,26,25,27,-1,28,29,24,-1,24,29,25,-1,30,31,27,-1,27,31,26,-1,31,30,28,-1,28,30,29,-1,32,33,34,-1,34,33,35,-1,36,37,32,-1,32,37,33,-1,38,39,35,-1,35,39,34,-1,39,38,36,-1,36,38,37,-1,
        ]
    }
}
Shape{
    appearance Appearance {
        material  Material 	{
            diffuseColor 0.7529411764705882 0.7529411764705882 0.7529411764705882
            specularColor 0.3764705882352941 0.3764705882352941 0.3764705882352941
            ambientIntensity 0.7529
            transparency 0.0
            shininess 0.5
        }
    }
    geometry IndexedFaceSet {
        ccw TRUE
        solid FALSE
        coord DEF co Coordinate {
            point [
                -3.8583 1.9685 4.0551, -3.8583 1.9685 0.0, -3.8976 1.958 0.0, -3.8976 1.958 4.0551, -3.9265 1.9291 0.0, -3.9265 1.9291 4.0551, -3.937 1.8898 0.0, -3.937 1.8898 4.0551, -3.8583 1.8898 4.1339, 3.8583 1.8898 4.1339, 3.8583 1.9291 4.1233, -3.8583 1.9291 4.1233, 3.8583 1.958 4.0945, -3.8583 1.958 4.0945, 3.8583 1.9685 4.0551, 3.931 1.9199 4.0551, 3.937 1.8898 4.0551, 3.937 1.8898 0.0, 3.9253 1.9284 4.0551, 3.9265 1.9291 0.0, 3.9139 1.9454 4.0551, 3.8976 1.958 0.0, 3.8969 1.9568 4.0551, 3.8884 1.9625 4.0551, 3.8583 1.9685 0.0, -3.9265 1.8898 4.0945, -3.9173 1.9239 4.0945, -3.878 1.9239 4.1233, -3.8924 1.9094 4.1233, -3.8924 1.9488 4.0945, -3.8976 1.8898 4.1233, 3.8733 1.9261 4.1233, 3.8976 1.8898 4.1233, 3.8946 1.9048 4.1233, 3.8844 1.9528 4.0945, 3.8861 1.9176 4.1233, 3.9065 1.938 4.0945, 3.9213 1.9159 4.0945, 3.9265 1.8898 4.0945, -3.937 -1.8898 4.0551, -3.937 -1.8898 0.0, -3.931 -1.9199 0.0, -3.9139 -1.9454 0.0, -3.9265 -1.9291 4.0551, -3.9291 -1.9194 4.0551, -3.8879 -1.9606 4.0551, -3.8976 -1.958 4.0551, -3.912 -1.9435 4.0551, -3.8884 -1.9625 0.0, -3.8583 -1.9685 0.0, -3.8583 -1.9685 4.0551, -3.8583 -1.8898 4.1339, -3.8976 -1.8898 4.1233, -3.9265 -1.8898 4.0945, 3.8583 -1.8898 4.1339, 3.8976 -1.8898 4.1233, 3.9265 -1.8898 4.0945, 3.937 -1.8898 4.0551, 3.8583 -1.9685 4.0551, 3.8583 -1.9685 0.0, 3.8884 -1.9625 0.0, 3.8884 -1.9625 4.0551, 3.9139 -1.9454 0.0, 3.9139 -1.9454 4.0551, 3.931 -1.9199 0.0, 3.931 -1.9199 4.0551, 3.937 -1.8898 0.0, -3.9173 -1.9239 4.0945, -3.8924 -1.9488 4.0945, -3.8583 -1.958 4.0945, -3.878 -1.9239 4.1233, -3.8583 -1.9291 4.1233, -3.8924 -1.9094 4.1233, 3.8946 -1.9048 4.1233, 3.8733 -1.9261 4.1233, 3.8861 -1.9176 4.1233, 3.8583 -1.9291 4.1233, 3.9213 -1.9159 4.0945, 3.9065 -1.938 4.0945, 3.8844 -1.9528 4.0945, 3.8583 -1.958 4.0945, -3.0615 -1.4983 4.0945, -3.0615 -1.4983 4.1339, -3.0876 -1.4008 4.0945, -3.0876 -1.4008 4.1339, -3.1589 -1.3295 4.0945, -3.1589 -1.3295 4.1339, -3.2564 -1.3034 4.0945, -3.2564 -1.3034 4.1339, -3.3538 -1.3295 4.0945, -3.3538 -1.3295 4.1339, -3.4252 -1.4008 4.0945, -3.4252 -1.4008 4.1339, -3.4513 -1.4983 4.0945, -3.4513 -1.4983 4.1339, -3.4252 -1.5957 4.0945, -3.4252 -1.5957 4.1339, -3.3538 -1.667 4.0945, -3.3538 -1.667 4.1339, -3.2564 -1.6932 4.0945, -3.2564 -1.6932 4.1339, -3.1589 -1.667 4.0945, -3.1589 -1.667 4.1339, -3.0876 -1.5957 4.0945, -3.0876 -1.5957 4.1339, -3.2564 -1.4983 4.0945
            ]
        }
        coordIndex [
            0,1,2,-1,0,2,3,-1,3,2,4,-1,3,4,5,-1,5,4,6,-1,5,6,7,-1,8,9,10,-1,8,10,11,-1,11,10,12,-1,11,12,13,-1,13,12,14,-1,13,14,0,-1,15,16,17,-1,15,17,18,-1,18,17,19,-1,18,19,20,-1,20,19,21,-1,20,21,22,-1,22,21,23,-1,23,21,24,-1,23,24,14,-1,7,25,26,-1,8,11,27,-1,25,28,26,-1,26,28,27,-1,26,27,29,-1,29,27,11,-1,29,11,13,-1,7,26,5,-1,5,26,29,-1,5,29,3,-1,3,29,13,-1,3,13,0,-1,28,8,27,-1,25,30,28,-1,28,30,8,-1,12,10,31,-1,9,32,33,-1,31,10,9,-1,34,35,36,-1,36,35,33,-1,36,33,37,-1,37,33,32,-1,37,32,38,-1,34,23,14,-1,23,34,22,-1,22,34,36,-1,22,36,20,-1,20,36,18,-1,18,36,37,-1,18,37,15,-1,15,37,38,-1,15,38,16,-1,35,9,33,-1,14,12,34,-1,34,12,31,-1,34,31,35,-1,35,31,9,-1,39,40,41,-1,42,43,41,-1,41,43,44,-1,41,44,39,-1,45,46,42,-1,42,46,47,-1,42,47,43,-1,42,48,45,-1,45,48,49,-1,45,49,50,-1,51,8,30,-1,51,30,52,-1,52,30,25,-1,52,25,53,-1,53,25,7,-1,53,7,39,-1,9,54,55,-1,9,55,32,-1,32,55,56,-1,32,56,38,-1,38,56,57,-1,38,57,16,-1,58,59,60,-1,58,60,61,-1,61,60,62,-1,61,62,63,-1,63,62,64,-1,63,64,65,-1,65,64,66,-1,65,66,57,-1,44,43,67,-1,47,46,68,-1,45,50,69,-1,46,45,68,-1,68,45,69,-1,68,69,70,-1,70,69,71,-1,70,71,51,-1,43,47,67,-1,67,47,68,-1,67,68,72,-1,72,68,70,-1,72,70,51,-1,39,44,53,-1,53,44,67,-1,53,67,52,-1,52,67,72,-1,52,72,51,-1,56,55,73,-1,54,74,75,-1,76,74,54,-1,73,55,54,-1,77,75,78,-1,78,75,74,-1,78,74,79,-1,79,74,76,-1,79,76,80,-1,57,77,65,-1,65,77,78,-1,65,78,63,-1,63,78,79,-1,63,79,61,-1,61,79,80,-1,61,80,58,-1,57,56,77,-1,77,56,73,-1,77,73,75,-1,75,73,54,-1,54,51,71,-1,54,71,76,-1,76,71,69,-1,76,69,80,-1,80,69,50,-1,80,50,58,-1,81,82,83,-1,83,82,84,-1,83,84,85,-1,85,84,86,-1,85,86,87,-1,87,86,88,-1,87,88,89,-1,89,88,90,-1,89,90,91,-1,91,90,92,-1,91,92,93,-1,93,92,94,-1,93,94,95,-1,95,94,96,-1,95,96,97,-1,97,96,98,-1,97,98,99,-1,99,98,100,-1,99,100,101,-1,101,100,102,-1,101,102,103,-1,103,102,104,-1,103,104,81,-1,81,104,82,-1,101,103,105,-1,105,103,81,-1,105,81,83,-1,95,97,105,-1,105,97,99,-1,105,99,101,-1,89,91,105,-1,105,91,93,-1,105,93,95,-1,83,85,105,-1,105,85,87,-1,105,87,89,-1,
        ]
    }
}