%TF.GenerationSoftware,KiCad,Pcbnew,10.0.1*%
%TF.CreationDate,2026-08-14T19:47:18+02:00*%
%TF.ProjectId,MMS3_hat_relay,4d4d5333-5f68-4617-945f-72656c61792e,1.2*%
%TF.SameCoordinates,Original*%
%TF.FileFunction,Profile,NP*%
%FSLAX46Y46*%
G04 Gerber Fmt 4.6, Leading zero omitted, Abs format (unit mm)*
G04 Created by KiCad (PCBNEW 10.0.1) date 2026-08-14 19:47:18*
%MOMM*%
%LPD*%
G01*
G04 APERTURE LIST*
%TA.AperFunction,Profile*%
%ADD10C,0.150000*%
%TD*%
%TA.AperFunction,Profile*%
%ADD11C,0.050000*%
%TD*%
G04 APERTURE END LIST*
D10*
X78100000Y-88500000D02*
X178100000Y-88500000D01*
X178100000Y-138500000D01*
X78100000Y-138500000D01*
X78100000Y-88500000D01*
D11*
X83650000Y-111600000D02*
X94750000Y-111600000D01*
X83650000Y-112350000D02*
G75*
G02*
X83650000Y-111600000I0J375000D01*
G01*
X83650000Y-112350000D02*
X94750000Y-112350000D01*
X86200000Y-122600000D02*
X91100000Y-122600000D01*
X86200000Y-123300000D02*
G75*
G02*
X86200000Y-122600000I0J350000D01*
G01*
X86200000Y-123300000D02*
X90800000Y-123300000D01*
X90800000Y-123300000D02*
X90800000Y-134200000D01*
X91100000Y-122600000D02*
G75*
G02*
X91400000Y-122900000I0J-300000D01*
G01*
X91400000Y-122900000D02*
X91400000Y-134200000D01*
X91400000Y-134200132D02*
G75*
G02*
X90800000Y-134200000I-300000J132D01*
G01*
X94600000Y-118000000D02*
X94600000Y-126300000D01*
X94600000Y-118000000D02*
G75*
G02*
X95200000Y-118000000I300000J0D01*
G01*
X94750000Y-111600000D02*
G75*
G02*
X94750000Y-112350000I0J-375000D01*
G01*
X95000000Y-127200000D02*
X94600000Y-126300000D01*
X95000000Y-127200000D02*
X95000000Y-134200000D01*
X95200000Y-118000000D02*
X95200000Y-126300000D01*
X95600000Y-127200000D02*
X95200000Y-126300000D01*
X95600000Y-127200000D02*
X95600000Y-134200000D01*
X95600000Y-134200000D02*
G75*
G02*
X95000000Y-134200000I-300000J0D01*
G01*
X100907508Y-111595075D02*
X112007508Y-111595075D01*
X100907508Y-112345075D02*
G75*
G02*
X100907508Y-111595125I-8J374975D01*
G01*
X100907508Y-112345075D02*
X112007508Y-112345075D01*
X103457508Y-122595075D02*
X108357508Y-122595075D01*
X103457508Y-123200000D02*
X108300000Y-123200000D01*
X103461146Y-123205945D02*
G75*
G02*
X103457508Y-122595033I-3646J305445D01*
G01*
X108300000Y-123200000D02*
X108300000Y-134195075D01*
X108357508Y-122595075D02*
G75*
G02*
X108657525Y-122895075I-8J-300025D01*
G01*
X108657508Y-122895075D02*
X108657508Y-134195075D01*
X108657508Y-134195207D02*
G75*
G02*
X108301984Y-134189368I-177808J107D01*
G01*
X111857508Y-117995075D02*
X111857508Y-126295075D01*
X111857508Y-117995075D02*
G75*
G02*
X112457508Y-117995075I300000J0D01*
G01*
X112007508Y-111595075D02*
G75*
G02*
X112007508Y-112345125I-8J-375025D01*
G01*
X112257508Y-127195075D02*
X111857508Y-126295075D01*
X112257508Y-127195075D02*
X112257508Y-134195075D01*
X112457508Y-117995075D02*
X112457508Y-126295075D01*
X112857508Y-127195075D02*
X112457508Y-126295075D01*
X112857508Y-127195075D02*
X112857508Y-134195075D01*
X112857508Y-134195075D02*
G75*
G02*
X112257508Y-134195075I-300000J0D01*
G01*
X118147030Y-111599091D02*
X129247030Y-111599091D01*
X118147030Y-112349091D02*
G75*
G02*
X118147030Y-111599109I-30J374991D01*
G01*
X118147030Y-112349091D02*
X129247030Y-112349091D01*
X120697030Y-122599091D02*
X125597030Y-122599091D01*
X120697030Y-123299091D02*
G75*
G02*
X120697030Y-122599109I-30J349991D01*
G01*
X120697030Y-123299091D02*
X125297030Y-123299091D01*
X125297030Y-123299091D02*
X125297030Y-134199091D01*
X125597030Y-122599091D02*
G75*
G02*
X125897009Y-122899091I-30J-300009D01*
G01*
X125897030Y-122899091D02*
X125897030Y-134199091D01*
X125897030Y-134199223D02*
G75*
G02*
X125296970Y-134199091I-300030J123D01*
G01*
X129097030Y-117999091D02*
X129097030Y-126299091D01*
X129097030Y-117999091D02*
G75*
G02*
X129697030Y-117999091I300000J0D01*
G01*
X129247030Y-111599091D02*
G75*
G02*
X129247030Y-112349109I-30J-375009D01*
G01*
X129497030Y-127199091D02*
X129097030Y-126299091D01*
X129497030Y-127199091D02*
X129497030Y-134199091D01*
X129697030Y-117999091D02*
X129697030Y-126299091D01*
X130097030Y-127199091D02*
X129697030Y-126299091D01*
X130097030Y-127199091D02*
X130097030Y-134199091D01*
X130097030Y-134199091D02*
G75*
G02*
X129497030Y-134199091I-300000J0D01*
G01*
X135402961Y-111599183D02*
X146502961Y-111599183D01*
X135402961Y-112349183D02*
G75*
G02*
X135402961Y-111599217I39J374983D01*
G01*
X135402961Y-112349183D02*
X146502961Y-112349183D01*
X137950469Y-123200331D02*
G75*
G02*
X137952961Y-122500060I2531J350131D01*
G01*
X137952961Y-122500000D02*
X142852961Y-122500000D01*
X137952961Y-123200000D02*
X142800000Y-123200000D01*
X142800000Y-123200000D02*
X142800000Y-134199183D01*
X142852961Y-122500000D02*
G75*
G02*
X143153000Y-122800000I39J-300000D01*
G01*
X143152961Y-122800000D02*
X143152961Y-134199183D01*
X143152961Y-134199315D02*
G75*
G02*
X142800039Y-134199183I-176461J115D01*
G01*
X146352961Y-117999183D02*
X146352961Y-126299183D01*
X146352961Y-117999183D02*
G75*
G02*
X146952961Y-117999183I300000J0D01*
G01*
X146502961Y-111599183D02*
G75*
G02*
X146502961Y-112349217I39J-375017D01*
G01*
X146752961Y-127199183D02*
X146352961Y-126299183D01*
X146752961Y-127199183D02*
X146752961Y-134199183D01*
X146952961Y-117999183D02*
X146952961Y-126299183D01*
X147352961Y-127199183D02*
X146952961Y-126299183D01*
X147352961Y-127199183D02*
X147352961Y-134199183D01*
X147352961Y-134199183D02*
G75*
G02*
X146752961Y-134199183I-300000J0D01*
G01*
X152642374Y-111603108D02*
X163742374Y-111603108D01*
X152642374Y-112353108D02*
G75*
G02*
X152642374Y-111603092I26J375008D01*
G01*
X152642374Y-112353108D02*
X163742374Y-112353108D01*
X155192374Y-122603108D02*
X160092374Y-122603108D01*
X155192374Y-123303108D02*
G75*
G02*
X155192374Y-122603092I26J350008D01*
G01*
X155192374Y-123303108D02*
X159792374Y-123303108D01*
X159792374Y-123303108D02*
X159792374Y-134203108D01*
X160092374Y-122603108D02*
G75*
G02*
X160392392Y-122903108I26J-299992D01*
G01*
X160392374Y-122903108D02*
X160392374Y-134203108D01*
X160392374Y-134203240D02*
G75*
G02*
X159792426Y-134203108I-299974J140D01*
G01*
X163592374Y-118003108D02*
X163592374Y-126303108D01*
X163592374Y-118003108D02*
G75*
G02*
X164192374Y-118003108I300000J0D01*
G01*
X163742374Y-111603108D02*
G75*
G02*
X163742374Y-112353092I26J-374992D01*
G01*
X163992374Y-127203108D02*
X163592374Y-126303108D01*
X163992374Y-127203108D02*
X163992374Y-134203108D01*
X164192374Y-118003108D02*
X164192374Y-126303108D01*
X164592374Y-127203108D02*
X164192374Y-126303108D01*
X164592374Y-127203108D02*
X164592374Y-134203108D01*
X164592374Y-134203108D02*
G75*
G02*
X163992374Y-134203108I-300000J0D01*
G01*
M02*
