%TF.GenerationSoftware,KiCad,Pcbnew,10.0.1*%
%TF.CreationDate,2026-05-13T09:28:10+02:00*%
%TF.ProjectId,MMS3_hat_relay,4d4d5333-5f68-4617-945f-72656c61792e,R0*%
%TF.SameCoordinates,Original*%
%TF.FileFunction,Legend,Bot*%
%TF.FilePolarity,Positive*%
%FSLAX46Y46*%
G04 Gerber Fmt 4.6, Leading zero omitted, Abs format (unit mm)*
G04 Created by KiCad (PCBNEW 10.0.1) date 2026-05-13 09:28:10*
%MOMM*%
%LPD*%
G01*
G04 APERTURE LIST*
G04 Aperture macros list*
%AMRoundRect*
0 Rectangle with rounded corners*
0 $1 Rounding radius*
0 $2 $3 $4 $5 $6 $7 $8 $9 X,Y pos of 4 corners*
0 Add a 4 corners polygon primitive as box body*
4,1,4,$2,$3,$4,$5,$6,$7,$8,$9,$2,$3,0*
0 Add four circle primitives for the rounded corners*
1,1,$1+$1,$2,$3*
1,1,$1+$1,$4,$5*
1,1,$1+$1,$6,$7*
1,1,$1+$1,$8,$9*
0 Add four rect primitives between the rounded corners*
20,1,$1+$1,$2,$3,$4,$5,0*
20,1,$1+$1,$4,$5,$6,$7,0*
20,1,$1+$1,$6,$7,$8,$9,0*
20,1,$1+$1,$8,$9,$2,$3,0*%
G04 Aperture macros list end*
%ADD10C,0.100000*%
%ADD11C,0.200000*%
%ADD12C,0.150000*%
%ADD13C,0.220000*%
%ADD14C,0.300000*%
%ADD15C,0.400000*%
%ADD16C,0.120000*%
%ADD17C,0.000000*%
%ADD18C,2.794000*%
%ADD19RoundRect,0.250000X-0.600000X-0.725000X0.600000X-0.725000X0.600000X0.725000X-0.600000X0.725000X0*%
%ADD20O,1.700000X1.950000*%
%ADD21C,3.100000*%
%ADD22C,1.296000*%
%ADD23R,1.700000X1.700000*%
%ADD24C,1.700000*%
%ADD25C,2.700000*%
%ADD26R,1.000000X3.150000*%
G04 APERTURE END LIST*
D10*
X79800000Y-127600000D02*
X81600000Y-127600000D01*
X79800000Y-129400000D02*
X79800000Y-127600000D01*
X82400000Y-126800000D02*
X82400000Y-125400000D01*
X82800000Y-127600000D02*
X82400000Y-126800000D01*
X83000000Y-127600000D02*
X84800000Y-127600000D01*
X84800000Y-127600000D02*
X84800000Y-129400000D01*
X92000000Y-129000000D02*
X93800000Y-129000000D01*
X92000000Y-130800000D02*
X92000000Y-129000000D01*
X94600000Y-128200000D02*
X94600000Y-126800000D01*
X95000000Y-129000000D02*
X94600000Y-128200000D01*
X95200000Y-129000000D02*
X97000000Y-129000000D01*
X97000000Y-129000000D02*
X97000000Y-130800000D01*
X100850000Y-120400000D02*
X124350000Y-120400000D01*
X109600000Y-129400000D02*
X111400000Y-129400000D01*
X109600000Y-131200000D02*
X109600000Y-129400000D01*
X112200000Y-128600000D02*
X112200000Y-127200000D01*
X112600000Y-129400000D02*
X112200000Y-128600000D01*
X112800000Y-129400000D02*
X114600000Y-129400000D01*
X114600000Y-129400000D02*
X114600000Y-131200000D01*
X121300000Y-106700000D02*
G75*
G02*
X111300000Y-106700000I-5000000J0D01*
G01*
X111300000Y-106700000D02*
G75*
G02*
X121300000Y-106700000I5000000J0D01*
G01*
X122100000Y-104500000D02*
X137700000Y-104500000D01*
X137700000Y-111500000D01*
X122100000Y-111500000D01*
X122100000Y-104500000D01*
X122150000Y-102050000D02*
X123250000Y-102050000D01*
X122150000Y-103500000D02*
X123250000Y-103500000D01*
X122150000Y-104000000D02*
X122150000Y-101400000D01*
X123297214Y-102800000D02*
G75*
G02*
X122402786Y-102800000I-447214J0D01*
G01*
X122402786Y-102800000D02*
G75*
G02*
X123297214Y-102800000I447214J0D01*
G01*
X123250000Y-102050000D02*
X123550000Y-102350000D01*
X123250000Y-103500000D02*
X123550000Y-103200000D01*
X123550000Y-102400000D02*
X123550000Y-104000000D01*
X123550000Y-104000000D02*
X122150000Y-104000000D01*
X123550000Y-104000000D02*
X153600000Y-104000000D01*
X123950000Y-101400000D02*
X122150000Y-101400000D01*
X123950000Y-101400000D02*
X123950000Y-102400000D01*
X123950000Y-102400000D02*
X123550000Y-102400000D01*
X127200000Y-129400000D02*
X129000000Y-129400000D01*
X127200000Y-131200000D02*
X127200000Y-129400000D01*
X129800000Y-128600000D02*
X129800000Y-127200000D01*
X129950000Y-92375000D02*
X129950000Y-91925000D01*
X130200000Y-129400000D02*
X129800000Y-128600000D01*
X130400000Y-129400000D02*
X132200000Y-129400000D01*
X132200000Y-129400000D02*
X132200000Y-131200000D01*
X138100000Y-104500000D02*
X153600000Y-111500000D01*
X138100000Y-104500000D02*
X153600000Y-104500000D01*
X153600000Y-111500000D01*
X138100000Y-111500000D01*
X138100000Y-104500000D01*
X139150000Y-92375000D02*
X139150000Y-91925000D01*
X139850000Y-92375000D02*
X139850000Y-91925000D01*
X144600000Y-129400000D02*
X146400000Y-129400000D01*
X144600000Y-131200000D02*
X144600000Y-129400000D01*
X147200000Y-128600000D02*
X147200000Y-127200000D01*
X147600000Y-129400000D02*
X147200000Y-128600000D01*
X147800000Y-129400000D02*
X149600000Y-129400000D01*
X149050000Y-92375000D02*
X149050000Y-91925000D01*
X149600000Y-129400000D02*
X149600000Y-131200000D01*
X151800000Y-101400000D02*
X123950000Y-101400000D01*
X151800000Y-101400000D02*
X151800000Y-102400000D01*
X151800000Y-101400000D02*
X153600000Y-101400000D01*
X151800000Y-102400000D02*
X152200000Y-102400000D01*
X152200000Y-102400000D02*
X152200000Y-104000000D01*
X152500000Y-102050000D02*
X152200000Y-102350000D01*
X153347214Y-102800000D02*
G75*
G02*
X152452786Y-102800000I-447214J0D01*
G01*
X152452786Y-102800000D02*
G75*
G02*
X153347214Y-102800000I447214J0D01*
G01*
X153600000Y-102050000D02*
X152500000Y-102050000D01*
X153600000Y-104000000D02*
X153600000Y-101400000D01*
X155300000Y-117600000D02*
X159400000Y-117600000D01*
D11*
X155394951Y-116920139D02*
X155407503Y-113709913D01*
X156300162Y-113354510D02*
G75*
G02*
X157403863Y-113321440I578338J-867490D01*
G01*
X156310684Y-113354323D02*
G75*
G02*
X155407503Y-113709907I-879984J910323D01*
G01*
X156330085Y-116564142D02*
G75*
G02*
X157433818Y-116531018I578415J-868058D01*
G01*
X156341646Y-116565030D02*
G75*
G02*
X155394953Y-116919506I-880946J911330D01*
G01*
X157418643Y-116530292D02*
X157435533Y-113342265D01*
X157418643Y-116530292D02*
G75*
G02*
X158522350Y-116563372I525357J-900608D01*
G01*
X157435533Y-113342265D02*
G75*
G02*
X158511834Y-113368767I516667J-885735D01*
G01*
X159399843Y-116911291D02*
G75*
G02*
X158517157Y-116557672I-8043J1258391D01*
G01*
X159399843Y-116911291D02*
X159410469Y-113727828D01*
D10*
X159400000Y-117600000D02*
X158950000Y-118050000D01*
D11*
X159410469Y-113727828D02*
G75*
G02*
X158511837Y-113368761I-10469J1277828D01*
G01*
D10*
X162200000Y-129400000D02*
X164000000Y-129400000D01*
X162200000Y-131200000D02*
X162200000Y-129400000D01*
X164800000Y-128600000D02*
X164800000Y-127200000D01*
X165200000Y-129400000D02*
X164800000Y-128600000D01*
X165400000Y-129400000D02*
X167200000Y-129400000D01*
X167200000Y-129400000D02*
X167200000Y-131200000D01*
X137077068Y-105107507D02*
X136734211Y-105107507D01*
X136905639Y-105707507D02*
X136905639Y-105107507D01*
X136534210Y-105707507D02*
X136534210Y-105107507D01*
X136277068Y-105707507D02*
X136277068Y-105393221D01*
X136277068Y-105393221D02*
X136305639Y-105336078D01*
X136305639Y-105336078D02*
X136362782Y-105307507D01*
X136362782Y-105307507D02*
X136448496Y-105307507D01*
X136448496Y-105307507D02*
X136505639Y-105336078D01*
X136505639Y-105336078D02*
X136534210Y-105364650D01*
X135991353Y-105707507D02*
X135991353Y-105307507D01*
X135991353Y-105107507D02*
X136019925Y-105136078D01*
X136019925Y-105136078D02*
X135991353Y-105164650D01*
X135991353Y-105164650D02*
X135962782Y-105136078D01*
X135962782Y-105136078D02*
X135991353Y-105107507D01*
X135991353Y-105107507D02*
X135991353Y-105164650D01*
X135734211Y-105678936D02*
X135677068Y-105707507D01*
X135677068Y-105707507D02*
X135562782Y-105707507D01*
X135562782Y-105707507D02*
X135505639Y-105678936D01*
X135505639Y-105678936D02*
X135477068Y-105621793D01*
X135477068Y-105621793D02*
X135477068Y-105593221D01*
X135477068Y-105593221D02*
X135505639Y-105536078D01*
X135505639Y-105536078D02*
X135562782Y-105507507D01*
X135562782Y-105507507D02*
X135648497Y-105507507D01*
X135648497Y-105507507D02*
X135705639Y-105478936D01*
X135705639Y-105478936D02*
X135734211Y-105421793D01*
X135734211Y-105421793D02*
X135734211Y-105393221D01*
X135734211Y-105393221D02*
X135705639Y-105336078D01*
X135705639Y-105336078D02*
X135648497Y-105307507D01*
X135648497Y-105307507D02*
X135562782Y-105307507D01*
X135562782Y-105307507D02*
X135505639Y-105336078D01*
X134762782Y-105707507D02*
X134762782Y-105307507D01*
X134762782Y-105107507D02*
X134791354Y-105136078D01*
X134791354Y-105136078D02*
X134762782Y-105164650D01*
X134762782Y-105164650D02*
X134734211Y-105136078D01*
X134734211Y-105136078D02*
X134762782Y-105107507D01*
X134762782Y-105107507D02*
X134762782Y-105164650D01*
X134505640Y-105678936D02*
X134448497Y-105707507D01*
X134448497Y-105707507D02*
X134334211Y-105707507D01*
X134334211Y-105707507D02*
X134277068Y-105678936D01*
X134277068Y-105678936D02*
X134248497Y-105621793D01*
X134248497Y-105621793D02*
X134248497Y-105593221D01*
X134248497Y-105593221D02*
X134277068Y-105536078D01*
X134277068Y-105536078D02*
X134334211Y-105507507D01*
X134334211Y-105507507D02*
X134419926Y-105507507D01*
X134419926Y-105507507D02*
X134477068Y-105478936D01*
X134477068Y-105478936D02*
X134505640Y-105421793D01*
X134505640Y-105421793D02*
X134505640Y-105393221D01*
X134505640Y-105393221D02*
X134477068Y-105336078D01*
X134477068Y-105336078D02*
X134419926Y-105307507D01*
X134419926Y-105307507D02*
X134334211Y-105307507D01*
X134334211Y-105307507D02*
X134277068Y-105336078D01*
X133534211Y-105307507D02*
X133534211Y-105907507D01*
X133534211Y-105336078D02*
X133477069Y-105307507D01*
X133477069Y-105307507D02*
X133362783Y-105307507D01*
X133362783Y-105307507D02*
X133305640Y-105336078D01*
X133305640Y-105336078D02*
X133277069Y-105364650D01*
X133277069Y-105364650D02*
X133248497Y-105421793D01*
X133248497Y-105421793D02*
X133248497Y-105593221D01*
X133248497Y-105593221D02*
X133277069Y-105650364D01*
X133277069Y-105650364D02*
X133305640Y-105678936D01*
X133305640Y-105678936D02*
X133362783Y-105707507D01*
X133362783Y-105707507D02*
X133477069Y-105707507D01*
X133477069Y-105707507D02*
X133534211Y-105678936D01*
X132991354Y-105707507D02*
X132991354Y-105307507D01*
X132991354Y-105421793D02*
X132962783Y-105364650D01*
X132962783Y-105364650D02*
X132934212Y-105336078D01*
X132934212Y-105336078D02*
X132877069Y-105307507D01*
X132877069Y-105307507D02*
X132819926Y-105307507D01*
X132534211Y-105707507D02*
X132591354Y-105678936D01*
X132591354Y-105678936D02*
X132619925Y-105650364D01*
X132619925Y-105650364D02*
X132648497Y-105593221D01*
X132648497Y-105593221D02*
X132648497Y-105421793D01*
X132648497Y-105421793D02*
X132619925Y-105364650D01*
X132619925Y-105364650D02*
X132591354Y-105336078D01*
X132591354Y-105336078D02*
X132534211Y-105307507D01*
X132534211Y-105307507D02*
X132448497Y-105307507D01*
X132448497Y-105307507D02*
X132391354Y-105336078D01*
X132391354Y-105336078D02*
X132362783Y-105364650D01*
X132362783Y-105364650D02*
X132334211Y-105421793D01*
X132334211Y-105421793D02*
X132334211Y-105593221D01*
X132334211Y-105593221D02*
X132362783Y-105650364D01*
X132362783Y-105650364D02*
X132391354Y-105678936D01*
X132391354Y-105678936D02*
X132448497Y-105707507D01*
X132448497Y-105707507D02*
X132534211Y-105707507D01*
X132162783Y-105307507D02*
X131934211Y-105307507D01*
X132077068Y-105107507D02*
X132077068Y-105621793D01*
X132077068Y-105621793D02*
X132048497Y-105678936D01*
X132048497Y-105678936D02*
X131991354Y-105707507D01*
X131991354Y-105707507D02*
X131934211Y-105707507D01*
X131648497Y-105707507D02*
X131705640Y-105678936D01*
X131705640Y-105678936D02*
X131734211Y-105650364D01*
X131734211Y-105650364D02*
X131762783Y-105593221D01*
X131762783Y-105593221D02*
X131762783Y-105421793D01*
X131762783Y-105421793D02*
X131734211Y-105364650D01*
X131734211Y-105364650D02*
X131705640Y-105336078D01*
X131705640Y-105336078D02*
X131648497Y-105307507D01*
X131648497Y-105307507D02*
X131562783Y-105307507D01*
X131562783Y-105307507D02*
X131505640Y-105336078D01*
X131505640Y-105336078D02*
X131477069Y-105364650D01*
X131477069Y-105364650D02*
X131448497Y-105421793D01*
X131448497Y-105421793D02*
X131448497Y-105593221D01*
X131448497Y-105593221D02*
X131477069Y-105650364D01*
X131477069Y-105650364D02*
X131505640Y-105678936D01*
X131505640Y-105678936D02*
X131562783Y-105707507D01*
X131562783Y-105707507D02*
X131648497Y-105707507D01*
X131277069Y-105307507D02*
X131048497Y-105307507D01*
X131191354Y-105107507D02*
X131191354Y-105621793D01*
X131191354Y-105621793D02*
X131162783Y-105678936D01*
X131162783Y-105678936D02*
X131105640Y-105707507D01*
X131105640Y-105707507D02*
X131048497Y-105707507D01*
X130905640Y-105307507D02*
X130762783Y-105707507D01*
X130619926Y-105307507D02*
X130762783Y-105707507D01*
X130762783Y-105707507D02*
X130819926Y-105850364D01*
X130819926Y-105850364D02*
X130848497Y-105878936D01*
X130848497Y-105878936D02*
X130905640Y-105907507D01*
X130391354Y-105307507D02*
X130391354Y-105907507D01*
X130391354Y-105336078D02*
X130334212Y-105307507D01*
X130334212Y-105307507D02*
X130219926Y-105307507D01*
X130219926Y-105307507D02*
X130162783Y-105336078D01*
X130162783Y-105336078D02*
X130134212Y-105364650D01*
X130134212Y-105364650D02*
X130105640Y-105421793D01*
X130105640Y-105421793D02*
X130105640Y-105593221D01*
X130105640Y-105593221D02*
X130134212Y-105650364D01*
X130134212Y-105650364D02*
X130162783Y-105678936D01*
X130162783Y-105678936D02*
X130219926Y-105707507D01*
X130219926Y-105707507D02*
X130334212Y-105707507D01*
X130334212Y-105707507D02*
X130391354Y-105678936D01*
X129619926Y-105678936D02*
X129677069Y-105707507D01*
X129677069Y-105707507D02*
X129791355Y-105707507D01*
X129791355Y-105707507D02*
X129848497Y-105678936D01*
X129848497Y-105678936D02*
X129877069Y-105621793D01*
X129877069Y-105621793D02*
X129877069Y-105393221D01*
X129877069Y-105393221D02*
X129848497Y-105336078D01*
X129848497Y-105336078D02*
X129791355Y-105307507D01*
X129791355Y-105307507D02*
X129677069Y-105307507D01*
X129677069Y-105307507D02*
X129619926Y-105336078D01*
X129619926Y-105336078D02*
X129591355Y-105393221D01*
X129591355Y-105393221D02*
X129591355Y-105450364D01*
X129591355Y-105450364D02*
X129877069Y-105507507D01*
X128619926Y-105707507D02*
X128619926Y-105107507D01*
X128619926Y-105678936D02*
X128677068Y-105707507D01*
X128677068Y-105707507D02*
X128791354Y-105707507D01*
X128791354Y-105707507D02*
X128848497Y-105678936D01*
X128848497Y-105678936D02*
X128877068Y-105650364D01*
X128877068Y-105650364D02*
X128905640Y-105593221D01*
X128905640Y-105593221D02*
X128905640Y-105421793D01*
X128905640Y-105421793D02*
X128877068Y-105364650D01*
X128877068Y-105364650D02*
X128848497Y-105336078D01*
X128848497Y-105336078D02*
X128791354Y-105307507D01*
X128791354Y-105307507D02*
X128677068Y-105307507D01*
X128677068Y-105307507D02*
X128619926Y-105336078D01*
X128105640Y-105678936D02*
X128162783Y-105707507D01*
X128162783Y-105707507D02*
X128277069Y-105707507D01*
X128277069Y-105707507D02*
X128334211Y-105678936D01*
X128334211Y-105678936D02*
X128362783Y-105621793D01*
X128362783Y-105621793D02*
X128362783Y-105393221D01*
X128362783Y-105393221D02*
X128334211Y-105336078D01*
X128334211Y-105336078D02*
X128277069Y-105307507D01*
X128277069Y-105307507D02*
X128162783Y-105307507D01*
X128162783Y-105307507D02*
X128105640Y-105336078D01*
X128105640Y-105336078D02*
X128077069Y-105393221D01*
X128077069Y-105393221D02*
X128077069Y-105450364D01*
X128077069Y-105450364D02*
X128362783Y-105507507D01*
X127877068Y-105307507D02*
X127734211Y-105707507D01*
X127734211Y-105707507D02*
X127591354Y-105307507D01*
X127362782Y-105707507D02*
X127362782Y-105307507D01*
X127362782Y-105107507D02*
X127391354Y-105136078D01*
X127391354Y-105136078D02*
X127362782Y-105164650D01*
X127362782Y-105164650D02*
X127334211Y-105136078D01*
X127334211Y-105136078D02*
X127362782Y-105107507D01*
X127362782Y-105107507D02*
X127362782Y-105164650D01*
X126819926Y-105678936D02*
X126877068Y-105707507D01*
X126877068Y-105707507D02*
X126991354Y-105707507D01*
X126991354Y-105707507D02*
X127048497Y-105678936D01*
X127048497Y-105678936D02*
X127077068Y-105650364D01*
X127077068Y-105650364D02*
X127105640Y-105593221D01*
X127105640Y-105593221D02*
X127105640Y-105421793D01*
X127105640Y-105421793D02*
X127077068Y-105364650D01*
X127077068Y-105364650D02*
X127048497Y-105336078D01*
X127048497Y-105336078D02*
X126991354Y-105307507D01*
X126991354Y-105307507D02*
X126877068Y-105307507D01*
X126877068Y-105307507D02*
X126819926Y-105336078D01*
X126334211Y-105678936D02*
X126391354Y-105707507D01*
X126391354Y-105707507D02*
X126505640Y-105707507D01*
X126505640Y-105707507D02*
X126562782Y-105678936D01*
X126562782Y-105678936D02*
X126591354Y-105621793D01*
X126591354Y-105621793D02*
X126591354Y-105393221D01*
X126591354Y-105393221D02*
X126562782Y-105336078D01*
X126562782Y-105336078D02*
X126505640Y-105307507D01*
X126505640Y-105307507D02*
X126391354Y-105307507D01*
X126391354Y-105307507D02*
X126334211Y-105336078D01*
X126334211Y-105336078D02*
X126305640Y-105393221D01*
X126305640Y-105393221D02*
X126305640Y-105450364D01*
X126305640Y-105450364D02*
X126591354Y-105507507D01*
X136991353Y-106673473D02*
X136991353Y-106073473D01*
X136791354Y-106273473D02*
X136562782Y-106273473D01*
X136705639Y-106073473D02*
X136705639Y-106587759D01*
X136705639Y-106587759D02*
X136677068Y-106644902D01*
X136677068Y-106644902D02*
X136619925Y-106673473D01*
X136619925Y-106673473D02*
X136562782Y-106673473D01*
X135905639Y-106673473D02*
X135905639Y-106273473D01*
X135905639Y-106073473D02*
X135934211Y-106102044D01*
X135934211Y-106102044D02*
X135905639Y-106130616D01*
X135905639Y-106130616D02*
X135877068Y-106102044D01*
X135877068Y-106102044D02*
X135905639Y-106073473D01*
X135905639Y-106073473D02*
X135905639Y-106130616D01*
X135648497Y-106644902D02*
X135591354Y-106673473D01*
X135591354Y-106673473D02*
X135477068Y-106673473D01*
X135477068Y-106673473D02*
X135419925Y-106644902D01*
X135419925Y-106644902D02*
X135391354Y-106587759D01*
X135391354Y-106587759D02*
X135391354Y-106559187D01*
X135391354Y-106559187D02*
X135419925Y-106502044D01*
X135419925Y-106502044D02*
X135477068Y-106473473D01*
X135477068Y-106473473D02*
X135562783Y-106473473D01*
X135562783Y-106473473D02*
X135619925Y-106444902D01*
X135619925Y-106444902D02*
X135648497Y-106387759D01*
X135648497Y-106387759D02*
X135648497Y-106359187D01*
X135648497Y-106359187D02*
X135619925Y-106302044D01*
X135619925Y-106302044D02*
X135562783Y-106273473D01*
X135562783Y-106273473D02*
X135477068Y-106273473D01*
X135477068Y-106273473D02*
X135419925Y-106302044D01*
X134677068Y-106273473D02*
X134677068Y-106673473D01*
X134677068Y-106330616D02*
X134648497Y-106302044D01*
X134648497Y-106302044D02*
X134591354Y-106273473D01*
X134591354Y-106273473D02*
X134505640Y-106273473D01*
X134505640Y-106273473D02*
X134448497Y-106302044D01*
X134448497Y-106302044D02*
X134419926Y-106359187D01*
X134419926Y-106359187D02*
X134419926Y-106673473D01*
X134048497Y-106673473D02*
X134105640Y-106644902D01*
X134105640Y-106644902D02*
X134134211Y-106616330D01*
X134134211Y-106616330D02*
X134162783Y-106559187D01*
X134162783Y-106559187D02*
X134162783Y-106387759D01*
X134162783Y-106387759D02*
X134134211Y-106330616D01*
X134134211Y-106330616D02*
X134105640Y-106302044D01*
X134105640Y-106302044D02*
X134048497Y-106273473D01*
X134048497Y-106273473D02*
X133962783Y-106273473D01*
X133962783Y-106273473D02*
X133905640Y-106302044D01*
X133905640Y-106302044D02*
X133877069Y-106330616D01*
X133877069Y-106330616D02*
X133848497Y-106387759D01*
X133848497Y-106387759D02*
X133848497Y-106559187D01*
X133848497Y-106559187D02*
X133877069Y-106616330D01*
X133877069Y-106616330D02*
X133905640Y-106644902D01*
X133905640Y-106644902D02*
X133962783Y-106673473D01*
X133962783Y-106673473D02*
X134048497Y-106673473D01*
X133677069Y-106273473D02*
X133448497Y-106273473D01*
X133591354Y-106073473D02*
X133591354Y-106587759D01*
X133591354Y-106587759D02*
X133562783Y-106644902D01*
X133562783Y-106644902D02*
X133505640Y-106673473D01*
X133505640Y-106673473D02*
X133448497Y-106673473D01*
X132534212Y-106644902D02*
X132591354Y-106673473D01*
X132591354Y-106673473D02*
X132705640Y-106673473D01*
X132705640Y-106673473D02*
X132762783Y-106644902D01*
X132762783Y-106644902D02*
X132791354Y-106616330D01*
X132791354Y-106616330D02*
X132819926Y-106559187D01*
X132819926Y-106559187D02*
X132819926Y-106387759D01*
X132819926Y-106387759D02*
X132791354Y-106330616D01*
X132791354Y-106330616D02*
X132762783Y-106302044D01*
X132762783Y-106302044D02*
X132705640Y-106273473D01*
X132705640Y-106273473D02*
X132591354Y-106273473D01*
X132591354Y-106273473D02*
X132534212Y-106302044D01*
X132048497Y-106644902D02*
X132105640Y-106673473D01*
X132105640Y-106673473D02*
X132219926Y-106673473D01*
X132219926Y-106673473D02*
X132277068Y-106644902D01*
X132277068Y-106644902D02*
X132305640Y-106587759D01*
X132305640Y-106587759D02*
X132305640Y-106359187D01*
X132305640Y-106359187D02*
X132277068Y-106302044D01*
X132277068Y-106302044D02*
X132219926Y-106273473D01*
X132219926Y-106273473D02*
X132105640Y-106273473D01*
X132105640Y-106273473D02*
X132048497Y-106302044D01*
X132048497Y-106302044D02*
X132019926Y-106359187D01*
X132019926Y-106359187D02*
X132019926Y-106416330D01*
X132019926Y-106416330D02*
X132305640Y-106473473D01*
X131762782Y-106673473D02*
X131762782Y-106273473D01*
X131762782Y-106387759D02*
X131734211Y-106330616D01*
X131734211Y-106330616D02*
X131705640Y-106302044D01*
X131705640Y-106302044D02*
X131648497Y-106273473D01*
X131648497Y-106273473D02*
X131591354Y-106273473D01*
X131477068Y-106273473D02*
X131248496Y-106273473D01*
X131391353Y-106073473D02*
X131391353Y-106587759D01*
X131391353Y-106587759D02*
X131362782Y-106644902D01*
X131362782Y-106644902D02*
X131305639Y-106673473D01*
X131305639Y-106673473D02*
X131248496Y-106673473D01*
X131048496Y-106673473D02*
X131048496Y-106273473D01*
X131048496Y-106073473D02*
X131077068Y-106102044D01*
X131077068Y-106102044D02*
X131048496Y-106130616D01*
X131048496Y-106130616D02*
X131019925Y-106102044D01*
X131019925Y-106102044D02*
X131048496Y-106073473D01*
X131048496Y-106073473D02*
X131048496Y-106130616D01*
X130848497Y-106273473D02*
X130619925Y-106273473D01*
X130762782Y-106673473D02*
X130762782Y-106159187D01*
X130762782Y-106159187D02*
X130734211Y-106102044D01*
X130734211Y-106102044D02*
X130677068Y-106073473D01*
X130677068Y-106073473D02*
X130619925Y-106073473D01*
X130419925Y-106673473D02*
X130419925Y-106273473D01*
X130419925Y-106073473D02*
X130448497Y-106102044D01*
X130448497Y-106102044D02*
X130419925Y-106130616D01*
X130419925Y-106130616D02*
X130391354Y-106102044D01*
X130391354Y-106102044D02*
X130419925Y-106073473D01*
X130419925Y-106073473D02*
X130419925Y-106130616D01*
X129905640Y-106644902D02*
X129962783Y-106673473D01*
X129962783Y-106673473D02*
X130077069Y-106673473D01*
X130077069Y-106673473D02*
X130134211Y-106644902D01*
X130134211Y-106644902D02*
X130162783Y-106587759D01*
X130162783Y-106587759D02*
X130162783Y-106359187D01*
X130162783Y-106359187D02*
X130134211Y-106302044D01*
X130134211Y-106302044D02*
X130077069Y-106273473D01*
X130077069Y-106273473D02*
X129962783Y-106273473D01*
X129962783Y-106273473D02*
X129905640Y-106302044D01*
X129905640Y-106302044D02*
X129877069Y-106359187D01*
X129877069Y-106359187D02*
X129877069Y-106416330D01*
X129877069Y-106416330D02*
X130162783Y-106473473D01*
X129362783Y-106673473D02*
X129362783Y-106073473D01*
X129362783Y-106644902D02*
X129419925Y-106673473D01*
X129419925Y-106673473D02*
X129534211Y-106673473D01*
X129534211Y-106673473D02*
X129591354Y-106644902D01*
X129591354Y-106644902D02*
X129619925Y-106616330D01*
X129619925Y-106616330D02*
X129648497Y-106559187D01*
X129648497Y-106559187D02*
X129648497Y-106387759D01*
X129648497Y-106387759D02*
X129619925Y-106330616D01*
X129619925Y-106330616D02*
X129591354Y-106302044D01*
X129591354Y-106302044D02*
X129534211Y-106273473D01*
X129534211Y-106273473D02*
X129419925Y-106273473D01*
X129419925Y-106273473D02*
X129362783Y-106302044D01*
X128362783Y-106673473D02*
X128362783Y-106359187D01*
X128362783Y-106359187D02*
X128391354Y-106302044D01*
X128391354Y-106302044D02*
X128448497Y-106273473D01*
X128448497Y-106273473D02*
X128562783Y-106273473D01*
X128562783Y-106273473D02*
X128619925Y-106302044D01*
X128362783Y-106644902D02*
X128419925Y-106673473D01*
X128419925Y-106673473D02*
X128562783Y-106673473D01*
X128562783Y-106673473D02*
X128619925Y-106644902D01*
X128619925Y-106644902D02*
X128648497Y-106587759D01*
X128648497Y-106587759D02*
X128648497Y-106530616D01*
X128648497Y-106530616D02*
X128619925Y-106473473D01*
X128619925Y-106473473D02*
X128562783Y-106444902D01*
X128562783Y-106444902D02*
X128419925Y-106444902D01*
X128419925Y-106444902D02*
X128362783Y-106416330D01*
X127819926Y-106644902D02*
X127877068Y-106673473D01*
X127877068Y-106673473D02*
X127991354Y-106673473D01*
X127991354Y-106673473D02*
X128048497Y-106644902D01*
X128048497Y-106644902D02*
X128077068Y-106616330D01*
X128077068Y-106616330D02*
X128105640Y-106559187D01*
X128105640Y-106559187D02*
X128105640Y-106387759D01*
X128105640Y-106387759D02*
X128077068Y-106330616D01*
X128077068Y-106330616D02*
X128048497Y-106302044D01*
X128048497Y-106302044D02*
X127991354Y-106273473D01*
X127991354Y-106273473D02*
X127877068Y-106273473D01*
X127877068Y-106273473D02*
X127819926Y-106302044D01*
X127305640Y-106644902D02*
X127362782Y-106673473D01*
X127362782Y-106673473D02*
X127477068Y-106673473D01*
X127477068Y-106673473D02*
X127534211Y-106644902D01*
X127534211Y-106644902D02*
X127562782Y-106616330D01*
X127562782Y-106616330D02*
X127591354Y-106559187D01*
X127591354Y-106559187D02*
X127591354Y-106387759D01*
X127591354Y-106387759D02*
X127562782Y-106330616D01*
X127562782Y-106330616D02*
X127534211Y-106302044D01*
X127534211Y-106302044D02*
X127477068Y-106273473D01*
X127477068Y-106273473D02*
X127362782Y-106273473D01*
X127362782Y-106273473D02*
X127305640Y-106302044D01*
X126962782Y-106673473D02*
X127019925Y-106644902D01*
X127019925Y-106644902D02*
X127048496Y-106616330D01*
X127048496Y-106616330D02*
X127077068Y-106559187D01*
X127077068Y-106559187D02*
X127077068Y-106387759D01*
X127077068Y-106387759D02*
X127048496Y-106330616D01*
X127048496Y-106330616D02*
X127019925Y-106302044D01*
X127019925Y-106302044D02*
X126962782Y-106273473D01*
X126962782Y-106273473D02*
X126877068Y-106273473D01*
X126877068Y-106273473D02*
X126819925Y-106302044D01*
X126819925Y-106302044D02*
X126791354Y-106330616D01*
X126791354Y-106330616D02*
X126762782Y-106387759D01*
X126762782Y-106387759D02*
X126762782Y-106559187D01*
X126762782Y-106559187D02*
X126791354Y-106616330D01*
X126791354Y-106616330D02*
X126819925Y-106644902D01*
X126819925Y-106644902D02*
X126877068Y-106673473D01*
X126877068Y-106673473D02*
X126962782Y-106673473D01*
X126505639Y-106673473D02*
X126505639Y-106273473D01*
X126505639Y-106387759D02*
X126477068Y-106330616D01*
X126477068Y-106330616D02*
X126448497Y-106302044D01*
X126448497Y-106302044D02*
X126391354Y-106273473D01*
X126391354Y-106273473D02*
X126334211Y-106273473D01*
X125877068Y-106673473D02*
X125877068Y-106073473D01*
X125877068Y-106644902D02*
X125934210Y-106673473D01*
X125934210Y-106673473D02*
X126048496Y-106673473D01*
X126048496Y-106673473D02*
X126105639Y-106644902D01*
X126105639Y-106644902D02*
X126134210Y-106616330D01*
X126134210Y-106616330D02*
X126162782Y-106559187D01*
X126162782Y-106559187D02*
X126162782Y-106387759D01*
X126162782Y-106387759D02*
X126134210Y-106330616D01*
X126134210Y-106330616D02*
X126105639Y-106302044D01*
X126105639Y-106302044D02*
X126048496Y-106273473D01*
X126048496Y-106273473D02*
X125934210Y-106273473D01*
X125934210Y-106273473D02*
X125877068Y-106302044D01*
X125591353Y-106673473D02*
X125591353Y-106273473D01*
X125591353Y-106073473D02*
X125619925Y-106102044D01*
X125619925Y-106102044D02*
X125591353Y-106130616D01*
X125591353Y-106130616D02*
X125562782Y-106102044D01*
X125562782Y-106102044D02*
X125591353Y-106073473D01*
X125591353Y-106073473D02*
X125591353Y-106130616D01*
X125305639Y-106273473D02*
X125305639Y-106673473D01*
X125305639Y-106330616D02*
X125277068Y-106302044D01*
X125277068Y-106302044D02*
X125219925Y-106273473D01*
X125219925Y-106273473D02*
X125134211Y-106273473D01*
X125134211Y-106273473D02*
X125077068Y-106302044D01*
X125077068Y-106302044D02*
X125048497Y-106359187D01*
X125048497Y-106359187D02*
X125048497Y-106673473D01*
X124505640Y-106273473D02*
X124505640Y-106759187D01*
X124505640Y-106759187D02*
X124534211Y-106816330D01*
X124534211Y-106816330D02*
X124562782Y-106844902D01*
X124562782Y-106844902D02*
X124619925Y-106873473D01*
X124619925Y-106873473D02*
X124705640Y-106873473D01*
X124705640Y-106873473D02*
X124762782Y-106844902D01*
X124505640Y-106644902D02*
X124562782Y-106673473D01*
X124562782Y-106673473D02*
X124677068Y-106673473D01*
X124677068Y-106673473D02*
X124734211Y-106644902D01*
X124734211Y-106644902D02*
X124762782Y-106616330D01*
X124762782Y-106616330D02*
X124791354Y-106559187D01*
X124791354Y-106559187D02*
X124791354Y-106387759D01*
X124791354Y-106387759D02*
X124762782Y-106330616D01*
X124762782Y-106330616D02*
X124734211Y-106302044D01*
X124734211Y-106302044D02*
X124677068Y-106273473D01*
X124677068Y-106273473D02*
X124562782Y-106273473D01*
X124562782Y-106273473D02*
X124505640Y-106302044D01*
X137077068Y-107239439D02*
X136848496Y-107239439D01*
X136991353Y-107039439D02*
X136991353Y-107553725D01*
X136991353Y-107553725D02*
X136962782Y-107610868D01*
X136962782Y-107610868D02*
X136905639Y-107639439D01*
X136905639Y-107639439D02*
X136848496Y-107639439D01*
X136562782Y-107639439D02*
X136619925Y-107610868D01*
X136619925Y-107610868D02*
X136648496Y-107582296D01*
X136648496Y-107582296D02*
X136677068Y-107525153D01*
X136677068Y-107525153D02*
X136677068Y-107353725D01*
X136677068Y-107353725D02*
X136648496Y-107296582D01*
X136648496Y-107296582D02*
X136619925Y-107268010D01*
X136619925Y-107268010D02*
X136562782Y-107239439D01*
X136562782Y-107239439D02*
X136477068Y-107239439D01*
X136477068Y-107239439D02*
X136419925Y-107268010D01*
X136419925Y-107268010D02*
X136391354Y-107296582D01*
X136391354Y-107296582D02*
X136362782Y-107353725D01*
X136362782Y-107353725D02*
X136362782Y-107525153D01*
X136362782Y-107525153D02*
X136391354Y-107582296D01*
X136391354Y-107582296D02*
X136419925Y-107610868D01*
X136419925Y-107610868D02*
X136477068Y-107639439D01*
X136477068Y-107639439D02*
X136562782Y-107639439D01*
X135391354Y-107610868D02*
X135448496Y-107639439D01*
X135448496Y-107639439D02*
X135562782Y-107639439D01*
X135562782Y-107639439D02*
X135619925Y-107610868D01*
X135619925Y-107610868D02*
X135648496Y-107582296D01*
X135648496Y-107582296D02*
X135677068Y-107525153D01*
X135677068Y-107525153D02*
X135677068Y-107353725D01*
X135677068Y-107353725D02*
X135648496Y-107296582D01*
X135648496Y-107296582D02*
X135619925Y-107268010D01*
X135619925Y-107268010D02*
X135562782Y-107239439D01*
X135562782Y-107239439D02*
X135448496Y-107239439D01*
X135448496Y-107239439D02*
X135391354Y-107268010D01*
X134877068Y-107239439D02*
X134877068Y-107639439D01*
X135134210Y-107239439D02*
X135134210Y-107553725D01*
X135134210Y-107553725D02*
X135105639Y-107610868D01*
X135105639Y-107610868D02*
X135048496Y-107639439D01*
X135048496Y-107639439D02*
X134962782Y-107639439D01*
X134962782Y-107639439D02*
X134905639Y-107610868D01*
X134905639Y-107610868D02*
X134877068Y-107582296D01*
X134591353Y-107639439D02*
X134591353Y-107239439D01*
X134591353Y-107353725D02*
X134562782Y-107296582D01*
X134562782Y-107296582D02*
X134534211Y-107268010D01*
X134534211Y-107268010D02*
X134477068Y-107239439D01*
X134477068Y-107239439D02*
X134419925Y-107239439D01*
X134219924Y-107639439D02*
X134219924Y-107239439D01*
X134219924Y-107353725D02*
X134191353Y-107296582D01*
X134191353Y-107296582D02*
X134162782Y-107268010D01*
X134162782Y-107268010D02*
X134105639Y-107239439D01*
X134105639Y-107239439D02*
X134048496Y-107239439D01*
X133619924Y-107610868D02*
X133677067Y-107639439D01*
X133677067Y-107639439D02*
X133791353Y-107639439D01*
X133791353Y-107639439D02*
X133848495Y-107610868D01*
X133848495Y-107610868D02*
X133877067Y-107553725D01*
X133877067Y-107553725D02*
X133877067Y-107325153D01*
X133877067Y-107325153D02*
X133848495Y-107268010D01*
X133848495Y-107268010D02*
X133791353Y-107239439D01*
X133791353Y-107239439D02*
X133677067Y-107239439D01*
X133677067Y-107239439D02*
X133619924Y-107268010D01*
X133619924Y-107268010D02*
X133591353Y-107325153D01*
X133591353Y-107325153D02*
X133591353Y-107382296D01*
X133591353Y-107382296D02*
X133877067Y-107439439D01*
X133334209Y-107239439D02*
X133334209Y-107639439D01*
X133334209Y-107296582D02*
X133305638Y-107268010D01*
X133305638Y-107268010D02*
X133248495Y-107239439D01*
X133248495Y-107239439D02*
X133162781Y-107239439D01*
X133162781Y-107239439D02*
X133105638Y-107268010D01*
X133105638Y-107268010D02*
X133077067Y-107325153D01*
X133077067Y-107325153D02*
X133077067Y-107639439D01*
X132877067Y-107239439D02*
X132648495Y-107239439D01*
X132791352Y-107039439D02*
X132791352Y-107553725D01*
X132791352Y-107553725D02*
X132762781Y-107610868D01*
X132762781Y-107610868D02*
X132705638Y-107639439D01*
X132705638Y-107639439D02*
X132648495Y-107639439D01*
X131991352Y-107325153D02*
X131791352Y-107325153D01*
X131705638Y-107639439D02*
X131991352Y-107639439D01*
X131991352Y-107639439D02*
X131991352Y-107039439D01*
X131991352Y-107039439D02*
X131705638Y-107039439D01*
X131448495Y-107039439D02*
X131448495Y-107525153D01*
X131448495Y-107525153D02*
X131419924Y-107582296D01*
X131419924Y-107582296D02*
X131391353Y-107610868D01*
X131391353Y-107610868D02*
X131334210Y-107639439D01*
X131334210Y-107639439D02*
X131219924Y-107639439D01*
X131219924Y-107639439D02*
X131162781Y-107610868D01*
X131162781Y-107610868D02*
X131134210Y-107582296D01*
X131134210Y-107582296D02*
X131105638Y-107525153D01*
X131105638Y-107525153D02*
X131105638Y-107039439D01*
X130277067Y-107639439D02*
X130334210Y-107610868D01*
X130334210Y-107610868D02*
X130362781Y-107553725D01*
X130362781Y-107553725D02*
X130362781Y-107039439D01*
X129791353Y-107639439D02*
X129791353Y-107325153D01*
X129791353Y-107325153D02*
X129819924Y-107268010D01*
X129819924Y-107268010D02*
X129877067Y-107239439D01*
X129877067Y-107239439D02*
X129991353Y-107239439D01*
X129991353Y-107239439D02*
X130048495Y-107268010D01*
X129791353Y-107610868D02*
X129848495Y-107639439D01*
X129848495Y-107639439D02*
X129991353Y-107639439D01*
X129991353Y-107639439D02*
X130048495Y-107610868D01*
X130048495Y-107610868D02*
X130077067Y-107553725D01*
X130077067Y-107553725D02*
X130077067Y-107496582D01*
X130077067Y-107496582D02*
X130048495Y-107439439D01*
X130048495Y-107439439D02*
X129991353Y-107410868D01*
X129991353Y-107410868D02*
X129848495Y-107410868D01*
X129848495Y-107410868D02*
X129791353Y-107382296D01*
X129562781Y-107239439D02*
X129448496Y-107639439D01*
X129448496Y-107639439D02*
X129334210Y-107353725D01*
X129334210Y-107353725D02*
X129219924Y-107639439D01*
X129219924Y-107639439D02*
X129105638Y-107239439D01*
X128905639Y-107610868D02*
X128848496Y-107639439D01*
X128848496Y-107639439D02*
X128734210Y-107639439D01*
X128734210Y-107639439D02*
X128677067Y-107610868D01*
X128677067Y-107610868D02*
X128648496Y-107553725D01*
X128648496Y-107553725D02*
X128648496Y-107525153D01*
X128648496Y-107525153D02*
X128677067Y-107468010D01*
X128677067Y-107468010D02*
X128734210Y-107439439D01*
X128734210Y-107439439D02*
X128819925Y-107439439D01*
X128819925Y-107439439D02*
X128877067Y-107410868D01*
X128877067Y-107410868D02*
X128905639Y-107353725D01*
X128905639Y-107353725D02*
X128905639Y-107325153D01*
X128905639Y-107325153D02*
X128877067Y-107268010D01*
X128877067Y-107268010D02*
X128819925Y-107239439D01*
X128819925Y-107239439D02*
X128734210Y-107239439D01*
X128734210Y-107239439D02*
X128677067Y-107268010D01*
X128391353Y-107582296D02*
X128362782Y-107610868D01*
X128362782Y-107610868D02*
X128391353Y-107639439D01*
X128391353Y-107639439D02*
X128419925Y-107610868D01*
X128419925Y-107610868D02*
X128391353Y-107582296D01*
X128391353Y-107582296D02*
X128391353Y-107639439D01*
X136991353Y-108605405D02*
X136991353Y-108005405D01*
X136991353Y-108005405D02*
X136848496Y-108005405D01*
X136848496Y-108005405D02*
X136762782Y-108033976D01*
X136762782Y-108033976D02*
X136705639Y-108091119D01*
X136705639Y-108091119D02*
X136677068Y-108148262D01*
X136677068Y-108148262D02*
X136648496Y-108262548D01*
X136648496Y-108262548D02*
X136648496Y-108348262D01*
X136648496Y-108348262D02*
X136677068Y-108462548D01*
X136677068Y-108462548D02*
X136705639Y-108519691D01*
X136705639Y-108519691D02*
X136762782Y-108576834D01*
X136762782Y-108576834D02*
X136848496Y-108605405D01*
X136848496Y-108605405D02*
X136991353Y-108605405D01*
X136305639Y-108605405D02*
X136362782Y-108576834D01*
X136362782Y-108576834D02*
X136391353Y-108548262D01*
X136391353Y-108548262D02*
X136419925Y-108491119D01*
X136419925Y-108491119D02*
X136419925Y-108319691D01*
X136419925Y-108319691D02*
X136391353Y-108262548D01*
X136391353Y-108262548D02*
X136362782Y-108233976D01*
X136362782Y-108233976D02*
X136305639Y-108205405D01*
X136305639Y-108205405D02*
X136219925Y-108205405D01*
X136219925Y-108205405D02*
X136162782Y-108233976D01*
X136162782Y-108233976D02*
X136134211Y-108262548D01*
X136134211Y-108262548D02*
X136105639Y-108319691D01*
X136105639Y-108319691D02*
X136105639Y-108491119D01*
X136105639Y-108491119D02*
X136134211Y-108548262D01*
X136134211Y-108548262D02*
X136162782Y-108576834D01*
X136162782Y-108576834D02*
X136219925Y-108605405D01*
X136219925Y-108605405D02*
X136305639Y-108605405D01*
X135391353Y-108205405D02*
X135391353Y-108605405D01*
X135391353Y-108262548D02*
X135362782Y-108233976D01*
X135362782Y-108233976D02*
X135305639Y-108205405D01*
X135305639Y-108205405D02*
X135219925Y-108205405D01*
X135219925Y-108205405D02*
X135162782Y-108233976D01*
X135162782Y-108233976D02*
X135134211Y-108291119D01*
X135134211Y-108291119D02*
X135134211Y-108605405D01*
X134762782Y-108605405D02*
X134819925Y-108576834D01*
X134819925Y-108576834D02*
X134848496Y-108548262D01*
X134848496Y-108548262D02*
X134877068Y-108491119D01*
X134877068Y-108491119D02*
X134877068Y-108319691D01*
X134877068Y-108319691D02*
X134848496Y-108262548D01*
X134848496Y-108262548D02*
X134819925Y-108233976D01*
X134819925Y-108233976D02*
X134762782Y-108205405D01*
X134762782Y-108205405D02*
X134677068Y-108205405D01*
X134677068Y-108205405D02*
X134619925Y-108233976D01*
X134619925Y-108233976D02*
X134591354Y-108262548D01*
X134591354Y-108262548D02*
X134562782Y-108319691D01*
X134562782Y-108319691D02*
X134562782Y-108491119D01*
X134562782Y-108491119D02*
X134591354Y-108548262D01*
X134591354Y-108548262D02*
X134619925Y-108576834D01*
X134619925Y-108576834D02*
X134677068Y-108605405D01*
X134677068Y-108605405D02*
X134762782Y-108605405D01*
X134391354Y-108205405D02*
X134162782Y-108205405D01*
X134305639Y-108005405D02*
X134305639Y-108519691D01*
X134305639Y-108519691D02*
X134277068Y-108576834D01*
X134277068Y-108576834D02*
X134219925Y-108605405D01*
X134219925Y-108605405D02*
X134162782Y-108605405D01*
X133534211Y-108576834D02*
X133477068Y-108605405D01*
X133477068Y-108605405D02*
X133362782Y-108605405D01*
X133362782Y-108605405D02*
X133305639Y-108576834D01*
X133305639Y-108576834D02*
X133277068Y-108519691D01*
X133277068Y-108519691D02*
X133277068Y-108491119D01*
X133277068Y-108491119D02*
X133305639Y-108433976D01*
X133305639Y-108433976D02*
X133362782Y-108405405D01*
X133362782Y-108405405D02*
X133448497Y-108405405D01*
X133448497Y-108405405D02*
X133505639Y-108376834D01*
X133505639Y-108376834D02*
X133534211Y-108319691D01*
X133534211Y-108319691D02*
X133534211Y-108291119D01*
X133534211Y-108291119D02*
X133505639Y-108233976D01*
X133505639Y-108233976D02*
X133448497Y-108205405D01*
X133448497Y-108205405D02*
X133362782Y-108205405D01*
X133362782Y-108205405D02*
X133305639Y-108233976D01*
X132791354Y-108576834D02*
X132848497Y-108605405D01*
X132848497Y-108605405D02*
X132962783Y-108605405D01*
X132962783Y-108605405D02*
X133019925Y-108576834D01*
X133019925Y-108576834D02*
X133048497Y-108519691D01*
X133048497Y-108519691D02*
X133048497Y-108291119D01*
X133048497Y-108291119D02*
X133019925Y-108233976D01*
X133019925Y-108233976D02*
X132962783Y-108205405D01*
X132962783Y-108205405D02*
X132848497Y-108205405D01*
X132848497Y-108205405D02*
X132791354Y-108233976D01*
X132791354Y-108233976D02*
X132762783Y-108291119D01*
X132762783Y-108291119D02*
X132762783Y-108348262D01*
X132762783Y-108348262D02*
X133048497Y-108405405D01*
X132419925Y-108605405D02*
X132477068Y-108576834D01*
X132477068Y-108576834D02*
X132505639Y-108519691D01*
X132505639Y-108519691D02*
X132505639Y-108005405D01*
X132105639Y-108605405D02*
X132162782Y-108576834D01*
X132162782Y-108576834D02*
X132191353Y-108519691D01*
X132191353Y-108519691D02*
X132191353Y-108005405D01*
X131334210Y-108605405D02*
X131391353Y-108576834D01*
X131391353Y-108576834D02*
X131419924Y-108548262D01*
X131419924Y-108548262D02*
X131448496Y-108491119D01*
X131448496Y-108491119D02*
X131448496Y-108319691D01*
X131448496Y-108319691D02*
X131419924Y-108262548D01*
X131419924Y-108262548D02*
X131391353Y-108233976D01*
X131391353Y-108233976D02*
X131334210Y-108205405D01*
X131334210Y-108205405D02*
X131248496Y-108205405D01*
X131248496Y-108205405D02*
X131191353Y-108233976D01*
X131191353Y-108233976D02*
X131162782Y-108262548D01*
X131162782Y-108262548D02*
X131134210Y-108319691D01*
X131134210Y-108319691D02*
X131134210Y-108491119D01*
X131134210Y-108491119D02*
X131162782Y-108548262D01*
X131162782Y-108548262D02*
X131191353Y-108576834D01*
X131191353Y-108576834D02*
X131248496Y-108605405D01*
X131248496Y-108605405D02*
X131334210Y-108605405D01*
X130877067Y-108605405D02*
X130877067Y-108205405D01*
X130877067Y-108319691D02*
X130848496Y-108262548D01*
X130848496Y-108262548D02*
X130819925Y-108233976D01*
X130819925Y-108233976D02*
X130762782Y-108205405D01*
X130762782Y-108205405D02*
X130705639Y-108205405D01*
X129791353Y-108205405D02*
X129791353Y-108605405D01*
X130048495Y-108205405D02*
X130048495Y-108519691D01*
X130048495Y-108519691D02*
X130019924Y-108576834D01*
X130019924Y-108576834D02*
X129962781Y-108605405D01*
X129962781Y-108605405D02*
X129877067Y-108605405D01*
X129877067Y-108605405D02*
X129819924Y-108576834D01*
X129819924Y-108576834D02*
X129791353Y-108548262D01*
X129534210Y-108576834D02*
X129477067Y-108605405D01*
X129477067Y-108605405D02*
X129362781Y-108605405D01*
X129362781Y-108605405D02*
X129305638Y-108576834D01*
X129305638Y-108576834D02*
X129277067Y-108519691D01*
X129277067Y-108519691D02*
X129277067Y-108491119D01*
X129277067Y-108491119D02*
X129305638Y-108433976D01*
X129305638Y-108433976D02*
X129362781Y-108405405D01*
X129362781Y-108405405D02*
X129448496Y-108405405D01*
X129448496Y-108405405D02*
X129505638Y-108376834D01*
X129505638Y-108376834D02*
X129534210Y-108319691D01*
X129534210Y-108319691D02*
X129534210Y-108291119D01*
X129534210Y-108291119D02*
X129505638Y-108233976D01*
X129505638Y-108233976D02*
X129448496Y-108205405D01*
X129448496Y-108205405D02*
X129362781Y-108205405D01*
X129362781Y-108205405D02*
X129305638Y-108233976D01*
X128791353Y-108576834D02*
X128848496Y-108605405D01*
X128848496Y-108605405D02*
X128962782Y-108605405D01*
X128962782Y-108605405D02*
X129019924Y-108576834D01*
X129019924Y-108576834D02*
X129048496Y-108519691D01*
X129048496Y-108519691D02*
X129048496Y-108291119D01*
X129048496Y-108291119D02*
X129019924Y-108233976D01*
X129019924Y-108233976D02*
X128962782Y-108205405D01*
X128962782Y-108205405D02*
X128848496Y-108205405D01*
X128848496Y-108205405D02*
X128791353Y-108233976D01*
X128791353Y-108233976D02*
X128762782Y-108291119D01*
X128762782Y-108291119D02*
X128762782Y-108348262D01*
X128762782Y-108348262D02*
X129048496Y-108405405D01*
X127962781Y-108605405D02*
X128019924Y-108576834D01*
X128019924Y-108576834D02*
X128048495Y-108548262D01*
X128048495Y-108548262D02*
X128077067Y-108491119D01*
X128077067Y-108491119D02*
X128077067Y-108319691D01*
X128077067Y-108319691D02*
X128048495Y-108262548D01*
X128048495Y-108262548D02*
X128019924Y-108233976D01*
X128019924Y-108233976D02*
X127962781Y-108205405D01*
X127962781Y-108205405D02*
X127877067Y-108205405D01*
X127877067Y-108205405D02*
X127819924Y-108233976D01*
X127819924Y-108233976D02*
X127791353Y-108262548D01*
X127791353Y-108262548D02*
X127762781Y-108319691D01*
X127762781Y-108319691D02*
X127762781Y-108491119D01*
X127762781Y-108491119D02*
X127791353Y-108548262D01*
X127791353Y-108548262D02*
X127819924Y-108576834D01*
X127819924Y-108576834D02*
X127877067Y-108605405D01*
X127877067Y-108605405D02*
X127962781Y-108605405D01*
X127248496Y-108205405D02*
X127248496Y-108605405D01*
X127505638Y-108205405D02*
X127505638Y-108519691D01*
X127505638Y-108519691D02*
X127477067Y-108576834D01*
X127477067Y-108576834D02*
X127419924Y-108605405D01*
X127419924Y-108605405D02*
X127334210Y-108605405D01*
X127334210Y-108605405D02*
X127277067Y-108576834D01*
X127277067Y-108576834D02*
X127248496Y-108548262D01*
X127048496Y-108205405D02*
X126819924Y-108205405D01*
X126962781Y-108005405D02*
X126962781Y-108519691D01*
X126962781Y-108519691D02*
X126934210Y-108576834D01*
X126934210Y-108576834D02*
X126877067Y-108605405D01*
X126877067Y-108605405D02*
X126819924Y-108605405D01*
X126648496Y-108576834D02*
X126591353Y-108605405D01*
X126591353Y-108605405D02*
X126477067Y-108605405D01*
X126477067Y-108605405D02*
X126419924Y-108576834D01*
X126419924Y-108576834D02*
X126391353Y-108519691D01*
X126391353Y-108519691D02*
X126391353Y-108491119D01*
X126391353Y-108491119D02*
X126419924Y-108433976D01*
X126419924Y-108433976D02*
X126477067Y-108405405D01*
X126477067Y-108405405D02*
X126562782Y-108405405D01*
X126562782Y-108405405D02*
X126619924Y-108376834D01*
X126619924Y-108376834D02*
X126648496Y-108319691D01*
X126648496Y-108319691D02*
X126648496Y-108291119D01*
X126648496Y-108291119D02*
X126619924Y-108233976D01*
X126619924Y-108233976D02*
X126562782Y-108205405D01*
X126562782Y-108205405D02*
X126477067Y-108205405D01*
X126477067Y-108205405D02*
X126419924Y-108233976D01*
X126134210Y-108605405D02*
X126134210Y-108205405D01*
X126134210Y-108005405D02*
X126162782Y-108033976D01*
X126162782Y-108033976D02*
X126134210Y-108062548D01*
X126134210Y-108062548D02*
X126105639Y-108033976D01*
X126105639Y-108033976D02*
X126134210Y-108005405D01*
X126134210Y-108005405D02*
X126134210Y-108062548D01*
X125591354Y-108605405D02*
X125591354Y-108005405D01*
X125591354Y-108576834D02*
X125648496Y-108605405D01*
X125648496Y-108605405D02*
X125762782Y-108605405D01*
X125762782Y-108605405D02*
X125819925Y-108576834D01*
X125819925Y-108576834D02*
X125848496Y-108548262D01*
X125848496Y-108548262D02*
X125877068Y-108491119D01*
X125877068Y-108491119D02*
X125877068Y-108319691D01*
X125877068Y-108319691D02*
X125848496Y-108262548D01*
X125848496Y-108262548D02*
X125819925Y-108233976D01*
X125819925Y-108233976D02*
X125762782Y-108205405D01*
X125762782Y-108205405D02*
X125648496Y-108205405D01*
X125648496Y-108205405D02*
X125591354Y-108233976D01*
X125077068Y-108576834D02*
X125134211Y-108605405D01*
X125134211Y-108605405D02*
X125248497Y-108605405D01*
X125248497Y-108605405D02*
X125305639Y-108576834D01*
X125305639Y-108576834D02*
X125334211Y-108519691D01*
X125334211Y-108519691D02*
X125334211Y-108291119D01*
X125334211Y-108291119D02*
X125305639Y-108233976D01*
X125305639Y-108233976D02*
X125248497Y-108205405D01*
X125248497Y-108205405D02*
X125134211Y-108205405D01*
X125134211Y-108205405D02*
X125077068Y-108233976D01*
X125077068Y-108233976D02*
X125048497Y-108291119D01*
X125048497Y-108291119D02*
X125048497Y-108348262D01*
X125048497Y-108348262D02*
X125334211Y-108405405D01*
X124248496Y-108605405D02*
X124305639Y-108576834D01*
X124305639Y-108576834D02*
X124334210Y-108548262D01*
X124334210Y-108548262D02*
X124362782Y-108491119D01*
X124362782Y-108491119D02*
X124362782Y-108319691D01*
X124362782Y-108319691D02*
X124334210Y-108262548D01*
X124334210Y-108262548D02*
X124305639Y-108233976D01*
X124305639Y-108233976D02*
X124248496Y-108205405D01*
X124248496Y-108205405D02*
X124162782Y-108205405D01*
X124162782Y-108205405D02*
X124105639Y-108233976D01*
X124105639Y-108233976D02*
X124077068Y-108262548D01*
X124077068Y-108262548D02*
X124048496Y-108319691D01*
X124048496Y-108319691D02*
X124048496Y-108491119D01*
X124048496Y-108491119D02*
X124077068Y-108548262D01*
X124077068Y-108548262D02*
X124105639Y-108576834D01*
X124105639Y-108576834D02*
X124162782Y-108605405D01*
X124162782Y-108605405D02*
X124248496Y-108605405D01*
X123877068Y-108205405D02*
X123648496Y-108205405D01*
X123791353Y-108605405D02*
X123791353Y-108091119D01*
X123791353Y-108091119D02*
X123762782Y-108033976D01*
X123762782Y-108033976D02*
X123705639Y-108005405D01*
X123705639Y-108005405D02*
X123648496Y-108005405D01*
X136991353Y-109571371D02*
X136991353Y-109171371D01*
X136991353Y-109285657D02*
X136962782Y-109228514D01*
X136962782Y-109228514D02*
X136934211Y-109199942D01*
X136934211Y-109199942D02*
X136877068Y-109171371D01*
X136877068Y-109171371D02*
X136819925Y-109171371D01*
X136391353Y-109542800D02*
X136448496Y-109571371D01*
X136448496Y-109571371D02*
X136562782Y-109571371D01*
X136562782Y-109571371D02*
X136619924Y-109542800D01*
X136619924Y-109542800D02*
X136648496Y-109485657D01*
X136648496Y-109485657D02*
X136648496Y-109257085D01*
X136648496Y-109257085D02*
X136619924Y-109199942D01*
X136619924Y-109199942D02*
X136562782Y-109171371D01*
X136562782Y-109171371D02*
X136448496Y-109171371D01*
X136448496Y-109171371D02*
X136391353Y-109199942D01*
X136391353Y-109199942D02*
X136362782Y-109257085D01*
X136362782Y-109257085D02*
X136362782Y-109314228D01*
X136362782Y-109314228D02*
X136648496Y-109371371D01*
X136134210Y-109542800D02*
X136077067Y-109571371D01*
X136077067Y-109571371D02*
X135962781Y-109571371D01*
X135962781Y-109571371D02*
X135905638Y-109542800D01*
X135905638Y-109542800D02*
X135877067Y-109485657D01*
X135877067Y-109485657D02*
X135877067Y-109457085D01*
X135877067Y-109457085D02*
X135905638Y-109399942D01*
X135905638Y-109399942D02*
X135962781Y-109371371D01*
X135962781Y-109371371D02*
X136048496Y-109371371D01*
X136048496Y-109371371D02*
X136105638Y-109342800D01*
X136105638Y-109342800D02*
X136134210Y-109285657D01*
X136134210Y-109285657D02*
X136134210Y-109257085D01*
X136134210Y-109257085D02*
X136105638Y-109199942D01*
X136105638Y-109199942D02*
X136048496Y-109171371D01*
X136048496Y-109171371D02*
X135962781Y-109171371D01*
X135962781Y-109171371D02*
X135905638Y-109199942D01*
X135391353Y-109542800D02*
X135448496Y-109571371D01*
X135448496Y-109571371D02*
X135562782Y-109571371D01*
X135562782Y-109571371D02*
X135619924Y-109542800D01*
X135619924Y-109542800D02*
X135648496Y-109485657D01*
X135648496Y-109485657D02*
X135648496Y-109257085D01*
X135648496Y-109257085D02*
X135619924Y-109199942D01*
X135619924Y-109199942D02*
X135562782Y-109171371D01*
X135562782Y-109171371D02*
X135448496Y-109171371D01*
X135448496Y-109171371D02*
X135391353Y-109199942D01*
X135391353Y-109199942D02*
X135362782Y-109257085D01*
X135362782Y-109257085D02*
X135362782Y-109314228D01*
X135362782Y-109314228D02*
X135648496Y-109371371D01*
X134848496Y-109571371D02*
X134848496Y-109257085D01*
X134848496Y-109257085D02*
X134877067Y-109199942D01*
X134877067Y-109199942D02*
X134934210Y-109171371D01*
X134934210Y-109171371D02*
X135048496Y-109171371D01*
X135048496Y-109171371D02*
X135105638Y-109199942D01*
X134848496Y-109542800D02*
X134905638Y-109571371D01*
X134905638Y-109571371D02*
X135048496Y-109571371D01*
X135048496Y-109571371D02*
X135105638Y-109542800D01*
X135105638Y-109542800D02*
X135134210Y-109485657D01*
X135134210Y-109485657D02*
X135134210Y-109428514D01*
X135134210Y-109428514D02*
X135105638Y-109371371D01*
X135105638Y-109371371D02*
X135048496Y-109342800D01*
X135048496Y-109342800D02*
X134905638Y-109342800D01*
X134905638Y-109342800D02*
X134848496Y-109314228D01*
X134562781Y-109571371D02*
X134562781Y-109171371D01*
X134562781Y-109285657D02*
X134534210Y-109228514D01*
X134534210Y-109228514D02*
X134505639Y-109199942D01*
X134505639Y-109199942D02*
X134448496Y-109171371D01*
X134448496Y-109171371D02*
X134391353Y-109171371D01*
X133934210Y-109542800D02*
X133991352Y-109571371D01*
X133991352Y-109571371D02*
X134105638Y-109571371D01*
X134105638Y-109571371D02*
X134162781Y-109542800D01*
X134162781Y-109542800D02*
X134191352Y-109514228D01*
X134191352Y-109514228D02*
X134219924Y-109457085D01*
X134219924Y-109457085D02*
X134219924Y-109285657D01*
X134219924Y-109285657D02*
X134191352Y-109228514D01*
X134191352Y-109228514D02*
X134162781Y-109199942D01*
X134162781Y-109199942D02*
X134105638Y-109171371D01*
X134105638Y-109171371D02*
X133991352Y-109171371D01*
X133991352Y-109171371D02*
X133934210Y-109199942D01*
X133677066Y-109571371D02*
X133677066Y-108971371D01*
X133419924Y-109571371D02*
X133419924Y-109257085D01*
X133419924Y-109257085D02*
X133448495Y-109199942D01*
X133448495Y-109199942D02*
X133505638Y-109171371D01*
X133505638Y-109171371D02*
X133591352Y-109171371D01*
X133591352Y-109171371D02*
X133648495Y-109199942D01*
X133648495Y-109199942D02*
X133677066Y-109228514D01*
X132677066Y-109171371D02*
X132677066Y-109771371D01*
X132677066Y-109199942D02*
X132619924Y-109171371D01*
X132619924Y-109171371D02*
X132505638Y-109171371D01*
X132505638Y-109171371D02*
X132448495Y-109199942D01*
X132448495Y-109199942D02*
X132419924Y-109228514D01*
X132419924Y-109228514D02*
X132391352Y-109285657D01*
X132391352Y-109285657D02*
X132391352Y-109457085D01*
X132391352Y-109457085D02*
X132419924Y-109514228D01*
X132419924Y-109514228D02*
X132448495Y-109542800D01*
X132448495Y-109542800D02*
X132505638Y-109571371D01*
X132505638Y-109571371D02*
X132619924Y-109571371D01*
X132619924Y-109571371D02*
X132677066Y-109542800D01*
X131877067Y-109171371D02*
X131877067Y-109571371D01*
X132134209Y-109171371D02*
X132134209Y-109485657D01*
X132134209Y-109485657D02*
X132105638Y-109542800D01*
X132105638Y-109542800D02*
X132048495Y-109571371D01*
X132048495Y-109571371D02*
X131962781Y-109571371D01*
X131962781Y-109571371D02*
X131905638Y-109542800D01*
X131905638Y-109542800D02*
X131877067Y-109514228D01*
X131591352Y-109571371D02*
X131591352Y-109171371D01*
X131591352Y-109285657D02*
X131562781Y-109228514D01*
X131562781Y-109228514D02*
X131534210Y-109199942D01*
X131534210Y-109199942D02*
X131477067Y-109171371D01*
X131477067Y-109171371D02*
X131419924Y-109171371D01*
X131219923Y-109171371D02*
X131219923Y-109771371D01*
X131219923Y-109199942D02*
X131162781Y-109171371D01*
X131162781Y-109171371D02*
X131048495Y-109171371D01*
X131048495Y-109171371D02*
X130991352Y-109199942D01*
X130991352Y-109199942D02*
X130962781Y-109228514D01*
X130962781Y-109228514D02*
X130934209Y-109285657D01*
X130934209Y-109285657D02*
X130934209Y-109457085D01*
X130934209Y-109457085D02*
X130962781Y-109514228D01*
X130962781Y-109514228D02*
X130991352Y-109542800D01*
X130991352Y-109542800D02*
X131048495Y-109571371D01*
X131048495Y-109571371D02*
X131162781Y-109571371D01*
X131162781Y-109571371D02*
X131219923Y-109542800D01*
X130591352Y-109571371D02*
X130648495Y-109542800D01*
X130648495Y-109542800D02*
X130677066Y-109514228D01*
X130677066Y-109514228D02*
X130705638Y-109457085D01*
X130705638Y-109457085D02*
X130705638Y-109285657D01*
X130705638Y-109285657D02*
X130677066Y-109228514D01*
X130677066Y-109228514D02*
X130648495Y-109199942D01*
X130648495Y-109199942D02*
X130591352Y-109171371D01*
X130591352Y-109171371D02*
X130505638Y-109171371D01*
X130505638Y-109171371D02*
X130448495Y-109199942D01*
X130448495Y-109199942D02*
X130419924Y-109228514D01*
X130419924Y-109228514D02*
X130391352Y-109285657D01*
X130391352Y-109285657D02*
X130391352Y-109457085D01*
X130391352Y-109457085D02*
X130419924Y-109514228D01*
X130419924Y-109514228D02*
X130448495Y-109542800D01*
X130448495Y-109542800D02*
X130505638Y-109571371D01*
X130505638Y-109571371D02*
X130591352Y-109571371D01*
X130162781Y-109542800D02*
X130105638Y-109571371D01*
X130105638Y-109571371D02*
X129991352Y-109571371D01*
X129991352Y-109571371D02*
X129934209Y-109542800D01*
X129934209Y-109542800D02*
X129905638Y-109485657D01*
X129905638Y-109485657D02*
X129905638Y-109457085D01*
X129905638Y-109457085D02*
X129934209Y-109399942D01*
X129934209Y-109399942D02*
X129991352Y-109371371D01*
X129991352Y-109371371D02*
X130077067Y-109371371D01*
X130077067Y-109371371D02*
X130134209Y-109342800D01*
X130134209Y-109342800D02*
X130162781Y-109285657D01*
X130162781Y-109285657D02*
X130162781Y-109257085D01*
X130162781Y-109257085D02*
X130134209Y-109199942D01*
X130134209Y-109199942D02*
X130077067Y-109171371D01*
X130077067Y-109171371D02*
X129991352Y-109171371D01*
X129991352Y-109171371D02*
X129934209Y-109199942D01*
X129419924Y-109542800D02*
X129477067Y-109571371D01*
X129477067Y-109571371D02*
X129591353Y-109571371D01*
X129591353Y-109571371D02*
X129648495Y-109542800D01*
X129648495Y-109542800D02*
X129677067Y-109485657D01*
X129677067Y-109485657D02*
X129677067Y-109257085D01*
X129677067Y-109257085D02*
X129648495Y-109199942D01*
X129648495Y-109199942D02*
X129591353Y-109171371D01*
X129591353Y-109171371D02*
X129477067Y-109171371D01*
X129477067Y-109171371D02*
X129419924Y-109199942D01*
X129419924Y-109199942D02*
X129391353Y-109257085D01*
X129391353Y-109257085D02*
X129391353Y-109314228D01*
X129391353Y-109314228D02*
X129677067Y-109371371D01*
X129162781Y-109542800D02*
X129105638Y-109571371D01*
X129105638Y-109571371D02*
X128991352Y-109571371D01*
X128991352Y-109571371D02*
X128934209Y-109542800D01*
X128934209Y-109542800D02*
X128905638Y-109485657D01*
X128905638Y-109485657D02*
X128905638Y-109457085D01*
X128905638Y-109457085D02*
X128934209Y-109399942D01*
X128934209Y-109399942D02*
X128991352Y-109371371D01*
X128991352Y-109371371D02*
X129077067Y-109371371D01*
X129077067Y-109371371D02*
X129134209Y-109342800D01*
X129134209Y-109342800D02*
X129162781Y-109285657D01*
X129162781Y-109285657D02*
X129162781Y-109257085D01*
X129162781Y-109257085D02*
X129134209Y-109199942D01*
X129134209Y-109199942D02*
X129077067Y-109171371D01*
X129077067Y-109171371D02*
X128991352Y-109171371D01*
X128991352Y-109171371D02*
X128934209Y-109199942D01*
X128648495Y-109514228D02*
X128619924Y-109542800D01*
X128619924Y-109542800D02*
X128648495Y-109571371D01*
X128648495Y-109571371D02*
X128677067Y-109542800D01*
X128677067Y-109542800D02*
X128648495Y-109514228D01*
X128648495Y-109514228D02*
X128648495Y-109571371D01*
D12*
X151192448Y-103533472D02*
X151140067Y-103114424D01*
X151140067Y-103114424D02*
X151166258Y-103038234D01*
X151166258Y-103038234D02*
X151232925Y-103000138D01*
X151232925Y-103000138D02*
X151375782Y-103000138D01*
X151375782Y-103000138D02*
X151451972Y-103038234D01*
X151187687Y-103495377D02*
X151263877Y-103533472D01*
X151263877Y-103533472D02*
X151442448Y-103533472D01*
X151442448Y-103533472D02*
X151509115Y-103495377D01*
X151509115Y-103495377D02*
X151535306Y-103419186D01*
X151535306Y-103419186D02*
X151525782Y-103342996D01*
X151525782Y-103342996D02*
X151480544Y-103266805D01*
X151480544Y-103266805D02*
X151404353Y-103228710D01*
X151404353Y-103228710D02*
X151225782Y-103228710D01*
X151225782Y-103228710D02*
X151149591Y-103190615D01*
X150835306Y-103533472D02*
X150768639Y-103000138D01*
X150787687Y-103152519D02*
X150742449Y-103076329D01*
X150742449Y-103076329D02*
X150701973Y-103038234D01*
X150701973Y-103038234D02*
X150625782Y-103000138D01*
X150625782Y-103000138D02*
X150554354Y-103000138D01*
X150411496Y-103000138D02*
X150125782Y-103000138D01*
X150271020Y-102733472D02*
X150356734Y-103419186D01*
X150356734Y-103419186D02*
X150330544Y-103495377D01*
X150330544Y-103495377D02*
X150263877Y-103533472D01*
X150263877Y-103533472D02*
X150192449Y-103533472D01*
X149942449Y-103533472D02*
X149842449Y-102733472D01*
X149621020Y-103533472D02*
X149568639Y-103114424D01*
X149568639Y-103114424D02*
X149594830Y-103038234D01*
X149594830Y-103038234D02*
X149661497Y-103000138D01*
X149661497Y-103000138D02*
X149768639Y-103000138D01*
X149768639Y-103000138D02*
X149844830Y-103038234D01*
X149844830Y-103038234D02*
X149885306Y-103076329D01*
X149156735Y-103533472D02*
X149223402Y-103495377D01*
X149223402Y-103495377D02*
X149254354Y-103457281D01*
X149254354Y-103457281D02*
X149280545Y-103381091D01*
X149280545Y-103381091D02*
X149251973Y-103152519D01*
X149251973Y-103152519D02*
X149206735Y-103076329D01*
X149206735Y-103076329D02*
X149166259Y-103038234D01*
X149166259Y-103038234D02*
X149090068Y-103000138D01*
X149090068Y-103000138D02*
X148982926Y-103000138D01*
X148982926Y-103000138D02*
X148916259Y-103038234D01*
X148916259Y-103038234D02*
X148885307Y-103076329D01*
X148885307Y-103076329D02*
X148859116Y-103152519D01*
X148859116Y-103152519D02*
X148887688Y-103381091D01*
X148887688Y-103381091D02*
X148932926Y-103457281D01*
X148932926Y-103457281D02*
X148973402Y-103495377D01*
X148973402Y-103495377D02*
X149049592Y-103533472D01*
X149049592Y-103533472D02*
X149156735Y-103533472D01*
X148585307Y-103533472D02*
X148518640Y-103000138D01*
X148537688Y-103152519D02*
X148492450Y-103076329D01*
X148492450Y-103076329D02*
X148451974Y-103038234D01*
X148451974Y-103038234D02*
X148375783Y-103000138D01*
X148375783Y-103000138D02*
X148304355Y-103000138D01*
X148121021Y-103533472D02*
X148021021Y-102733472D01*
X147799592Y-103533472D02*
X147747211Y-103114424D01*
X147747211Y-103114424D02*
X147773402Y-103038234D01*
X147773402Y-103038234D02*
X147840069Y-103000138D01*
X147840069Y-103000138D02*
X147947211Y-103000138D01*
X147947211Y-103000138D02*
X148023402Y-103038234D01*
X148023402Y-103038234D02*
X148063878Y-103076329D01*
X147432926Y-103457281D02*
X147401974Y-103495377D01*
X147401974Y-103495377D02*
X147442450Y-103533472D01*
X147442450Y-103533472D02*
X147473402Y-103495377D01*
X147473402Y-103495377D02*
X147432926Y-103457281D01*
X147432926Y-103457281D02*
X147442450Y-103533472D01*
X146697212Y-103000138D02*
X146778164Y-103647757D01*
X146778164Y-103647757D02*
X146823402Y-103723948D01*
X146823402Y-103723948D02*
X146863878Y-103762043D01*
X146863878Y-103762043D02*
X146940069Y-103800138D01*
X146940069Y-103800138D02*
X147047212Y-103800138D01*
X147047212Y-103800138D02*
X147113878Y-103762043D01*
X146759117Y-103495377D02*
X146835307Y-103533472D01*
X146835307Y-103533472D02*
X146978164Y-103533472D01*
X146978164Y-103533472D02*
X147044831Y-103495377D01*
X147044831Y-103495377D02*
X147075783Y-103457281D01*
X147075783Y-103457281D02*
X147101974Y-103381091D01*
X147101974Y-103381091D02*
X147073402Y-103152519D01*
X147073402Y-103152519D02*
X147028164Y-103076329D01*
X147028164Y-103076329D02*
X146987688Y-103038234D01*
X146987688Y-103038234D02*
X146911497Y-103000138D01*
X146911497Y-103000138D02*
X146768640Y-103000138D01*
X146768640Y-103000138D02*
X146701974Y-103038234D01*
X146406736Y-103533472D02*
X146340069Y-103000138D01*
X146306736Y-102733472D02*
X146347212Y-102771567D01*
X146347212Y-102771567D02*
X146316260Y-102809662D01*
X146316260Y-102809662D02*
X146275784Y-102771567D01*
X146275784Y-102771567D02*
X146306736Y-102733472D01*
X146306736Y-102733472D02*
X146316260Y-102809662D01*
X146090069Y-103000138D02*
X145804355Y-103000138D01*
X145949593Y-102733472D02*
X146035307Y-103419186D01*
X146035307Y-103419186D02*
X146009117Y-103495377D01*
X146009117Y-103495377D02*
X145942450Y-103533472D01*
X145942450Y-103533472D02*
X145871022Y-103533472D01*
X145621022Y-103533472D02*
X145521022Y-102733472D01*
X145299593Y-103533472D02*
X145247212Y-103114424D01*
X145247212Y-103114424D02*
X145273403Y-103038234D01*
X145273403Y-103038234D02*
X145340070Y-103000138D01*
X145340070Y-103000138D02*
X145447212Y-103000138D01*
X145447212Y-103000138D02*
X145523403Y-103038234D01*
X145523403Y-103038234D02*
X145563879Y-103076329D01*
X144554356Y-103000138D02*
X144621022Y-103533472D01*
X144875784Y-103000138D02*
X144928165Y-103419186D01*
X144928165Y-103419186D02*
X144901975Y-103495377D01*
X144901975Y-103495377D02*
X144835308Y-103533472D01*
X144835308Y-103533472D02*
X144728165Y-103533472D01*
X144728165Y-103533472D02*
X144651975Y-103495377D01*
X144651975Y-103495377D02*
X144611499Y-103457281D01*
X144263880Y-103533472D02*
X144163880Y-102733472D01*
X144201975Y-103038234D02*
X144125785Y-103000138D01*
X144125785Y-103000138D02*
X143982928Y-103000138D01*
X143982928Y-103000138D02*
X143916261Y-103038234D01*
X143916261Y-103038234D02*
X143885309Y-103076329D01*
X143885309Y-103076329D02*
X143859118Y-103152519D01*
X143859118Y-103152519D02*
X143887690Y-103381091D01*
X143887690Y-103381091D02*
X143932928Y-103457281D01*
X143932928Y-103457281D02*
X143973404Y-103495377D01*
X143973404Y-103495377D02*
X144049594Y-103533472D01*
X144049594Y-103533472D02*
X144192451Y-103533472D01*
X144192451Y-103533472D02*
X144259118Y-103495377D01*
X143575785Y-103457281D02*
X143544833Y-103495377D01*
X143544833Y-103495377D02*
X143585309Y-103533472D01*
X143585309Y-103533472D02*
X143616261Y-103495377D01*
X143616261Y-103495377D02*
X143575785Y-103457281D01*
X143575785Y-103457281D02*
X143585309Y-103533472D01*
X143228166Y-103533472D02*
X143161499Y-103000138D01*
X143128166Y-102733472D02*
X143168642Y-102771567D01*
X143168642Y-102771567D02*
X143137690Y-102809662D01*
X143137690Y-102809662D02*
X143097214Y-102771567D01*
X143097214Y-102771567D02*
X143128166Y-102733472D01*
X143128166Y-102733472D02*
X143137690Y-102809662D01*
X142763880Y-103533472D02*
X142830547Y-103495377D01*
X142830547Y-103495377D02*
X142861499Y-103457281D01*
X142861499Y-103457281D02*
X142887690Y-103381091D01*
X142887690Y-103381091D02*
X142859118Y-103152519D01*
X142859118Y-103152519D02*
X142813880Y-103076329D01*
X142813880Y-103076329D02*
X142773404Y-103038234D01*
X142773404Y-103038234D02*
X142697213Y-103000138D01*
X142697213Y-103000138D02*
X142590071Y-103000138D01*
X142590071Y-103000138D02*
X142523404Y-103038234D01*
X142523404Y-103038234D02*
X142492452Y-103076329D01*
X142492452Y-103076329D02*
X142466261Y-103152519D01*
X142466261Y-103152519D02*
X142494833Y-103381091D01*
X142494833Y-103381091D02*
X142540071Y-103457281D01*
X142540071Y-103457281D02*
X142580547Y-103495377D01*
X142580547Y-103495377D02*
X142656737Y-103533472D01*
X142656737Y-103533472D02*
X142763880Y-103533472D01*
X141551976Y-102695377D02*
X142323404Y-103723948D01*
X140968643Y-103457281D02*
X141009119Y-103495377D01*
X141009119Y-103495377D02*
X141121024Y-103533472D01*
X141121024Y-103533472D02*
X141192452Y-103533472D01*
X141192452Y-103533472D02*
X141294833Y-103495377D01*
X141294833Y-103495377D02*
X141356738Y-103419186D01*
X141356738Y-103419186D02*
X141382928Y-103342996D01*
X141382928Y-103342996D02*
X141399595Y-103190615D01*
X141399595Y-103190615D02*
X141385309Y-103076329D01*
X141385309Y-103076329D02*
X141330548Y-102923948D01*
X141330548Y-102923948D02*
X141285309Y-102847757D01*
X141285309Y-102847757D02*
X141204357Y-102771567D01*
X141204357Y-102771567D02*
X141092452Y-102733472D01*
X141092452Y-102733472D02*
X141021024Y-102733472D01*
X141021024Y-102733472D02*
X140918643Y-102771567D01*
X140918643Y-102771567D02*
X140887690Y-102809662D01*
X140656738Y-103533472D02*
X140556738Y-102733472D01*
X140335309Y-103533472D02*
X140282928Y-103114424D01*
X140282928Y-103114424D02*
X140309119Y-103038234D01*
X140309119Y-103038234D02*
X140375786Y-103000138D01*
X140375786Y-103000138D02*
X140482928Y-103000138D01*
X140482928Y-103000138D02*
X140559119Y-103038234D01*
X140559119Y-103038234D02*
X140599595Y-103076329D01*
X139656738Y-103533472D02*
X139604357Y-103114424D01*
X139604357Y-103114424D02*
X139630548Y-103038234D01*
X139630548Y-103038234D02*
X139697215Y-103000138D01*
X139697215Y-103000138D02*
X139840072Y-103000138D01*
X139840072Y-103000138D02*
X139916262Y-103038234D01*
X139651977Y-103495377D02*
X139728167Y-103533472D01*
X139728167Y-103533472D02*
X139906738Y-103533472D01*
X139906738Y-103533472D02*
X139973405Y-103495377D01*
X139973405Y-103495377D02*
X139999596Y-103419186D01*
X139999596Y-103419186D02*
X139990072Y-103342996D01*
X139990072Y-103342996D02*
X139944834Y-103266805D01*
X139944834Y-103266805D02*
X139868643Y-103228710D01*
X139868643Y-103228710D02*
X139690072Y-103228710D01*
X139690072Y-103228710D02*
X139613881Y-103190615D01*
X139299596Y-103533472D02*
X139232929Y-103000138D01*
X139199596Y-102733472D02*
X139240072Y-102771567D01*
X139240072Y-102771567D02*
X139209120Y-102809662D01*
X139209120Y-102809662D02*
X139168644Y-102771567D01*
X139168644Y-102771567D02*
X139199596Y-102733472D01*
X139199596Y-102733472D02*
X139209120Y-102809662D01*
X138875786Y-103000138D02*
X138942453Y-103533472D01*
X138885310Y-103076329D02*
X138844834Y-103038234D01*
X138844834Y-103038234D02*
X138768643Y-103000138D01*
X138768643Y-103000138D02*
X138661501Y-103000138D01*
X138661501Y-103000138D02*
X138594834Y-103038234D01*
X138594834Y-103038234D02*
X138568643Y-103114424D01*
X138568643Y-103114424D02*
X138621024Y-103533472D01*
X137961501Y-103114424D02*
X137859120Y-103152519D01*
X137859120Y-103152519D02*
X137828168Y-103190615D01*
X137828168Y-103190615D02*
X137801977Y-103266805D01*
X137801977Y-103266805D02*
X137816263Y-103381091D01*
X137816263Y-103381091D02*
X137861501Y-103457281D01*
X137861501Y-103457281D02*
X137901977Y-103495377D01*
X137901977Y-103495377D02*
X137978168Y-103533472D01*
X137978168Y-103533472D02*
X138263882Y-103533472D01*
X138263882Y-103533472D02*
X138163882Y-102733472D01*
X138163882Y-102733472D02*
X137913882Y-102733472D01*
X137913882Y-102733472D02*
X137847215Y-102771567D01*
X137847215Y-102771567D02*
X137816263Y-102809662D01*
X137816263Y-102809662D02*
X137790072Y-102885853D01*
X137790072Y-102885853D02*
X137799596Y-102962043D01*
X137799596Y-102962043D02*
X137844834Y-103038234D01*
X137844834Y-103038234D02*
X137885311Y-103076329D01*
X137885311Y-103076329D02*
X137961501Y-103114424D01*
X137961501Y-103114424D02*
X138211501Y-103114424D01*
X137125787Y-103000138D02*
X137192453Y-103533472D01*
X137447215Y-103000138D02*
X137499596Y-103419186D01*
X137499596Y-103419186D02*
X137473406Y-103495377D01*
X137473406Y-103495377D02*
X137406739Y-103533472D01*
X137406739Y-103533472D02*
X137299596Y-103533472D01*
X137299596Y-103533472D02*
X137223406Y-103495377D01*
X137223406Y-103495377D02*
X137182930Y-103457281D01*
X136866263Y-103495377D02*
X136799597Y-103533472D01*
X136799597Y-103533472D02*
X136656740Y-103533472D01*
X136656740Y-103533472D02*
X136580549Y-103495377D01*
X136580549Y-103495377D02*
X136535311Y-103419186D01*
X136535311Y-103419186D02*
X136530549Y-103381091D01*
X136530549Y-103381091D02*
X136556740Y-103304900D01*
X136556740Y-103304900D02*
X136623406Y-103266805D01*
X136623406Y-103266805D02*
X136730549Y-103266805D01*
X136730549Y-103266805D02*
X136797216Y-103228710D01*
X136797216Y-103228710D02*
X136823406Y-103152519D01*
X136823406Y-103152519D02*
X136818644Y-103114424D01*
X136818644Y-103114424D02*
X136773406Y-103038234D01*
X136773406Y-103038234D02*
X136697216Y-103000138D01*
X136697216Y-103000138D02*
X136590073Y-103000138D01*
X136590073Y-103000138D02*
X136523406Y-103038234D01*
X150767982Y-102456200D02*
X150848935Y-102494295D01*
X150848935Y-102494295D02*
X151001316Y-102494295D01*
X151001316Y-102494295D02*
X151072744Y-102456200D01*
X151072744Y-102456200D02*
X151106077Y-102418104D01*
X151106077Y-102418104D02*
X151134649Y-102341914D01*
X151134649Y-102341914D02*
X151106077Y-102113342D01*
X151106077Y-102113342D02*
X151058458Y-102037152D01*
X151058458Y-102037152D02*
X151015601Y-101999057D01*
X151015601Y-101999057D02*
X150934649Y-101960961D01*
X150934649Y-101960961D02*
X150782268Y-101960961D01*
X150782268Y-101960961D02*
X150710839Y-101999057D01*
X150315602Y-102494295D02*
X150387030Y-102456200D01*
X150387030Y-102456200D02*
X150420363Y-102418104D01*
X150420363Y-102418104D02*
X150448935Y-102341914D01*
X150448935Y-102341914D02*
X150420363Y-102113342D01*
X150420363Y-102113342D02*
X150372744Y-102037152D01*
X150372744Y-102037152D02*
X150329887Y-101999057D01*
X150329887Y-101999057D02*
X150248935Y-101960961D01*
X150248935Y-101960961D02*
X150134649Y-101960961D01*
X150134649Y-101960961D02*
X150063221Y-101999057D01*
X150063221Y-101999057D02*
X150029887Y-102037152D01*
X150029887Y-102037152D02*
X150001316Y-102113342D01*
X150001316Y-102113342D02*
X150029887Y-102341914D01*
X150029887Y-102341914D02*
X150077506Y-102418104D01*
X150077506Y-102418104D02*
X150120363Y-102456200D01*
X150120363Y-102456200D02*
X150201316Y-102494295D01*
X150201316Y-102494295D02*
X150315602Y-102494295D01*
X149639411Y-101960961D02*
X149706077Y-102494295D01*
X149648934Y-102037152D02*
X149606077Y-101999057D01*
X149606077Y-101999057D02*
X149525125Y-101960961D01*
X149525125Y-101960961D02*
X149410839Y-101960961D01*
X149410839Y-101960961D02*
X149339411Y-101999057D01*
X149339411Y-101999057D02*
X149310839Y-102075247D01*
X149310839Y-102075247D02*
X149363220Y-102494295D01*
X148915601Y-101960961D02*
X148982267Y-102494295D01*
X148925124Y-102037152D02*
X148882267Y-101999057D01*
X148882267Y-101999057D02*
X148801315Y-101960961D01*
X148801315Y-101960961D02*
X148687029Y-101960961D01*
X148687029Y-101960961D02*
X148615601Y-101999057D01*
X148615601Y-101999057D02*
X148587029Y-102075247D01*
X148587029Y-102075247D02*
X148639410Y-102494295D01*
X147948933Y-102456200D02*
X148029886Y-102494295D01*
X148029886Y-102494295D02*
X148182267Y-102494295D01*
X148182267Y-102494295D02*
X148253695Y-102456200D01*
X148253695Y-102456200D02*
X148282267Y-102380009D01*
X148282267Y-102380009D02*
X148244172Y-102075247D01*
X148244172Y-102075247D02*
X148196552Y-101999057D01*
X148196552Y-101999057D02*
X148115600Y-101960961D01*
X148115600Y-101960961D02*
X147963219Y-101960961D01*
X147963219Y-101960961D02*
X147891791Y-101999057D01*
X147891791Y-101999057D02*
X147863219Y-102075247D01*
X147863219Y-102075247D02*
X147872743Y-102151438D01*
X147872743Y-102151438D02*
X148263219Y-102227628D01*
X147225124Y-102456200D02*
X147306077Y-102494295D01*
X147306077Y-102494295D02*
X147458458Y-102494295D01*
X147458458Y-102494295D02*
X147529886Y-102456200D01*
X147529886Y-102456200D02*
X147563219Y-102418104D01*
X147563219Y-102418104D02*
X147591791Y-102341914D01*
X147591791Y-102341914D02*
X147563219Y-102113342D01*
X147563219Y-102113342D02*
X147515600Y-102037152D01*
X147515600Y-102037152D02*
X147472743Y-101999057D01*
X147472743Y-101999057D02*
X147391791Y-101960961D01*
X147391791Y-101960961D02*
X147239410Y-101960961D01*
X147239410Y-101960961D02*
X147167981Y-101999057D01*
X146934648Y-101960961D02*
X146629886Y-101960961D01*
X146787029Y-101694295D02*
X146872744Y-102380009D01*
X146872744Y-102380009D02*
X146844172Y-102456200D01*
X146844172Y-102456200D02*
X146772744Y-102494295D01*
X146772744Y-102494295D02*
X146696553Y-102494295D01*
X146315601Y-102494295D02*
X146387029Y-102456200D01*
X146387029Y-102456200D02*
X146420362Y-102418104D01*
X146420362Y-102418104D02*
X146448934Y-102341914D01*
X146448934Y-102341914D02*
X146420362Y-102113342D01*
X146420362Y-102113342D02*
X146372743Y-102037152D01*
X146372743Y-102037152D02*
X146329886Y-101999057D01*
X146329886Y-101999057D02*
X146248934Y-101960961D01*
X146248934Y-101960961D02*
X146134648Y-101960961D01*
X146134648Y-101960961D02*
X146063220Y-101999057D01*
X146063220Y-101999057D02*
X146029886Y-102037152D01*
X146029886Y-102037152D02*
X146001315Y-102113342D01*
X146001315Y-102113342D02*
X146029886Y-102341914D01*
X146029886Y-102341914D02*
X146077505Y-102418104D01*
X146077505Y-102418104D02*
X146120362Y-102456200D01*
X146120362Y-102456200D02*
X146201315Y-102494295D01*
X146201315Y-102494295D02*
X146315601Y-102494295D01*
X145706076Y-102494295D02*
X145639410Y-101960961D01*
X145658457Y-102113342D02*
X145610838Y-102037152D01*
X145610838Y-102037152D02*
X145567981Y-101999057D01*
X145567981Y-101999057D02*
X145487029Y-101960961D01*
X145487029Y-101960961D02*
X145410838Y-101960961D01*
X144534648Y-101960961D02*
X144634648Y-102760961D01*
X144539409Y-101999057D02*
X144458457Y-101960961D01*
X144458457Y-101960961D02*
X144306076Y-101960961D01*
X144306076Y-101960961D02*
X144234648Y-101999057D01*
X144234648Y-101999057D02*
X144201314Y-102037152D01*
X144201314Y-102037152D02*
X144172743Y-102113342D01*
X144172743Y-102113342D02*
X144201314Y-102341914D01*
X144201314Y-102341914D02*
X144248933Y-102418104D01*
X144248933Y-102418104D02*
X144291790Y-102456200D01*
X144291790Y-102456200D02*
X144372743Y-102494295D01*
X144372743Y-102494295D02*
X144525124Y-102494295D01*
X144525124Y-102494295D02*
X144596552Y-102456200D01*
X143763219Y-102494295D02*
X143834647Y-102456200D01*
X143834647Y-102456200D02*
X143867980Y-102418104D01*
X143867980Y-102418104D02*
X143896552Y-102341914D01*
X143896552Y-102341914D02*
X143867980Y-102113342D01*
X143867980Y-102113342D02*
X143820361Y-102037152D01*
X143820361Y-102037152D02*
X143777504Y-101999057D01*
X143777504Y-101999057D02*
X143696552Y-101960961D01*
X143696552Y-101960961D02*
X143582266Y-101960961D01*
X143582266Y-101960961D02*
X143510838Y-101999057D01*
X143510838Y-101999057D02*
X143477504Y-102037152D01*
X143477504Y-102037152D02*
X143448933Y-102113342D01*
X143448933Y-102113342D02*
X143477504Y-102341914D01*
X143477504Y-102341914D02*
X143525123Y-102418104D01*
X143525123Y-102418104D02*
X143567980Y-102456200D01*
X143567980Y-102456200D02*
X143648933Y-102494295D01*
X143648933Y-102494295D02*
X143763219Y-102494295D01*
X143163218Y-101960961D02*
X143077504Y-102494295D01*
X143077504Y-102494295D02*
X142877504Y-102113342D01*
X142877504Y-102113342D02*
X142772742Y-102494295D01*
X142772742Y-102494295D02*
X142553694Y-101960961D01*
X142006075Y-102456200D02*
X142087028Y-102494295D01*
X142087028Y-102494295D02*
X142239409Y-102494295D01*
X142239409Y-102494295D02*
X142310837Y-102456200D01*
X142310837Y-102456200D02*
X142339409Y-102380009D01*
X142339409Y-102380009D02*
X142301314Y-102075247D01*
X142301314Y-102075247D02*
X142253694Y-101999057D01*
X142253694Y-101999057D02*
X142172742Y-101960961D01*
X142172742Y-101960961D02*
X142020361Y-101960961D01*
X142020361Y-101960961D02*
X141948933Y-101999057D01*
X141948933Y-101999057D02*
X141920361Y-102075247D01*
X141920361Y-102075247D02*
X141929885Y-102151438D01*
X141929885Y-102151438D02*
X142320361Y-102227628D01*
X141629885Y-102494295D02*
X141563219Y-101960961D01*
X141582266Y-102113342D02*
X141534647Y-102037152D01*
X141534647Y-102037152D02*
X141491790Y-101999057D01*
X141491790Y-101999057D02*
X141410838Y-101960961D01*
X141410838Y-101960961D02*
X141334647Y-101960961D01*
X140825123Y-102456200D02*
X140906076Y-102494295D01*
X140906076Y-102494295D02*
X141058457Y-102494295D01*
X141058457Y-102494295D02*
X141129885Y-102456200D01*
X141129885Y-102456200D02*
X141158457Y-102380009D01*
X141158457Y-102380009D02*
X141120362Y-102075247D01*
X141120362Y-102075247D02*
X141072742Y-101999057D01*
X141072742Y-101999057D02*
X140991790Y-101960961D01*
X140991790Y-101960961D02*
X140839409Y-101960961D01*
X140839409Y-101960961D02*
X140767981Y-101999057D01*
X140767981Y-101999057D02*
X140739409Y-102075247D01*
X140739409Y-102075247D02*
X140748933Y-102151438D01*
X140748933Y-102151438D02*
X141139409Y-102227628D01*
X140106076Y-102494295D02*
X140006076Y-101694295D01*
X140101314Y-102456200D02*
X140182267Y-102494295D01*
X140182267Y-102494295D02*
X140334648Y-102494295D01*
X140334648Y-102494295D02*
X140406076Y-102456200D01*
X140406076Y-102456200D02*
X140439409Y-102418104D01*
X140439409Y-102418104D02*
X140467981Y-102341914D01*
X140467981Y-102341914D02*
X140439409Y-102113342D01*
X140439409Y-102113342D02*
X140391790Y-102037152D01*
X140391790Y-102037152D02*
X140348933Y-101999057D01*
X140348933Y-101999057D02*
X140267981Y-101960961D01*
X140267981Y-101960961D02*
X140115600Y-101960961D01*
X140115600Y-101960961D02*
X140044171Y-101999057D01*
X139115599Y-102494295D02*
X139015599Y-101694295D01*
X139053694Y-101999057D02*
X138972742Y-101960961D01*
X138972742Y-101960961D02*
X138820361Y-101960961D01*
X138820361Y-101960961D02*
X138748933Y-101999057D01*
X138748933Y-101999057D02*
X138715599Y-102037152D01*
X138715599Y-102037152D02*
X138687028Y-102113342D01*
X138687028Y-102113342D02*
X138715599Y-102341914D01*
X138715599Y-102341914D02*
X138763218Y-102418104D01*
X138763218Y-102418104D02*
X138806075Y-102456200D01*
X138806075Y-102456200D02*
X138887028Y-102494295D01*
X138887028Y-102494295D02*
X139039409Y-102494295D01*
X139039409Y-102494295D02*
X139110837Y-102456200D01*
X138401313Y-101960961D02*
X138277504Y-102494295D01*
X138020361Y-101960961D02*
X138277504Y-102494295D01*
X138277504Y-102494295D02*
X138377504Y-102684771D01*
X138377504Y-102684771D02*
X138420361Y-102722866D01*
X138420361Y-102722866D02*
X138501313Y-102760961D01*
D11*
X104780326Y-109307275D02*
X104780326Y-108307275D01*
X104780326Y-108307275D02*
X104542231Y-108307275D01*
X104542231Y-108307275D02*
X104399374Y-108354894D01*
X104399374Y-108354894D02*
X104304136Y-108450132D01*
X104304136Y-108450132D02*
X104256517Y-108545370D01*
X104256517Y-108545370D02*
X104208898Y-108735846D01*
X104208898Y-108735846D02*
X104208898Y-108878703D01*
X104208898Y-108878703D02*
X104256517Y-109069179D01*
X104256517Y-109069179D02*
X104304136Y-109164417D01*
X104304136Y-109164417D02*
X104399374Y-109259656D01*
X104399374Y-109259656D02*
X104542231Y-109307275D01*
X104542231Y-109307275D02*
X104780326Y-109307275D01*
X103780326Y-108783465D02*
X103446993Y-108783465D01*
X103304136Y-109307275D02*
X103780326Y-109307275D01*
X103780326Y-109307275D02*
X103780326Y-108307275D01*
X103780326Y-108307275D02*
X103304136Y-108307275D01*
X103018421Y-108307275D02*
X102685088Y-109307275D01*
X102685088Y-109307275D02*
X102351755Y-108307275D01*
X102018421Y-109307275D02*
X102018421Y-108307275D01*
X100970803Y-109212036D02*
X101018422Y-109259656D01*
X101018422Y-109259656D02*
X101161279Y-109307275D01*
X101161279Y-109307275D02*
X101256517Y-109307275D01*
X101256517Y-109307275D02*
X101399374Y-109259656D01*
X101399374Y-109259656D02*
X101494612Y-109164417D01*
X101494612Y-109164417D02*
X101542231Y-109069179D01*
X101542231Y-109069179D02*
X101589850Y-108878703D01*
X101589850Y-108878703D02*
X101589850Y-108735846D01*
X101589850Y-108735846D02*
X101542231Y-108545370D01*
X101542231Y-108545370D02*
X101494612Y-108450132D01*
X101494612Y-108450132D02*
X101399374Y-108354894D01*
X101399374Y-108354894D02*
X101256517Y-108307275D01*
X101256517Y-108307275D02*
X101161279Y-108307275D01*
X101161279Y-108307275D02*
X101018422Y-108354894D01*
X101018422Y-108354894D02*
X100970803Y-108402513D01*
X100542231Y-108783465D02*
X100208898Y-108783465D01*
X100066041Y-109307275D02*
X100542231Y-109307275D01*
X100542231Y-109307275D02*
X100542231Y-108307275D01*
X100542231Y-108307275D02*
X100066041Y-108307275D01*
X98875564Y-108783465D02*
X98542231Y-108783465D01*
X98399374Y-109307275D02*
X98875564Y-109307275D01*
X98875564Y-109307275D02*
X98875564Y-108307275D01*
X98875564Y-108307275D02*
X98399374Y-108307275D01*
X98018421Y-109259656D02*
X97875564Y-109307275D01*
X97875564Y-109307275D02*
X97637469Y-109307275D01*
X97637469Y-109307275D02*
X97542231Y-109259656D01*
X97542231Y-109259656D02*
X97494612Y-109212036D01*
X97494612Y-109212036D02*
X97446993Y-109116798D01*
X97446993Y-109116798D02*
X97446993Y-109021560D01*
X97446993Y-109021560D02*
X97494612Y-108926322D01*
X97494612Y-108926322D02*
X97542231Y-108878703D01*
X97542231Y-108878703D02*
X97637469Y-108831084D01*
X97637469Y-108831084D02*
X97827945Y-108783465D01*
X97827945Y-108783465D02*
X97923183Y-108735846D01*
X97923183Y-108735846D02*
X97970802Y-108688227D01*
X97970802Y-108688227D02*
X98018421Y-108592989D01*
X98018421Y-108592989D02*
X98018421Y-108497751D01*
X98018421Y-108497751D02*
X97970802Y-108402513D01*
X97970802Y-108402513D02*
X97923183Y-108354894D01*
X97923183Y-108354894D02*
X97827945Y-108307275D01*
X97827945Y-108307275D02*
X97589850Y-108307275D01*
X97589850Y-108307275D02*
X97446993Y-108354894D01*
X97018421Y-109307275D02*
X97018421Y-108307275D01*
X97018421Y-108307275D02*
X96780326Y-108307275D01*
X96780326Y-108307275D02*
X96637469Y-108354894D01*
X96637469Y-108354894D02*
X96542231Y-108450132D01*
X96542231Y-108450132D02*
X96494612Y-108545370D01*
X96494612Y-108545370D02*
X96446993Y-108735846D01*
X96446993Y-108735846D02*
X96446993Y-108878703D01*
X96446993Y-108878703D02*
X96494612Y-109069179D01*
X96494612Y-109069179D02*
X96542231Y-109164417D01*
X96542231Y-109164417D02*
X96637469Y-109259656D01*
X96637469Y-109259656D02*
X96780326Y-109307275D01*
X96780326Y-109307275D02*
X97018421Y-109307275D01*
X104827945Y-110869600D02*
X104685088Y-110917219D01*
X104685088Y-110917219D02*
X104446993Y-110917219D01*
X104446993Y-110917219D02*
X104351755Y-110869600D01*
X104351755Y-110869600D02*
X104304136Y-110821980D01*
X104304136Y-110821980D02*
X104256517Y-110726742D01*
X104256517Y-110726742D02*
X104256517Y-110631504D01*
X104256517Y-110631504D02*
X104304136Y-110536266D01*
X104304136Y-110536266D02*
X104351755Y-110488647D01*
X104351755Y-110488647D02*
X104446993Y-110441028D01*
X104446993Y-110441028D02*
X104637469Y-110393409D01*
X104637469Y-110393409D02*
X104732707Y-110345790D01*
X104732707Y-110345790D02*
X104780326Y-110298171D01*
X104780326Y-110298171D02*
X104827945Y-110202933D01*
X104827945Y-110202933D02*
X104827945Y-110107695D01*
X104827945Y-110107695D02*
X104780326Y-110012457D01*
X104780326Y-110012457D02*
X104732707Y-109964838D01*
X104732707Y-109964838D02*
X104637469Y-109917219D01*
X104637469Y-109917219D02*
X104399374Y-109917219D01*
X104399374Y-109917219D02*
X104256517Y-109964838D01*
X103827945Y-110393409D02*
X103494612Y-110393409D01*
X103351755Y-110917219D02*
X103827945Y-110917219D01*
X103827945Y-110917219D02*
X103827945Y-109917219D01*
X103827945Y-109917219D02*
X103351755Y-109917219D01*
X102923183Y-110917219D02*
X102923183Y-109917219D01*
X102923183Y-109917219D02*
X102351755Y-110917219D01*
X102351755Y-110917219D02*
X102351755Y-109917219D01*
X101923183Y-110869600D02*
X101780326Y-110917219D01*
X101780326Y-110917219D02*
X101542231Y-110917219D01*
X101542231Y-110917219D02*
X101446993Y-110869600D01*
X101446993Y-110869600D02*
X101399374Y-110821980D01*
X101399374Y-110821980D02*
X101351755Y-110726742D01*
X101351755Y-110726742D02*
X101351755Y-110631504D01*
X101351755Y-110631504D02*
X101399374Y-110536266D01*
X101399374Y-110536266D02*
X101446993Y-110488647D01*
X101446993Y-110488647D02*
X101542231Y-110441028D01*
X101542231Y-110441028D02*
X101732707Y-110393409D01*
X101732707Y-110393409D02*
X101827945Y-110345790D01*
X101827945Y-110345790D02*
X101875564Y-110298171D01*
X101875564Y-110298171D02*
X101923183Y-110202933D01*
X101923183Y-110202933D02*
X101923183Y-110107695D01*
X101923183Y-110107695D02*
X101875564Y-110012457D01*
X101875564Y-110012457D02*
X101827945Y-109964838D01*
X101827945Y-109964838D02*
X101732707Y-109917219D01*
X101732707Y-109917219D02*
X101494612Y-109917219D01*
X101494612Y-109917219D02*
X101351755Y-109964838D01*
X100923183Y-110393409D02*
X100589850Y-110393409D01*
X100446993Y-110917219D02*
X100923183Y-110917219D01*
X100923183Y-110917219D02*
X100923183Y-109917219D01*
X100923183Y-109917219D02*
X100446993Y-109917219D01*
X100161278Y-109917219D02*
X99589850Y-109917219D01*
X99875564Y-110917219D02*
X99875564Y-109917219D01*
X99256516Y-110917219D02*
X99256516Y-109917219D01*
X98923183Y-109917219D02*
X98589850Y-110917219D01*
X98589850Y-110917219D02*
X98256517Y-109917219D01*
X97923183Y-110393409D02*
X97589850Y-110393409D01*
X97446993Y-110917219D02*
X97923183Y-110917219D01*
X97923183Y-110917219D02*
X97923183Y-109917219D01*
X97923183Y-109917219D02*
X97446993Y-109917219D01*
X116363660Y-107262457D02*
X116458898Y-107214838D01*
X116458898Y-107214838D02*
X116554136Y-107119600D01*
X116554136Y-107119600D02*
X116696993Y-106976742D01*
X116696993Y-106976742D02*
X116792231Y-106929123D01*
X116792231Y-106929123D02*
X116887469Y-106929123D01*
X116839850Y-107167219D02*
X116935088Y-107119600D01*
X116935088Y-107119600D02*
X117030326Y-107024361D01*
X117030326Y-107024361D02*
X117077945Y-106833885D01*
X117077945Y-106833885D02*
X117077945Y-106500552D01*
X117077945Y-106500552D02*
X117030326Y-106310076D01*
X117030326Y-106310076D02*
X116935088Y-106214838D01*
X116935088Y-106214838D02*
X116839850Y-106167219D01*
X116839850Y-106167219D02*
X116649374Y-106167219D01*
X116649374Y-106167219D02*
X116554136Y-106214838D01*
X116554136Y-106214838D02*
X116458898Y-106310076D01*
X116458898Y-106310076D02*
X116411279Y-106500552D01*
X116411279Y-106500552D02*
X116411279Y-106833885D01*
X116411279Y-106833885D02*
X116458898Y-107024361D01*
X116458898Y-107024361D02*
X116554136Y-107119600D01*
X116554136Y-107119600D02*
X116649374Y-107167219D01*
X116649374Y-107167219D02*
X116839850Y-107167219D01*
X115411279Y-107071980D02*
X115458898Y-107119600D01*
X115458898Y-107119600D02*
X115601755Y-107167219D01*
X115601755Y-107167219D02*
X115696993Y-107167219D01*
X115696993Y-107167219D02*
X115839850Y-107119600D01*
X115839850Y-107119600D02*
X115935088Y-107024361D01*
X115935088Y-107024361D02*
X115982707Y-106929123D01*
X115982707Y-106929123D02*
X116030326Y-106738647D01*
X116030326Y-106738647D02*
X116030326Y-106595790D01*
X116030326Y-106595790D02*
X115982707Y-106405314D01*
X115982707Y-106405314D02*
X115935088Y-106310076D01*
X115935088Y-106310076D02*
X115839850Y-106214838D01*
X115839850Y-106214838D02*
X115696993Y-106167219D01*
X115696993Y-106167219D02*
X115601755Y-106167219D01*
X115601755Y-106167219D02*
X115458898Y-106214838D01*
X115458898Y-106214838D02*
X115411279Y-106262457D01*
X124277945Y-105919600D02*
X124135088Y-105967219D01*
X124135088Y-105967219D02*
X123896993Y-105967219D01*
X123896993Y-105967219D02*
X123801755Y-105919600D01*
X123801755Y-105919600D02*
X123754136Y-105871980D01*
X123754136Y-105871980D02*
X123706517Y-105776742D01*
X123706517Y-105776742D02*
X123706517Y-105681504D01*
X123706517Y-105681504D02*
X123754136Y-105586266D01*
X123754136Y-105586266D02*
X123801755Y-105538647D01*
X123801755Y-105538647D02*
X123896993Y-105491028D01*
X123896993Y-105491028D02*
X124087469Y-105443409D01*
X124087469Y-105443409D02*
X124182707Y-105395790D01*
X124182707Y-105395790D02*
X124230326Y-105348171D01*
X124230326Y-105348171D02*
X124277945Y-105252933D01*
X124277945Y-105252933D02*
X124277945Y-105157695D01*
X124277945Y-105157695D02*
X124230326Y-105062457D01*
X124230326Y-105062457D02*
X124182707Y-105014838D01*
X124182707Y-105014838D02*
X124087469Y-104967219D01*
X124087469Y-104967219D02*
X123849374Y-104967219D01*
X123849374Y-104967219D02*
X123706517Y-105014838D01*
X123277945Y-105967219D02*
X123277945Y-104967219D01*
X123277945Y-104967219D02*
X122706517Y-105967219D01*
X122706517Y-105967219D02*
X122706517Y-104967219D01*
X79332780Y-124830326D02*
X80332780Y-124830326D01*
X80332780Y-124830326D02*
X79332780Y-124258898D01*
X79332780Y-124258898D02*
X80332780Y-124258898D01*
X80332780Y-123592231D02*
X80332780Y-123401755D01*
X80332780Y-123401755D02*
X80285161Y-123306517D01*
X80285161Y-123306517D02*
X80189923Y-123211279D01*
X80189923Y-123211279D02*
X79999447Y-123163660D01*
X79999447Y-123163660D02*
X79666114Y-123163660D01*
X79666114Y-123163660D02*
X79475638Y-123211279D01*
X79475638Y-123211279D02*
X79380400Y-123306517D01*
X79380400Y-123306517D02*
X79332780Y-123401755D01*
X79332780Y-123401755D02*
X79332780Y-123592231D01*
X79332780Y-123592231D02*
X79380400Y-123687469D01*
X79380400Y-123687469D02*
X79475638Y-123782707D01*
X79475638Y-123782707D02*
X79666114Y-123830326D01*
X79666114Y-123830326D02*
X79999447Y-123830326D01*
X79999447Y-123830326D02*
X80189923Y-123782707D01*
X80189923Y-123782707D02*
X80285161Y-123687469D01*
X80285161Y-123687469D02*
X80332780Y-123592231D01*
X81828019Y-124058898D02*
X81780400Y-124106517D01*
X81780400Y-124106517D02*
X81732780Y-124249374D01*
X81732780Y-124249374D02*
X81732780Y-124344612D01*
X81732780Y-124344612D02*
X81780400Y-124487469D01*
X81780400Y-124487469D02*
X81875638Y-124582707D01*
X81875638Y-124582707D02*
X81970876Y-124630326D01*
X81970876Y-124630326D02*
X82161352Y-124677945D01*
X82161352Y-124677945D02*
X82304209Y-124677945D01*
X82304209Y-124677945D02*
X82494685Y-124630326D01*
X82494685Y-124630326D02*
X82589923Y-124582707D01*
X82589923Y-124582707D02*
X82685161Y-124487469D01*
X82685161Y-124487469D02*
X82732780Y-124344612D01*
X82732780Y-124344612D02*
X82732780Y-124249374D01*
X82732780Y-124249374D02*
X82685161Y-124106517D01*
X82685161Y-124106517D02*
X82637542Y-124058898D01*
X82732780Y-123439850D02*
X82732780Y-123249374D01*
X82732780Y-123249374D02*
X82685161Y-123154136D01*
X82685161Y-123154136D02*
X82589923Y-123058898D01*
X82589923Y-123058898D02*
X82399447Y-123011279D01*
X82399447Y-123011279D02*
X82066114Y-123011279D01*
X82066114Y-123011279D02*
X81875638Y-123058898D01*
X81875638Y-123058898D02*
X81780400Y-123154136D01*
X81780400Y-123154136D02*
X81732780Y-123249374D01*
X81732780Y-123249374D02*
X81732780Y-123439850D01*
X81732780Y-123439850D02*
X81780400Y-123535088D01*
X81780400Y-123535088D02*
X81875638Y-123630326D01*
X81875638Y-123630326D02*
X82066114Y-123677945D01*
X82066114Y-123677945D02*
X82399447Y-123677945D01*
X82399447Y-123677945D02*
X82589923Y-123630326D01*
X82589923Y-123630326D02*
X82685161Y-123535088D01*
X82685161Y-123535088D02*
X82732780Y-123439850D01*
X81732780Y-122582707D02*
X82732780Y-122582707D01*
X82732780Y-122582707D02*
X82018495Y-122249374D01*
X82018495Y-122249374D02*
X82732780Y-121916041D01*
X82732780Y-121916041D02*
X81732780Y-121916041D01*
X83932780Y-124830326D02*
X84932780Y-124830326D01*
X84932780Y-124830326D02*
X83932780Y-124258898D01*
X83932780Y-124258898D02*
X84932780Y-124258898D01*
X84028019Y-123211279D02*
X83980400Y-123258898D01*
X83980400Y-123258898D02*
X83932780Y-123401755D01*
X83932780Y-123401755D02*
X83932780Y-123496993D01*
X83932780Y-123496993D02*
X83980400Y-123639850D01*
X83980400Y-123639850D02*
X84075638Y-123735088D01*
X84075638Y-123735088D02*
X84170876Y-123782707D01*
X84170876Y-123782707D02*
X84361352Y-123830326D01*
X84361352Y-123830326D02*
X84504209Y-123830326D01*
X84504209Y-123830326D02*
X84694685Y-123782707D01*
X84694685Y-123782707D02*
X84789923Y-123735088D01*
X84789923Y-123735088D02*
X84885161Y-123639850D01*
X84885161Y-123639850D02*
X84932780Y-123496993D01*
X84932780Y-123496993D02*
X84932780Y-123401755D01*
X84932780Y-123401755D02*
X84885161Y-123258898D01*
X84885161Y-123258898D02*
X84837542Y-123211279D01*
X91532780Y-126230326D02*
X92532780Y-126230326D01*
X92532780Y-126230326D02*
X91532780Y-125658898D01*
X91532780Y-125658898D02*
X92532780Y-125658898D01*
X92532780Y-124992231D02*
X92532780Y-124801755D01*
X92532780Y-124801755D02*
X92485161Y-124706517D01*
X92485161Y-124706517D02*
X92389923Y-124611279D01*
X92389923Y-124611279D02*
X92199447Y-124563660D01*
X92199447Y-124563660D02*
X91866114Y-124563660D01*
X91866114Y-124563660D02*
X91675638Y-124611279D01*
X91675638Y-124611279D02*
X91580400Y-124706517D01*
X91580400Y-124706517D02*
X91532780Y-124801755D01*
X91532780Y-124801755D02*
X91532780Y-124992231D01*
X91532780Y-124992231D02*
X91580400Y-125087469D01*
X91580400Y-125087469D02*
X91675638Y-125182707D01*
X91675638Y-125182707D02*
X91866114Y-125230326D01*
X91866114Y-125230326D02*
X92199447Y-125230326D01*
X92199447Y-125230326D02*
X92389923Y-125182707D01*
X92389923Y-125182707D02*
X92485161Y-125087469D01*
X92485161Y-125087469D02*
X92532780Y-124992231D01*
X94228019Y-125658898D02*
X94180400Y-125706517D01*
X94180400Y-125706517D02*
X94132780Y-125849374D01*
X94132780Y-125849374D02*
X94132780Y-125944612D01*
X94132780Y-125944612D02*
X94180400Y-126087469D01*
X94180400Y-126087469D02*
X94275638Y-126182707D01*
X94275638Y-126182707D02*
X94370876Y-126230326D01*
X94370876Y-126230326D02*
X94561352Y-126277945D01*
X94561352Y-126277945D02*
X94704209Y-126277945D01*
X94704209Y-126277945D02*
X94894685Y-126230326D01*
X94894685Y-126230326D02*
X94989923Y-126182707D01*
X94989923Y-126182707D02*
X95085161Y-126087469D01*
X95085161Y-126087469D02*
X95132780Y-125944612D01*
X95132780Y-125944612D02*
X95132780Y-125849374D01*
X95132780Y-125849374D02*
X95085161Y-125706517D01*
X95085161Y-125706517D02*
X95037542Y-125658898D01*
X95132780Y-125039850D02*
X95132780Y-124849374D01*
X95132780Y-124849374D02*
X95085161Y-124754136D01*
X95085161Y-124754136D02*
X94989923Y-124658898D01*
X94989923Y-124658898D02*
X94799447Y-124611279D01*
X94799447Y-124611279D02*
X94466114Y-124611279D01*
X94466114Y-124611279D02*
X94275638Y-124658898D01*
X94275638Y-124658898D02*
X94180400Y-124754136D01*
X94180400Y-124754136D02*
X94132780Y-124849374D01*
X94132780Y-124849374D02*
X94132780Y-125039850D01*
X94132780Y-125039850D02*
X94180400Y-125135088D01*
X94180400Y-125135088D02*
X94275638Y-125230326D01*
X94275638Y-125230326D02*
X94466114Y-125277945D01*
X94466114Y-125277945D02*
X94799447Y-125277945D01*
X94799447Y-125277945D02*
X94989923Y-125230326D01*
X94989923Y-125230326D02*
X95085161Y-125135088D01*
X95085161Y-125135088D02*
X95132780Y-125039850D01*
X94132780Y-124182707D02*
X95132780Y-124182707D01*
X95132780Y-124182707D02*
X94418495Y-123849374D01*
X94418495Y-123849374D02*
X95132780Y-123516041D01*
X95132780Y-123516041D02*
X94132780Y-123516041D01*
X96132780Y-126230326D02*
X97132780Y-126230326D01*
X97132780Y-126230326D02*
X96132780Y-125658898D01*
X96132780Y-125658898D02*
X97132780Y-125658898D01*
X96228019Y-124611279D02*
X96180400Y-124658898D01*
X96180400Y-124658898D02*
X96132780Y-124801755D01*
X96132780Y-124801755D02*
X96132780Y-124896993D01*
X96132780Y-124896993D02*
X96180400Y-125039850D01*
X96180400Y-125039850D02*
X96275638Y-125135088D01*
X96275638Y-125135088D02*
X96370876Y-125182707D01*
X96370876Y-125182707D02*
X96561352Y-125230326D01*
X96561352Y-125230326D02*
X96704209Y-125230326D01*
X96704209Y-125230326D02*
X96894685Y-125182707D01*
X96894685Y-125182707D02*
X96989923Y-125135088D01*
X96989923Y-125135088D02*
X97085161Y-125039850D01*
X97085161Y-125039850D02*
X97132780Y-124896993D01*
X97132780Y-124896993D02*
X97132780Y-124801755D01*
X97132780Y-124801755D02*
X97085161Y-124658898D01*
X97085161Y-124658898D02*
X97037542Y-124611279D01*
X109132780Y-126630326D02*
X110132780Y-126630326D01*
X110132780Y-126630326D02*
X109132780Y-126058898D01*
X109132780Y-126058898D02*
X110132780Y-126058898D01*
X110132780Y-125392231D02*
X110132780Y-125201755D01*
X110132780Y-125201755D02*
X110085161Y-125106517D01*
X110085161Y-125106517D02*
X109989923Y-125011279D01*
X109989923Y-125011279D02*
X109799447Y-124963660D01*
X109799447Y-124963660D02*
X109466114Y-124963660D01*
X109466114Y-124963660D02*
X109275638Y-125011279D01*
X109275638Y-125011279D02*
X109180400Y-125106517D01*
X109180400Y-125106517D02*
X109132780Y-125201755D01*
X109132780Y-125201755D02*
X109132780Y-125392231D01*
X109132780Y-125392231D02*
X109180400Y-125487469D01*
X109180400Y-125487469D02*
X109275638Y-125582707D01*
X109275638Y-125582707D02*
X109466114Y-125630326D01*
X109466114Y-125630326D02*
X109799447Y-125630326D01*
X109799447Y-125630326D02*
X109989923Y-125582707D01*
X109989923Y-125582707D02*
X110085161Y-125487469D01*
X110085161Y-125487469D02*
X110132780Y-125392231D01*
X111828019Y-126058898D02*
X111780400Y-126106517D01*
X111780400Y-126106517D02*
X111732780Y-126249374D01*
X111732780Y-126249374D02*
X111732780Y-126344612D01*
X111732780Y-126344612D02*
X111780400Y-126487469D01*
X111780400Y-126487469D02*
X111875638Y-126582707D01*
X111875638Y-126582707D02*
X111970876Y-126630326D01*
X111970876Y-126630326D02*
X112161352Y-126677945D01*
X112161352Y-126677945D02*
X112304209Y-126677945D01*
X112304209Y-126677945D02*
X112494685Y-126630326D01*
X112494685Y-126630326D02*
X112589923Y-126582707D01*
X112589923Y-126582707D02*
X112685161Y-126487469D01*
X112685161Y-126487469D02*
X112732780Y-126344612D01*
X112732780Y-126344612D02*
X112732780Y-126249374D01*
X112732780Y-126249374D02*
X112685161Y-126106517D01*
X112685161Y-126106517D02*
X112637542Y-126058898D01*
X112732780Y-125439850D02*
X112732780Y-125249374D01*
X112732780Y-125249374D02*
X112685161Y-125154136D01*
X112685161Y-125154136D02*
X112589923Y-125058898D01*
X112589923Y-125058898D02*
X112399447Y-125011279D01*
X112399447Y-125011279D02*
X112066114Y-125011279D01*
X112066114Y-125011279D02*
X111875638Y-125058898D01*
X111875638Y-125058898D02*
X111780400Y-125154136D01*
X111780400Y-125154136D02*
X111732780Y-125249374D01*
X111732780Y-125249374D02*
X111732780Y-125439850D01*
X111732780Y-125439850D02*
X111780400Y-125535088D01*
X111780400Y-125535088D02*
X111875638Y-125630326D01*
X111875638Y-125630326D02*
X112066114Y-125677945D01*
X112066114Y-125677945D02*
X112399447Y-125677945D01*
X112399447Y-125677945D02*
X112589923Y-125630326D01*
X112589923Y-125630326D02*
X112685161Y-125535088D01*
X112685161Y-125535088D02*
X112732780Y-125439850D01*
X111732780Y-124582707D02*
X112732780Y-124582707D01*
X112732780Y-124582707D02*
X112018495Y-124249374D01*
X112018495Y-124249374D02*
X112732780Y-123916041D01*
X112732780Y-123916041D02*
X111732780Y-123916041D01*
X113732780Y-126630326D02*
X114732780Y-126630326D01*
X114732780Y-126630326D02*
X113732780Y-126058898D01*
X113732780Y-126058898D02*
X114732780Y-126058898D01*
X113828019Y-125011279D02*
X113780400Y-125058898D01*
X113780400Y-125058898D02*
X113732780Y-125201755D01*
X113732780Y-125201755D02*
X113732780Y-125296993D01*
X113732780Y-125296993D02*
X113780400Y-125439850D01*
X113780400Y-125439850D02*
X113875638Y-125535088D01*
X113875638Y-125535088D02*
X113970876Y-125582707D01*
X113970876Y-125582707D02*
X114161352Y-125630326D01*
X114161352Y-125630326D02*
X114304209Y-125630326D01*
X114304209Y-125630326D02*
X114494685Y-125582707D01*
X114494685Y-125582707D02*
X114589923Y-125535088D01*
X114589923Y-125535088D02*
X114685161Y-125439850D01*
X114685161Y-125439850D02*
X114732780Y-125296993D01*
X114732780Y-125296993D02*
X114732780Y-125201755D01*
X114732780Y-125201755D02*
X114685161Y-125058898D01*
X114685161Y-125058898D02*
X114637542Y-125011279D01*
X126732780Y-126630326D02*
X127732780Y-126630326D01*
X127732780Y-126630326D02*
X126732780Y-126058898D01*
X126732780Y-126058898D02*
X127732780Y-126058898D01*
X127732780Y-125392231D02*
X127732780Y-125201755D01*
X127732780Y-125201755D02*
X127685161Y-125106517D01*
X127685161Y-125106517D02*
X127589923Y-125011279D01*
X127589923Y-125011279D02*
X127399447Y-124963660D01*
X127399447Y-124963660D02*
X127066114Y-124963660D01*
X127066114Y-124963660D02*
X126875638Y-125011279D01*
X126875638Y-125011279D02*
X126780400Y-125106517D01*
X126780400Y-125106517D02*
X126732780Y-125201755D01*
X126732780Y-125201755D02*
X126732780Y-125392231D01*
X126732780Y-125392231D02*
X126780400Y-125487469D01*
X126780400Y-125487469D02*
X126875638Y-125582707D01*
X126875638Y-125582707D02*
X127066114Y-125630326D01*
X127066114Y-125630326D02*
X127399447Y-125630326D01*
X127399447Y-125630326D02*
X127589923Y-125582707D01*
X127589923Y-125582707D02*
X127685161Y-125487469D01*
X127685161Y-125487469D02*
X127732780Y-125392231D01*
X129428019Y-126058898D02*
X129380400Y-126106517D01*
X129380400Y-126106517D02*
X129332780Y-126249374D01*
X129332780Y-126249374D02*
X129332780Y-126344612D01*
X129332780Y-126344612D02*
X129380400Y-126487469D01*
X129380400Y-126487469D02*
X129475638Y-126582707D01*
X129475638Y-126582707D02*
X129570876Y-126630326D01*
X129570876Y-126630326D02*
X129761352Y-126677945D01*
X129761352Y-126677945D02*
X129904209Y-126677945D01*
X129904209Y-126677945D02*
X130094685Y-126630326D01*
X130094685Y-126630326D02*
X130189923Y-126582707D01*
X130189923Y-126582707D02*
X130285161Y-126487469D01*
X130285161Y-126487469D02*
X130332780Y-126344612D01*
X130332780Y-126344612D02*
X130332780Y-126249374D01*
X130332780Y-126249374D02*
X130285161Y-126106517D01*
X130285161Y-126106517D02*
X130237542Y-126058898D01*
X130332780Y-125439850D02*
X130332780Y-125249374D01*
X130332780Y-125249374D02*
X130285161Y-125154136D01*
X130285161Y-125154136D02*
X130189923Y-125058898D01*
X130189923Y-125058898D02*
X129999447Y-125011279D01*
X129999447Y-125011279D02*
X129666114Y-125011279D01*
X129666114Y-125011279D02*
X129475638Y-125058898D01*
X129475638Y-125058898D02*
X129380400Y-125154136D01*
X129380400Y-125154136D02*
X129332780Y-125249374D01*
X129332780Y-125249374D02*
X129332780Y-125439850D01*
X129332780Y-125439850D02*
X129380400Y-125535088D01*
X129380400Y-125535088D02*
X129475638Y-125630326D01*
X129475638Y-125630326D02*
X129666114Y-125677945D01*
X129666114Y-125677945D02*
X129999447Y-125677945D01*
X129999447Y-125677945D02*
X130189923Y-125630326D01*
X130189923Y-125630326D02*
X130285161Y-125535088D01*
X130285161Y-125535088D02*
X130332780Y-125439850D01*
X129332780Y-124582707D02*
X130332780Y-124582707D01*
X130332780Y-124582707D02*
X129618495Y-124249374D01*
X129618495Y-124249374D02*
X130332780Y-123916041D01*
X130332780Y-123916041D02*
X129332780Y-123916041D01*
X131332780Y-126630326D02*
X132332780Y-126630326D01*
X132332780Y-126630326D02*
X131332780Y-126058898D01*
X131332780Y-126058898D02*
X132332780Y-126058898D01*
X131428019Y-125011279D02*
X131380400Y-125058898D01*
X131380400Y-125058898D02*
X131332780Y-125201755D01*
X131332780Y-125201755D02*
X131332780Y-125296993D01*
X131332780Y-125296993D02*
X131380400Y-125439850D01*
X131380400Y-125439850D02*
X131475638Y-125535088D01*
X131475638Y-125535088D02*
X131570876Y-125582707D01*
X131570876Y-125582707D02*
X131761352Y-125630326D01*
X131761352Y-125630326D02*
X131904209Y-125630326D01*
X131904209Y-125630326D02*
X132094685Y-125582707D01*
X132094685Y-125582707D02*
X132189923Y-125535088D01*
X132189923Y-125535088D02*
X132285161Y-125439850D01*
X132285161Y-125439850D02*
X132332780Y-125296993D01*
X132332780Y-125296993D02*
X132332780Y-125201755D01*
X132332780Y-125201755D02*
X132285161Y-125058898D01*
X132285161Y-125058898D02*
X132237542Y-125011279D01*
X144132780Y-126630326D02*
X145132780Y-126630326D01*
X145132780Y-126630326D02*
X144132780Y-126058898D01*
X144132780Y-126058898D02*
X145132780Y-126058898D01*
X145132780Y-125392231D02*
X145132780Y-125201755D01*
X145132780Y-125201755D02*
X145085161Y-125106517D01*
X145085161Y-125106517D02*
X144989923Y-125011279D01*
X144989923Y-125011279D02*
X144799447Y-124963660D01*
X144799447Y-124963660D02*
X144466114Y-124963660D01*
X144466114Y-124963660D02*
X144275638Y-125011279D01*
X144275638Y-125011279D02*
X144180400Y-125106517D01*
X144180400Y-125106517D02*
X144132780Y-125201755D01*
X144132780Y-125201755D02*
X144132780Y-125392231D01*
X144132780Y-125392231D02*
X144180400Y-125487469D01*
X144180400Y-125487469D02*
X144275638Y-125582707D01*
X144275638Y-125582707D02*
X144466114Y-125630326D01*
X144466114Y-125630326D02*
X144799447Y-125630326D01*
X144799447Y-125630326D02*
X144989923Y-125582707D01*
X144989923Y-125582707D02*
X145085161Y-125487469D01*
X145085161Y-125487469D02*
X145132780Y-125392231D01*
X146828019Y-126058898D02*
X146780400Y-126106517D01*
X146780400Y-126106517D02*
X146732780Y-126249374D01*
X146732780Y-126249374D02*
X146732780Y-126344612D01*
X146732780Y-126344612D02*
X146780400Y-126487469D01*
X146780400Y-126487469D02*
X146875638Y-126582707D01*
X146875638Y-126582707D02*
X146970876Y-126630326D01*
X146970876Y-126630326D02*
X147161352Y-126677945D01*
X147161352Y-126677945D02*
X147304209Y-126677945D01*
X147304209Y-126677945D02*
X147494685Y-126630326D01*
X147494685Y-126630326D02*
X147589923Y-126582707D01*
X147589923Y-126582707D02*
X147685161Y-126487469D01*
X147685161Y-126487469D02*
X147732780Y-126344612D01*
X147732780Y-126344612D02*
X147732780Y-126249374D01*
X147732780Y-126249374D02*
X147685161Y-126106517D01*
X147685161Y-126106517D02*
X147637542Y-126058898D01*
X147732780Y-125439850D02*
X147732780Y-125249374D01*
X147732780Y-125249374D02*
X147685161Y-125154136D01*
X147685161Y-125154136D02*
X147589923Y-125058898D01*
X147589923Y-125058898D02*
X147399447Y-125011279D01*
X147399447Y-125011279D02*
X147066114Y-125011279D01*
X147066114Y-125011279D02*
X146875638Y-125058898D01*
X146875638Y-125058898D02*
X146780400Y-125154136D01*
X146780400Y-125154136D02*
X146732780Y-125249374D01*
X146732780Y-125249374D02*
X146732780Y-125439850D01*
X146732780Y-125439850D02*
X146780400Y-125535088D01*
X146780400Y-125535088D02*
X146875638Y-125630326D01*
X146875638Y-125630326D02*
X147066114Y-125677945D01*
X147066114Y-125677945D02*
X147399447Y-125677945D01*
X147399447Y-125677945D02*
X147589923Y-125630326D01*
X147589923Y-125630326D02*
X147685161Y-125535088D01*
X147685161Y-125535088D02*
X147732780Y-125439850D01*
X146732780Y-124582707D02*
X147732780Y-124582707D01*
X147732780Y-124582707D02*
X147018495Y-124249374D01*
X147018495Y-124249374D02*
X147732780Y-123916041D01*
X147732780Y-123916041D02*
X146732780Y-123916041D01*
X148732780Y-126630326D02*
X149732780Y-126630326D01*
X149732780Y-126630326D02*
X148732780Y-126058898D01*
X148732780Y-126058898D02*
X149732780Y-126058898D01*
X148828019Y-125011279D02*
X148780400Y-125058898D01*
X148780400Y-125058898D02*
X148732780Y-125201755D01*
X148732780Y-125201755D02*
X148732780Y-125296993D01*
X148732780Y-125296993D02*
X148780400Y-125439850D01*
X148780400Y-125439850D02*
X148875638Y-125535088D01*
X148875638Y-125535088D02*
X148970876Y-125582707D01*
X148970876Y-125582707D02*
X149161352Y-125630326D01*
X149161352Y-125630326D02*
X149304209Y-125630326D01*
X149304209Y-125630326D02*
X149494685Y-125582707D01*
X149494685Y-125582707D02*
X149589923Y-125535088D01*
X149589923Y-125535088D02*
X149685161Y-125439850D01*
X149685161Y-125439850D02*
X149732780Y-125296993D01*
X149732780Y-125296993D02*
X149732780Y-125201755D01*
X149732780Y-125201755D02*
X149685161Y-125058898D01*
X149685161Y-125058898D02*
X149637542Y-125011279D01*
X161732780Y-126630326D02*
X162732780Y-126630326D01*
X162732780Y-126630326D02*
X161732780Y-126058898D01*
X161732780Y-126058898D02*
X162732780Y-126058898D01*
X162732780Y-125392231D02*
X162732780Y-125201755D01*
X162732780Y-125201755D02*
X162685161Y-125106517D01*
X162685161Y-125106517D02*
X162589923Y-125011279D01*
X162589923Y-125011279D02*
X162399447Y-124963660D01*
X162399447Y-124963660D02*
X162066114Y-124963660D01*
X162066114Y-124963660D02*
X161875638Y-125011279D01*
X161875638Y-125011279D02*
X161780400Y-125106517D01*
X161780400Y-125106517D02*
X161732780Y-125201755D01*
X161732780Y-125201755D02*
X161732780Y-125392231D01*
X161732780Y-125392231D02*
X161780400Y-125487469D01*
X161780400Y-125487469D02*
X161875638Y-125582707D01*
X161875638Y-125582707D02*
X162066114Y-125630326D01*
X162066114Y-125630326D02*
X162399447Y-125630326D01*
X162399447Y-125630326D02*
X162589923Y-125582707D01*
X162589923Y-125582707D02*
X162685161Y-125487469D01*
X162685161Y-125487469D02*
X162732780Y-125392231D01*
X164428019Y-126058898D02*
X164380400Y-126106517D01*
X164380400Y-126106517D02*
X164332780Y-126249374D01*
X164332780Y-126249374D02*
X164332780Y-126344612D01*
X164332780Y-126344612D02*
X164380400Y-126487469D01*
X164380400Y-126487469D02*
X164475638Y-126582707D01*
X164475638Y-126582707D02*
X164570876Y-126630326D01*
X164570876Y-126630326D02*
X164761352Y-126677945D01*
X164761352Y-126677945D02*
X164904209Y-126677945D01*
X164904209Y-126677945D02*
X165094685Y-126630326D01*
X165094685Y-126630326D02*
X165189923Y-126582707D01*
X165189923Y-126582707D02*
X165285161Y-126487469D01*
X165285161Y-126487469D02*
X165332780Y-126344612D01*
X165332780Y-126344612D02*
X165332780Y-126249374D01*
X165332780Y-126249374D02*
X165285161Y-126106517D01*
X165285161Y-126106517D02*
X165237542Y-126058898D01*
X165332780Y-125439850D02*
X165332780Y-125249374D01*
X165332780Y-125249374D02*
X165285161Y-125154136D01*
X165285161Y-125154136D02*
X165189923Y-125058898D01*
X165189923Y-125058898D02*
X164999447Y-125011279D01*
X164999447Y-125011279D02*
X164666114Y-125011279D01*
X164666114Y-125011279D02*
X164475638Y-125058898D01*
X164475638Y-125058898D02*
X164380400Y-125154136D01*
X164380400Y-125154136D02*
X164332780Y-125249374D01*
X164332780Y-125249374D02*
X164332780Y-125439850D01*
X164332780Y-125439850D02*
X164380400Y-125535088D01*
X164380400Y-125535088D02*
X164475638Y-125630326D01*
X164475638Y-125630326D02*
X164666114Y-125677945D01*
X164666114Y-125677945D02*
X164999447Y-125677945D01*
X164999447Y-125677945D02*
X165189923Y-125630326D01*
X165189923Y-125630326D02*
X165285161Y-125535088D01*
X165285161Y-125535088D02*
X165332780Y-125439850D01*
X164332780Y-124582707D02*
X165332780Y-124582707D01*
X165332780Y-124582707D02*
X164618495Y-124249374D01*
X164618495Y-124249374D02*
X165332780Y-123916041D01*
X165332780Y-123916041D02*
X164332780Y-123916041D01*
X166332780Y-126630326D02*
X167332780Y-126630326D01*
X167332780Y-126630326D02*
X166332780Y-126058898D01*
X166332780Y-126058898D02*
X167332780Y-126058898D01*
X166428019Y-125011279D02*
X166380400Y-125058898D01*
X166380400Y-125058898D02*
X166332780Y-125201755D01*
X166332780Y-125201755D02*
X166332780Y-125296993D01*
X166332780Y-125296993D02*
X166380400Y-125439850D01*
X166380400Y-125439850D02*
X166475638Y-125535088D01*
X166475638Y-125535088D02*
X166570876Y-125582707D01*
X166570876Y-125582707D02*
X166761352Y-125630326D01*
X166761352Y-125630326D02*
X166904209Y-125630326D01*
X166904209Y-125630326D02*
X167094685Y-125582707D01*
X167094685Y-125582707D02*
X167189923Y-125535088D01*
X167189923Y-125535088D02*
X167285161Y-125439850D01*
X167285161Y-125439850D02*
X167332780Y-125296993D01*
X167332780Y-125296993D02*
X167332780Y-125201755D01*
X167332780Y-125201755D02*
X167285161Y-125058898D01*
X167285161Y-125058898D02*
X167237542Y-125011279D01*
D13*
X124195740Y-122229464D02*
X124195740Y-120929464D01*
X124195740Y-120929464D02*
X123762406Y-121858036D01*
X123762406Y-121858036D02*
X123329073Y-120929464D01*
X123329073Y-120929464D02*
X123329073Y-122229464D01*
X122710026Y-122229464D02*
X122710026Y-120929464D01*
X122090978Y-122229464D02*
X122090978Y-120929464D01*
X122090978Y-120929464D02*
X121348121Y-122229464D01*
X121348121Y-122229464D02*
X121348121Y-120929464D01*
X120729073Y-122229464D02*
X120729073Y-120929464D01*
X119119549Y-122229464D02*
X119119549Y-120929464D01*
X119119549Y-120929464D02*
X118686215Y-121858036D01*
X118686215Y-121858036D02*
X118252882Y-120929464D01*
X118252882Y-120929464D02*
X118252882Y-122229464D01*
X117386216Y-120929464D02*
X117138597Y-120929464D01*
X117138597Y-120929464D02*
X117014787Y-120991369D01*
X117014787Y-120991369D02*
X116890978Y-121115179D01*
X116890978Y-121115179D02*
X116829073Y-121362798D01*
X116829073Y-121362798D02*
X116829073Y-121796131D01*
X116829073Y-121796131D02*
X116890978Y-122043750D01*
X116890978Y-122043750D02*
X117014787Y-122167560D01*
X117014787Y-122167560D02*
X117138597Y-122229464D01*
X117138597Y-122229464D02*
X117386216Y-122229464D01*
X117386216Y-122229464D02*
X117510025Y-122167560D01*
X117510025Y-122167560D02*
X117633835Y-122043750D01*
X117633835Y-122043750D02*
X117695739Y-121796131D01*
X117695739Y-121796131D02*
X117695739Y-121362798D01*
X117695739Y-121362798D02*
X117633835Y-121115179D01*
X117633835Y-121115179D02*
X117510025Y-120991369D01*
X117510025Y-120991369D02*
X117386216Y-120929464D01*
X116271930Y-122229464D02*
X116271930Y-120929464D01*
X116271930Y-120929464D02*
X115962406Y-120929464D01*
X115962406Y-120929464D02*
X115776692Y-120991369D01*
X115776692Y-120991369D02*
X115652882Y-121115179D01*
X115652882Y-121115179D02*
X115590977Y-121238988D01*
X115590977Y-121238988D02*
X115529073Y-121486607D01*
X115529073Y-121486607D02*
X115529073Y-121672321D01*
X115529073Y-121672321D02*
X115590977Y-121919940D01*
X115590977Y-121919940D02*
X115652882Y-122043750D01*
X115652882Y-122043750D02*
X115776692Y-122167560D01*
X115776692Y-122167560D02*
X115962406Y-122229464D01*
X115962406Y-122229464D02*
X116271930Y-122229464D01*
X114971930Y-120929464D02*
X114971930Y-121981845D01*
X114971930Y-121981845D02*
X114910025Y-122105655D01*
X114910025Y-122105655D02*
X114848120Y-122167560D01*
X114848120Y-122167560D02*
X114724311Y-122229464D01*
X114724311Y-122229464D02*
X114476692Y-122229464D01*
X114476692Y-122229464D02*
X114352882Y-122167560D01*
X114352882Y-122167560D02*
X114290977Y-122105655D01*
X114290977Y-122105655D02*
X114229073Y-121981845D01*
X114229073Y-121981845D02*
X114229073Y-120929464D01*
X112867168Y-122105655D02*
X112929072Y-122167560D01*
X112929072Y-122167560D02*
X113114787Y-122229464D01*
X113114787Y-122229464D02*
X113238596Y-122229464D01*
X113238596Y-122229464D02*
X113424310Y-122167560D01*
X113424310Y-122167560D02*
X113548120Y-122043750D01*
X113548120Y-122043750D02*
X113610025Y-121919940D01*
X113610025Y-121919940D02*
X113671929Y-121672321D01*
X113671929Y-121672321D02*
X113671929Y-121486607D01*
X113671929Y-121486607D02*
X113610025Y-121238988D01*
X113610025Y-121238988D02*
X113548120Y-121115179D01*
X113548120Y-121115179D02*
X113424310Y-120991369D01*
X113424310Y-120991369D02*
X113238596Y-120929464D01*
X113238596Y-120929464D02*
X113114787Y-120929464D01*
X113114787Y-120929464D02*
X112929072Y-120991369D01*
X112929072Y-120991369D02*
X112867168Y-121053274D01*
X112371929Y-121858036D02*
X111752882Y-121858036D01*
X112495739Y-122229464D02*
X112062406Y-120929464D01*
X112062406Y-120929464D02*
X111629072Y-122229464D01*
X110452882Y-122229464D02*
X110886215Y-121610417D01*
X111195739Y-122229464D02*
X111195739Y-120929464D01*
X111195739Y-120929464D02*
X110700501Y-120929464D01*
X110700501Y-120929464D02*
X110576691Y-120991369D01*
X110576691Y-120991369D02*
X110514786Y-121053274D01*
X110514786Y-121053274D02*
X110452882Y-121177083D01*
X110452882Y-121177083D02*
X110452882Y-121362798D01*
X110452882Y-121362798D02*
X110514786Y-121486607D01*
X110514786Y-121486607D02*
X110576691Y-121548512D01*
X110576691Y-121548512D02*
X110700501Y-121610417D01*
X110700501Y-121610417D02*
X111195739Y-121610417D01*
X109895739Y-122229464D02*
X109895739Y-120929464D01*
X109895739Y-120929464D02*
X109586215Y-120929464D01*
X109586215Y-120929464D02*
X109400501Y-120991369D01*
X109400501Y-120991369D02*
X109276691Y-121115179D01*
X109276691Y-121115179D02*
X109214786Y-121238988D01*
X109214786Y-121238988D02*
X109152882Y-121486607D01*
X109152882Y-121486607D02*
X109152882Y-121672321D01*
X109152882Y-121672321D02*
X109214786Y-121919940D01*
X109214786Y-121919940D02*
X109276691Y-122043750D01*
X109276691Y-122043750D02*
X109400501Y-122167560D01*
X109400501Y-122167560D02*
X109586215Y-122229464D01*
X109586215Y-122229464D02*
X109895739Y-122229464D01*
X107667167Y-122167560D02*
X107481453Y-122229464D01*
X107481453Y-122229464D02*
X107171929Y-122229464D01*
X107171929Y-122229464D02*
X107048120Y-122167560D01*
X107048120Y-122167560D02*
X106986215Y-122105655D01*
X106986215Y-122105655D02*
X106924310Y-121981845D01*
X106924310Y-121981845D02*
X106924310Y-121858036D01*
X106924310Y-121858036D02*
X106986215Y-121734226D01*
X106986215Y-121734226D02*
X107048120Y-121672321D01*
X107048120Y-121672321D02*
X107171929Y-121610417D01*
X107171929Y-121610417D02*
X107419548Y-121548512D01*
X107419548Y-121548512D02*
X107543358Y-121486607D01*
X107543358Y-121486607D02*
X107605263Y-121424702D01*
X107605263Y-121424702D02*
X107667167Y-121300893D01*
X107667167Y-121300893D02*
X107667167Y-121177083D01*
X107667167Y-121177083D02*
X107605263Y-121053274D01*
X107605263Y-121053274D02*
X107543358Y-120991369D01*
X107543358Y-120991369D02*
X107419548Y-120929464D01*
X107419548Y-120929464D02*
X107110025Y-120929464D01*
X107110025Y-120929464D02*
X106924310Y-120991369D01*
X106119549Y-121610417D02*
X106119549Y-122229464D01*
X106552882Y-120929464D02*
X106119549Y-121610417D01*
X106119549Y-121610417D02*
X105686215Y-120929464D01*
X105314786Y-122167560D02*
X105129072Y-122229464D01*
X105129072Y-122229464D02*
X104819548Y-122229464D01*
X104819548Y-122229464D02*
X104695739Y-122167560D01*
X104695739Y-122167560D02*
X104633834Y-122105655D01*
X104633834Y-122105655D02*
X104571929Y-121981845D01*
X104571929Y-121981845D02*
X104571929Y-121858036D01*
X104571929Y-121858036D02*
X104633834Y-121734226D01*
X104633834Y-121734226D02*
X104695739Y-121672321D01*
X104695739Y-121672321D02*
X104819548Y-121610417D01*
X104819548Y-121610417D02*
X105067167Y-121548512D01*
X105067167Y-121548512D02*
X105190977Y-121486607D01*
X105190977Y-121486607D02*
X105252882Y-121424702D01*
X105252882Y-121424702D02*
X105314786Y-121300893D01*
X105314786Y-121300893D02*
X105314786Y-121177083D01*
X105314786Y-121177083D02*
X105252882Y-121053274D01*
X105252882Y-121053274D02*
X105190977Y-120991369D01*
X105190977Y-120991369D02*
X105067167Y-120929464D01*
X105067167Y-120929464D02*
X104757644Y-120929464D01*
X104757644Y-120929464D02*
X104571929Y-120991369D01*
X104200501Y-120929464D02*
X103457644Y-120929464D01*
X103829072Y-122229464D02*
X103829072Y-120929464D01*
X103024311Y-121548512D02*
X102590977Y-121548512D01*
X102405263Y-122229464D02*
X103024311Y-122229464D01*
X103024311Y-122229464D02*
X103024311Y-120929464D01*
X103024311Y-120929464D02*
X102405263Y-120929464D01*
X101848121Y-122229464D02*
X101848121Y-120929464D01*
X101848121Y-120929464D02*
X101414787Y-121858036D01*
X101414787Y-121858036D02*
X100981454Y-120929464D01*
X100981454Y-120929464D02*
X100981454Y-122229464D01*
D14*
G36*
X124331716Y-112807070D02*
G01*
X121481646Y-112807070D01*
X120381882Y-117065077D01*
X119286819Y-112807070D01*
X116446580Y-112807070D01*
X116446580Y-119810001D01*
X118215692Y-119810001D01*
X118215692Y-114463769D01*
X119588154Y-119810001D01*
X121190143Y-119810001D01*
X122557475Y-114463769D01*
X122557475Y-119810001D01*
X124331716Y-119810001D01*
X124331716Y-112807070D01*
G37*
G36*
X115085659Y-112807070D02*
G01*
X112235589Y-112807070D01*
X111135825Y-117065077D01*
X110040762Y-112807070D01*
X107200523Y-112807070D01*
X107200523Y-119810001D01*
X108969635Y-119810001D01*
X108969635Y-114463769D01*
X110342096Y-119810001D01*
X111944085Y-119810001D01*
X113311418Y-114463769D01*
X113311418Y-119810001D01*
X115085659Y-119810001D01*
X115085659Y-112807070D01*
G37*
G36*
X106193510Y-117477542D02*
G01*
X104132466Y-117348033D01*
X104066505Y-117678401D01*
X103973877Y-117928815D01*
X103859769Y-118115260D01*
X103677283Y-118299877D01*
X103462012Y-118431615D01*
X103207410Y-118513391D01*
X102903620Y-118542258D01*
X102601546Y-118515074D01*
X102368416Y-118440898D01*
X102188965Y-118325981D01*
X102045633Y-118168805D01*
X101964490Y-118003631D01*
X101937639Y-117824611D01*
X101962991Y-117654101D01*
X102040024Y-117494190D01*
X102176570Y-117339484D01*
X102356085Y-117223640D01*
X102699657Y-117088680D01*
X103286165Y-116935567D01*
X104021777Y-116740213D01*
X104586064Y-116530596D01*
X105009334Y-116312194D01*
X105318143Y-116088411D01*
X105588044Y-115803128D01*
X105776698Y-115488230D01*
X105890875Y-115137334D01*
X105930216Y-114740740D01*
X105895896Y-114391040D01*
X105792803Y-114054031D01*
X105616913Y-113723896D01*
X105380583Y-113435030D01*
X105070672Y-113184479D01*
X104674869Y-112971628D01*
X104245900Y-112829481D01*
X103681826Y-112733450D01*
X102951064Y-112697649D01*
X102264391Y-112735070D01*
X101708150Y-112837880D01*
X101260409Y-112994739D01*
X100902416Y-113198591D01*
X100595558Y-113474381D01*
X100353217Y-113822410D01*
X100173808Y-114255706D01*
X100062953Y-114792886D01*
X102104762Y-114913420D01*
X102185245Y-114607022D01*
X102300565Y-114381609D01*
X102446702Y-114219709D01*
X102632177Y-114103984D01*
X102867588Y-114029913D01*
X103166486Y-114003005D01*
X103513280Y-114047374D01*
X103735816Y-114162434D01*
X103880178Y-114340926D01*
X103926875Y-114549681D01*
X103889668Y-114703330D01*
X103769155Y-114848879D01*
X103558329Y-114964590D01*
X103042105Y-115105761D01*
X102089000Y-115335422D01*
X101434107Y-115540868D01*
X101007562Y-115722108D01*
X100620228Y-115957291D01*
X100327008Y-116215014D01*
X100113389Y-116495747D01*
X99958657Y-116813749D01*
X99865273Y-117156038D01*
X99833426Y-117528833D01*
X99874997Y-117965422D01*
X99998470Y-118375675D01*
X100206568Y-118767084D01*
X100485113Y-119111518D01*
X100829687Y-119397046D01*
X101249057Y-119626635D01*
X101704847Y-119781897D01*
X102261071Y-119882903D01*
X102936959Y-119919421D01*
X103697388Y-119883365D01*
X104299809Y-119785476D01*
X104771531Y-119638671D01*
X105136362Y-119452004D01*
X105413886Y-119229985D01*
X105718244Y-118865668D01*
X105948568Y-118457247D01*
X106107636Y-117997717D01*
X106193510Y-117477542D01*
G37*
G36*
X97693503Y-115406746D02*
G01*
X97898568Y-115259188D01*
X98019713Y-115114729D01*
X98086631Y-114930088D01*
X98114773Y-114601819D01*
X98061810Y-114293905D01*
X97897380Y-113998609D01*
X97596392Y-113704569D01*
X97232588Y-113472376D01*
X96755272Y-113262156D01*
X96140411Y-113079503D01*
X95173027Y-112913449D01*
X94045687Y-112854506D01*
X93227910Y-112913874D01*
X92621900Y-113071683D01*
X92179378Y-113306551D01*
X91835105Y-113649343D01*
X91626466Y-114083572D01*
X91552260Y-114638749D01*
X91613053Y-115136454D01*
X91788883Y-115561987D01*
X92085357Y-115932102D01*
X92565087Y-116299210D01*
X93038103Y-116500087D01*
X94217284Y-116829253D01*
X96585617Y-117340759D01*
X95589453Y-117447950D01*
X94826678Y-117605420D01*
X94160547Y-117863452D01*
X93673656Y-118214073D01*
X93438990Y-118514508D01*
X93294662Y-118880620D01*
X93243496Y-119331533D01*
X93310706Y-119818918D01*
X93521318Y-120320107D01*
X93902072Y-120849747D01*
X94377301Y-121305186D01*
X94981314Y-121718504D01*
X95735554Y-122087570D01*
X96532087Y-122352172D01*
X97398382Y-122515027D01*
X98345240Y-122571073D01*
X99028907Y-122529050D01*
X99553151Y-122416177D01*
X99950307Y-122247598D01*
X100284535Y-121996302D01*
X100465687Y-121724173D01*
X100524766Y-121418735D01*
X100481161Y-121129758D01*
X100338750Y-120805295D01*
X100133258Y-120502210D01*
X99896280Y-120247933D01*
X99638430Y-120061825D01*
X99454494Y-120012678D01*
X99355249Y-120039368D01*
X99325924Y-120110473D01*
X99406622Y-120327946D01*
X99479113Y-120483871D01*
X99411024Y-120625862D01*
X99132386Y-120780675D01*
X98757290Y-120872585D01*
X98231032Y-120907877D01*
X97476956Y-120864441D01*
X96751800Y-120735539D01*
X96059237Y-120532083D01*
X95466789Y-120284178D01*
X94939315Y-119983587D01*
X94571591Y-119693990D01*
X94312852Y-119375397D01*
X94243328Y-119131157D01*
X94311447Y-118835724D01*
X94517830Y-118605144D01*
X94910795Y-118427444D01*
X95665758Y-118293991D01*
X96945338Y-118238009D01*
X97843272Y-118307765D01*
X98261123Y-118376837D01*
X98358383Y-118346758D01*
X98397899Y-118185351D01*
X98361729Y-117866248D01*
X98231716Y-117410515D01*
X98033773Y-116994000D01*
X97837117Y-116788868D01*
X97599588Y-116703310D01*
X96764110Y-116533780D01*
X95164515Y-116230822D01*
X94468909Y-116051619D01*
X93571074Y-115752789D01*
X93043499Y-115503996D01*
X92708702Y-115248770D01*
X92483507Y-114957195D01*
X92422840Y-114735860D01*
X92484494Y-114525947D01*
X92685652Y-114355413D01*
X93105805Y-114223869D01*
X93877452Y-114167556D01*
X94589837Y-114189695D01*
X95274619Y-114255092D01*
X95914643Y-114359032D01*
X96331898Y-114466411D01*
X96648470Y-114605132D01*
X96709399Y-114688672D01*
X96634856Y-114835023D01*
X96480983Y-114921875D01*
X96219057Y-115012147D01*
X96117159Y-115083955D01*
X96066552Y-115209105D01*
X96143188Y-115298833D01*
X96540753Y-115384269D01*
X97693503Y-115406746D01*
G37*
G36*
X133384612Y-103195729D02*
G01*
X133386688Y-103253248D01*
X133392916Y-103293792D01*
X133403785Y-103322857D01*
X133425645Y-103350701D01*
X133483653Y-103391123D01*
X133588799Y-103438506D01*
X133730949Y-103476120D01*
X133812606Y-103487346D01*
X133903750Y-103491263D01*
X134023884Y-103484707D01*
X134132712Y-103465762D01*
X134231646Y-103435209D01*
X134324889Y-103391244D01*
X134407399Y-103335499D01*
X134480286Y-103267536D01*
X134541968Y-103188951D01*
X134594440Y-103096712D01*
X134637456Y-102988977D01*
X134666829Y-102876323D01*
X134685472Y-102747457D01*
X134692044Y-102600143D01*
X134684897Y-102450333D01*
X134664465Y-102317274D01*
X134631960Y-102198974D01*
X134585253Y-102085767D01*
X134529162Y-101988256D01*
X134463921Y-101904661D01*
X134387216Y-101831707D01*
X134301247Y-101771687D01*
X134205024Y-101724043D01*
X134102655Y-101690229D01*
X133992154Y-101669487D01*
X133872243Y-101662372D01*
X133730216Y-101674951D01*
X133603820Y-101707801D01*
X133499284Y-101754452D01*
X133434438Y-101799881D01*
X133409159Y-101831022D01*
X133398290Y-101862651D01*
X133392062Y-101907958D01*
X133389986Y-101972438D01*
X133392794Y-102042536D01*
X133402320Y-102089187D01*
X133418684Y-102115321D01*
X133440544Y-102123503D01*
X133461502Y-102118480D01*
X133492445Y-102099323D01*
X133573778Y-102045345D01*
X133692602Y-101991367D01*
X133765398Y-101973661D01*
X133857222Y-101967187D01*
X133958254Y-101978291D01*
X134045167Y-102010296D01*
X134121194Y-102062087D01*
X134185973Y-102133272D01*
X134236036Y-102219545D01*
X134274023Y-102326713D01*
X134296180Y-102444196D01*
X134304064Y-102582313D01*
X134295449Y-102732550D01*
X134271946Y-102852323D01*
X134231716Y-102959001D01*
X134180478Y-103040268D01*
X134114562Y-103104891D01*
X134036985Y-103150300D01*
X133949301Y-103177093D01*
X133847697Y-103186448D01*
X133755683Y-103180526D01*
X133682466Y-103164344D01*
X133562909Y-103115495D01*
X133480966Y-103067257D01*
X133449876Y-103050083D01*
X133431018Y-103045764D01*
X133409159Y-103051259D01*
X133395603Y-103072875D01*
X133387421Y-103118060D01*
X133384612Y-103195729D01*
G37*
G36*
X131982780Y-103413105D02*
G01*
X131990963Y-103437041D01*
X132018318Y-103454138D01*
X132070952Y-103464396D01*
X132153506Y-103467815D01*
X132237648Y-103464396D01*
X132290282Y-103454138D01*
X132317515Y-103437041D01*
X132325697Y-103412983D01*
X132325697Y-102715547D01*
X132329433Y-102631210D01*
X132338764Y-102575718D01*
X132355030Y-102527670D01*
X132376256Y-102488768D01*
X132404423Y-102456512D01*
X132439759Y-102432592D01*
X132480981Y-102417878D01*
X132530617Y-102412686D01*
X132594603Y-102423996D01*
X132663119Y-102460680D01*
X132728174Y-102516313D01*
X132802459Y-102600387D01*
X132802459Y-103412983D01*
X132810642Y-103437041D01*
X132838729Y-103454138D01*
X132891364Y-103464396D01*
X132974528Y-103467815D01*
X133057937Y-103464396D01*
X133110572Y-103454138D01*
X133138538Y-103437163D01*
X133146720Y-103413227D01*
X133146720Y-101619385D01*
X133138538Y-101594961D01*
X133110572Y-101576521D01*
X133057937Y-101564919D01*
X132974528Y-101560767D01*
X132891364Y-101564919D01*
X132838729Y-101576399D01*
X132810642Y-101594717D01*
X132802459Y-101619263D01*
X132802459Y-102289344D01*
X132710481Y-102211245D01*
X132621475Y-102158796D01*
X132527148Y-102126412D01*
X132429501Y-102115687D01*
X132311269Y-102126674D01*
X132219818Y-102156720D01*
X132142057Y-102205736D01*
X132081821Y-102268827D01*
X132037014Y-102344861D01*
X132005983Y-102434912D01*
X131989091Y-102535064D01*
X131982780Y-102665233D01*
X131982780Y-103413105D01*
G37*
G36*
X131300610Y-102128998D02*
G01*
X131440561Y-102163192D01*
X131552669Y-102208499D01*
X131619591Y-102252463D01*
X131645481Y-102296304D01*
X131652320Y-102362372D01*
X131648290Y-102419036D01*
X131636688Y-102462267D01*
X131617515Y-102489256D01*
X131590893Y-102498660D01*
X131568046Y-102494552D01*
X131534228Y-102479242D01*
X131447400Y-102436133D01*
X131327843Y-102393147D01*
X131257571Y-102378745D01*
X131174214Y-102373607D01*
X131111435Y-102377377D01*
X131064183Y-102387407D01*
X131023439Y-102405446D01*
X130993108Y-102430150D01*
X130970562Y-102462120D01*
X130954884Y-102502568D01*
X130943283Y-102603928D01*
X130943283Y-102678422D01*
X131062107Y-102678422D01*
X131219753Y-102685021D01*
X131347749Y-102703091D01*
X131463992Y-102735599D01*
X131553401Y-102779050D01*
X131626505Y-102837899D01*
X131677721Y-102908988D01*
X131708473Y-102992544D01*
X131719364Y-103094368D01*
X131710768Y-103188907D01*
X131686636Y-103266803D01*
X131646926Y-103335017D01*
X131594434Y-103390635D01*
X131530291Y-103433989D01*
X131453628Y-103465861D01*
X131369816Y-103484707D01*
X131275331Y-103491263D01*
X131161833Y-103479690D01*
X131061496Y-103446078D01*
X130970814Y-103392302D01*
X130890038Y-103320293D01*
X130890038Y-103417257D01*
X130878436Y-103447421D01*
X130838869Y-103463053D01*
X130749354Y-103467815D01*
X130662648Y-103463053D01*
X130619539Y-103447421D01*
X130605861Y-103417257D01*
X130605861Y-103104504D01*
X130943283Y-103104504D01*
X131007979Y-103168858D01*
X131066992Y-103212215D01*
X131130553Y-103239741D01*
X131200226Y-103248974D01*
X131279346Y-103237270D01*
X131334804Y-103205376D01*
X131370654Y-103154816D01*
X131383286Y-103085331D01*
X131378851Y-103042211D01*
X131366189Y-103005708D01*
X131344593Y-102973961D01*
X131312212Y-102946357D01*
X131271744Y-102925624D01*
X131216591Y-102909598D01*
X131154764Y-102900622D01*
X131074441Y-102897264D01*
X130943283Y-102897264D01*
X130943283Y-103104504D01*
X130605861Y-103104504D01*
X130605861Y-102596967D01*
X130613901Y-102475978D01*
X130635903Y-102379591D01*
X130675395Y-102295483D01*
X130731524Y-102229870D01*
X130804213Y-102180295D01*
X130898953Y-102143775D01*
X131006163Y-102123290D01*
X131144173Y-102115687D01*
X131300610Y-102128998D01*
G37*
G36*
X129918440Y-103413105D02*
G01*
X129926622Y-103437041D01*
X129954710Y-103454138D01*
X130007344Y-103464396D01*
X130090509Y-103467815D01*
X130173918Y-103464396D01*
X130226552Y-103454138D01*
X130254518Y-103437041D01*
X130262700Y-103413105D01*
X130262700Y-102196531D01*
X130254518Y-102172595D01*
X130226552Y-102154888D01*
X130173918Y-102143286D01*
X130090509Y-102139134D01*
X130007344Y-102143286D01*
X129954710Y-102154888D01*
X129926622Y-102172595D01*
X129918440Y-102196531D01*
X129918440Y-103413105D01*
G37*
G36*
X129892550Y-101784738D02*
G01*
X129898363Y-101852594D01*
X129913271Y-101898167D01*
X129934926Y-101927742D01*
X129988261Y-101955415D01*
X130091974Y-101967187D01*
X130196805Y-101955656D01*
X130248412Y-101929085D01*
X130276974Y-101880993D01*
X130288712Y-101791454D01*
X130276597Y-101698276D01*
X130247069Y-101647840D01*
X130216222Y-101627723D01*
X130166293Y-101613377D01*
X130089288Y-101607662D01*
X129985632Y-101619332D01*
X129933583Y-101646496D01*
X129904440Y-101695267D01*
X129892550Y-101784738D01*
G37*
G36*
X128412927Y-103413105D02*
G01*
X128421109Y-103437041D01*
X128448464Y-103454138D01*
X128501099Y-103464396D01*
X128583653Y-103467815D01*
X128667794Y-103464396D01*
X128720429Y-103454138D01*
X128747662Y-103437041D01*
X128755844Y-103412983D01*
X128755844Y-102715547D01*
X128759580Y-102631210D01*
X128768911Y-102575718D01*
X128785177Y-102527670D01*
X128806402Y-102488768D01*
X128834569Y-102456512D01*
X128869905Y-102432592D01*
X128911128Y-102417878D01*
X128960764Y-102412686D01*
X129024750Y-102423996D01*
X129093265Y-102460680D01*
X129158320Y-102516313D01*
X129232606Y-102600387D01*
X129232606Y-103412983D01*
X129240788Y-103437041D01*
X129268876Y-103454138D01*
X129321510Y-103464396D01*
X129404675Y-103467815D01*
X129488084Y-103464396D01*
X129540718Y-103454138D01*
X129568684Y-103437041D01*
X129576866Y-103413105D01*
X129576866Y-102193845D01*
X129570027Y-102169909D01*
X129545481Y-102152812D01*
X129499685Y-102142554D01*
X129429344Y-102139134D01*
X129356926Y-102142554D01*
X129312595Y-102152812D01*
X129290003Y-102169909D01*
X129283164Y-102193845D01*
X129283164Y-102334651D01*
X129178124Y-102236352D01*
X129077634Y-102170397D01*
X128970345Y-102129233D01*
X128859647Y-102115687D01*
X128741416Y-102126674D01*
X128649965Y-102156720D01*
X128572156Y-102205619D01*
X128511967Y-102268217D01*
X128467163Y-102343551D01*
X128436130Y-102432958D01*
X128419217Y-102532154D01*
X128412927Y-102659860D01*
X128412927Y-103413105D01*
G37*
G36*
X127989367Y-101700470D02*
G01*
X128023237Y-101720258D01*
X128045398Y-101752984D01*
X128053890Y-101806964D01*
X128053890Y-103346671D01*
X128045398Y-103400650D01*
X128023237Y-103433377D01*
X127989367Y-103453165D01*
X127947278Y-103460000D01*
X127477355Y-103460000D01*
X127373221Y-103456594D01*
X127284036Y-103447055D01*
X127199015Y-103430343D01*
X127120760Y-103406877D01*
X127046914Y-103375527D01*
X126980687Y-103337267D01*
X126921440Y-103290673D01*
X126871388Y-103236273D01*
X126830914Y-103173785D01*
X126799703Y-103101207D01*
X126780446Y-103021967D01*
X126774720Y-102944525D01*
X127146650Y-102944525D01*
X127152162Y-103000659D01*
X127167899Y-103048450D01*
X127193271Y-103090436D01*
X127226639Y-103124654D01*
X127267017Y-103151166D01*
X127315422Y-103170816D01*
X127369756Y-103182181D01*
X127441695Y-103186448D01*
X127701325Y-103186448D01*
X127701325Y-102686238D01*
X127488224Y-102686238D01*
X127394508Y-102691185D01*
X127328367Y-102703946D01*
X127270903Y-102726024D01*
X127227250Y-102754260D01*
X127192527Y-102790665D01*
X127167166Y-102835104D01*
X127151978Y-102885526D01*
X127146650Y-102944525D01*
X126774720Y-102944525D01*
X126773691Y-102930603D01*
X126780792Y-102843490D01*
X126801046Y-102768304D01*
X126833602Y-102700031D01*
X126875418Y-102642152D01*
X126926631Y-102593189D01*
X126986182Y-102554103D01*
X127052103Y-102525296D01*
X127124790Y-102506353D01*
X127068789Y-102480801D01*
X127020254Y-102448956D01*
X126977903Y-102410533D01*
X126943073Y-102367013D01*
X126915592Y-102318362D01*
X126895324Y-102263942D01*
X126883045Y-102206010D01*
X126881604Y-102184441D01*
X127238241Y-102184441D01*
X127253262Y-102275666D01*
X127272290Y-102316292D01*
X127299057Y-102351259D01*
X127333114Y-102379707D01*
X127376238Y-102402062D01*
X127426880Y-102415332D01*
X127500558Y-102420502D01*
X127701325Y-102420502D01*
X127701325Y-101959371D01*
X127519609Y-101959371D01*
X127440586Y-101963642D01*
X127386496Y-101974515D01*
X127339878Y-101993346D01*
X127303820Y-102017745D01*
X127275257Y-102049229D01*
X127254605Y-102088454D01*
X127242498Y-102132736D01*
X127238241Y-102184441D01*
X126881604Y-102184441D01*
X126878838Y-102143042D01*
X126889618Y-102033289D01*
X126919870Y-101943618D01*
X126969806Y-101866310D01*
X127038084Y-101803545D01*
X127121757Y-101756292D01*
X127227983Y-101720990D01*
X127347029Y-101701099D01*
X127503244Y-101693635D01*
X127947278Y-101693635D01*
X127989367Y-101700470D01*
G37*
G36*
X125349511Y-103413105D02*
G01*
X125356350Y-103437041D01*
X125380286Y-103454138D01*
X125425348Y-103464396D01*
X125495690Y-103467815D01*
X125568841Y-103464396D01*
X125613171Y-103454138D01*
X125636374Y-103437041D01*
X125643213Y-103413105D01*
X125643213Y-103272299D01*
X125748257Y-103370514D01*
X125848866Y-103436552D01*
X125955870Y-103477753D01*
X126065387Y-103491263D01*
X126184803Y-103480244D01*
X126276413Y-103450230D01*
X126354174Y-103401214D01*
X126414410Y-103338122D01*
X126459139Y-103262262D01*
X126489637Y-103173381D01*
X126505926Y-103073944D01*
X126512107Y-102940251D01*
X126512107Y-102193845D01*
X126504658Y-102169909D01*
X126477302Y-102152812D01*
X126424057Y-102142554D01*
X126341381Y-102139134D01*
X126258094Y-102142554D01*
X126205460Y-102152812D01*
X126177372Y-102170031D01*
X126169190Y-102193967D01*
X126169190Y-102884563D01*
X126165640Y-102974896D01*
X126156978Y-103031231D01*
X126141023Y-103079226D01*
X126119364Y-103118304D01*
X126090625Y-103150519D01*
X126055129Y-103174480D01*
X126013913Y-103189102D01*
X125964270Y-103194263D01*
X125900426Y-103182827D01*
X125832501Y-103145781D01*
X125767481Y-103089593D01*
X125691085Y-103004364D01*
X125691085Y-102193845D01*
X125683635Y-102169909D01*
X125656280Y-102152812D01*
X125603646Y-102142554D01*
X125520237Y-102139134D01*
X125437072Y-102142554D01*
X125385048Y-102152812D01*
X125357693Y-102169909D01*
X125349511Y-102193845D01*
X125349511Y-103413105D01*
G37*
G36*
X124144783Y-103068722D02*
G01*
X124154919Y-103168357D01*
X124183740Y-103252027D01*
X124230683Y-103324759D01*
X124293771Y-103384651D01*
X124369946Y-103430614D01*
X124461810Y-103464518D01*
X124561311Y-103484377D01*
X124672103Y-103491263D01*
X124802529Y-103481371D01*
X124913904Y-103456336D01*
X124995969Y-103425439D01*
X125043719Y-103395764D01*
X125066922Y-103350823D01*
X125075104Y-103258866D01*
X125072418Y-103194630D01*
X125064235Y-103155917D01*
X125050558Y-103136622D01*
X125030041Y-103131737D01*
X124985711Y-103148712D01*
X124912561Y-103185837D01*
X124810833Y-103223572D01*
X124750429Y-103236541D01*
X124678942Y-103241158D01*
X124596388Y-103231632D01*
X124533496Y-103204277D01*
X124509994Y-103183937D01*
X124493196Y-103159092D01*
X124479518Y-103096078D01*
X124485932Y-103057715D01*
X124504797Y-103025736D01*
X124533357Y-102998821D01*
X124571720Y-102974445D01*
X124665997Y-102933412D01*
X124773953Y-102891036D01*
X124881908Y-102837669D01*
X124931714Y-102804199D01*
X124976064Y-102763907D01*
X125013223Y-102716256D01*
X125042986Y-102658517D01*
X125061520Y-102593269D01*
X125068265Y-102510872D01*
X125059576Y-102426110D01*
X125034193Y-102350160D01*
X124992624Y-102282493D01*
X124935764Y-102225108D01*
X124866049Y-102179699D01*
X124779326Y-102144385D01*
X124683735Y-102123178D01*
X124572330Y-102115687D01*
X124461078Y-102124235D01*
X124363381Y-102145607D01*
X124289619Y-102173206D01*
X124246510Y-102198852D01*
X124228070Y-102219734D01*
X124219888Y-102244159D01*
X124215125Y-102279574D01*
X124213049Y-102331964D01*
X124215125Y-102391926D01*
X124221964Y-102428684D01*
X124234909Y-102447002D01*
X124254082Y-102451765D01*
X124292306Y-102436866D01*
X124357152Y-102404870D01*
X124447400Y-102372875D01*
X124500617Y-102361902D01*
X124564148Y-102357976D01*
X124644870Y-102367623D01*
X124700802Y-102395223D01*
X124733653Y-102437355D01*
X124744521Y-102489012D01*
X124737896Y-102528387D01*
X124718632Y-102560087D01*
X124689434Y-102586432D01*
X124650244Y-102610767D01*
X124554012Y-102651800D01*
X124444713Y-102693443D01*
X124335415Y-102746078D01*
X124284262Y-102779627D01*
X124239061Y-102819961D01*
X124201149Y-102867431D01*
X124170795Y-102924497D01*
X124151676Y-102988836D01*
X124144783Y-103068722D01*
G37*
D15*
G36*
X156492636Y-114377712D02*
G01*
X156492636Y-115391258D01*
X156482744Y-115527363D01*
X156468647Y-115569511D01*
X156450504Y-115594407D01*
X156393718Y-115617488D01*
X156302127Y-115620419D01*
X156302127Y-115679038D01*
X156924580Y-115679038D01*
X156924580Y-115620419D01*
X156819433Y-115611626D01*
X156763379Y-115577555D01*
X156739016Y-115507213D01*
X156733887Y-115390526D01*
X156733887Y-114906742D01*
X156738100Y-114718797D01*
X156752022Y-114617314D01*
X156779316Y-114576647D01*
X156826394Y-114568221D01*
X156867244Y-114573350D01*
X156921649Y-114590203D01*
X156946928Y-114532867D01*
X156561146Y-114377712D01*
X156492636Y-114377712D01*
G37*
G36*
X156613353Y-113721187D02*
G01*
X156556221Y-113731842D01*
X156509855Y-113763319D01*
X156478677Y-113810035D01*
X156468090Y-113867733D01*
X156478498Y-113923772D01*
X156509672Y-113971230D01*
X156556136Y-114003413D01*
X156613353Y-114014278D01*
X156670413Y-114003422D01*
X156716851Y-113971230D01*
X156748025Y-113923772D01*
X156758433Y-113867733D01*
X156747887Y-113810020D01*
X156716851Y-113763319D01*
X156670360Y-113731828D01*
X156613353Y-113721187D01*
G37*
%TO.C,J1*%
D16*
X107560000Y-92888272D02*
X107560000Y-98188272D01*
X107560000Y-92888272D02*
X108130000Y-92888272D01*
X107560000Y-98188272D02*
X108130000Y-98188272D01*
X108130000Y-91498272D02*
X108130000Y-92888272D01*
X109750000Y-92888272D02*
X110670000Y-92888272D01*
X109750000Y-98188272D02*
X110670000Y-98188272D01*
X112290000Y-92888272D02*
X113210000Y-92888272D01*
X112290000Y-98188272D02*
X113210000Y-98188272D01*
X114830000Y-92888272D02*
X115750000Y-92888272D01*
X114830000Y-98188272D02*
X115750000Y-98188272D01*
X117370000Y-92888272D02*
X118290000Y-92888272D01*
X117370000Y-98188272D02*
X118290000Y-98188272D01*
X119910000Y-92888272D02*
X120830000Y-92888272D01*
X119910000Y-98188272D02*
X120830000Y-98188272D01*
X122450000Y-92888272D02*
X123370000Y-92888272D01*
X122450000Y-98188272D02*
X123370000Y-98188272D01*
X124990000Y-92888272D02*
X125910000Y-92888272D01*
X124990000Y-98188272D02*
X125910000Y-98188272D01*
X127530000Y-92888272D02*
X128450000Y-92888272D01*
X127530000Y-98188272D02*
X128450000Y-98188272D01*
X130070000Y-92888272D02*
X130990000Y-92888272D01*
X130070000Y-98188272D02*
X130990000Y-98188272D01*
X132610000Y-92888272D02*
X133530000Y-92888272D01*
X132610000Y-98188272D02*
X133530000Y-98188272D01*
X135150000Y-92888272D02*
X136070000Y-92888272D01*
X135150000Y-98188272D02*
X136070000Y-98188272D01*
X137690000Y-92888272D02*
X138610000Y-92888272D01*
X137690000Y-98188272D02*
X138610000Y-98188272D01*
X140230000Y-92888272D02*
X141150000Y-92888272D01*
X140230000Y-98188272D02*
X141150000Y-98188272D01*
X142770000Y-92888272D02*
X143690000Y-92888272D01*
X142770000Y-98188272D02*
X143690000Y-98188272D01*
X145310000Y-92888272D02*
X146230000Y-92888272D01*
X145310000Y-98188272D02*
X146230000Y-98188272D01*
X147850000Y-92888272D02*
X148420000Y-92888272D01*
X147850000Y-98188272D02*
X148420000Y-98188272D01*
X148420000Y-92888272D02*
X148420000Y-98188272D01*
D17*
%TO.C,G\u002A\u002A\u002A*%
G36*
X161970675Y-114616043D02*
G01*
X161970675Y-115070674D01*
X161516045Y-115070674D01*
X161061414Y-115070674D01*
X161061414Y-114616043D01*
X161061414Y-114161413D01*
X161516045Y-114161413D01*
X161970675Y-114161413D01*
X161970675Y-114616043D01*
G37*
G36*
X162273762Y-118859260D02*
G01*
X162273762Y-119010804D01*
X162122219Y-119010804D01*
X161970675Y-119010804D01*
X161970675Y-118859260D01*
X161970675Y-118707717D01*
X162122219Y-118707717D01*
X162273762Y-118707717D01*
X162273762Y-118859260D01*
G37*
G36*
X162576849Y-120374695D02*
G01*
X162576849Y-120526238D01*
X162425305Y-120526238D01*
X162273762Y-120526238D01*
X162273762Y-120374695D01*
X162273762Y-120223151D01*
X162425305Y-120223151D01*
X162576849Y-120223151D01*
X162576849Y-120374695D01*
G37*
G36*
X162879936Y-117343826D02*
G01*
X162879936Y-117495369D01*
X162728392Y-117495369D01*
X162576849Y-117495369D01*
X162576849Y-117343826D01*
X162576849Y-117192282D01*
X162728392Y-117192282D01*
X162879936Y-117192282D01*
X162879936Y-117343826D01*
G37*
G36*
X163183023Y-113706783D02*
G01*
X163183023Y-113858326D01*
X163031479Y-113858326D01*
X162879936Y-113858326D01*
X162879936Y-113706783D01*
X162879936Y-113555239D01*
X163031479Y-113555239D01*
X163183023Y-113555239D01*
X163183023Y-113706783D01*
G37*
G36*
X164092283Y-114616043D02*
G01*
X164092283Y-114767587D01*
X163940740Y-114767587D01*
X163789196Y-114767587D01*
X163789196Y-114616043D01*
X163789196Y-114464500D01*
X163940740Y-114464500D01*
X164092283Y-114464500D01*
X164092283Y-114616043D01*
G37*
G36*
X164698457Y-114312957D02*
G01*
X164698457Y-114464500D01*
X164546914Y-114464500D01*
X164395370Y-114464500D01*
X164395370Y-114312957D01*
X164395370Y-114161413D01*
X164546914Y-114161413D01*
X164698457Y-114161413D01*
X164698457Y-114312957D01*
G37*
G36*
X164698457Y-117646912D02*
G01*
X164698457Y-117798456D01*
X164546914Y-117798456D01*
X164395370Y-117798456D01*
X164395370Y-117646912D01*
X164395370Y-117495369D01*
X164546914Y-117495369D01*
X164698457Y-117495369D01*
X164698457Y-117646912D01*
G37*
G36*
X165910805Y-117949999D02*
G01*
X165910805Y-118101543D01*
X165759261Y-118101543D01*
X165607718Y-118101543D01*
X165607718Y-117949999D01*
X165607718Y-117798456D01*
X165759261Y-117798456D01*
X165910805Y-117798456D01*
X165910805Y-117949999D01*
G37*
G36*
X166820065Y-115525304D02*
G01*
X166820065Y-115676848D01*
X166668522Y-115676848D01*
X166516979Y-115676848D01*
X166516979Y-115525304D01*
X166516979Y-115373761D01*
X166668522Y-115373761D01*
X166820065Y-115373761D01*
X166820065Y-115525304D01*
G37*
G36*
X167123152Y-117646912D02*
G01*
X167123152Y-117798456D01*
X166971609Y-117798456D01*
X166820065Y-117798456D01*
X166820065Y-117646912D01*
X166820065Y-117495369D01*
X166971609Y-117495369D01*
X167123152Y-117495369D01*
X167123152Y-117646912D01*
G37*
G36*
X167426239Y-117343826D02*
G01*
X167426239Y-117495369D01*
X167274696Y-117495369D01*
X167123152Y-117495369D01*
X167123152Y-117343826D01*
X167123152Y-117192282D01*
X167274696Y-117192282D01*
X167426239Y-117192282D01*
X167426239Y-117343826D01*
G37*
G36*
X168638587Y-114616043D02*
G01*
X168638587Y-115070674D01*
X168183957Y-115070674D01*
X167729326Y-115070674D01*
X167729326Y-114616043D01*
X167729326Y-114161413D01*
X168183957Y-114161413D01*
X168638587Y-114161413D01*
X168638587Y-114616043D01*
G37*
G36*
X168638587Y-121283955D02*
G01*
X168638587Y-121738586D01*
X168183957Y-121738586D01*
X167729326Y-121738586D01*
X167729326Y-121283955D01*
X167729326Y-120829325D01*
X168183957Y-120829325D01*
X168638587Y-120829325D01*
X168638587Y-121283955D01*
G37*
G36*
X168335500Y-119616977D02*
G01*
X168335500Y-119920064D01*
X168183957Y-119920064D01*
X168032413Y-119920064D01*
X168032413Y-119616977D01*
X168032413Y-119313890D01*
X168183957Y-119313890D01*
X168335500Y-119313890D01*
X168335500Y-119616977D01*
G37*
G36*
X168941674Y-119768521D02*
G01*
X168941674Y-119920064D01*
X168790130Y-119920064D01*
X168638587Y-119920064D01*
X168638587Y-119768521D01*
X168638587Y-119616977D01*
X168790130Y-119616977D01*
X168941674Y-119616977D01*
X168941674Y-119768521D01*
G37*
G36*
X163789196Y-113706783D02*
G01*
X163789196Y-113858326D01*
X163940740Y-113858326D01*
X164092283Y-113858326D01*
X164092283Y-114009870D01*
X164092283Y-114161413D01*
X163789196Y-114161413D01*
X163486110Y-114161413D01*
X163486110Y-113858326D01*
X163486110Y-113555239D01*
X163637653Y-113555239D01*
X163789196Y-113555239D01*
X163789196Y-113706783D01*
G37*
G36*
X160909871Y-121738586D02*
G01*
X161061414Y-121738586D01*
X161061414Y-122041673D01*
X161061414Y-122344759D01*
X160909871Y-122344759D01*
X160758327Y-122344759D01*
X160758327Y-122041673D01*
X160758327Y-121738586D01*
X160909871Y-121738586D01*
G37*
G36*
X160758327Y-121587042D02*
G01*
X160758327Y-121738586D01*
X160606784Y-121738586D01*
X160455241Y-121738586D01*
X160455241Y-121587042D01*
X160455241Y-121435499D01*
X160606784Y-121435499D01*
X160758327Y-121435499D01*
X160758327Y-121587042D01*
G37*
G36*
X165001544Y-121587042D02*
G01*
X165001544Y-121738586D01*
X165153088Y-121738586D01*
X165304631Y-121738586D01*
X165304631Y-122041673D01*
X165304631Y-122344759D01*
X165153088Y-122344759D01*
X165001544Y-122344759D01*
X165001544Y-122193216D01*
X165001544Y-122041673D01*
X164850001Y-122041673D01*
X164698457Y-122041673D01*
X164698457Y-121738586D01*
X164698457Y-121435499D01*
X164850001Y-121435499D01*
X165001544Y-121435499D01*
X165001544Y-121587042D01*
G37*
G36*
X162576849Y-115676848D02*
G01*
X161516045Y-115676848D01*
X160455241Y-115676848D01*
X160455241Y-114616043D01*
X160455241Y-113858326D01*
X160758327Y-113858326D01*
X160758327Y-114616043D01*
X160758327Y-115373761D01*
X161516045Y-115373761D01*
X162273762Y-115373761D01*
X162273762Y-114616043D01*
X162273762Y-113858326D01*
X161516045Y-113858326D01*
X160758327Y-113858326D01*
X160455241Y-113858326D01*
X160455241Y-113555239D01*
X161516045Y-113555239D01*
X162576849Y-113555239D01*
X162576849Y-114616043D01*
X162576849Y-115676848D01*
G37*
G36*
X169244761Y-115676848D02*
G01*
X168183957Y-115676848D01*
X167123152Y-115676848D01*
X167123152Y-114616043D01*
X167123152Y-113858326D01*
X167426239Y-113858326D01*
X167426239Y-114616043D01*
X167426239Y-115373761D01*
X168183957Y-115373761D01*
X168941674Y-115373761D01*
X168941674Y-114616043D01*
X168941674Y-113858326D01*
X168183957Y-113858326D01*
X167426239Y-113858326D01*
X167123152Y-113858326D01*
X167123152Y-113555239D01*
X168183957Y-113555239D01*
X169244761Y-113555239D01*
X169244761Y-114616043D01*
X169244761Y-115676848D01*
G37*
G36*
X169244761Y-122344759D02*
G01*
X168183957Y-122344759D01*
X167123152Y-122344759D01*
X167123152Y-121283955D01*
X167123152Y-120526238D01*
X167426239Y-120526238D01*
X167426239Y-121283955D01*
X167426239Y-122041673D01*
X168183957Y-122041673D01*
X168941674Y-122041673D01*
X168941674Y-121283955D01*
X168941674Y-120526238D01*
X168183957Y-120526238D01*
X167426239Y-120526238D01*
X167123152Y-120526238D01*
X167123152Y-120223151D01*
X168183957Y-120223151D01*
X169244761Y-120223151D01*
X169244761Y-121283955D01*
X169244761Y-122344759D01*
G37*
G36*
X168335500Y-118556173D02*
G01*
X168335500Y-118707717D01*
X168487043Y-118707717D01*
X168638587Y-118707717D01*
X168638587Y-118556173D01*
X168638587Y-118404630D01*
X168941674Y-118404630D01*
X169244761Y-118404630D01*
X169244761Y-118556173D01*
X169244761Y-118707717D01*
X169093217Y-118707717D01*
X168941674Y-118707717D01*
X168941674Y-118859260D01*
X168941674Y-119010804D01*
X168790130Y-119010804D01*
X168638587Y-119010804D01*
X168638587Y-119162347D01*
X168638587Y-119313890D01*
X168487043Y-119313890D01*
X168335500Y-119313890D01*
X168335500Y-119162347D01*
X168335500Y-119010804D01*
X168183957Y-119010804D01*
X168032413Y-119010804D01*
X168032413Y-118707717D01*
X168032413Y-118404630D01*
X168183957Y-118404630D01*
X168335500Y-118404630D01*
X168335500Y-118556173D01*
G37*
G36*
X169093217Y-119010804D02*
G01*
X169244761Y-119010804D01*
X169244761Y-119162347D01*
X169244761Y-119313890D01*
X169093217Y-119313890D01*
X168941674Y-119313890D01*
X168941674Y-119162347D01*
X168941674Y-119010804D01*
X169093217Y-119010804D01*
G37*
G36*
X167729326Y-116283021D02*
G01*
X167729326Y-116586108D01*
X168032413Y-116586108D01*
X168335500Y-116586108D01*
X168335500Y-116434565D01*
X168335500Y-116283021D01*
X168183957Y-116283021D01*
X168032413Y-116283021D01*
X168032413Y-116131478D01*
X168032413Y-115979935D01*
X168487043Y-115979935D01*
X168941674Y-115979935D01*
X168941674Y-116434565D01*
X168941674Y-116889195D01*
X168638587Y-116889195D01*
X168335500Y-116889195D01*
X168335500Y-117040739D01*
X168335500Y-117192282D01*
X168183957Y-117192282D01*
X168032413Y-117192282D01*
X168032413Y-117040739D01*
X168032413Y-116889195D01*
X167880870Y-116889195D01*
X167729326Y-116889195D01*
X167729326Y-116737652D01*
X167729326Y-116586108D01*
X167577783Y-116586108D01*
X167426239Y-116586108D01*
X167426239Y-116434565D01*
X167426239Y-116283021D01*
X167274696Y-116283021D01*
X167123152Y-116283021D01*
X167123152Y-116131478D01*
X167123152Y-115979935D01*
X167426239Y-115979935D01*
X167729326Y-115979935D01*
X167729326Y-116283021D01*
G37*
G36*
X169093217Y-116889195D02*
G01*
X169244761Y-116889195D01*
X169244761Y-117040739D01*
X169244761Y-117192282D01*
X169093217Y-117192282D01*
X168941674Y-117192282D01*
X168941674Y-117040739D01*
X168941674Y-116889195D01*
X169093217Y-116889195D01*
G37*
G36*
X164092283Y-118707717D02*
G01*
X163940740Y-118707717D01*
X163789196Y-118707717D01*
X163789196Y-118859260D01*
X163789196Y-119010804D01*
X163334566Y-119010804D01*
X162879936Y-119010804D01*
X162879936Y-118859260D01*
X162879936Y-118707717D01*
X162728392Y-118707717D01*
X162576849Y-118707717D01*
X162576849Y-118404630D01*
X163183023Y-118404630D01*
X163183023Y-118556173D01*
X163183023Y-118707717D01*
X163334566Y-118707717D01*
X163486110Y-118707717D01*
X163486110Y-118556173D01*
X163486110Y-118404630D01*
X163334566Y-118404630D01*
X163183023Y-118404630D01*
X162576849Y-118404630D01*
X162576849Y-118101543D01*
X162728392Y-118101543D01*
X162879936Y-118101543D01*
X162879936Y-117949999D01*
X162879936Y-117798456D01*
X163031479Y-117798456D01*
X163183023Y-117798456D01*
X163183023Y-117343826D01*
X163183023Y-116889195D01*
X163334566Y-116889195D01*
X163486110Y-116889195D01*
X163486110Y-117192282D01*
X163486110Y-117495369D01*
X163637653Y-117495369D01*
X163789196Y-117495369D01*
X163789196Y-117343826D01*
X163789196Y-117192282D01*
X163940740Y-117192282D01*
X164092283Y-117192282D01*
X164092283Y-117343826D01*
X164092283Y-117495369D01*
X163940740Y-117495369D01*
X163789196Y-117495369D01*
X163789196Y-117798456D01*
X163789196Y-118101543D01*
X163637653Y-118101543D01*
X163486110Y-118101543D01*
X163486110Y-118253086D01*
X163486110Y-118404630D01*
X163789196Y-118404630D01*
X164092283Y-118404630D01*
X164092283Y-118101543D01*
X164092283Y-117798456D01*
X164243827Y-117798456D01*
X164395370Y-117798456D01*
X164395370Y-118101543D01*
X164395370Y-118404630D01*
X164546914Y-118404630D01*
X164698457Y-118404630D01*
X164698457Y-118253086D01*
X164698457Y-118101543D01*
X164850001Y-118101543D01*
X165001544Y-118101543D01*
X165001544Y-118253086D01*
X165001544Y-118404630D01*
X164850001Y-118404630D01*
X164698457Y-118404630D01*
X164698457Y-118556173D01*
X164698457Y-118707717D01*
X164546914Y-118707717D01*
X164395370Y-118707717D01*
X164395370Y-118556173D01*
X164395370Y-118404630D01*
X164243827Y-118404630D01*
X164092283Y-118404630D01*
X164092283Y-118556173D01*
X164092283Y-118707717D01*
G37*
G36*
X163789196Y-120223151D02*
G01*
X163637653Y-120223151D01*
X163486110Y-120223151D01*
X163486110Y-120374695D01*
X163486110Y-120526238D01*
X163334566Y-120526238D01*
X163183023Y-120526238D01*
X163183023Y-120829325D01*
X163183023Y-121132412D01*
X163334566Y-121132412D01*
X163486110Y-121132412D01*
X163486110Y-120829325D01*
X163486110Y-120526238D01*
X163637653Y-120526238D01*
X163789196Y-120526238D01*
X163789196Y-120677781D01*
X163789196Y-120829325D01*
X163940740Y-120829325D01*
X164092283Y-120829325D01*
X164092283Y-121283955D01*
X164092283Y-121435499D01*
X164092283Y-121738586D01*
X163940740Y-121738586D01*
X163789196Y-121738586D01*
X163789196Y-121890129D01*
X163789196Y-122041673D01*
X163637653Y-122041673D01*
X163486110Y-122041673D01*
X163486110Y-122193216D01*
X163486110Y-122344759D01*
X162728392Y-122344759D01*
X161970675Y-122344759D01*
X161970675Y-122193216D01*
X161970675Y-122041673D01*
X161819132Y-122041673D01*
X161667588Y-122041673D01*
X161667588Y-122193216D01*
X161667588Y-122344759D01*
X161516045Y-122344759D01*
X161364501Y-122344759D01*
X161364501Y-122041673D01*
X161364501Y-121738586D01*
X161667588Y-121738586D01*
X161970675Y-121738586D01*
X161970675Y-121890129D01*
X161970675Y-122041673D01*
X162122219Y-122041673D01*
X162273762Y-122041673D01*
X162273762Y-121890129D01*
X162273762Y-121738586D01*
X162425305Y-121738586D01*
X162576849Y-121738586D01*
X162576849Y-121890129D01*
X162576849Y-122041673D01*
X162728392Y-122041673D01*
X162879936Y-122041673D01*
X162879936Y-121738586D01*
X162879936Y-121435499D01*
X163031479Y-121435499D01*
X163183023Y-121435499D01*
X163183023Y-121587042D01*
X163183023Y-121738586D01*
X163486110Y-121738586D01*
X163789196Y-121738586D01*
X163789196Y-121587042D01*
X163789196Y-121435499D01*
X163486110Y-121435499D01*
X163183023Y-121435499D01*
X163183023Y-121283955D01*
X163183023Y-121132412D01*
X162576849Y-121132412D01*
X161970675Y-121132412D01*
X161970675Y-121283955D01*
X161970675Y-121435499D01*
X161819132Y-121435499D01*
X161667588Y-121435499D01*
X161667588Y-121283955D01*
X161667588Y-121132412D01*
X161516045Y-121132412D01*
X161364501Y-121132412D01*
X161364501Y-121283955D01*
X161364501Y-121435499D01*
X161061414Y-121435499D01*
X160758327Y-121435499D01*
X160758327Y-120829325D01*
X160758327Y-120223151D01*
X160606784Y-120223151D01*
X160455241Y-120223151D01*
X160455241Y-120071608D01*
X160455241Y-119920064D01*
X160606784Y-119920064D01*
X160758327Y-119920064D01*
X160758327Y-119768521D01*
X160758327Y-119616977D01*
X161061414Y-119616977D01*
X161061414Y-119920064D01*
X161061414Y-120223151D01*
X161212958Y-120223151D01*
X161364501Y-120223151D01*
X161364501Y-120374695D01*
X161364501Y-120526238D01*
X161212958Y-120526238D01*
X161061414Y-120526238D01*
X161061414Y-120677781D01*
X161061414Y-120829325D01*
X161364501Y-120829325D01*
X161667588Y-120829325D01*
X161667588Y-120526238D01*
X161667588Y-120374695D01*
X161970675Y-120374695D01*
X161970675Y-120829325D01*
X162425305Y-120829325D01*
X162879936Y-120829325D01*
X162879936Y-120374695D01*
X162879936Y-119920064D01*
X163183023Y-119920064D01*
X163183023Y-120071608D01*
X163183023Y-120223151D01*
X163334566Y-120223151D01*
X163486110Y-120223151D01*
X163486110Y-120071608D01*
X163486110Y-119920064D01*
X163334566Y-119920064D01*
X163183023Y-119920064D01*
X162879936Y-119920064D01*
X162425305Y-119920064D01*
X161970675Y-119920064D01*
X161970675Y-120223151D01*
X161970675Y-120374695D01*
X161667588Y-120374695D01*
X161667588Y-120223151D01*
X161516045Y-120223151D01*
X161364501Y-120223151D01*
X161364501Y-119920064D01*
X161364501Y-119616977D01*
X161212958Y-119616977D01*
X161061414Y-119616977D01*
X160758327Y-119616977D01*
X160606784Y-119616977D01*
X160455241Y-119616977D01*
X160455241Y-119465434D01*
X160455241Y-119313890D01*
X160758327Y-119313890D01*
X161061414Y-119313890D01*
X161061414Y-119010804D01*
X161061414Y-118707717D01*
X161212958Y-118707717D01*
X161364501Y-118707717D01*
X161364501Y-118859260D01*
X161364501Y-119010804D01*
X161516045Y-119010804D01*
X161667588Y-119010804D01*
X161667588Y-119313890D01*
X161667588Y-119616977D01*
X161819132Y-119616977D01*
X161970675Y-119616977D01*
X161970675Y-119465434D01*
X161970675Y-119313890D01*
X162122219Y-119313890D01*
X162273762Y-119313890D01*
X162273762Y-119162347D01*
X162273762Y-119010804D01*
X162425305Y-119010804D01*
X162576849Y-119010804D01*
X162576849Y-119162347D01*
X162576849Y-119313890D01*
X163637653Y-119313890D01*
X164698457Y-119313890D01*
X164698457Y-119162347D01*
X164698457Y-119010804D01*
X164850001Y-119010804D01*
X165001544Y-119010804D01*
X165001544Y-119313890D01*
X165001544Y-119616977D01*
X164850001Y-119616977D01*
X164698457Y-119616977D01*
X164698457Y-119768521D01*
X164698457Y-119920064D01*
X164850001Y-119920064D01*
X165001544Y-119920064D01*
X165001544Y-119768521D01*
X165001544Y-119616977D01*
X165153088Y-119616977D01*
X165304631Y-119616977D01*
X165304631Y-119768521D01*
X165304631Y-119920064D01*
X165607718Y-119920064D01*
X165910805Y-119920064D01*
X165910805Y-119768521D01*
X165910805Y-119616977D01*
X165759261Y-119616977D01*
X165607718Y-119616977D01*
X165607718Y-119465434D01*
X165607718Y-119313890D01*
X165456174Y-119313890D01*
X165304631Y-119313890D01*
X165304631Y-119162347D01*
X165304631Y-119010804D01*
X165153088Y-119010804D01*
X165001544Y-119010804D01*
X165001544Y-118859260D01*
X165001544Y-118707717D01*
X165304631Y-118707717D01*
X165607718Y-118707717D01*
X165607718Y-118556173D01*
X165607718Y-118404630D01*
X165759261Y-118404630D01*
X165910805Y-118404630D01*
X165910805Y-118253086D01*
X165910805Y-118101543D01*
X166062348Y-118101543D01*
X166213892Y-118101543D01*
X166213892Y-118253086D01*
X166213892Y-118404630D01*
X166365435Y-118404630D01*
X166516979Y-118404630D01*
X166516979Y-118859260D01*
X166516979Y-119313890D01*
X166365435Y-119313890D01*
X166213892Y-119313890D01*
X166213892Y-119010804D01*
X166213892Y-118707717D01*
X166062348Y-118707717D01*
X165910805Y-118707717D01*
X165910805Y-119010804D01*
X165910805Y-119313890D01*
X166062348Y-119313890D01*
X166213892Y-119313890D01*
X166213892Y-119616977D01*
X166213892Y-119920064D01*
X166365435Y-119920064D01*
X166516979Y-119920064D01*
X166516979Y-119768521D01*
X166516979Y-119616977D01*
X166668522Y-119616977D01*
X166820065Y-119616977D01*
X166820065Y-119465434D01*
X166820065Y-119313890D01*
X166971609Y-119313890D01*
X167123152Y-119313890D01*
X167123152Y-119465434D01*
X167123152Y-119616977D01*
X167274696Y-119616977D01*
X167426239Y-119616977D01*
X167426239Y-119465434D01*
X167426239Y-119313890D01*
X167274696Y-119313890D01*
X167123152Y-119313890D01*
X167123152Y-119162347D01*
X167123152Y-119010804D01*
X167274696Y-119010804D01*
X167426239Y-119010804D01*
X167426239Y-118859260D01*
X167426239Y-118707717D01*
X167274696Y-118707717D01*
X167123152Y-118707717D01*
X167123152Y-118556173D01*
X167123152Y-118404630D01*
X167274696Y-118404630D01*
X167426239Y-118404630D01*
X167426239Y-118253086D01*
X167426239Y-118101543D01*
X167274696Y-118101543D01*
X167123152Y-118101543D01*
X167123152Y-117949999D01*
X167123152Y-117798456D01*
X167274696Y-117798456D01*
X167426239Y-117798456D01*
X167426239Y-117646912D01*
X167426239Y-117495369D01*
X167577783Y-117495369D01*
X167729326Y-117495369D01*
X167729326Y-117343826D01*
X167729326Y-117192282D01*
X167880870Y-117192282D01*
X168032413Y-117192282D01*
X168032413Y-117495369D01*
X168032413Y-117798456D01*
X168335500Y-117798456D01*
X168638587Y-117798456D01*
X168638587Y-117495369D01*
X168638587Y-117192282D01*
X168790130Y-117192282D01*
X168941674Y-117192282D01*
X168941674Y-117343826D01*
X168941674Y-117495369D01*
X169093217Y-117495369D01*
X169244761Y-117495369D01*
X169244761Y-117798456D01*
X169244761Y-118101543D01*
X169093217Y-118101543D01*
X168941674Y-118101543D01*
X168941674Y-117949999D01*
X168941674Y-117798456D01*
X168790130Y-117798456D01*
X168638587Y-117798456D01*
X168638587Y-117949999D01*
X168638587Y-118101543D01*
X168335500Y-118101543D01*
X168032413Y-118101543D01*
X168032413Y-117949999D01*
X168032413Y-117798456D01*
X167880870Y-117798456D01*
X167729326Y-117798456D01*
X167729326Y-118707717D01*
X167729326Y-119616977D01*
X167577783Y-119616977D01*
X167426239Y-119616977D01*
X167426239Y-119768521D01*
X167426239Y-119920064D01*
X167123152Y-119920064D01*
X166820065Y-119920064D01*
X166820065Y-120071608D01*
X166820065Y-120223151D01*
X166365435Y-120223151D01*
X165910805Y-120223151D01*
X165910805Y-120374695D01*
X165910805Y-120526238D01*
X166365435Y-120526238D01*
X166820065Y-120526238D01*
X166820065Y-120677781D01*
X166820065Y-120829325D01*
X166668522Y-120829325D01*
X166516979Y-120829325D01*
X166516979Y-120980868D01*
X166516979Y-121132412D01*
X166668522Y-121132412D01*
X166820065Y-121132412D01*
X166820065Y-121587042D01*
X166820065Y-122041673D01*
X166668522Y-122041673D01*
X166516979Y-122041673D01*
X166516979Y-122193216D01*
X166516979Y-122344759D01*
X166365435Y-122344759D01*
X166213892Y-122344759D01*
X166213892Y-122193216D01*
X166213892Y-122041673D01*
X166062348Y-122041673D01*
X165910805Y-122041673D01*
X165910805Y-121435499D01*
X165910805Y-120829325D01*
X165607718Y-120829325D01*
X165304631Y-120829325D01*
X165304631Y-120980868D01*
X165304631Y-121132412D01*
X165456174Y-121132412D01*
X165607718Y-121132412D01*
X165607718Y-121283955D01*
X165607718Y-121435499D01*
X165304631Y-121435499D01*
X165001544Y-121435499D01*
X165001544Y-121283955D01*
X165001544Y-121132412D01*
X164850001Y-121132412D01*
X164698457Y-121132412D01*
X164698457Y-120980868D01*
X164698457Y-120829325D01*
X164546914Y-120829325D01*
X164395370Y-120829325D01*
X164395370Y-120677781D01*
X164395370Y-120526238D01*
X164546914Y-120526238D01*
X164698457Y-120526238D01*
X164698457Y-120223151D01*
X164698457Y-119920064D01*
X164546914Y-119920064D01*
X164395370Y-119920064D01*
X164395370Y-120071608D01*
X164395370Y-120223151D01*
X164243827Y-120223151D01*
X164092283Y-120223151D01*
X164092283Y-120071608D01*
X164092283Y-119920064D01*
X163940740Y-119920064D01*
X163789196Y-119920064D01*
X163789196Y-120071608D01*
X163789196Y-120223151D01*
G37*
G36*
X162122219Y-121435499D02*
G01*
X162273762Y-121435499D01*
X162273762Y-121587042D01*
X162273762Y-121738586D01*
X162122219Y-121738586D01*
X161970675Y-121738586D01*
X161970675Y-121587042D01*
X161970675Y-121435499D01*
X162122219Y-121435499D01*
G37*
G36*
X166213892Y-116586108D02*
G01*
X166062348Y-116586108D01*
X165910805Y-116586108D01*
X165910805Y-116737652D01*
X165910805Y-116889195D01*
X166062348Y-116889195D01*
X166213892Y-116889195D01*
X166213892Y-117040739D01*
X166213892Y-117192282D01*
X166365435Y-117192282D01*
X166516979Y-117192282D01*
X166516979Y-116889195D01*
X166516979Y-116586108D01*
X166971609Y-116586108D01*
X167426239Y-116586108D01*
X167426239Y-116737652D01*
X167426239Y-116889195D01*
X167123152Y-116889195D01*
X166820065Y-116889195D01*
X166820065Y-117192282D01*
X166820065Y-117495369D01*
X166668522Y-117495369D01*
X166516979Y-117495369D01*
X166516979Y-117798456D01*
X166516979Y-118101543D01*
X166365435Y-118101543D01*
X166213892Y-118101543D01*
X166213892Y-117646912D01*
X166213892Y-117192282D01*
X165910805Y-117192282D01*
X165607718Y-117192282D01*
X165607718Y-117495369D01*
X165607718Y-117798456D01*
X165304631Y-117798456D01*
X165001544Y-117798456D01*
X165001544Y-117495369D01*
X165001544Y-117192282D01*
X164546914Y-117192282D01*
X164092283Y-117192282D01*
X164092283Y-117040739D01*
X165304631Y-117040739D01*
X165304631Y-117192282D01*
X165456174Y-117192282D01*
X165607718Y-117192282D01*
X165607718Y-117040739D01*
X165607718Y-116889195D01*
X165456174Y-116889195D01*
X165304631Y-116889195D01*
X165304631Y-117040739D01*
X164092283Y-117040739D01*
X164092283Y-116889195D01*
X163940740Y-116889195D01*
X163789196Y-116889195D01*
X163789196Y-116737652D01*
X165001544Y-116737652D01*
X165001544Y-116889195D01*
X165153088Y-116889195D01*
X165304631Y-116889195D01*
X165304631Y-116737652D01*
X165304631Y-116586108D01*
X165153088Y-116586108D01*
X165001544Y-116586108D01*
X165001544Y-116737652D01*
X163789196Y-116737652D01*
X163789196Y-116586108D01*
X163486110Y-116586108D01*
X163183023Y-116586108D01*
X163183023Y-116737652D01*
X163183023Y-116889195D01*
X163031479Y-116889195D01*
X162879936Y-116889195D01*
X162879936Y-116737652D01*
X162879936Y-116586108D01*
X162728392Y-116586108D01*
X162576849Y-116586108D01*
X162576849Y-116737652D01*
X162576849Y-116889195D01*
X162425305Y-116889195D01*
X162273762Y-116889195D01*
X162273762Y-117192282D01*
X162273762Y-117495369D01*
X162425305Y-117495369D01*
X162576849Y-117495369D01*
X162576849Y-117646912D01*
X162576849Y-117798456D01*
X162425305Y-117798456D01*
X162273762Y-117798456D01*
X162273762Y-117949999D01*
X162273762Y-118101543D01*
X162122219Y-118101543D01*
X161970675Y-118101543D01*
X161970675Y-118404630D01*
X161970675Y-118707717D01*
X161667588Y-118707717D01*
X161364501Y-118707717D01*
X161364501Y-118253086D01*
X161364501Y-117798456D01*
X161212958Y-117798456D01*
X161061414Y-117798456D01*
X161061414Y-117949999D01*
X161061414Y-118101543D01*
X160909871Y-118101543D01*
X160758327Y-118101543D01*
X160758327Y-118253086D01*
X160758327Y-118404630D01*
X160909871Y-118404630D01*
X161061414Y-118404630D01*
X161061414Y-118556173D01*
X161061414Y-118707717D01*
X160758327Y-118707717D01*
X160455241Y-118707717D01*
X160455241Y-117798456D01*
X160455241Y-117646912D01*
X160758327Y-117646912D01*
X160758327Y-117798456D01*
X160909871Y-117798456D01*
X161061414Y-117798456D01*
X161061414Y-117646912D01*
X161061414Y-117495369D01*
X160909871Y-117495369D01*
X160758327Y-117495369D01*
X160758327Y-117646912D01*
X160455241Y-117646912D01*
X160455241Y-116889195D01*
X160606784Y-116889195D01*
X160758327Y-116889195D01*
X160758327Y-117040739D01*
X160758327Y-117192282D01*
X161061414Y-117192282D01*
X161364501Y-117192282D01*
X161364501Y-117343826D01*
X161364501Y-117495369D01*
X161516045Y-117495369D01*
X161667588Y-117495369D01*
X161667588Y-117646912D01*
X161667588Y-117798456D01*
X161819132Y-117798456D01*
X161970675Y-117798456D01*
X161970675Y-117192282D01*
X161970675Y-116586108D01*
X161819132Y-116586108D01*
X161667588Y-116586108D01*
X161667588Y-116889195D01*
X161667588Y-117192282D01*
X161516045Y-117192282D01*
X161364501Y-117192282D01*
X161364501Y-117040739D01*
X161364501Y-116889195D01*
X161061414Y-116889195D01*
X160758327Y-116889195D01*
X160758327Y-116737652D01*
X160758327Y-116586108D01*
X160606784Y-116586108D01*
X160455241Y-116586108D01*
X160455241Y-116434565D01*
X160455241Y-116283021D01*
X160606784Y-116283021D01*
X160758327Y-116283021D01*
X160758327Y-116434565D01*
X160758327Y-116586108D01*
X160909871Y-116586108D01*
X161061414Y-116586108D01*
X161061414Y-116434565D01*
X161061414Y-116283021D01*
X160909871Y-116283021D01*
X160758327Y-116283021D01*
X160758327Y-116131478D01*
X160758327Y-115979935D01*
X161061414Y-115979935D01*
X161364501Y-115979935D01*
X161364501Y-116131478D01*
X161364501Y-116283021D01*
X162122219Y-116283021D01*
X162879936Y-116283021D01*
X162879936Y-116434565D01*
X162879936Y-116586108D01*
X163031479Y-116586108D01*
X163183023Y-116586108D01*
X163183023Y-116434565D01*
X163183023Y-116283021D01*
X163334566Y-116283021D01*
X163486110Y-116283021D01*
X163486110Y-115828391D01*
X163486110Y-115373761D01*
X163334566Y-115373761D01*
X163183023Y-115373761D01*
X163183023Y-115676848D01*
X163183023Y-115979935D01*
X163031479Y-115979935D01*
X162879936Y-115979935D01*
X162879936Y-115525304D01*
X162879936Y-115070674D01*
X163031479Y-115070674D01*
X163183023Y-115070674D01*
X163183023Y-114919130D01*
X163183023Y-114767587D01*
X163031479Y-114767587D01*
X162879936Y-114767587D01*
X162879936Y-114464500D01*
X162879936Y-114161413D01*
X163031479Y-114161413D01*
X163183023Y-114161413D01*
X163183023Y-114312957D01*
X163183023Y-114464500D01*
X163334566Y-114464500D01*
X163486110Y-114464500D01*
X163486110Y-114767587D01*
X163486110Y-115070674D01*
X163637653Y-115070674D01*
X163789196Y-115070674D01*
X163789196Y-115373761D01*
X163789196Y-115676848D01*
X163940740Y-115676848D01*
X164092283Y-115676848D01*
X164092283Y-115373761D01*
X164092283Y-115070674D01*
X164395370Y-115070674D01*
X164698457Y-115070674D01*
X164698457Y-114919130D01*
X164698457Y-114767587D01*
X164850001Y-114767587D01*
X165001544Y-114767587D01*
X165001544Y-114919130D01*
X165001544Y-115070674D01*
X165153088Y-115070674D01*
X165304631Y-115070674D01*
X165304631Y-114919130D01*
X165304631Y-114767587D01*
X165153088Y-114767587D01*
X165001544Y-114767587D01*
X165001544Y-114312957D01*
X165001544Y-113858326D01*
X164698457Y-113858326D01*
X164395370Y-113858326D01*
X164395370Y-113706783D01*
X164395370Y-113555239D01*
X164698457Y-113555239D01*
X165001544Y-113555239D01*
X165001544Y-113706783D01*
X165001544Y-113858326D01*
X165153088Y-113858326D01*
X165304631Y-113858326D01*
X165304631Y-113706783D01*
X165304631Y-113555239D01*
X165456174Y-113555239D01*
X165607718Y-113555239D01*
X165607718Y-113706783D01*
X165607718Y-113858326D01*
X165456174Y-113858326D01*
X165304631Y-113858326D01*
X165304631Y-114312957D01*
X165304631Y-114767587D01*
X165607718Y-114767587D01*
X165910805Y-114767587D01*
X165910805Y-114616043D01*
X165910805Y-114464500D01*
X165759261Y-114464500D01*
X165607718Y-114464500D01*
X165607718Y-114161413D01*
X165607718Y-113858326D01*
X165910805Y-113858326D01*
X166213892Y-113858326D01*
X166213892Y-114009870D01*
X166213892Y-114161413D01*
X166365435Y-114161413D01*
X166516979Y-114161413D01*
X166516979Y-114009870D01*
X166516979Y-113858326D01*
X166668522Y-113858326D01*
X166820065Y-113858326D01*
X166820065Y-114161413D01*
X166820065Y-114464500D01*
X166668522Y-114464500D01*
X166516979Y-114464500D01*
X166516979Y-114616043D01*
X166516979Y-114767587D01*
X166365435Y-114767587D01*
X166213892Y-114767587D01*
X166213892Y-114919130D01*
X166213892Y-115070674D01*
X165759261Y-115070674D01*
X165304631Y-115070674D01*
X165304631Y-115222217D01*
X165304631Y-115373761D01*
X165153088Y-115373761D01*
X165001544Y-115373761D01*
X165001544Y-115525304D01*
X165001544Y-115676848D01*
X164850001Y-115676848D01*
X164698457Y-115676848D01*
X164698457Y-115525304D01*
X164698457Y-115373761D01*
X164546914Y-115373761D01*
X164395370Y-115373761D01*
X164395370Y-115676848D01*
X164395370Y-115979935D01*
X164092283Y-115979935D01*
X163789196Y-115979935D01*
X163789196Y-116131478D01*
X163789196Y-116283021D01*
X163940740Y-116283021D01*
X164092283Y-116283021D01*
X164092283Y-116434565D01*
X164092283Y-116586108D01*
X164243827Y-116586108D01*
X164395370Y-116586108D01*
X164395370Y-116434565D01*
X164698457Y-116434565D01*
X164698457Y-116586108D01*
X164850001Y-116586108D01*
X165001544Y-116586108D01*
X165001544Y-116434565D01*
X165001544Y-116283021D01*
X164850001Y-116283021D01*
X164698457Y-116283021D01*
X164698457Y-116434565D01*
X164395370Y-116434565D01*
X164395370Y-116283021D01*
X164395370Y-115979935D01*
X164698457Y-115979935D01*
X165001544Y-115979935D01*
X165001544Y-116131478D01*
X165001544Y-116283021D01*
X165153088Y-116283021D01*
X165304631Y-116283021D01*
X165607718Y-116283021D01*
X165607718Y-116434565D01*
X165607718Y-116586108D01*
X165759261Y-116586108D01*
X165910805Y-116586108D01*
X165910805Y-116434565D01*
X165910805Y-116283021D01*
X165759261Y-116283021D01*
X165607718Y-116283021D01*
X165304631Y-116283021D01*
X165304631Y-116131478D01*
X165304631Y-115979935D01*
X165456174Y-115979935D01*
X165607718Y-115979935D01*
X165607718Y-115828391D01*
X165607718Y-115676848D01*
X165759261Y-115676848D01*
X165910805Y-115676848D01*
X165910805Y-115525304D01*
X165910805Y-115373761D01*
X166062348Y-115373761D01*
X166213892Y-115373761D01*
X166213892Y-115525304D01*
X166213892Y-115676848D01*
X166062348Y-115676848D01*
X165910805Y-115676848D01*
X165910805Y-115979935D01*
X165910805Y-116283021D01*
X166062348Y-116283021D01*
X166213892Y-116283021D01*
X166213892Y-116131478D01*
X166213892Y-115979935D01*
X166365435Y-115979935D01*
X166516979Y-115979935D01*
X166516979Y-116131478D01*
X166516979Y-116283021D01*
X166365435Y-116283021D01*
X166213892Y-116283021D01*
X166213892Y-116434565D01*
X166213892Y-116586108D01*
G37*
G36*
X165456174Y-115373761D02*
G01*
X165607718Y-115373761D01*
X165607718Y-115525304D01*
X165607718Y-115676848D01*
X165456174Y-115676848D01*
X165304631Y-115676848D01*
X165304631Y-115525304D01*
X165304631Y-115373761D01*
X165456174Y-115373761D01*
G37*
%TD*%
%LPC*%
D18*
%TO.C,RLY2*%
X106135910Y-113800000D03*
X106135910Y-126000000D03*
X118135910Y-126000000D03*
X118135910Y-113800000D03*
X112135910Y-111800000D03*
%TD*%
D19*
%TO.C,J10*%
X162243640Y-132555000D03*
D20*
X164743640Y-132555000D03*
X167243640Y-132555000D03*
%TD*%
D18*
%TO.C,RLY3*%
X123671820Y-113800000D03*
X123671820Y-126000000D03*
X135671820Y-126000000D03*
X135671820Y-113800000D03*
X129671820Y-111800000D03*
%TD*%
D21*
%TO.C,H1*%
X82000000Y-92000000D03*
%TD*%
D18*
%TO.C,RLY1*%
X88600000Y-113800000D03*
X88600000Y-126000000D03*
X100600000Y-126000000D03*
X100600000Y-113800000D03*
X94600000Y-111800000D03*
%TD*%
D22*
%TO.C,H8*%
X177000000Y-89485000D03*
%TD*%
D23*
%TO.C,J3*%
X175895000Y-108220000D03*
D24*
X175895000Y-105680000D03*
X175895000Y-103140000D03*
X175895000Y-100600000D03*
%TD*%
D19*
%TO.C,J6*%
X92100000Y-132555000D03*
D20*
X94600000Y-132555000D03*
X97100000Y-132555000D03*
%TD*%
D22*
%TO.C,H7*%
X79000000Y-89500000D03*
%TD*%
D19*
%TO.C,J9*%
X144707730Y-132555000D03*
D20*
X147207730Y-132555000D03*
X149707730Y-132555000D03*
%TD*%
D25*
%TO.C,H6*%
X153000000Y-94000000D03*
%TD*%
D22*
%TO.C,H9*%
X177000000Y-137000000D03*
%TD*%
D25*
%TO.C,H5*%
X103000000Y-94000000D03*
%TD*%
D18*
%TO.C,RLY4*%
X141207730Y-113800000D03*
X141207730Y-126000000D03*
X153207730Y-126000000D03*
X153207730Y-113800000D03*
X147207730Y-111800000D03*
%TD*%
D25*
%TO.C,H2*%
X174000000Y-134000000D03*
%TD*%
%TO.C,H4*%
X174000000Y-92000000D03*
%TD*%
D19*
%TO.C,J7*%
X109635910Y-132555000D03*
D20*
X112135910Y-132555000D03*
X114635910Y-132555000D03*
%TD*%
D18*
%TO.C,RLY5*%
X158743640Y-113800000D03*
X158743640Y-126000000D03*
X170743640Y-126000000D03*
X170743640Y-113800000D03*
X164743640Y-111800000D03*
%TD*%
D23*
%TO.C,J5*%
X90320000Y-94000000D03*
D24*
X92860000Y-94000000D03*
X95400000Y-94000000D03*
%TD*%
D25*
%TO.C,H3*%
X82000000Y-134000000D03*
%TD*%
D19*
%TO.C,J8*%
X127171820Y-132555000D03*
D20*
X129671820Y-132555000D03*
X132171820Y-132555000D03*
%TD*%
D26*
%TO.C,J1*%
X108940000Y-93013272D03*
X108940000Y-98063272D03*
X111480000Y-93013272D03*
X111480000Y-98063272D03*
X114020000Y-93013272D03*
X114020000Y-98063272D03*
X116560000Y-93013272D03*
X116560000Y-98063272D03*
X119100000Y-93013272D03*
X119100000Y-98063272D03*
X121640000Y-93013272D03*
X121640000Y-98063272D03*
X124180000Y-93013272D03*
X124180000Y-98063272D03*
X126720000Y-93013272D03*
X126720000Y-98063272D03*
X129260000Y-93013272D03*
X129260000Y-98063272D03*
X131800000Y-93013272D03*
X131800000Y-98063272D03*
X134340000Y-93013272D03*
X134340000Y-98063272D03*
X136880000Y-93013272D03*
X136880000Y-98063272D03*
X139420000Y-93013272D03*
X139420000Y-98063272D03*
X141960000Y-93013272D03*
X141960000Y-98063272D03*
X144500000Y-93013272D03*
X144500000Y-98063272D03*
X147040000Y-93013272D03*
X147040000Y-98063272D03*
%TD*%
%LPD*%
M02*
