%TF.GenerationSoftware,KiCad,Pcbnew,10.0.1*%
%TF.CreationDate,2026-05-13T09:28:10+02:00*%
%TF.ProjectId,MMS3_hat_relay,4d4d5333-5f68-4617-945f-72656c61792e,R0*%
%TF.SameCoordinates,Original*%
%TF.FileFunction,Copper,L1,Top*%
%TF.FilePolarity,Positive*%
%FSLAX46Y46*%
G04 Gerber Fmt 4.6, Leading zero omitted, Abs format (unit mm)*
G04 Created by KiCad (PCBNEW 10.0.1) date 2026-05-13 09:28:10*
%MOMM*%
%LPD*%
G01*
G04 APERTURE LIST*
G04 Aperture macros list*
%AMRoundRect*
0 Rectangle with rounded corners*
0 $1 Rounding radius*
0 $2 $3 $4 $5 $6 $7 $8 $9 X,Y pos of 4 corners*
0 Add a 4 corners polygon primitive as box body*
4,1,4,$2,$3,$4,$5,$6,$7,$8,$9,$2,$3,0*
0 Add four circle primitives for the rounded corners*
1,1,$1+$1,$2,$3*
1,1,$1+$1,$4,$5*
1,1,$1+$1,$6,$7*
1,1,$1+$1,$8,$9*
0 Add four rect primitives between the rounded corners*
20,1,$1+$1,$2,$3,$4,$5,0*
20,1,$1+$1,$4,$5,$6,$7,0*
20,1,$1+$1,$6,$7,$8,$9,0*
20,1,$1+$1,$8,$9,$2,$3,0*%
G04 Aperture macros list end*
%TA.AperFunction,SMDPad,CuDef*%
%ADD10RoundRect,0.200000X0.200000X0.275000X-0.200000X0.275000X-0.200000X-0.275000X0.200000X-0.275000X0*%
%TD*%
%TA.AperFunction,ComponentPad*%
%ADD11C,2.794000*%
%TD*%
%TA.AperFunction,SMDPad,CuDef*%
%ADD12RoundRect,0.200000X-0.200000X-0.275000X0.200000X-0.275000X0.200000X0.275000X-0.200000X0.275000X0*%
%TD*%
%TA.AperFunction,SMDPad,CuDef*%
%ADD13RoundRect,0.150000X-0.150000X0.590000X-0.150000X-0.590000X0.150000X-0.590000X0.150000X0.590000X0*%
%TD*%
%TA.AperFunction,SMDPad,CuDef*%
%ADD14RoundRect,0.140000X-0.170000X0.140000X-0.170000X-0.140000X0.170000X-0.140000X0.170000X0.140000X0*%
%TD*%
%TA.AperFunction,SMDPad,CuDef*%
%ADD15RoundRect,0.225000X0.225000X0.250000X-0.225000X0.250000X-0.225000X-0.250000X0.225000X-0.250000X0*%
%TD*%
%TA.AperFunction,SMDPad,CuDef*%
%ADD16RoundRect,0.150000X0.662500X0.150000X-0.662500X0.150000X-0.662500X-0.150000X0.662500X-0.150000X0*%
%TD*%
%TA.AperFunction,SMDPad,CuDef*%
%ADD17RoundRect,0.140000X0.170000X-0.140000X0.170000X0.140000X-0.170000X0.140000X-0.170000X-0.140000X0*%
%TD*%
%TA.AperFunction,ComponentPad*%
%ADD18RoundRect,0.250000X-0.600000X-0.725000X0.600000X-0.725000X0.600000X0.725000X-0.600000X0.725000X0*%
%TD*%
%TA.AperFunction,ComponentPad*%
%ADD19O,1.700000X1.950000*%
%TD*%
%TA.AperFunction,SMDPad,CuDef*%
%ADD20RoundRect,0.200000X-0.275000X0.200000X-0.275000X-0.200000X0.275000X-0.200000X0.275000X0.200000X0*%
%TD*%
%TA.AperFunction,SMDPad,CuDef*%
%ADD21RoundRect,0.112500X-0.187500X-0.112500X0.187500X-0.112500X0.187500X0.112500X-0.187500X0.112500X0*%
%TD*%
%TA.AperFunction,SMDPad,CuDef*%
%ADD22RoundRect,0.220000X-0.220000X-0.255000X0.220000X-0.255000X0.220000X0.255000X-0.220000X0.255000X0*%
%TD*%
%TA.AperFunction,SMDPad,CuDef*%
%ADD23RoundRect,0.250000X-1.000000X-0.300000X1.000000X-0.300000X1.000000X0.300000X-1.000000X0.300000X0*%
%TD*%
%TA.AperFunction,ComponentPad*%
%ADD24C,0.500000*%
%TD*%
%TA.AperFunction,SMDPad,CuDef*%
%ADD25RoundRect,0.250000X-0.920000X-1.550000X0.920000X-1.550000X0.920000X1.550000X-0.920000X1.550000X0*%
%TD*%
%TA.AperFunction,ComponentPad*%
%ADD26C,3.100000*%
%TD*%
%TA.AperFunction,ConnectorPad*%
%ADD27C,4.700000*%
%TD*%
%TA.AperFunction,SMDPad,CuDef*%
%ADD28R,1.000000X3.000000*%
%TD*%
%TA.AperFunction,SMDPad,CuDef*%
%ADD29RoundRect,0.225000X-0.225000X-0.250000X0.225000X-0.250000X0.225000X0.250000X-0.225000X0.250000X0*%
%TD*%
%TA.AperFunction,SMDPad,CuDef*%
%ADD30RoundRect,0.140000X0.140000X0.170000X-0.140000X0.170000X-0.140000X-0.170000X0.140000X-0.170000X0*%
%TD*%
%TA.AperFunction,ComponentPad*%
%ADD31R,1.700000X1.700000*%
%TD*%
%TA.AperFunction,ComponentPad*%
%ADD32C,1.700000*%
%TD*%
%TA.AperFunction,SMDPad,CuDef*%
%ADD33O,1.950000X0.570000*%
%TD*%
%TA.AperFunction,SMDPad,CuDef*%
%ADD34RoundRect,0.225000X-0.250000X0.225000X-0.250000X-0.225000X0.250000X-0.225000X0.250000X0.225000X0*%
%TD*%
%TA.AperFunction,SMDPad,CuDef*%
%ADD35RoundRect,0.225000X0.250000X-0.225000X0.250000X0.225000X-0.250000X0.225000X-0.250000X-0.225000X0*%
%TD*%
%TA.AperFunction,SMDPad,CuDef*%
%ADD36RoundRect,0.140000X-0.140000X-0.170000X0.140000X-0.170000X0.140000X0.170000X-0.140000X0.170000X0*%
%TD*%
%TA.AperFunction,SMDPad,CuDef*%
%ADD37RoundRect,0.100000X-0.100000X0.637500X-0.100000X-0.637500X0.100000X-0.637500X0.100000X0.637500X0*%
%TD*%
%TA.AperFunction,SMDPad,CuDef*%
%ADD38RoundRect,0.100000X-0.640000X-0.100000X0.640000X-0.100000X0.640000X0.100000X-0.640000X0.100000X0*%
%TD*%
%TA.AperFunction,SMDPad,CuDef*%
%ADD39RoundRect,0.250000X-0.650000X0.425000X-0.650000X-0.425000X0.650000X-0.425000X0.650000X0.425000X0*%
%TD*%
%TA.AperFunction,SMDPad,CuDef*%
%ADD40RoundRect,0.250000X-0.450000X-0.350000X0.450000X-0.350000X0.450000X0.350000X-0.450000X0.350000X0*%
%TD*%
%TA.AperFunction,ViaPad*%
%ADD41C,0.500000*%
%TD*%
%TA.AperFunction,Conductor*%
%ADD42C,0.300000*%
%TD*%
%TA.AperFunction,Conductor*%
%ADD43C,0.200000*%
%TD*%
%TA.AperFunction,Conductor*%
%ADD44C,1.000000*%
%TD*%
G04 APERTURE END LIST*
D10*
%TO.P,R28,1*%
%TO.N,/S5*%
X167563640Y-105400000D03*
%TO.P,R28,2*%
%TO.N,Net-(R28-Pad2)*%
X165923640Y-105400000D03*
%TD*%
%TO.P,R25,1*%
%TO.N,/S4*%
X150240000Y-105400000D03*
%TO.P,R25,2*%
%TO.N,Net-(R25-Pad2)*%
X148600000Y-105400000D03*
%TD*%
%TO.P,R22,1*%
%TO.N,/S3*%
X132820000Y-105400000D03*
%TO.P,R22,2*%
%TO.N,Net-(R22-Pad2)*%
X131180000Y-105400000D03*
%TD*%
%TO.P,R19,1*%
%TO.N,/S2*%
X115020000Y-105400000D03*
%TO.P,R19,2*%
%TO.N,Net-(R19-Pad2)*%
X113380000Y-105400000D03*
%TD*%
%TO.P,R15,1*%
%TO.N,/S1*%
X97420000Y-105400000D03*
%TO.P,R15,2*%
%TO.N,Net-(R15-Pad2)*%
X95780000Y-105400000D03*
%TD*%
D11*
%TO.P,RLY2,1,1_1*%
%TO.N,+5V*%
X106135910Y-113800000D03*
%TO.P,RLY2,2,2_2*%
%TO.N,/Relay 2/NO*%
X106135910Y-126000000D03*
%TO.P,RLY2,3,3_3*%
%TO.N,/Relay 2/NC*%
X118135910Y-126000000D03*
%TO.P,RLY2,4,4_4*%
%TO.N,Net-(Q13-C)*%
X118135910Y-113800000D03*
%TO.P,RLY2,5,5_5*%
%TO.N,/Relay 2/COM*%
X112135910Y-111800000D03*
%TD*%
D12*
%TO.P,R27,1*%
%TO.N,/S5*%
X169123640Y-105400000D03*
%TO.P,R27,2*%
%TO.N,Net-(R27-Pad2)*%
X170763640Y-105400000D03*
%TD*%
D13*
%TO.P,Q16,1,B_1*%
%TO.N,Net-(Q16-B)*%
X161293640Y-105460000D03*
%TO.P,Q16,2,E_2*%
%TO.N,GND*%
X159393640Y-105460000D03*
%TO.P,Q16,3,C_3*%
%TO.N,Net-(Q16-C)*%
X160343640Y-107340000D03*
%TD*%
D14*
%TO.P,R10,1*%
%TO.N,+3V3*%
X96549850Y-100418581D03*
%TO.P,R10,2*%
%TO.N,/Chainbus.SDA*%
X96549850Y-101418581D03*
%TD*%
D15*
%TO.P,C4,1*%
%TO.N,/CH32V003/OSCI*%
X86340000Y-97875000D03*
%TO.P,C4,2*%
%TO.N,GND*%
X84780000Y-97875000D03*
%TD*%
D16*
%TO.P,U5,1*%
%TO.N,Net-(R17-Pad2)*%
X99787500Y-108235000D03*
%TO.P,U5,2*%
%TO.N,GND*%
X99787500Y-106965000D03*
%TO.P,U5,3*%
%TO.N,Net-(R15-Pad2)*%
X93412500Y-106965000D03*
%TO.P,U5,4*%
%TO.N,+5V*%
X93412500Y-108235000D03*
%TD*%
D17*
%TO.P,R13,1*%
%TO.N,+3V3*%
X79360000Y-98675000D03*
%TO.P,R13,2*%
%TO.N,/CH32V003/PD7*%
X79360000Y-97675000D03*
%TD*%
D18*
%TO.P,J10,1,Pin_1_1*%
%TO.N,/Relay 5/NO*%
X162243640Y-132555000D03*
D19*
%TO.P,J10,2,Pin_2_2*%
%TO.N,/Relay 5/COM*%
X164743640Y-132555000D03*
%TO.P,J10,3,Pin_3_3*%
%TO.N,/Relay 5/NC*%
X167243640Y-132555000D03*
%TD*%
D20*
%TO.P,R33,1*%
%TO.N,Net-(Q15-C)*%
X138607730Y-109400000D03*
%TO.P,R33,2*%
%TO.N,Net-(D12-Pad1)*%
X138607730Y-111040000D03*
%TD*%
D21*
%TO.P,D4,1*%
%TO.N,+5V*%
X106685910Y-109340000D03*
%TO.P,D4,2*%
%TO.N,Net-(Q13-C)*%
X108785910Y-109340000D03*
%TD*%
D22*
%TO.P,D10,1*%
%TO.N,Net-(D10-Pad1)*%
X104345910Y-137200000D03*
%TO.P,D10,2*%
%TO.N,+5V*%
X105925910Y-137200000D03*
%TD*%
D23*
%TO.P,U4,1,GND_1*%
%TO.N,GND*%
X166130000Y-97300000D03*
%TO.P,U4,2,VOUT_2*%
%TO.N,+3V3*%
X166130000Y-95000000D03*
%TO.P,U4,3,VIN_3*%
%TO.N,+5V*%
X166130000Y-92700000D03*
D24*
%TO.P,U4,4,VOUT_4*%
%TO.N,+3V3*%
X160160000Y-94000000D03*
X160160000Y-95000000D03*
D25*
X160160000Y-95000000D03*
D24*
X160160000Y-96000000D03*
%TD*%
D11*
%TO.P,RLY3,1,1_1*%
%TO.N,+5V*%
X123671820Y-113800000D03*
%TO.P,RLY3,2,2_2*%
%TO.N,/Relay 3/NO*%
X123671820Y-126000000D03*
%TO.P,RLY3,3,3_3*%
%TO.N,/Relay 3/NC*%
X135671820Y-126000000D03*
%TO.P,RLY3,4,4_4*%
%TO.N,Net-(Q14-C)*%
X135671820Y-113800000D03*
%TO.P,RLY3,5,5_5*%
%TO.N,/Relay 3/COM*%
X129671820Y-111800000D03*
%TD*%
D26*
%TO.P,H1,1,1_1*%
%TO.N,GND*%
X82000000Y-92000000D03*
D27*
X82000000Y-92000000D03*
%TD*%
D22*
%TO.P,D1,1*%
%TO.N,GND*%
X84420000Y-95800000D03*
%TO.P,D1,2*%
%TO.N,Net-(D1-Pad2)*%
X86000000Y-95800000D03*
%TD*%
D28*
%TO.P,J2,1,Pin_1_1*%
%TO.N,GND*%
X108950000Y-93038272D03*
%TO.P,J2,2,Pin_2_2*%
%TO.N,/Interboard_connector/SEL2*%
X108950000Y-98078272D03*
%TO.P,J2,3,Pin_3_3*%
%TO.N,+5V*%
X111490000Y-93038272D03*
%TO.P,J2,4,Pin_4_4*%
%TO.N,/Interboard_connector/SEL3*%
X111490000Y-98078272D03*
%TO.P,J2,5,Pin_5_5*%
%TO.N,+5V*%
X114030000Y-93038272D03*
%TO.P,J2,6,Pin_6_6*%
%TO.N,/Interboard_connector/SEL4*%
X114030000Y-98078272D03*
%TO.P,J2,7,Pin_7_7*%
%TO.N,GND*%
X116570000Y-93038272D03*
%TO.P,J2,8,Pin_8_8*%
%TO.N,/Interboard_connector/SEL5*%
X116570000Y-98078272D03*
%TO.P,J2,9,Pin_9_9*%
%TO.N,VIN_CHAINBUS*%
X119110000Y-93038272D03*
%TO.P,J2,10,Pin_10_10*%
%TO.N,/Interboard_connector/SEL6*%
X119110000Y-98078272D03*
%TO.P,J2,11,Pin_11_11*%
%TO.N,VIN_CHAINBUS*%
X121650000Y-93038272D03*
%TO.P,J2,12,Pin_12_12*%
%TO.N,/Interboard_connector/SEL7*%
X121650000Y-98078272D03*
%TO.P,J2,13,Pin_13_13*%
%TO.N,VIN_CHAINBUS*%
X124190000Y-93038272D03*
%TO.P,J2,14,Pin_14_14*%
%TO.N,/Interboard_connector/SEL8*%
X124190000Y-98078272D03*
%TO.P,J2,15,Pin_15_15*%
%TO.N,VIN_CHAINBUS*%
X126730000Y-93038272D03*
%TO.P,J2,16,Pin_16_16*%
%TO.N,unconnected-(J2-Pin_16-Pad16)*%
X126730000Y-98078272D03*
%TO.P,J2,17,Pin_17_17*%
%TO.N,GND*%
X129270000Y-93038272D03*
%TO.P,J2,18,Pin_18_18*%
%TO.N,/Bus_switch/Chainbus_In.SDA*%
X129270000Y-98078272D03*
%TO.P,J2,19,Pin_19_19*%
%TO.N,GND*%
X131810000Y-93038272D03*
%TO.P,J2,20,Pin_20_20*%
%TO.N,/Bus_switch/Chainbus_In.SCL*%
X131810000Y-98078272D03*
%TO.P,J2,21,Pin_21_21*%
%TO.N,GND*%
X134350000Y-93038272D03*
%TO.P,J2,22,Pin_22_22*%
%TO.N,/Interboard_connector/Chainbus.CS*%
X134350000Y-98078272D03*
%TO.P,J2,23,Pin_23_23*%
%TO.N,GND*%
X136890000Y-93038272D03*
%TO.P,J2,24,Pin_24_24*%
%TO.N,/Interboard_connector/Chainbus.SCK*%
X136890000Y-98078272D03*
%TO.P,J2,25,Pin_25_25*%
%TO.N,unconnected-(J2-Pin_25-Pad25)*%
X139430000Y-93038272D03*
%TO.P,J2,26,Pin_26_26*%
%TO.N,/Interboard_connector/Chainbus.MOSI*%
X139430000Y-98078272D03*
%TO.P,J2,27,Pin_27_27*%
%TO.N,unconnected-(J2-Pin_27-Pad27)*%
X141970000Y-93038272D03*
%TO.P,J2,28,Pin_28_28*%
%TO.N,/Interboard_connector/Chainbus.MISO*%
X141970000Y-98078272D03*
%TO.P,J2,29,Pin_29_29*%
%TO.N,+12V stby*%
X144510000Y-93038272D03*
%TO.P,J2,30,Pin_30_30*%
%TO.N,/Interboard_connector/Chainbus.TX*%
X144510000Y-98078272D03*
%TO.P,J2,31,Pin_31_31*%
%TO.N,GND*%
X147050000Y-93038272D03*
%TO.P,J2,32,Pin_32_32*%
%TO.N,/Interboard_connector/Chainbus.RX*%
X147050000Y-98078272D03*
%TD*%
D29*
%TO.P,C16,1*%
%TO.N,+5V*%
X168220000Y-92700000D03*
%TO.P,C16,2*%
%TO.N,GND*%
X169780000Y-92700000D03*
%TD*%
D12*
%TO.P,R17,1*%
%TO.N,/S1*%
X98980000Y-105400000D03*
%TO.P,R17,2*%
%TO.N,Net-(R17-Pad2)*%
X100620000Y-105400000D03*
%TD*%
D11*
%TO.P,RLY1,1,1_1*%
%TO.N,+5V*%
X88600000Y-113800000D03*
%TO.P,RLY1,2,2_2*%
%TO.N,/Relay 1/NO*%
X88600000Y-126000000D03*
%TO.P,RLY1,3,3_3*%
%TO.N,/Relay 1/NC*%
X100600000Y-126000000D03*
%TO.P,RLY1,4,4_4*%
%TO.N,Net-(Q12-C)*%
X100600000Y-113800000D03*
%TO.P,RLY1,5,5_5*%
%TO.N,/Relay 1/COM*%
X94600000Y-111800000D03*
%TD*%
D17*
%TO.P,R14,1*%
%TO.N,/CH32V003/CH32V003.RX*%
X87210000Y-96300000D03*
%TO.P,R14,2*%
%TO.N,Net-(D1-Pad2)*%
X87210000Y-95300000D03*
%TD*%
D30*
%TO.P,R6,1*%
%TO.N,+3V3*%
X95500000Y-104200000D03*
%TO.P,R6,2*%
%TO.N,/Chainbus.SCL*%
X94500000Y-104200000D03*
%TD*%
D31*
%TO.P,J3,1,Pin_1_1*%
%TO.N,/Chainbus.SDA*%
X175895000Y-108220000D03*
D32*
%TO.P,J3,2,Pin_2_2*%
%TO.N,/Chainbus.SCL*%
X175895000Y-105680000D03*
%TO.P,J3,3,Pin_3_3*%
%TO.N,GND*%
X175895000Y-103140000D03*
%TO.P,J3,4,Pin_4_4*%
%TO.N,+3V3*%
X175895000Y-100600000D03*
%TD*%
D18*
%TO.P,J6,1,Pin_1_1*%
%TO.N,/Relay 1/NO*%
X92100000Y-132555000D03*
D19*
%TO.P,J6,2,Pin_2_2*%
%TO.N,/Relay 1/COM*%
X94600000Y-132555000D03*
%TO.P,J6,3,Pin_3_3*%
%TO.N,/Relay 1/NC*%
X97100000Y-132555000D03*
%TD*%
D13*
%TO.P,Q12,1,B_1*%
%TO.N,Net-(Q12-B)*%
X91150000Y-105460000D03*
%TO.P,Q12,2,E_2*%
%TO.N,GND*%
X89250000Y-105460000D03*
%TO.P,Q12,3,C_3*%
%TO.N,Net-(Q12-C)*%
X90200000Y-107340000D03*
%TD*%
D22*
%TO.P,D13,1*%
%TO.N,Net-(D13-Pad1)*%
X156953640Y-137200000D03*
%TO.P,D13,2*%
%TO.N,+5V*%
X158533640Y-137200000D03*
%TD*%
D29*
%TO.P,C18,1*%
%TO.N,+3V3*%
X168320000Y-95000000D03*
%TO.P,C18,2*%
%TO.N,GND*%
X169880000Y-95000000D03*
%TD*%
D10*
%TO.P,R26,1*%
%TO.N,Net-(R25-Pad2)*%
X146827730Y-105400000D03*
%TO.P,R26,2*%
%TO.N,Net-(Q15-B)*%
X145187730Y-105400000D03*
%TD*%
D30*
%TO.P,R4,1*%
%TO.N,/Bus_switch/SEL1*%
X97500000Y-103800000D03*
%TO.P,R4,2*%
%TO.N,+3V3*%
X96500000Y-103800000D03*
%TD*%
D33*
%TO.P,U2,1,A0_1*%
%TO.N,GND*%
X169510000Y-103310000D03*
%TO.P,U2,2,A1_2*%
X169510000Y-102040000D03*
%TO.P,U2,3,A2_3*%
X169510000Y-100760000D03*
%TO.P,U2,4,VSS_4*%
X169510000Y-99490000D03*
%TO.P,U2,5,SDA_5*%
%TO.N,/Chainbus.SDA*%
X164090000Y-99490000D03*
%TO.P,U2,6,SCL_6*%
%TO.N,/Chainbus.SCL*%
X164090000Y-100760000D03*
%TO.P,U2,7,#WC_7*%
%TO.N,unconnected-(U2-#WC-Pad7)*%
X164090000Y-102040000D03*
%TO.P,U2,8,VCC_8*%
%TO.N,+3V3*%
X164090000Y-103310000D03*
%TD*%
D21*
%TO.P,D6,1*%
%TO.N,+5V*%
X141757730Y-109340000D03*
%TO.P,D6,2*%
%TO.N,Net-(Q15-C)*%
X143857730Y-109340000D03*
%TD*%
%TO.P,D2,1*%
%TO.N,+5V*%
X89150000Y-109340000D03*
%TO.P,D2,2*%
%TO.N,Net-(Q12-C)*%
X91250000Y-109340000D03*
%TD*%
D34*
%TO.P,C3,1*%
%TO.N,+3V3*%
X87678732Y-102667107D03*
%TO.P,C3,2*%
%TO.N,GND*%
X87678732Y-104227107D03*
%TD*%
D22*
%TO.P,D3,1*%
%TO.N,Net-(D3-Pad1)*%
X175375000Y-98005000D03*
%TO.P,D3,2*%
%TO.N,+3V3*%
X176955000Y-98005000D03*
%TD*%
D18*
%TO.P,J9,1,Pin_1_1*%
%TO.N,/Relay 4/NO*%
X144707730Y-132555000D03*
D19*
%TO.P,J9,2,Pin_2_2*%
%TO.N,/Relay 4/COM*%
X147207730Y-132555000D03*
%TO.P,J9,3,Pin_3_3*%
%TO.N,/Relay 4/NC*%
X149707730Y-132555000D03*
%TD*%
D12*
%TO.P,R18,1*%
%TO.N,/S2*%
X116515910Y-105400000D03*
%TO.P,R18,2*%
%TO.N,Net-(R18-Pad2)*%
X118155910Y-105400000D03*
%TD*%
D29*
%TO.P,C1,1*%
%TO.N,+3V3*%
X106820000Y-103800000D03*
%TO.P,C1,2*%
%TO.N,GND*%
X108380000Y-103800000D03*
%TD*%
D13*
%TO.P,Q14,1,B_1*%
%TO.N,Net-(Q14-B)*%
X126221820Y-105460000D03*
%TO.P,Q14,2,E_2*%
%TO.N,GND*%
X124321820Y-105460000D03*
%TO.P,Q14,3,C_3*%
%TO.N,Net-(Q14-C)*%
X125271820Y-107340000D03*
%TD*%
D29*
%TO.P,C5,1*%
%TO.N,/CH32V003/OSCO*%
X84780000Y-102675000D03*
%TO.P,C5,2*%
%TO.N,GND*%
X86340000Y-102675000D03*
%TD*%
D16*
%TO.P,U7,1*%
%TO.N,Net-(R21-Pad2)*%
X134859320Y-108235000D03*
%TO.P,U7,2*%
%TO.N,GND*%
X134859320Y-106965000D03*
%TO.P,U7,3*%
%TO.N,Net-(R22-Pad2)*%
X128484320Y-106965000D03*
%TO.P,U7,4*%
%TO.N,+5V*%
X128484320Y-108235000D03*
%TD*%
D35*
%TO.P,C2,1*%
%TO.N,+3V3*%
X171900000Y-106145000D03*
%TO.P,C2,2*%
%TO.N,GND*%
X171900000Y-104585000D03*
%TD*%
D36*
%TO.P,R1,1*%
%TO.N,/Bus_switch/SEL1*%
X173200000Y-98285000D03*
%TO.P,R1,2*%
%TO.N,Net-(D3-Pad1)*%
X174200000Y-98285000D03*
%TD*%
D11*
%TO.P,RLY4,1,1_1*%
%TO.N,+5V*%
X141207730Y-113800000D03*
%TO.P,RLY4,2,2_2*%
%TO.N,/Relay 4/NO*%
X141207730Y-126000000D03*
%TO.P,RLY4,3,3_3*%
%TO.N,/Relay 4/NC*%
X153207730Y-126000000D03*
%TO.P,RLY4,4,4_4*%
%TO.N,Net-(Q15-C)*%
X153207730Y-113800000D03*
%TO.P,RLY4,5,5_5*%
%TO.N,/Relay 4/COM*%
X147207730Y-111800000D03*
%TD*%
D20*
%TO.P,R32,1*%
%TO.N,Net-(Q14-C)*%
X121071820Y-109400000D03*
%TO.P,R32,2*%
%TO.N,Net-(D11-Pad1)*%
X121071820Y-111040000D03*
%TD*%
D12*
%TO.P,R24,1*%
%TO.N,/S4*%
X151587730Y-105400000D03*
%TO.P,R24,2*%
%TO.N,Net-(R24-Pad2)*%
X153227730Y-105400000D03*
%TD*%
D16*
%TO.P,U6,1*%
%TO.N,Net-(R18-Pad2)*%
X117323410Y-108235000D03*
%TO.P,U6,2*%
%TO.N,GND*%
X117323410Y-106965000D03*
%TO.P,U6,3*%
%TO.N,Net-(R19-Pad2)*%
X110948410Y-106965000D03*
%TO.P,U6,4*%
%TO.N,+5V*%
X110948410Y-108235000D03*
%TD*%
D10*
%TO.P,R29,1*%
%TO.N,Net-(R28-Pad2)*%
X164363640Y-105400000D03*
%TO.P,R29,2*%
%TO.N,Net-(Q16-B)*%
X162723640Y-105400000D03*
%TD*%
D13*
%TO.P,Q13,1,B_1*%
%TO.N,Net-(Q13-B)*%
X108685910Y-105460000D03*
%TO.P,Q13,2,E_2*%
%TO.N,GND*%
X106785910Y-105460000D03*
%TO.P,Q13,3,C_3*%
%TO.N,Net-(Q13-C)*%
X107735910Y-107340000D03*
%TD*%
D21*
%TO.P,D5,1*%
%TO.N,+5V*%
X124221820Y-109340000D03*
%TO.P,D5,2*%
%TO.N,Net-(Q14-C)*%
X126321820Y-109340000D03*
%TD*%
D22*
%TO.P,D11,1*%
%TO.N,Net-(D11-Pad1)*%
X121881820Y-137200000D03*
%TO.P,D11,2*%
%TO.N,+5V*%
X123461820Y-137200000D03*
%TD*%
D37*
%TO.P,U1,1,~{1OE}_1*%
%TO.N,/Bus_switch/SEL1*%
X105575000Y-97937500D03*
%TO.P,U1,2,1B1_2*%
%TO.N,/Bus_switch/Chainbus.RX*%
X104925000Y-97937500D03*
%TO.P,U1,3,1A1_3*%
%TO.N,/Bus_switch/Chainbus_In.RX*%
X104275000Y-97937500D03*
%TO.P,U1,4,1A2_4*%
%TO.N,/Bus_switch/Chainbus_In.TX*%
X103625000Y-97937500D03*
%TO.P,U1,5,1B2_5*%
%TO.N,/Bus_switch/Chainbus.TX*%
X102975000Y-97937500D03*
%TO.P,U1,6,1B3_6*%
%TO.N,/Bus_switch/Chainbus.MISO*%
X102325000Y-97937500D03*
%TO.P,U1,7,1A3_7*%
%TO.N,/Bus_switch/Chainbus_In.MISO*%
X101675000Y-97937500D03*
%TO.P,U1,8,1A4_8*%
%TO.N,/Bus_switch/Chainbus_In.MOSI*%
X101025000Y-97937500D03*
%TO.P,U1,9,1B4_9*%
%TO.N,/Bus_switch/Chainbus.MOSI*%
X100375000Y-97937500D03*
%TO.P,U1,10,1B5_10*%
%TO.N,/Bus_switch/Chainbus.SCK*%
X99725000Y-97937500D03*
%TO.P,U1,11,1A5_11*%
%TO.N,/Bus_switch/Chainbus_In.SCK*%
X99075000Y-97937500D03*
%TO.P,U1,12,GND_12*%
%TO.N,GND*%
X98425000Y-97937500D03*
%TO.P,U1,13,~{2OE}_13*%
%TO.N,/Bus_switch/SEL1*%
X98425000Y-103662500D03*
%TO.P,U1,14,2A1_14*%
%TO.N,/Bus_switch/Chainbus_In.CS*%
X99075000Y-103662500D03*
%TO.P,U1,15,2B1_15*%
%TO.N,/Bus_switch/Chainbus.CS*%
X99725000Y-103662500D03*
%TO.P,U1,16,2B2_16*%
%TO.N,/Chainbus.SDA*%
X100375000Y-103662500D03*
%TO.P,U1,17,2A2_17*%
%TO.N,/Bus_switch/Chainbus_In.SDA*%
X101025000Y-103662500D03*
%TO.P,U1,18,2A3_18*%
%TO.N,/Bus_switch/Chainbus_In.SCL*%
X101675000Y-103662500D03*
%TO.P,U1,19,2B3_19*%
%TO.N,/Chainbus.SCL*%
X102325000Y-103662500D03*
%TO.P,U1,20,2B4_20*%
%TO.N,unconnected-(U1-2B4-Pad20)*%
X102975000Y-103662500D03*
%TO.P,U1,21,2A4_21*%
%TO.N,unconnected-(U1-2A4-Pad21)*%
X103625000Y-103662500D03*
%TO.P,U1,22,2A5_22*%
%TO.N,unconnected-(U1-2A5-Pad22)*%
X104275000Y-103662500D03*
%TO.P,U1,23,2B5_23*%
%TO.N,unconnected-(U1-2B5-Pad23)*%
X104925000Y-103662500D03*
%TO.P,U1,24,VCC_24*%
%TO.N,+3V3*%
X105575000Y-103662500D03*
%TD*%
D20*
%TO.P,R31,1*%
%TO.N,Net-(Q13-C)*%
X103535910Y-109400000D03*
%TO.P,R31,2*%
%TO.N,Net-(D10-Pad1)*%
X103535910Y-111040000D03*
%TD*%
D12*
%TO.P,R21,1*%
%TO.N,/S3*%
X134051820Y-105400000D03*
%TO.P,R21,2*%
%TO.N,Net-(R21-Pad2)*%
X135691820Y-105400000D03*
%TD*%
D13*
%TO.P,Q15,1,B_1*%
%TO.N,Net-(Q15-B)*%
X143757730Y-105460000D03*
%TO.P,Q15,2,E_2*%
%TO.N,GND*%
X141857730Y-105460000D03*
%TO.P,Q15,3,C_3*%
%TO.N,Net-(Q15-C)*%
X142807730Y-107340000D03*
%TD*%
D10*
%TO.P,R20,1*%
%TO.N,Net-(R19-Pad2)*%
X111755910Y-105400000D03*
%TO.P,R20,2*%
%TO.N,Net-(Q13-B)*%
X110115910Y-105400000D03*
%TD*%
D21*
%TO.P,D8,1*%
%TO.N,+5V*%
X159293640Y-109340000D03*
%TO.P,D8,2*%
%TO.N,Net-(Q16-C)*%
X161393640Y-109340000D03*
%TD*%
D18*
%TO.P,J7,1,Pin_1_1*%
%TO.N,/Relay 2/NO*%
X109635910Y-132555000D03*
D19*
%TO.P,J7,2,Pin_2_2*%
%TO.N,/Relay 2/COM*%
X112135910Y-132555000D03*
%TO.P,J7,3,Pin_3_3*%
%TO.N,/Relay 2/NC*%
X114635910Y-132555000D03*
%TD*%
D20*
%TO.P,R34,1*%
%TO.N,Net-(Q16-C)*%
X156143640Y-109400000D03*
%TO.P,R34,2*%
%TO.N,Net-(D13-Pad1)*%
X156143640Y-111040000D03*
%TD*%
D38*
%TO.P,U3,1,PD4_1*%
%TO.N,/CH32V003/PD4*%
X89340000Y-97280000D03*
%TO.P,U3,2,PD5_2*%
%TO.N,/CH32V003/CH32V003.TX*%
X89340000Y-97930000D03*
%TO.P,U3,3,PD6_3*%
%TO.N,/CH32V003/CH32V003.RX*%
X89340000Y-98580000D03*
%TO.P,U3,4,PD7_4*%
%TO.N,/CH32V003/PD7*%
X89340000Y-99230000D03*
%TO.P,U3,5,PA1_5*%
%TO.N,/CH32V003/OSCI*%
X89340000Y-99870000D03*
%TO.P,U3,6,PA2_6*%
%TO.N,/CH32V003/OSCO*%
X89340000Y-100530000D03*
%TO.P,U3,7,VSS_7*%
%TO.N,GND*%
X89340000Y-101170000D03*
%TO.P,U3,8,PD0_8*%
%TO.N,/CH32V003/PD0*%
X89340000Y-101820000D03*
%TO.P,U3,9,VDD_9*%
%TO.N,+3V3*%
X89340000Y-102470000D03*
%TO.P,U3,10,PC0_10*%
%TO.N,/CH32V003/PC0*%
X89340000Y-103120000D03*
%TO.P,U3,11,PC1_11*%
%TO.N,/Chainbus.SCL*%
X95060000Y-103120000D03*
%TO.P,U3,12,PC2_12*%
%TO.N,/Chainbus.SDA*%
X95060000Y-102470000D03*
%TO.P,U3,13,PC3_13*%
%TO.N,/S1*%
X95060000Y-101820000D03*
%TO.P,U3,14,PC4_14*%
%TO.N,/S2*%
X95060000Y-101170000D03*
%TO.P,U3,15,PC5_15*%
%TO.N,/S3*%
X95060000Y-100530000D03*
%TO.P,U3,16,PC6_16*%
%TO.N,/S4*%
X95060000Y-99870000D03*
%TO.P,U3,17,PC7_17*%
%TO.N,/S5*%
X95060000Y-99230000D03*
%TO.P,U3,18,PD1_18*%
%TO.N,/CH32V003/SWIO*%
X95060000Y-98580000D03*
%TO.P,U3,19,PD2_19*%
%TO.N,/CH32V003/PD2*%
X95060000Y-97930000D03*
%TO.P,U3,20,PD3_20*%
%TO.N,/CH32V003/PD3*%
X95060000Y-97280000D03*
%TD*%
D11*
%TO.P,RLY5,1,1_1*%
%TO.N,+5V*%
X158743640Y-113800000D03*
%TO.P,RLY5,2,2_2*%
%TO.N,/Relay 5/NO*%
X158743640Y-126000000D03*
%TO.P,RLY5,3,3_3*%
%TO.N,/Relay 5/NC*%
X170743640Y-126000000D03*
%TO.P,RLY5,4,4_4*%
%TO.N,Net-(Q16-C)*%
X170743640Y-113800000D03*
%TO.P,RLY5,5,5_5*%
%TO.N,/Relay 5/COM*%
X164743640Y-111800000D03*
%TD*%
D22*
%TO.P,D9,1*%
%TO.N,Net-(D9-Pad1)*%
X86810000Y-137200000D03*
%TO.P,D9,2*%
%TO.N,+5V*%
X88390000Y-137200000D03*
%TD*%
D16*
%TO.P,U9,1*%
%TO.N,Net-(R27-Pad2)*%
X169931140Y-108235000D03*
%TO.P,U9,2*%
%TO.N,GND*%
X169931140Y-106965000D03*
%TO.P,U9,3*%
%TO.N,Net-(R28-Pad2)*%
X163556140Y-106965000D03*
%TO.P,U9,4*%
%TO.N,+5V*%
X163556140Y-108235000D03*
%TD*%
%TO.P,U8,1*%
%TO.N,Net-(R24-Pad2)*%
X152395230Y-108235000D03*
%TO.P,U8,2*%
%TO.N,GND*%
X152395230Y-106965000D03*
%TO.P,U8,3*%
%TO.N,Net-(R25-Pad2)*%
X146020230Y-106965000D03*
%TO.P,U8,4*%
%TO.N,+5V*%
X146020230Y-108235000D03*
%TD*%
D31*
%TO.P,J5,1,Pin_1_1*%
%TO.N,GND*%
X90320000Y-94000000D03*
D32*
%TO.P,J5,2,Pin_2_2*%
%TO.N,/CH32V003/SWIO*%
X92860000Y-94000000D03*
%TO.P,J5,3,Pin_3_3*%
%TO.N,+3V3*%
X95400000Y-94000000D03*
%TD*%
D39*
%TO.P,S1,1,A_1*%
%TO.N,/CH32V003/PD7*%
X81760000Y-98000000D03*
%TO.P,S1,2,B_2*%
%TO.N,GND*%
X81760000Y-102150000D03*
%TD*%
D10*
%TO.P,R16,1*%
%TO.N,Net-(R15-Pad2)*%
X94220000Y-105400000D03*
%TO.P,R16,2*%
%TO.N,Net-(Q12-B)*%
X92580000Y-105400000D03*
%TD*%
D20*
%TO.P,R30,1*%
%TO.N,Net-(Q12-C)*%
X86000000Y-109400000D03*
%TO.P,R30,2*%
%TO.N,Net-(D9-Pad1)*%
X86000000Y-111040000D03*
%TD*%
D40*
%TO.P,X1,1,OSC_1*%
%TO.N,/CH32V003/OSCO*%
X84460000Y-101155000D03*
%TO.P,X1,2,GND_2*%
%TO.N,GND*%
X86660000Y-101155000D03*
%TO.P,X1,3,OSC_3*%
%TO.N,/CH32V003/OSCI*%
X86660000Y-99395000D03*
%TO.P,X1,4,GND_4*%
%TO.N,GND*%
X84460000Y-99395000D03*
%TD*%
D22*
%TO.P,D12,1*%
%TO.N,Net-(D12-Pad1)*%
X139417730Y-137200000D03*
%TO.P,D12,2*%
%TO.N,+5V*%
X140997730Y-137200000D03*
%TD*%
D10*
%TO.P,R23,1*%
%TO.N,Net-(R22-Pad2)*%
X129291820Y-105400000D03*
%TO.P,R23,2*%
%TO.N,Net-(Q14-B)*%
X127651820Y-105400000D03*
%TD*%
D18*
%TO.P,J8,1,Pin_1_1*%
%TO.N,/Relay 3/NO*%
X127171820Y-132555000D03*
D19*
%TO.P,J8,2,Pin_2_2*%
%TO.N,/Relay 3/COM*%
X129671820Y-132555000D03*
%TO.P,J8,3,Pin_3_3*%
%TO.N,/Relay 3/NC*%
X132171820Y-132555000D03*
%TD*%
D41*
%TO.N,+5V*%
X110000000Y-109400000D03*
X92000000Y-108400000D03*
%TO.N,/S2*%
X92800000Y-101200000D03*
X114600000Y-106400000D03*
%TO.N,+5V*%
X87200000Y-135200000D03*
X157343640Y-135200000D03*
X157400000Y-92600000D03*
X104735910Y-135200000D03*
X139807730Y-135200000D03*
X112750000Y-93500000D03*
X112750000Y-91900000D03*
X122271820Y-135200000D03*
X112750000Y-94300000D03*
%TO.N,/S5*%
X155200000Y-103800000D03*
X90600000Y-99200000D03*
%TO.N,GND*%
X169400000Y-95800000D03*
X133050000Y-92050000D03*
X104400000Y-106200000D03*
X115600000Y-94200000D03*
X115650000Y-91750000D03*
X133471820Y-107000000D03*
X110100000Y-93500000D03*
X148000000Y-93500000D03*
X142807730Y-105800000D03*
X130500000Y-94300000D03*
X170985000Y-102200000D03*
X81800000Y-103600000D03*
X172942500Y-103542500D03*
X87800000Y-101200000D03*
X168000000Y-97000000D03*
X108200000Y-103000000D03*
X148000000Y-94200000D03*
X83800000Y-98200000D03*
X148150000Y-91950000D03*
X98400000Y-107000000D03*
X125271820Y-105800000D03*
X90200000Y-105800000D03*
X170985000Y-99400000D03*
X86000000Y-103600000D03*
X98400000Y-99200000D03*
X168400000Y-96600000D03*
X115600000Y-93500000D03*
X115935910Y-107000000D03*
X168800000Y-96200000D03*
X110100000Y-91950000D03*
X151007730Y-107000000D03*
X160343640Y-105800000D03*
X133100000Y-94400000D03*
X130500000Y-93700000D03*
X135600000Y-92000000D03*
X86600000Y-104200000D03*
X103200000Y-107000000D03*
X170985000Y-100800000D03*
X107735910Y-105800000D03*
X135600000Y-94500000D03*
X135600000Y-93700000D03*
X110100000Y-94200000D03*
X133050000Y-93700000D03*
X168543640Y-107000000D03*
X130500000Y-91950000D03*
X83200000Y-95800000D03*
%TO.N,+3V3*%
X106600000Y-103000000D03*
X172000000Y-95200000D03*
X93600000Y-102400000D03*
X96800000Y-104600000D03*
X97259850Y-101491841D03*
%TO.N,/Chainbus.SDA*%
X100200000Y-101800000D03*
X165600000Y-99600000D03*
X110400000Y-103000000D03*
%TO.N,/Interboard_connector/SEL2*%
X110250000Y-98000000D03*
%TO.N,/Interboard_connector/SEL3*%
X112750000Y-98000000D03*
%TO.N,/Interboard_connector/SEL4*%
X115250000Y-98000000D03*
%TO.N,/Interboard_connector/SEL5*%
X117750000Y-98000000D03*
%TO.N,VIN_CHAINBUS*%
X120350000Y-94200000D03*
X122900000Y-93400000D03*
X125500000Y-93400000D03*
X125500000Y-94200000D03*
X122900000Y-94200000D03*
X120400000Y-93400000D03*
X120350000Y-91900000D03*
X125500000Y-92000000D03*
X122900000Y-91950000D03*
%TO.N,/Interboard_connector/SEL6*%
X120250000Y-98000000D03*
%TO.N,/Interboard_connector/SEL7*%
X123063272Y-98063272D03*
%TO.N,/Interboard_connector/SEL8*%
X125563272Y-98063272D03*
%TO.N,/Bus_switch/Chainbus_In.SDA*%
X130300000Y-98100000D03*
%TO.N,/Bus_switch/Chainbus_In.SCL*%
X132850000Y-98050000D03*
%TO.N,/Interboard_connector/Chainbus.CS*%
X135400000Y-98050000D03*
%TO.N,/Interboard_connector/Chainbus.SCK*%
X137850000Y-98050000D03*
%TO.N,/Interboard_connector/Chainbus.MOSI*%
X140450000Y-98000000D03*
%TO.N,/Interboard_connector/Chainbus.MISO*%
X143000000Y-98000000D03*
%TO.N,+12V stby*%
X143400000Y-94100000D03*
%TO.N,/Interboard_connector/Chainbus.TX*%
X145650000Y-97950000D03*
%TO.N,/Interboard_connector/Chainbus.RX*%
X148200000Y-98050000D03*
%TO.N,/S1*%
X93600000Y-101749997D03*
X96800000Y-105700000D03*
%TO.N,/Chainbus.SCL*%
X97000000Y-103000000D03*
X102400000Y-105000000D03*
X166800000Y-101400000D03*
X110400000Y-103800000D03*
%TO.N,/Bus_switch/SEL1*%
X159800000Y-102200000D03*
X157400000Y-102200000D03*
X106400000Y-97800000D03*
X172400000Y-99200000D03*
X97800000Y-103000000D03*
%TO.N,/S4*%
X91400000Y-100000000D03*
X150200000Y-107600000D03*
%TO.N,/S3*%
X132400000Y-107600000D03*
X92200000Y-100600000D03*
%TD*%
%TO.N,+5V*%
D42*
X163556140Y-108235000D02*
X160991140Y-110800000D01*
X159293640Y-110800000D02*
X159293640Y-113250000D01*
X160991140Y-110800000D02*
X159293640Y-110800000D01*
%TO.N,Net-(Q16-C)*%
D43*
X166400000Y-109340000D02*
X170083640Y-109340000D01*
X164651490Y-107591490D02*
X166400000Y-109340000D01*
X162647308Y-107591490D02*
X164651490Y-107591490D01*
X170743640Y-110000000D02*
X170743640Y-113800000D01*
X161393640Y-108845158D02*
X162647308Y-107591490D01*
X161393640Y-109340000D02*
X161393640Y-108845158D01*
X170083640Y-109340000D02*
X170743640Y-110000000D01*
%TO.N,Net-(R28-Pad2)*%
X164363640Y-106157500D02*
X163556140Y-106965000D01*
X164363640Y-105400000D02*
X164363640Y-106157500D01*
X165923640Y-105400000D02*
X164363640Y-105400000D01*
%TO.N,+5V*%
D42*
X143827615Y-110600000D02*
X141757730Y-110600000D01*
X146020230Y-108407385D02*
X143827615Y-110600000D01*
X146020230Y-108235000D02*
X146020230Y-108407385D01*
X141757730Y-110600000D02*
X141757730Y-113250000D01*
%TO.N,Net-(Q15-C)*%
D43*
X147400000Y-107600000D02*
X149140000Y-109340000D01*
%TO.N,Net-(R25-Pad2)*%
X147035000Y-106965000D02*
X148600000Y-105400000D01*
X146020230Y-106965000D02*
X147035000Y-106965000D01*
X148600000Y-105400000D02*
X146827730Y-105400000D01*
%TO.N,Net-(Q15-C)*%
X145272888Y-107600000D02*
X147400000Y-107600000D01*
X143857730Y-109015158D02*
X145272888Y-107600000D01*
X143857730Y-109340000D02*
X143857730Y-109015158D01*
%TO.N,+5V*%
D42*
X126319320Y-110400000D02*
X124221820Y-110400000D01*
X128484320Y-108235000D02*
X126319320Y-110400000D01*
X124221820Y-109340000D02*
X124221820Y-110400000D01*
%TO.N,Net-(Q14-C)*%
D43*
X132200000Y-109340000D02*
X135011820Y-109340000D01*
X130460000Y-107600000D02*
X132200000Y-109340000D01*
X127736978Y-107600000D02*
X130460000Y-107600000D01*
X126321820Y-109015158D02*
X127736978Y-107600000D01*
X135011820Y-109340000D02*
X135671820Y-110000000D01*
X126321820Y-109340000D02*
X126321820Y-109015158D01*
X135671820Y-110000000D02*
X135671820Y-113800000D01*
%TO.N,Net-(R22-Pad2)*%
X129291820Y-106157500D02*
X128484320Y-106965000D01*
X129291820Y-105400000D02*
X129291820Y-106157500D01*
X131180000Y-105400000D02*
X129291820Y-105400000D01*
%TO.N,+5V*%
D42*
X110948410Y-108451590D02*
X110000000Y-109400000D01*
X110948410Y-108235000D02*
X110948410Y-108451590D01*
%TO.N,Net-(Q13-C)*%
D43*
X110340000Y-110200000D02*
X111200000Y-109340000D01*
X108785910Y-109385910D02*
X109600000Y-110200000D01*
X109600000Y-110200000D02*
X110340000Y-110200000D01*
X108785910Y-109340000D02*
X108785910Y-109385910D01*
%TO.N,Net-(R19-Pad2)*%
X111755910Y-106157500D02*
X110948410Y-106965000D01*
X111755910Y-105400000D02*
X111755910Y-106157500D01*
X113380000Y-105400000D02*
X111755910Y-105400000D01*
%TO.N,+5V*%
D42*
X92165000Y-108235000D02*
X92000000Y-108400000D01*
X93412500Y-108235000D02*
X92165000Y-108235000D01*
%TO.N,Net-(R15-Pad2)*%
D43*
X94220000Y-105400000D02*
X95780000Y-105400000D01*
X93412500Y-106207500D02*
X94220000Y-105400000D01*
X93412500Y-106965000D02*
X93412500Y-106207500D01*
%TO.N,/S2*%
X116515910Y-105400000D02*
X115155910Y-105400000D01*
X93200000Y-101200000D02*
X93230000Y-101170000D01*
X115155910Y-105844090D02*
X114600000Y-106400000D01*
X93230000Y-101170000D02*
X95060000Y-101170000D01*
X115155910Y-105400000D02*
X115155910Y-105844090D01*
X92800000Y-101200000D02*
X93200000Y-101200000D01*
%TO.N,+5V*%
D42*
X158533640Y-137200000D02*
X158533640Y-136390000D01*
X105925910Y-137200000D02*
X105925910Y-136390000D01*
X89150000Y-113250000D02*
X88600000Y-113800000D01*
X123461820Y-137200000D02*
X123461820Y-136390000D01*
D44*
X168220000Y-92700000D02*
X166130000Y-92700000D01*
D42*
X106685910Y-109340000D02*
X106685910Y-113250000D01*
X124221820Y-110400000D02*
X124221820Y-113250000D01*
X112750000Y-91900000D02*
X115050000Y-89600000D01*
X115050000Y-89600000D02*
X157400000Y-89600000D01*
X157400000Y-92600000D02*
X157400000Y-89600000D01*
X159293640Y-113250000D02*
X158743640Y-113800000D01*
X158533640Y-136390000D02*
X157343640Y-135200000D01*
X157400000Y-89600000D02*
X165000000Y-89600000D01*
X140997730Y-137200000D02*
X140997730Y-136390000D01*
X88390000Y-137200000D02*
X88390000Y-136390000D01*
X106685910Y-113250000D02*
X106135910Y-113800000D01*
X124221820Y-113250000D02*
X123671820Y-113800000D01*
X159293640Y-109340000D02*
X159293640Y-110800000D01*
X141757730Y-113250000D02*
X141207730Y-113800000D01*
X140997730Y-136390000D02*
X139807730Y-135200000D01*
X141757730Y-109340000D02*
X141757730Y-110600000D01*
X105925910Y-136390000D02*
X104735910Y-135200000D01*
X166130000Y-90730000D02*
X166130000Y-92700000D01*
X88390000Y-136390000D02*
X87200000Y-135200000D01*
X165000000Y-89600000D02*
X166130000Y-90730000D01*
X89150000Y-109340000D02*
X89150000Y-113250000D01*
X123461820Y-136390000D02*
X122271820Y-135200000D01*
%TO.N,/Relay 2/NO*%
D44*
X106135910Y-129055000D02*
X109635910Y-132555000D01*
X106135910Y-126000000D02*
X106135910Y-129055000D01*
%TO.N,/Relay 2/NC*%
X118135910Y-126000000D02*
X118135910Y-129055000D01*
X118135910Y-129055000D02*
X114635910Y-132555000D01*
%TO.N,Net-(Q13-C)*%
D43*
X107735910Y-107340000D02*
X107735910Y-108290000D01*
X117475910Y-109340000D02*
X111200000Y-109340000D01*
X104595910Y-107340000D02*
X107735910Y-107340000D01*
X107735910Y-108290000D02*
X108785910Y-109340000D01*
X118135910Y-110000000D02*
X117475910Y-109340000D01*
X118135910Y-113800000D02*
X118135910Y-110000000D01*
X103535910Y-109400000D02*
X103535910Y-108400000D01*
X103535910Y-108400000D02*
X104595910Y-107340000D01*
%TO.N,/Relay 2/COM*%
D44*
X112135910Y-111800000D02*
X112135910Y-132555000D01*
%TO.N,/S5*%
D43*
X95060000Y-99230000D02*
X90630000Y-99230000D01*
X169123640Y-105400000D02*
X167763640Y-105400000D01*
X162400000Y-104400000D02*
X161800000Y-103800000D01*
X161800000Y-103800000D02*
X155200000Y-103800000D01*
X167763640Y-105400000D02*
X166763640Y-104400000D01*
X166763640Y-104400000D02*
X162400000Y-104400000D01*
X90630000Y-99230000D02*
X90600000Y-99200000D01*
%TO.N,Net-(R27-Pad2)*%
X171108640Y-108235000D02*
X169931140Y-108235000D01*
X170763640Y-105400000D02*
X171108640Y-105745000D01*
X171108640Y-105745000D02*
X171108640Y-108235000D01*
%TO.N,Net-(Q16-B)*%
X161353640Y-105400000D02*
X161293640Y-105460000D01*
X162723640Y-105400000D02*
X161353640Y-105400000D01*
%TO.N,GND*%
X175895000Y-103140000D02*
X173345000Y-103140000D01*
X172642500Y-103842500D02*
X171900000Y-104585000D01*
X169510000Y-99490000D02*
X170895000Y-99490000D01*
X173345000Y-103140000D02*
X173345000Y-101745000D01*
D44*
X167738672Y-97300000D02*
X166130000Y-97300000D01*
D43*
X108180000Y-103800000D02*
X108180000Y-103020000D01*
X98425000Y-97937500D02*
X98425000Y-99175000D01*
X103600000Y-107000000D02*
X104400000Y-106200000D01*
X115970910Y-106965000D02*
X115935910Y-107000000D01*
X89250000Y-105460000D02*
X89860000Y-105460000D01*
X86627107Y-104227107D02*
X86600000Y-104200000D01*
X87755000Y-101155000D02*
X87800000Y-101200000D01*
X170985000Y-102600000D02*
X170985000Y-102200000D01*
X106785910Y-105460000D02*
X107395910Y-105460000D01*
X86660000Y-101155000D02*
X87755000Y-101155000D01*
X87678732Y-104227107D02*
X86627107Y-104227107D01*
X134859320Y-106965000D02*
X133506820Y-106965000D01*
X169510000Y-103310000D02*
X170490000Y-103310000D01*
X170895000Y-99490000D02*
X170985000Y-99400000D01*
X108180000Y-103020000D02*
X108200000Y-103000000D01*
D44*
X169880000Y-95158672D02*
X168619336Y-96419336D01*
D43*
X159393640Y-105460000D02*
X160003640Y-105460000D01*
X133506820Y-106965000D02*
X133471820Y-107000000D01*
X87830000Y-101170000D02*
X87800000Y-101200000D01*
X81760000Y-103560000D02*
X81800000Y-103600000D01*
X171000000Y-98800000D02*
X168619336Y-96419336D01*
X160003640Y-105460000D02*
X160343640Y-105800000D01*
X170985000Y-102785000D02*
X170985000Y-102600000D01*
X170985000Y-102600000D02*
X170985000Y-99400000D01*
X84460000Y-98860000D02*
X83800000Y-98200000D01*
X84780000Y-97875000D02*
X84780000Y-99075000D01*
X172642500Y-103842500D02*
X172742500Y-103742500D01*
X142467730Y-105460000D02*
X142807730Y-105800000D01*
X98435000Y-106965000D02*
X98400000Y-107000000D01*
X169510000Y-102040000D02*
X170825000Y-102040000D01*
X170825000Y-102040000D02*
X170985000Y-102200000D01*
D44*
X169880000Y-95000000D02*
X169880000Y-95158672D01*
D43*
X171000000Y-102800000D02*
X170985000Y-102785000D01*
X86340000Y-103260000D02*
X86000000Y-103600000D01*
X173345000Y-103140000D02*
X172642500Y-103842500D01*
X89340000Y-101170000D02*
X87830000Y-101170000D01*
X124931820Y-105460000D02*
X125271820Y-105800000D01*
X168578640Y-106965000D02*
X168543640Y-107000000D01*
X81760000Y-102150000D02*
X81760000Y-103560000D01*
D44*
X169780000Y-92700000D02*
X169780000Y-94900000D01*
D43*
X107395910Y-105460000D02*
X107735910Y-105800000D01*
X170945000Y-100760000D02*
X170985000Y-100800000D01*
X169510000Y-103310000D02*
X170495000Y-103310000D01*
X89860000Y-105460000D02*
X90200000Y-105800000D01*
X152395230Y-106965000D02*
X151042730Y-106965000D01*
X86340000Y-102675000D02*
X86340000Y-103260000D01*
X170490000Y-103310000D02*
X171000000Y-102800000D01*
X171000000Y-99400000D02*
X171000000Y-98800000D01*
D44*
X169780000Y-94900000D02*
X169880000Y-95000000D01*
D43*
X99787500Y-106965000D02*
X98435000Y-106965000D01*
X141857730Y-105460000D02*
X142467730Y-105460000D01*
X117323410Y-106965000D02*
X115970910Y-106965000D01*
X84780000Y-99075000D02*
X84460000Y-99395000D01*
X124321820Y-105460000D02*
X124931820Y-105460000D01*
D44*
X168619336Y-96419336D02*
X167738672Y-97300000D01*
D43*
X103200000Y-107000000D02*
X103600000Y-107000000D01*
X173345000Y-101745000D02*
X171000000Y-99400000D01*
X169931140Y-106965000D02*
X168578640Y-106965000D01*
X169510000Y-100760000D02*
X170945000Y-100760000D01*
X84420000Y-95800000D02*
X83200000Y-95800000D01*
X151042730Y-106965000D02*
X151007730Y-107000000D01*
X98425000Y-99175000D02*
X98400000Y-99200000D01*
X84460000Y-99395000D02*
X84460000Y-98860000D01*
%TO.N,Net-(Q16-C)*%
X160343640Y-108290000D02*
X161393640Y-109340000D01*
X156143640Y-109400000D02*
X156143640Y-108400000D01*
X156143640Y-108400000D02*
X157203640Y-107340000D01*
X157203640Y-107340000D02*
X160343640Y-107340000D01*
X160343640Y-107340000D02*
X160343640Y-108290000D01*
%TO.N,+3V3*%
D42*
X96100000Y-104200000D02*
X96500000Y-103800000D01*
X93070000Y-102470000D02*
X89340000Y-102470000D01*
X96500000Y-104600000D02*
X96100000Y-104200000D01*
X93140000Y-102400000D02*
X93070000Y-102470000D01*
D44*
X168320000Y-95000000D02*
X166130000Y-95000000D01*
D42*
X162560000Y-97400000D02*
X160160000Y-95000000D01*
X97200000Y-100600000D02*
X97000000Y-100400000D01*
X163800000Y-98600000D02*
X162600000Y-97400000D01*
X87678732Y-102667107D02*
X87678732Y-102878732D01*
X106620000Y-103020000D02*
X106600000Y-103000000D01*
X95700000Y-104200000D02*
X96100000Y-104200000D01*
X105712500Y-103800000D02*
X105575000Y-103662500D01*
X167800000Y-99800000D02*
X166600000Y-98600000D01*
X95400000Y-94000000D02*
X97200000Y-95800000D01*
D44*
X166130000Y-95000000D02*
X160160000Y-95000000D01*
D42*
X174150000Y-95200000D02*
X172000000Y-95200000D01*
X88000000Y-105800000D02*
X80600000Y-105800000D01*
X167800000Y-102600000D02*
X167800000Y-99800000D01*
X97000000Y-100400000D02*
X96400000Y-100400000D01*
X88600000Y-103800000D02*
X88600000Y-105200000D01*
X87678732Y-102878732D02*
X88600000Y-103800000D01*
X177200000Y-103800000D02*
X177200000Y-99785000D01*
X171900000Y-106145000D02*
X173645000Y-104400000D01*
X106620000Y-103800000D02*
X105712500Y-103800000D01*
X93600000Y-102400000D02*
X93140000Y-102400000D01*
X80600000Y-105800000D02*
X79360000Y-104560000D01*
X97200000Y-101431991D02*
X97200000Y-100600000D01*
X175895000Y-100600000D02*
X176955000Y-99540000D01*
X162600000Y-97400000D02*
X162560000Y-97400000D01*
X96800000Y-104600000D02*
X96500000Y-104600000D01*
X89340000Y-102470000D02*
X87875839Y-102470000D01*
X173645000Y-104400000D02*
X176600000Y-104400000D01*
X88600000Y-105200000D02*
X88000000Y-105800000D01*
X167090000Y-103310000D02*
X167800000Y-102600000D01*
X97200000Y-95800000D02*
X97200000Y-100600000D01*
X97259850Y-101491841D02*
X97200000Y-101431991D01*
X87875839Y-102470000D02*
X87678732Y-102667107D01*
X166600000Y-98600000D02*
X163800000Y-98600000D01*
X164090000Y-103310000D02*
X167090000Y-103310000D01*
X176955000Y-99540000D02*
X176955000Y-98005000D01*
X176955000Y-98005000D02*
X174150000Y-95200000D01*
X177200000Y-99785000D02*
X176955000Y-99540000D01*
X176600000Y-104400000D02*
X177200000Y-103800000D01*
X79360000Y-104560000D02*
X79360000Y-98675000D01*
X106620000Y-103800000D02*
X106620000Y-103020000D01*
%TO.N,/Chainbus.SDA*%
D43*
X164200000Y-99600000D02*
X164090000Y-99490000D01*
X100375000Y-102925001D02*
X100375000Y-103662500D01*
X165600000Y-99600000D02*
X164200000Y-99600000D01*
X153110000Y-99490000D02*
X149600000Y-103000000D01*
X149600000Y-103000000D02*
X110400000Y-103000000D01*
X100200000Y-102189999D02*
X99919999Y-102470000D01*
X95060000Y-102470000D02*
X96400000Y-102470000D01*
X164090000Y-99490000D02*
X153110000Y-99490000D01*
X96400000Y-102470000D02*
X99919999Y-102470000D01*
X100200000Y-101800000D02*
X100200000Y-102189999D01*
X99919999Y-102470000D02*
X100375000Y-102925001D01*
X96400000Y-101400000D02*
X96400000Y-102470000D01*
%TO.N,/CH32V003/OSCI*%
X86340000Y-99075000D02*
X86660000Y-99395000D01*
X89340000Y-99870000D02*
X87135000Y-99870000D01*
X87135000Y-99870000D02*
X86660000Y-99395000D01*
X86340000Y-97875000D02*
X86340000Y-99075000D01*
%TO.N,Net-(R17-Pad2)*%
X100620000Y-105400000D02*
X101200000Y-105400000D01*
X101200000Y-105400000D02*
X101600000Y-105800000D01*
X101600000Y-105800000D02*
X101600000Y-107600000D01*
X100965000Y-108235000D02*
X99787500Y-108235000D01*
X101600000Y-107600000D02*
X100965000Y-108235000D01*
%TO.N,/CH32V003/PD7*%
X79360000Y-97675000D02*
X81435000Y-97675000D01*
X87400000Y-97400000D02*
X87000000Y-97000000D01*
X89340000Y-99230000D02*
X88600001Y-99230000D01*
X81435000Y-97675000D02*
X81760000Y-98000000D01*
X87000000Y-97000000D02*
X82760000Y-97000000D01*
X82760000Y-97000000D02*
X81760000Y-98000000D01*
X88600001Y-99230000D02*
X87400000Y-98029999D01*
X87400000Y-98029999D02*
X87400000Y-97400000D01*
%TO.N,/Relay 5/NO*%
D44*
X158743640Y-129055000D02*
X162243640Y-132555000D01*
X158743640Y-126000000D02*
X158743640Y-129055000D01*
%TO.N,/Relay 5/COM*%
X164743640Y-111800000D02*
X164743640Y-132555000D01*
%TO.N,/Relay 5/NC*%
X170743640Y-129055000D02*
X167243640Y-132555000D01*
X170743640Y-126000000D02*
X170743640Y-129055000D01*
%TO.N,Net-(Q15-C)*%
D43*
X139667730Y-107340000D02*
X142807730Y-107340000D01*
X142807730Y-108290000D02*
X143857730Y-109340000D01*
X138607730Y-109400000D02*
X138607730Y-108400000D01*
X152547730Y-109340000D02*
X149140000Y-109340000D01*
X153207730Y-113800000D02*
X153207730Y-110000000D01*
X153207730Y-110000000D02*
X152547730Y-109340000D01*
X138607730Y-108400000D02*
X139667730Y-107340000D01*
X142807730Y-107340000D02*
X142807730Y-108290000D01*
%TO.N,Net-(D12-Pad1)*%
X138607730Y-136390000D02*
X138607730Y-111040000D01*
X139417730Y-137200000D02*
X138607730Y-136390000D01*
%TO.N,Net-(D10-Pad1)*%
X103535910Y-136390000D02*
X103535910Y-111040000D01*
X104345910Y-137200000D02*
X103535910Y-136390000D01*
%TO.N,/Relay 3/NO*%
D44*
X123671820Y-126000000D02*
X123671820Y-129055000D01*
X123671820Y-129055000D02*
X127171820Y-132555000D01*
%TO.N,/Relay 3/NC*%
X135671820Y-126000000D02*
X135671820Y-129055000D01*
X135671820Y-129055000D02*
X132171820Y-132555000D01*
%TO.N,Net-(Q14-C)*%
D43*
X125271820Y-108290000D02*
X126321820Y-109340000D01*
X121071820Y-109400000D02*
X121071820Y-108400000D01*
X121071820Y-108400000D02*
X122131820Y-107340000D01*
X122131820Y-107340000D02*
X125271820Y-107340000D01*
X125271820Y-107340000D02*
X125271820Y-108290000D01*
%TO.N,/Relay 3/COM*%
D44*
X129671820Y-111800000D02*
X129671820Y-132555000D01*
%TO.N,Net-(D1-Pad2)*%
D43*
X87210000Y-95300000D02*
X86500000Y-95300000D01*
X86500000Y-95300000D02*
X86000000Y-95800000D01*
%TO.N,/Interboard_connector/SEL2*%
X109028272Y-98000000D02*
X108950000Y-98078272D01*
X110250000Y-98000000D02*
X109028272Y-98000000D01*
%TO.N,/Interboard_connector/SEL3*%
X111568272Y-98000000D02*
X111490000Y-98078272D01*
X112750000Y-98000000D02*
X111568272Y-98000000D01*
%TO.N,/Interboard_connector/SEL4*%
X114108272Y-98000000D02*
X114030000Y-98078272D01*
X115250000Y-98000000D02*
X114108272Y-98000000D01*
%TO.N,/Interboard_connector/SEL5*%
X116648272Y-98000000D02*
X116570000Y-98078272D01*
X117750000Y-98000000D02*
X116648272Y-98000000D01*
%TO.N,VIN_CHAINBUS*%
D44*
X119110000Y-92278272D02*
X119110000Y-93038272D01*
%TO.N,/Interboard_connector/SEL6*%
D43*
X120250000Y-98000000D02*
X119188272Y-98000000D01*
X119188272Y-98000000D02*
X119110000Y-98078272D01*
%TO.N,/Interboard_connector/SEL7*%
X123063272Y-98063272D02*
X121665000Y-98063272D01*
X121665000Y-98063272D02*
X121650000Y-98078272D01*
%TO.N,/Interboard_connector/SEL8*%
X124205000Y-98063272D02*
X124190000Y-98078272D01*
X125563272Y-98063272D02*
X124205000Y-98063272D01*
%TO.N,/Bus_switch/Chainbus_In.SDA*%
X128200000Y-101800000D02*
X129270000Y-100730000D01*
X130278272Y-98078272D02*
X130300000Y-98100000D01*
X101025000Y-103662500D02*
X101025000Y-102925001D01*
X129270000Y-100730000D02*
X129270000Y-98078272D01*
X102150001Y-101800000D02*
X128200000Y-101800000D01*
X101025000Y-102925001D02*
X102150001Y-101800000D01*
X129270000Y-98078272D02*
X130278272Y-98078272D01*
%TO.N,/Bus_switch/Chainbus_In.SCL*%
X102200001Y-102400000D02*
X130600000Y-102400000D01*
X101675000Y-102925001D02*
X102200001Y-102400000D01*
X130600000Y-102400000D02*
X131810000Y-101190000D01*
X101675000Y-103662500D02*
X101675000Y-102925001D01*
X131810000Y-101190000D02*
X131810000Y-98078272D01*
X131810000Y-98078272D02*
X132821728Y-98078272D01*
X132821728Y-98078272D02*
X132850000Y-98050000D01*
%TO.N,/Interboard_connector/Chainbus.CS*%
X135371728Y-98078272D02*
X135400000Y-98050000D01*
X134350000Y-98078272D02*
X135371728Y-98078272D01*
%TO.N,/Interboard_connector/Chainbus.SCK*%
X136890000Y-98078272D02*
X137821728Y-98078272D01*
X137821728Y-98078272D02*
X137850000Y-98050000D01*
%TO.N,/Interboard_connector/Chainbus.MOSI*%
X139430000Y-98078272D02*
X140371728Y-98078272D01*
X140371728Y-98078272D02*
X140450000Y-98000000D01*
%TO.N,/Interboard_connector/Chainbus.MISO*%
X143000000Y-98000000D02*
X142048272Y-98000000D01*
X142048272Y-98000000D02*
X141970000Y-98078272D01*
%TO.N,+12V stby*%
D42*
X144400000Y-94100000D02*
X144500000Y-94200000D01*
X143400000Y-94100000D02*
X144400000Y-94100000D01*
%TO.N,/Interboard_connector/Chainbus.TX*%
D43*
X145521728Y-98078272D02*
X145650000Y-97950000D01*
X144510000Y-98078272D02*
X145521728Y-98078272D01*
%TO.N,/Interboard_connector/Chainbus.RX*%
X148171728Y-98078272D02*
X148200000Y-98050000D01*
X147050000Y-98078272D02*
X148171728Y-98078272D01*
%TO.N,/S1*%
X98980000Y-105400000D02*
X97620000Y-105400000D01*
X95060000Y-101820000D02*
X93670003Y-101820000D01*
X93670003Y-101820000D02*
X93600000Y-101749997D01*
X97620000Y-105400000D02*
X97100000Y-105400000D01*
X97100000Y-105400000D02*
X96800000Y-105700000D01*
%TO.N,/Relay 1/NO*%
D44*
X88600000Y-126000000D02*
X88600000Y-129055000D01*
X88600000Y-129055000D02*
X92100000Y-132555000D01*
%TO.N,/Relay 1/NC*%
X100600000Y-126000000D02*
X100600000Y-129055000D01*
X100600000Y-129055000D02*
X97100000Y-132555000D01*
%TO.N,Net-(Q12-C)*%
D43*
X86000000Y-108400000D02*
X87060000Y-107340000D01*
X100600000Y-113800000D02*
X100600000Y-110000000D01*
X99940000Y-109340000D02*
X91250000Y-109340000D01*
X90200000Y-108290000D02*
X91250000Y-109340000D01*
X87060000Y-107340000D02*
X90200000Y-107340000D01*
X90200000Y-107340000D02*
X90200000Y-108290000D01*
X100600000Y-110000000D02*
X99940000Y-109340000D01*
X86000000Y-109400000D02*
X86000000Y-108400000D01*
%TO.N,/Relay 1/COM*%
D44*
X94600000Y-111800000D02*
X94600000Y-132555000D01*
%TO.N,/CH32V003/CH32V003.RX*%
D43*
X87700000Y-96300000D02*
X87210000Y-96300000D01*
X88000000Y-96600000D02*
X87700000Y-96300000D01*
X89340000Y-98580000D02*
X88600001Y-98580000D01*
X88600001Y-98580000D02*
X88000000Y-97979999D01*
X88000000Y-97979999D02*
X88000000Y-96600000D01*
%TO.N,/Chainbus.SCL*%
X102325000Y-103662500D02*
X102325000Y-104925000D01*
X102325000Y-104925000D02*
X102400000Y-105000000D01*
X166400000Y-101400000D02*
X165760000Y-100760000D01*
X94700000Y-104200000D02*
X94700000Y-103480000D01*
X154240000Y-100760000D02*
X151200000Y-103800000D01*
X164090000Y-100760000D02*
X154240000Y-100760000D01*
X95060000Y-103120000D02*
X96880000Y-103120000D01*
X94700000Y-103480000D02*
X95060000Y-103120000D01*
X151200000Y-103800000D02*
X110400000Y-103800000D01*
X165760000Y-100760000D02*
X164090000Y-100760000D01*
X96880000Y-103120000D02*
X97000000Y-103000000D01*
X166800000Y-101400000D02*
X166400000Y-101400000D01*
%TO.N,Net-(Q12-B)*%
X92580000Y-105400000D02*
X91210000Y-105400000D01*
X91210000Y-105400000D02*
X91150000Y-105460000D01*
%TO.N,Net-(D13-Pad1)*%
X156143640Y-136390000D02*
X156143640Y-111040000D01*
X156953640Y-137200000D02*
X156143640Y-136390000D01*
%TO.N,Net-(Q15-B)*%
X143817730Y-105400000D02*
X143757730Y-105460000D01*
X145187730Y-105400000D02*
X143817730Y-105400000D01*
%TO.N,/Bus_switch/SEL1*%
X98287500Y-103800000D02*
X98425000Y-103662500D01*
X157400000Y-102200000D02*
X159800000Y-102200000D01*
X98425000Y-103625000D02*
X97800000Y-103000000D01*
X172400000Y-99085000D02*
X173200000Y-98285000D01*
X97500000Y-103800000D02*
X98287500Y-103800000D01*
X172400000Y-99200000D02*
X172400000Y-99085000D01*
X105712500Y-97800000D02*
X105575000Y-97937500D01*
X106400000Y-97800000D02*
X105712500Y-97800000D01*
X98425000Y-103662500D02*
X98425000Y-103625000D01*
%TO.N,Net-(D3-Pad1)*%
X174480000Y-98005000D02*
X174200000Y-98285000D01*
X175375000Y-98005000D02*
X174480000Y-98005000D01*
%TO.N,/Relay 4/NO*%
D44*
X141207730Y-129055000D02*
X144707730Y-132555000D01*
X141207730Y-126000000D02*
X141207730Y-129055000D01*
%TO.N,/Relay 4/COM*%
X147207730Y-111800000D02*
X147207730Y-132555000D01*
%TO.N,/Relay 4/NC*%
X153207730Y-129055000D02*
X149707730Y-132555000D01*
X153207730Y-126000000D02*
X153207730Y-129055000D01*
%TO.N,Net-(R18-Pad2)*%
D43*
X118155910Y-105400000D02*
X118800000Y-105400000D01*
X118800000Y-105400000D02*
X119200000Y-105800000D01*
X118500910Y-108235000D02*
X117323410Y-108235000D01*
X119200000Y-107535910D02*
X118500910Y-108235000D01*
X119200000Y-105800000D02*
X119200000Y-107535910D01*
%TO.N,Net-(Q14-B)*%
X127651820Y-105400000D02*
X126281820Y-105400000D01*
X126281820Y-105400000D02*
X126221820Y-105460000D01*
%TO.N,/CH32V003/OSCO*%
X84780000Y-101475000D02*
X84460000Y-101155000D01*
X88375001Y-100305000D02*
X88600001Y-100530000D01*
X88600001Y-100530000D02*
X89340000Y-100530000D01*
X84460000Y-101155000D02*
X85310000Y-100305000D01*
X84780000Y-102675000D02*
X84780000Y-101475000D01*
X85310000Y-100305000D02*
X88375001Y-100305000D01*
%TO.N,Net-(R21-Pad2)*%
X135691820Y-105400000D02*
X136000000Y-105400000D01*
X136600000Y-106000000D02*
X136600000Y-107671820D01*
X136036820Y-108235000D02*
X134859320Y-108235000D01*
X136000000Y-105400000D02*
X136600000Y-106000000D01*
X136600000Y-107671820D02*
X136036820Y-108235000D01*
%TO.N,Net-(D11-Pad1)*%
X121071820Y-136390000D02*
X121071820Y-111040000D01*
X121881820Y-137200000D02*
X121071820Y-136390000D01*
%TO.N,/S4*%
X95060000Y-99870000D02*
X91530000Y-99870000D01*
X91530000Y-99870000D02*
X91400000Y-100000000D01*
X150227730Y-107572270D02*
X150200000Y-107600000D01*
X151587730Y-105400000D02*
X150227730Y-105400000D01*
X150227730Y-105400000D02*
X150227730Y-107572270D01*
%TO.N,Net-(R24-Pad2)*%
X153965000Y-108235000D02*
X154200000Y-108000000D01*
X154000000Y-105400000D02*
X153227730Y-105400000D01*
X154200000Y-105600000D02*
X154000000Y-105400000D01*
X152395230Y-108235000D02*
X153965000Y-108235000D01*
X154200000Y-108000000D02*
X154200000Y-105600000D01*
%TO.N,Net-(Q13-B)*%
X110115910Y-105400000D02*
X108745910Y-105400000D01*
X108745910Y-105400000D02*
X108685910Y-105460000D01*
%TO.N,/S3*%
X132691820Y-107308180D02*
X132400000Y-107600000D01*
X95060000Y-100530000D02*
X92270000Y-100530000D01*
X132691820Y-105400000D02*
X132691820Y-107308180D01*
X92270000Y-100530000D02*
X92200000Y-100600000D01*
X134051820Y-105400000D02*
X132691820Y-105400000D01*
%TO.N,/CH32V003/SWIO*%
X94320001Y-98580000D02*
X92860000Y-97119999D01*
X92860000Y-97119999D02*
X92860000Y-94000000D01*
X95060000Y-98580000D02*
X94320001Y-98580000D01*
%TO.N,Net-(D9-Pad1)*%
X86000000Y-111040000D02*
X86000000Y-136390000D01*
X86000000Y-136390000D02*
X86810000Y-137200000D01*
%TD*%
%TA.AperFunction,Conductor*%
%TO.N,GND*%
G36*
X117193106Y-91305023D02*
G01*
X117208104Y-91309427D01*
X117223094Y-91319057D01*
X117240175Y-91324067D01*
X117266855Y-91347172D01*
X117268042Y-91348541D01*
X117295518Y-91403402D01*
X117297163Y-91410960D01*
X117300000Y-91437331D01*
X117300000Y-94308170D01*
X117294975Y-94343114D01*
X117290570Y-94358112D01*
X117280939Y-94373101D01*
X117275932Y-94390175D01*
X117252827Y-94416855D01*
X117251458Y-94418042D01*
X117196597Y-94445518D01*
X117189039Y-94447163D01*
X117162668Y-94450000D01*
X115391830Y-94450000D01*
X115356889Y-94444975D01*
X115341890Y-94440570D01*
X115326902Y-94430940D01*
X115309824Y-94425932D01*
X115283144Y-94402827D01*
X115281957Y-94401458D01*
X115254477Y-94346583D01*
X115252832Y-94339021D01*
X115250000Y-94312668D01*
X115250000Y-91441829D01*
X115255023Y-91406893D01*
X115259427Y-91391895D01*
X115269057Y-91376904D01*
X115274067Y-91359824D01*
X115297172Y-91333144D01*
X115298541Y-91331957D01*
X115353420Y-91304477D01*
X115360979Y-91302833D01*
X115387332Y-91300000D01*
X117158170Y-91300000D01*
X117193106Y-91305023D01*
G37*
%TD.AperFunction*%
%TD*%
%TA.AperFunction,Conductor*%
%TO.N,GND*%
G36*
X137343039Y-91469685D02*
G01*
X137388794Y-91522489D01*
X137400000Y-91574000D01*
X137400000Y-94476000D01*
X137380315Y-94543039D01*
X137327511Y-94588794D01*
X137276000Y-94600000D01*
X128824000Y-94600000D01*
X128756961Y-94580315D01*
X128711206Y-94527511D01*
X128700000Y-94476000D01*
X128700000Y-91574000D01*
X128719685Y-91506961D01*
X128772489Y-91461206D01*
X128824000Y-91450000D01*
X137276000Y-91450000D01*
X137343039Y-91469685D01*
G37*
%TD.AperFunction*%
%TD*%
%TA.AperFunction,Conductor*%
%TO.N,GND*%
G36*
X110243106Y-91455023D02*
G01*
X110258104Y-91459427D01*
X110273094Y-91469057D01*
X110290175Y-91474067D01*
X110316855Y-91497172D01*
X110318042Y-91498541D01*
X110345518Y-91553402D01*
X110347163Y-91560960D01*
X110350000Y-91587331D01*
X110350000Y-94458170D01*
X110344975Y-94493114D01*
X110340570Y-94508112D01*
X110330939Y-94523101D01*
X110325932Y-94540175D01*
X110302827Y-94566855D01*
X110301458Y-94568042D01*
X110246597Y-94595518D01*
X110239039Y-94597163D01*
X110212668Y-94600000D01*
X108441830Y-94600000D01*
X108406889Y-94594975D01*
X108391890Y-94590570D01*
X108376902Y-94580940D01*
X108359824Y-94575932D01*
X108333144Y-94552827D01*
X108331957Y-94551458D01*
X108304477Y-94496583D01*
X108302832Y-94489021D01*
X108300000Y-94462668D01*
X108300000Y-91591829D01*
X108305023Y-91556893D01*
X108309427Y-91541895D01*
X108319057Y-91526904D01*
X108324067Y-91509824D01*
X108347172Y-91483144D01*
X108348541Y-91481957D01*
X108403420Y-91454477D01*
X108410979Y-91452833D01*
X108437332Y-91450000D01*
X110208170Y-91450000D01*
X110243106Y-91455023D01*
G37*
%TD.AperFunction*%
%TD*%
%TA.AperFunction,Conductor*%
%TO.N,GND*%
G36*
X148343039Y-91469685D02*
G01*
X148388794Y-91522489D01*
X148400000Y-91574000D01*
X148400000Y-94476000D01*
X148380315Y-94543039D01*
X148327511Y-94588794D01*
X148276000Y-94600000D01*
X146474000Y-94600000D01*
X146406961Y-94580315D01*
X146361206Y-94527511D01*
X146350000Y-94476000D01*
X146350000Y-91574000D01*
X146369685Y-91506961D01*
X146422489Y-91461206D01*
X146474000Y-91450000D01*
X148276000Y-91450000D01*
X148343039Y-91469685D01*
G37*
%TD.AperFunction*%
%TD*%
%TA.AperFunction,Conductor*%
%TO.N,+5V*%
G36*
X114443039Y-91469685D02*
G01*
X114488794Y-91522489D01*
X114500000Y-91574000D01*
X114500000Y-94476000D01*
X114480315Y-94543039D01*
X114427511Y-94588794D01*
X114376000Y-94600000D01*
X111124000Y-94600000D01*
X111056961Y-94580315D01*
X111011206Y-94527511D01*
X111000000Y-94476000D01*
X111000000Y-91574000D01*
X111019685Y-91506961D01*
X111072489Y-91461206D01*
X111124000Y-91450000D01*
X114376000Y-91450000D01*
X114443039Y-91469685D01*
G37*
%TD.AperFunction*%
%TD*%
%TA.AperFunction,Conductor*%
%TO.N,VIN_CHAINBUS*%
G36*
X127340955Y-91469685D02*
G01*
X127386710Y-91522489D01*
X127397899Y-91576066D01*
X127352032Y-94328066D01*
X127331233Y-94394769D01*
X127277674Y-94439637D01*
X127228049Y-94450000D01*
X118721951Y-94450000D01*
X118654912Y-94430315D01*
X118609157Y-94377511D01*
X118597968Y-94328066D01*
X118552101Y-91576066D01*
X118570666Y-91508708D01*
X118622700Y-91462080D01*
X118676084Y-91450000D01*
X127273916Y-91450000D01*
X127340955Y-91469685D01*
G37*
%TD.AperFunction*%
%TD*%
M02*
