M48
; DRILL file KiCad 10.0.1 date 2026-06-08T22:11:06
; FORMAT={-:-/ absolute / inch / decimal}
; #@! TF.CreationDate,2026-06-08T22:11:06+02:00
; #@! TF.GenerationSoftware,Kicad,Pcbnew,10.0.1
; #@! TF.FileFunction,Plated,1,2,PTH
FMAT,2
INCH
; #@! TA.AperFunction,Plated,PTH,ViaDrill
T1C0.0118
; #@! TA.AperFunction,Plated,PTH,ComponentDrill
T2C0.0118
; #@! TA.AperFunction,Plated,PTH,ComponentDrill
T3C0.0394
; #@! TA.AperFunction,Plated,PTH,ComponentDrill
T4C0.0591
; #@! TA.AperFunction,Plated,PTH,ComponentDrill
T5C0.0669
; #@! TA.AperFunction,Plated,PTH,ComponentDrill
T6C0.1063
%
G90
G05
T1
X3.1299Y-4.0433
X3.1732Y-3.9528
X3.2126Y-3.9449
X3.2362Y-4.3465
X3.2441Y-3.9134
X3.3228Y-4.2677
X3.3307Y-4.0866
X3.3386Y-3.7244
X3.3701Y-4.0787
X3.4331Y-3.7087
X3.4646Y-4.0945
X3.5433Y-3.8425
X3.5433Y-3.9843
X3.5512Y-4.063
X3.5512Y-4.3504
X3.5748Y-3.8937
X3.5945Y-3.9213
X3.5984Y-3.8346
X3.5984Y-4.2677
X3.6142Y-3.9488
X3.6339Y-3.9724
X3.6535Y-4.0
X3.7402Y-4.2756
X3.7598Y-4.0472
X3.7795Y-3.9764
X3.8071Y-4.0512
X3.8189Y-3.9291
X3.8681Y-4.0236
X3.8898Y-3.6772
X3.9055Y-3.7874
X3.9291Y-4.2126
X3.9843Y-4.2756
X3.9921Y-3.9213
X3.9921Y-3.9843
X4.0197Y-4.0394
X4.0787Y-4.1969
X4.0945Y-3.9291
X4.1181Y-4.0394
X4.1496Y-3.8583
X4.1732Y-3.9134
X4.1969Y-3.8228
X4.252Y-4.0551
X4.2638Y-4.2598
X4.3228Y-4.189
X4.3346Y-3.6201
X4.3346Y-3.6811
X4.3346Y-3.7087
X4.3386Y-3.5591
X4.3386Y-4.2756
X4.3406Y-3.8583
X4.4094Y-4.1969
X4.439Y-3.6181
X4.439Y-3.6811
X4.439Y-3.7126
X4.439Y-3.8583
X4.5197Y-4.3071
X4.5374Y-3.8583
X4.5512Y-3.5591
X4.5512Y-3.6811
X4.5512Y-3.7087
X4.5531Y-3.6122
X4.6358Y-3.8583
X4.6378Y-4.063
X4.7008Y-4.315
X4.7343Y-3.8583
X4.7382Y-3.6181
X4.7382Y-3.7087
X4.7402Y-3.6772
X4.7598Y-4.0906
X4.8189Y-4.2756
X4.8346Y-4.0551
X4.8386Y-3.6201
X4.8386Y-3.6772
X4.8386Y-3.7087
X4.845Y-3.8608
X4.9409Y-3.622
X4.9409Y-3.6772
X4.9409Y-3.7087
X4.9434Y-3.8608
X4.9685Y-4.3228
X5.0Y-4.0945
X5.0945Y-4.1811
X5.1024Y-4.2677
X5.1299Y-3.8622
X5.1378Y-3.6201
X5.1378Y-3.689
X5.1378Y-3.7126
X5.2047Y-4.0945
X5.2303Y-3.8602
X5.2382Y-3.624
X5.2382Y-3.689
X5.2402Y-3.7165
X5.2992Y-4.063
X5.3228Y-4.2283
X5.3307Y-3.8602
X5.3386Y-3.622
X5.3386Y-3.689
X5.3386Y-3.7205
X5.4134Y-4.1063
X5.4173Y-4.3228
X5.4272Y-3.8602
X5.5295Y-3.8583
X5.5433Y-4.0551
X5.5591Y-4.2992
X5.6299Y-3.8583
X5.6457Y-3.7047
X5.6535Y-4.315
X5.7343Y-3.8563
X5.7638Y-4.2598
X5.8268Y-3.6811
X5.8268Y-3.7087
X5.8327Y-3.6201
X5.8346Y-3.8602
X5.8898Y-3.7402
X5.8898Y-4.1102
X5.9213Y-3.9606
X5.937Y-3.8031
X5.9449Y-4.0551
X6.0079Y-3.874
X6.0079Y-4.0709
X6.0079Y-4.252
X6.0118Y-4.1299
X6.0315Y-3.9843
X6.063Y-4.315
X6.0945Y-3.9213
X6.1417Y-4.0787
X6.1693Y-3.8307
X6.1811Y-3.9921
X6.1969Y-3.7953
X6.252Y-4.063
X6.2835Y-4.3071
X6.3307Y-4.0157
X6.4094Y-4.2756
X6.4409Y-3.9606
X6.4488Y-3.6772
X6.4646Y-3.8268
X6.4724Y-4.3465
X6.4882Y-3.5669
X6.5433Y-4.2913
X6.5669Y-4.126
X6.626Y-3.5906
X6.626Y-3.9685
X6.6299Y-3.7008
X6.6614Y-3.5354
X6.6693Y-3.9213
X6.6772Y-3.878
X6.6929Y-3.5984
X6.6929Y-4.2441
X6.6969Y-4.1535
X6.7244Y-3.5433
X6.7303Y-3.748
X6.748Y-4.252
X6.7638Y-3.937
X6.7953Y-4.3228
X6.811Y-3.811
X6.8425Y-4.126
X6.8504Y-4.2047
X6.8583Y-3.811
X6.8583Y-3.9528
T2
X6.3055Y-3.7008
X6.3055Y-3.7402
X6.3055Y-3.7795
T3
X3.5457Y-3.7087
X3.6457Y-3.7087
X3.7457Y-3.7087
X6.925Y-3.9606
X6.925Y-4.0606
X6.925Y-4.1606
X6.925Y-4.2606
T4
X3.5114Y-4.2187
X3.5114Y-4.6187
X3.5114Y-4.9187
X3.8114Y-4.2187
X3.8114Y-4.9187
X4.1976Y-4.2134
X4.1976Y-4.6134
X4.1976Y-4.9134
X4.4976Y-4.2134
X4.4976Y-4.9134
X4.8697Y-4.2187
X4.8697Y-4.6187
X4.8697Y-4.9187
X5.1697Y-4.2187
X5.1697Y-4.9187
X5.5559Y-4.2134
X5.5559Y-4.6134
X5.5559Y-4.9134
X5.8559Y-4.2134
X5.8559Y-4.9134
X6.228Y-4.2187
X6.228Y-4.6187
X6.228Y-4.9187
X6.528Y-4.2187
X6.528Y-4.9187
T5
X3.4724Y-5.0571
X3.6693Y-5.0571
X3.8661Y-5.0571
X4.1516Y-5.0571
X4.3484Y-5.0571
X4.5453Y-5.0571
X4.8307Y-5.0571
X5.0276Y-5.0571
X5.2244Y-5.0571
X5.5098Y-5.0571
X5.7067Y-5.0571
X5.9035Y-5.0571
X6.189Y-5.0571
X6.3858Y-5.0571
X6.5827Y-5.0571
T6
X3.2283Y-3.622
M30
