%TF.GenerationSoftware,KiCad,Pcbnew,10.0.1*%
%TF.CreationDate,2026-05-13T09:28:10+02:00*%
%TF.ProjectId,MMS3_hat_relay,4d4d5333-5f68-4617-945f-72656c61792e,R0*%
%TF.SameCoordinates,Original*%
%TF.FileFunction,Soldermask,Top*%
%TF.FilePolarity,Negative*%
%FSLAX46Y46*%
G04 Gerber Fmt 4.6, Leading zero omitted, Abs format (unit mm)*
G04 Created by KiCad (PCBNEW 10.0.1) date 2026-05-13 09:28:10*
%MOMM*%
%LPD*%
G01*
G04 APERTURE LIST*
G04 Aperture macros list*
%AMRoundRect*
0 Rectangle with rounded corners*
0 $1 Rounding radius*
0 $2 $3 $4 $5 $6 $7 $8 $9 X,Y pos of 4 corners*
0 Add a 4 corners polygon primitive as box body*
4,1,4,$2,$3,$4,$5,$6,$7,$8,$9,$2,$3,0*
0 Add four circle primitives for the rounded corners*
1,1,$1+$1,$2,$3*
1,1,$1+$1,$4,$5*
1,1,$1+$1,$6,$7*
1,1,$1+$1,$8,$9*
0 Add four rect primitives between the rounded corners*
20,1,$1+$1,$2,$3,$4,$5,0*
20,1,$1+$1,$4,$5,$6,$7,0*
20,1,$1+$1,$6,$7,$8,$9,0*
20,1,$1+$1,$8,$9,$2,$3,0*%
G04 Aperture macros list end*
%ADD10RoundRect,0.219000X0.219000X0.294000X-0.219000X0.294000X-0.219000X-0.294000X0.219000X-0.294000X0*%
%ADD11C,2.794000*%
%ADD12RoundRect,0.219000X-0.219000X-0.294000X0.219000X-0.294000X0.219000X0.294000X-0.219000X0.294000X0*%
%ADD13RoundRect,0.150000X-0.150000X0.590000X-0.150000X-0.590000X0.150000X-0.590000X0.150000X0.590000X0*%
%ADD14RoundRect,0.159000X-0.189000X0.159000X-0.189000X-0.159000X0.189000X-0.159000X0.189000X0.159000X0*%
%ADD15RoundRect,0.244000X0.244000X0.269000X-0.244000X0.269000X-0.244000X-0.269000X0.244000X-0.269000X0*%
%ADD16RoundRect,0.150000X0.662500X0.150000X-0.662500X0.150000X-0.662500X-0.150000X0.662500X-0.150000X0*%
%ADD17RoundRect,0.159000X0.189000X-0.159000X0.189000X0.159000X-0.189000X0.159000X-0.189000X-0.159000X0*%
%ADD18RoundRect,0.250000X-0.600000X-0.725000X0.600000X-0.725000X0.600000X0.725000X-0.600000X0.725000X0*%
%ADD19O,1.700000X1.950000*%
%ADD20RoundRect,0.219000X-0.294000X0.219000X-0.294000X-0.219000X0.294000X-0.219000X0.294000X0.219000X0*%
%ADD21RoundRect,0.131500X-0.206500X-0.131500X0.206500X-0.131500X0.206500X0.131500X-0.206500X0.131500X0*%
%ADD22RoundRect,0.239000X-0.239000X-0.274000X0.239000X-0.274000X0.239000X0.274000X-0.239000X0.274000X0*%
%ADD23RoundRect,0.250000X-1.000000X-0.300000X1.000000X-0.300000X1.000000X0.300000X-1.000000X0.300000X0*%
%ADD24C,0.500000*%
%ADD25RoundRect,0.250000X-0.920000X-1.550000X0.920000X-1.550000X0.920000X1.550000X-0.920000X1.550000X0*%
%ADD26C,3.100000*%
%ADD27C,4.700000*%
%ADD28R,1.000000X3.000000*%
%ADD29RoundRect,0.244000X-0.244000X-0.269000X0.244000X-0.269000X0.244000X0.269000X-0.244000X0.269000X0*%
%ADD30C,1.296000*%
%ADD31RoundRect,0.159000X0.159000X0.189000X-0.159000X0.189000X-0.159000X-0.189000X0.159000X-0.189000X0*%
%ADD32R,1.700000X1.700000*%
%ADD33C,1.700000*%
%ADD34O,1.950000X0.570000*%
%ADD35RoundRect,0.244000X-0.269000X0.244000X-0.269000X-0.244000X0.269000X-0.244000X0.269000X0.244000X0*%
%ADD36RoundRect,0.244000X0.269000X-0.244000X0.269000X0.244000X-0.269000X0.244000X-0.269000X-0.244000X0*%
%ADD37RoundRect,0.159000X-0.159000X-0.189000X0.159000X-0.189000X0.159000X0.189000X-0.159000X0.189000X0*%
%ADD38RoundRect,0.100000X-0.100000X0.637500X-0.100000X-0.637500X0.100000X-0.637500X0.100000X0.637500X0*%
%ADD39RoundRect,0.100000X-0.640000X-0.100000X0.640000X-0.100000X0.640000X0.100000X-0.640000X0.100000X0*%
%ADD40RoundRect,0.287778X-0.714222X0.489222X-0.714222X-0.489222X0.714222X-0.489222X0.714222X0.489222X0*%
%ADD41RoundRect,0.250000X-0.450000X-0.350000X0.450000X-0.350000X0.450000X0.350000X-0.450000X0.350000X0*%
G04 APERTURE END LIST*
D10*
%TO.C,R28*%
X167563640Y-105400000D03*
X165923640Y-105400000D03*
%TD*%
%TO.C,R25*%
X150240000Y-105400000D03*
X148600000Y-105400000D03*
%TD*%
%TO.C,R22*%
X132820000Y-105400000D03*
X131180000Y-105400000D03*
%TD*%
%TO.C,R19*%
X115020000Y-105400000D03*
X113380000Y-105400000D03*
%TD*%
%TO.C,R15*%
X97420000Y-105400000D03*
X95780000Y-105400000D03*
%TD*%
D11*
%TO.C,RLY2*%
X106135910Y-113800000D03*
X106135910Y-126000000D03*
X118135910Y-126000000D03*
X118135910Y-113800000D03*
X112135910Y-111800000D03*
%TD*%
D12*
%TO.C,R27*%
X169123640Y-105400000D03*
X170763640Y-105400000D03*
%TD*%
D13*
%TO.C,Q16*%
X161293640Y-105460000D03*
X159393640Y-105460000D03*
X160343640Y-107340000D03*
%TD*%
D14*
%TO.C,R10*%
X96549850Y-100418581D03*
X96549850Y-101418581D03*
%TD*%
D15*
%TO.C,C4*%
X86340000Y-97875000D03*
X84780000Y-97875000D03*
%TD*%
D16*
%TO.C,U5*%
X99787500Y-108235000D03*
X99787500Y-106965000D03*
X93412500Y-106965000D03*
X93412500Y-108235000D03*
%TD*%
D17*
%TO.C,R13*%
X79360000Y-98675000D03*
X79360000Y-97675000D03*
%TD*%
D18*
%TO.C,J10*%
X162243640Y-132555000D03*
D19*
X164743640Y-132555000D03*
X167243640Y-132555000D03*
%TD*%
D20*
%TO.C,R33*%
X138607730Y-109400000D03*
X138607730Y-111040000D03*
%TD*%
D21*
%TO.C,D4*%
X106685910Y-109340000D03*
X108785910Y-109340000D03*
%TD*%
D22*
%TO.C,D10*%
X104345910Y-137200000D03*
X105925910Y-137200000D03*
%TD*%
D23*
%TO.C,U4*%
X166130000Y-97300000D03*
X166130000Y-95000000D03*
X166130000Y-92700000D03*
D24*
X160160000Y-94000000D03*
X160160000Y-95000000D03*
D25*
X160160000Y-95000000D03*
D24*
X160160000Y-96000000D03*
%TD*%
D11*
%TO.C,RLY3*%
X123671820Y-113800000D03*
X123671820Y-126000000D03*
X135671820Y-126000000D03*
X135671820Y-113800000D03*
X129671820Y-111800000D03*
%TD*%
D26*
%TO.C,H1*%
X82000000Y-92000000D03*
D27*
X82000000Y-92000000D03*
%TD*%
D22*
%TO.C,D1*%
X84420000Y-95800000D03*
X86000000Y-95800000D03*
%TD*%
D28*
%TO.C,J2*%
X108950000Y-93038272D03*
X108950000Y-98078272D03*
X111490000Y-93038272D03*
X111490000Y-98078272D03*
X114030000Y-93038272D03*
X114030000Y-98078272D03*
X116570000Y-93038272D03*
X116570000Y-98078272D03*
X119110000Y-93038272D03*
X119110000Y-98078272D03*
X121650000Y-93038272D03*
X121650000Y-98078272D03*
X124190000Y-93038272D03*
X124190000Y-98078272D03*
X126730000Y-93038272D03*
X126730000Y-98078272D03*
X129270000Y-93038272D03*
X129270000Y-98078272D03*
X131810000Y-93038272D03*
X131810000Y-98078272D03*
X134350000Y-93038272D03*
X134350000Y-98078272D03*
X136890000Y-93038272D03*
X136890000Y-98078272D03*
X139430000Y-93038272D03*
X139430000Y-98078272D03*
X141970000Y-93038272D03*
X141970000Y-98078272D03*
X144510000Y-93038272D03*
X144510000Y-98078272D03*
X147050000Y-93038272D03*
X147050000Y-98078272D03*
%TD*%
D29*
%TO.C,C16*%
X168220000Y-92700000D03*
X169780000Y-92700000D03*
%TD*%
D12*
%TO.C,R17*%
X98980000Y-105400000D03*
X100620000Y-105400000D03*
%TD*%
D11*
%TO.C,RLY1*%
X88600000Y-113800000D03*
X88600000Y-126000000D03*
X100600000Y-126000000D03*
X100600000Y-113800000D03*
X94600000Y-111800000D03*
%TD*%
D17*
%TO.C,R14*%
X87210000Y-96300000D03*
X87210000Y-95300000D03*
%TD*%
D30*
%TO.C,H8*%
X177000000Y-89485000D03*
%TD*%
D31*
%TO.C,R6*%
X95500000Y-104200000D03*
X94500000Y-104200000D03*
%TD*%
D32*
%TO.C,J3*%
X175895000Y-108220000D03*
D33*
X175895000Y-105680000D03*
X175895000Y-103140000D03*
X175895000Y-100600000D03*
%TD*%
D18*
%TO.C,J6*%
X92100000Y-132555000D03*
D19*
X94600000Y-132555000D03*
X97100000Y-132555000D03*
%TD*%
D13*
%TO.C,Q12*%
X91150000Y-105460000D03*
X89250000Y-105460000D03*
X90200000Y-107340000D03*
%TD*%
D22*
%TO.C,D13*%
X156953640Y-137200000D03*
X158533640Y-137200000D03*
%TD*%
D29*
%TO.C,C18*%
X168320000Y-95000000D03*
X169880000Y-95000000D03*
%TD*%
D10*
%TO.C,R26*%
X146827730Y-105400000D03*
X145187730Y-105400000D03*
%TD*%
D30*
%TO.C,H7*%
X79000000Y-89500000D03*
%TD*%
D31*
%TO.C,R4*%
X97500000Y-103800000D03*
X96500000Y-103800000D03*
%TD*%
D34*
%TO.C,U2*%
X169510000Y-103310000D03*
X169510000Y-102040000D03*
X169510000Y-100760000D03*
X169510000Y-99490000D03*
X164090000Y-99490000D03*
X164090000Y-100760000D03*
X164090000Y-102040000D03*
X164090000Y-103310000D03*
%TD*%
D21*
%TO.C,D6*%
X141757730Y-109340000D03*
X143857730Y-109340000D03*
%TD*%
%TO.C,D2*%
X89150000Y-109340000D03*
X91250000Y-109340000D03*
%TD*%
D35*
%TO.C,C3*%
X87678732Y-102667107D03*
X87678732Y-104227107D03*
%TD*%
D22*
%TO.C,D3*%
X175375000Y-98005000D03*
X176955000Y-98005000D03*
%TD*%
D18*
%TO.C,J9*%
X144707730Y-132555000D03*
D19*
X147207730Y-132555000D03*
X149707730Y-132555000D03*
%TD*%
D12*
%TO.C,R18*%
X116515910Y-105400000D03*
X118155910Y-105400000D03*
%TD*%
D29*
%TO.C,C1*%
X106820000Y-103800000D03*
X108380000Y-103800000D03*
%TD*%
D13*
%TO.C,Q14*%
X126221820Y-105460000D03*
X124321820Y-105460000D03*
X125271820Y-107340000D03*
%TD*%
D29*
%TO.C,C5*%
X84780000Y-102675000D03*
X86340000Y-102675000D03*
%TD*%
D16*
%TO.C,U7*%
X134859320Y-108235000D03*
X134859320Y-106965000D03*
X128484320Y-106965000D03*
X128484320Y-108235000D03*
%TD*%
D30*
%TO.C,H9*%
X177000000Y-137000000D03*
%TD*%
D36*
%TO.C,C2*%
X171900000Y-106145000D03*
X171900000Y-104585000D03*
%TD*%
D37*
%TO.C,R1*%
X173200000Y-98285000D03*
X174200000Y-98285000D03*
%TD*%
D11*
%TO.C,RLY4*%
X141207730Y-113800000D03*
X141207730Y-126000000D03*
X153207730Y-126000000D03*
X153207730Y-113800000D03*
X147207730Y-111800000D03*
%TD*%
D20*
%TO.C,R32*%
X121071820Y-109400000D03*
X121071820Y-111040000D03*
%TD*%
D12*
%TO.C,R24*%
X151587730Y-105400000D03*
X153227730Y-105400000D03*
%TD*%
D16*
%TO.C,U6*%
X117323410Y-108235000D03*
X117323410Y-106965000D03*
X110948410Y-106965000D03*
X110948410Y-108235000D03*
%TD*%
D10*
%TO.C,R29*%
X164363640Y-105400000D03*
X162723640Y-105400000D03*
%TD*%
D13*
%TO.C,Q13*%
X108685910Y-105460000D03*
X106785910Y-105460000D03*
X107735910Y-107340000D03*
%TD*%
D21*
%TO.C,D5*%
X124221820Y-109340000D03*
X126321820Y-109340000D03*
%TD*%
D22*
%TO.C,D11*%
X121881820Y-137200000D03*
X123461820Y-137200000D03*
%TD*%
D38*
%TO.C,U1*%
X105575000Y-97937500D03*
X104925000Y-97937500D03*
X104275000Y-97937500D03*
X103625000Y-97937500D03*
X102975000Y-97937500D03*
X102325000Y-97937500D03*
X101675000Y-97937500D03*
X101025000Y-97937500D03*
X100375000Y-97937500D03*
X99725000Y-97937500D03*
X99075000Y-97937500D03*
X98425000Y-97937500D03*
X98425000Y-103662500D03*
X99075000Y-103662500D03*
X99725000Y-103662500D03*
X100375000Y-103662500D03*
X101025000Y-103662500D03*
X101675000Y-103662500D03*
X102325000Y-103662500D03*
X102975000Y-103662500D03*
X103625000Y-103662500D03*
X104275000Y-103662500D03*
X104925000Y-103662500D03*
X105575000Y-103662500D03*
%TD*%
D20*
%TO.C,R31*%
X103535910Y-109400000D03*
X103535910Y-111040000D03*
%TD*%
D12*
%TO.C,R21*%
X134051820Y-105400000D03*
X135691820Y-105400000D03*
%TD*%
D13*
%TO.C,Q15*%
X143757730Y-105460000D03*
X141857730Y-105460000D03*
X142807730Y-107340000D03*
%TD*%
D10*
%TO.C,R20*%
X111755910Y-105400000D03*
X110115910Y-105400000D03*
%TD*%
D21*
%TO.C,D8*%
X159293640Y-109340000D03*
X161393640Y-109340000D03*
%TD*%
D18*
%TO.C,J7*%
X109635910Y-132555000D03*
D19*
X112135910Y-132555000D03*
X114635910Y-132555000D03*
%TD*%
D20*
%TO.C,R34*%
X156143640Y-109400000D03*
X156143640Y-111040000D03*
%TD*%
D39*
%TO.C,U3*%
X89340000Y-97280000D03*
X89340000Y-97930000D03*
X89340000Y-98580000D03*
X89340000Y-99230000D03*
X89340000Y-99870000D03*
X89340000Y-100530000D03*
X89340000Y-101170000D03*
X89340000Y-101820000D03*
X89340000Y-102470000D03*
X89340000Y-103120000D03*
X95060000Y-103120000D03*
X95060000Y-102470000D03*
X95060000Y-101820000D03*
X95060000Y-101170000D03*
X95060000Y-100530000D03*
X95060000Y-99870000D03*
X95060000Y-99230000D03*
X95060000Y-98580000D03*
X95060000Y-97930000D03*
X95060000Y-97280000D03*
%TD*%
D11*
%TO.C,RLY5*%
X158743640Y-113800000D03*
X158743640Y-126000000D03*
X170743640Y-126000000D03*
X170743640Y-113800000D03*
X164743640Y-111800000D03*
%TD*%
D22*
%TO.C,D9*%
X86810000Y-137200000D03*
X88390000Y-137200000D03*
%TD*%
D16*
%TO.C,U9*%
X169931140Y-108235000D03*
X169931140Y-106965000D03*
X163556140Y-106965000D03*
X163556140Y-108235000D03*
%TD*%
%TO.C,U8*%
X152395230Y-108235000D03*
X152395230Y-106965000D03*
X146020230Y-106965000D03*
X146020230Y-108235000D03*
%TD*%
D32*
%TO.C,J5*%
X90320000Y-94000000D03*
D33*
X92860000Y-94000000D03*
X95400000Y-94000000D03*
%TD*%
D40*
%TO.C,S1*%
X81760000Y-98000000D03*
X81760000Y-102150000D03*
%TD*%
D10*
%TO.C,R16*%
X94220000Y-105400000D03*
X92580000Y-105400000D03*
%TD*%
D20*
%TO.C,R30*%
X86000000Y-109400000D03*
X86000000Y-111040000D03*
%TD*%
D41*
%TO.C,X1*%
X84460000Y-101155000D03*
X86660000Y-101155000D03*
X86660000Y-99395000D03*
X84460000Y-99395000D03*
%TD*%
D22*
%TO.C,D12*%
X139417730Y-137200000D03*
X140997730Y-137200000D03*
%TD*%
D10*
%TO.C,R23*%
X129291820Y-105400000D03*
X127651820Y-105400000D03*
%TD*%
D18*
%TO.C,J8*%
X127171820Y-132555000D03*
D19*
X129671820Y-132555000D03*
X132171820Y-132555000D03*
%TD*%
M02*
