%TF.GenerationSoftware,KiCad,Pcbnew,10.0.1*%
%TF.CreationDate,2026-05-15T22:30:41+02:00*%
%TF.ProjectId,MMS3_hat_relay,4d4d5333-5f68-4617-945f-72656c61792e,R0*%
%TF.SameCoordinates,Original*%
%TF.FileFunction,Soldermask,Top*%
%TF.FilePolarity,Negative*%
%FSLAX46Y46*%
G04 Gerber Fmt 4.6, Leading zero omitted, Abs format (unit mm)*
G04 Created by KiCad (PCBNEW 10.0.1) date 2026-05-15 22:30:41*
%MOMM*%
%LPD*%
G01*
G04 APERTURE LIST*
G04 Aperture macros list*
%AMRoundRect*
0 Rectangle with rounded corners*
0 $1 Rounding radius*
0 $2 $3 $4 $5 $6 $7 $8 $9 X,Y pos of 4 corners*
0 Add a 4 corners polygon primitive as box body*
4,1,4,$2,$3,$4,$5,$6,$7,$8,$9,$2,$3,0*
0 Add four circle primitives for the rounded corners*
1,1,$1+$1,$2,$3*
1,1,$1+$1,$4,$5*
1,1,$1+$1,$6,$7*
1,1,$1+$1,$8,$9*
0 Add four rect primitives between the rounded corners*
20,1,$1+$1,$2,$3,$4,$5,0*
20,1,$1+$1,$4,$5,$6,$7,0*
20,1,$1+$1,$6,$7,$8,$9,0*
20,1,$1+$1,$8,$9,$2,$3,0*%
G04 Aperture macros list end*
%ADD10C,2.500000*%
%ADD11RoundRect,0.100000X-0.640000X-0.100000X0.640000X-0.100000X0.640000X0.100000X-0.640000X0.100000X0*%
%ADD12RoundRect,0.159000X0.189000X-0.159000X0.189000X0.159000X-0.189000X0.159000X-0.189000X-0.159000X0*%
%ADD13RoundRect,0.131500X0.206500X0.131500X-0.206500X0.131500X-0.206500X-0.131500X0.206500X-0.131500X0*%
%ADD14RoundRect,0.150000X0.590000X0.150000X-0.590000X0.150000X-0.590000X-0.150000X0.590000X-0.150000X0*%
%ADD15RoundRect,0.244000X0.269000X-0.244000X0.269000X0.244000X-0.269000X0.244000X-0.269000X-0.244000X0*%
%ADD16RoundRect,0.150000X-0.662500X-0.150000X0.662500X-0.150000X0.662500X0.150000X-0.662500X0.150000X0*%
%ADD17RoundRect,0.219000X-0.294000X0.219000X-0.294000X-0.219000X0.294000X-0.219000X0.294000X0.219000X0*%
%ADD18RoundRect,0.250000X-0.450000X-0.350000X0.450000X-0.350000X0.450000X0.350000X-0.450000X0.350000X0*%
%ADD19RoundRect,0.150000X0.662500X0.150000X-0.662500X0.150000X-0.662500X-0.150000X0.662500X-0.150000X0*%
%ADD20RoundRect,0.250000X-1.000000X-0.300000X1.000000X-0.300000X1.000000X0.300000X-1.000000X0.300000X0*%
%ADD21C,0.500000*%
%ADD22RoundRect,0.250000X-0.920000X-1.550000X0.920000X-1.550000X0.920000X1.550000X-0.920000X1.550000X0*%
%ADD23RoundRect,0.244000X-0.269000X0.244000X-0.269000X-0.244000X0.269000X-0.244000X0.269000X0.244000X0*%
%ADD24C,3.100000*%
%ADD25C,4.700000*%
%ADD26RoundRect,0.219000X0.294000X-0.219000X0.294000X0.219000X-0.294000X0.219000X-0.294000X-0.219000X0*%
%ADD27RoundRect,0.150000X-0.590000X-0.150000X0.590000X-0.150000X0.590000X0.150000X-0.590000X0.150000X0*%
%ADD28RoundRect,0.219000X-0.219000X-0.294000X0.219000X-0.294000X0.219000X0.294000X-0.219000X0.294000X0*%
%ADD29R,1.000000X3.000000*%
%ADD30RoundRect,0.244000X-0.244000X-0.269000X0.244000X-0.269000X0.244000X0.269000X-0.244000X0.269000X0*%
%ADD31RoundRect,0.159000X-0.189000X0.159000X-0.189000X-0.159000X0.189000X-0.159000X0.189000X0.159000X0*%
%ADD32C,2.200000*%
%ADD33C,1.296000*%
%ADD34R,1.700000X1.700000*%
%ADD35C,1.700000*%
%ADD36RoundRect,0.159000X0.159000X0.189000X-0.159000X0.189000X-0.159000X-0.189000X0.159000X-0.189000X0*%
%ADD37RoundRect,0.239000X0.274000X-0.239000X0.274000X0.239000X-0.274000X0.239000X-0.274000X-0.239000X0*%
%ADD38RoundRect,0.239000X-0.239000X-0.274000X0.239000X-0.274000X0.239000X0.274000X-0.239000X0.274000X0*%
%ADD39RoundRect,0.219000X0.219000X0.294000X-0.219000X0.294000X-0.219000X-0.294000X0.219000X-0.294000X0*%
%ADD40RoundRect,0.159000X-0.159000X-0.189000X0.159000X-0.189000X0.159000X0.189000X-0.159000X0.189000X0*%
%ADD41RoundRect,0.244000X0.244000X0.269000X-0.244000X0.269000X-0.244000X-0.269000X0.244000X-0.269000X0*%
%ADD42RoundRect,0.131500X0.131500X-0.206500X0.131500X0.206500X-0.131500X0.206500X-0.131500X-0.206500X0*%
%ADD43RoundRect,0.100000X-0.100000X0.637500X-0.100000X-0.637500X0.100000X-0.637500X0.100000X0.637500X0*%
%ADD44RoundRect,0.287778X-0.714222X0.489222X-0.714222X-0.489222X0.714222X-0.489222X0.714222X0.489222X0*%
%ADD45O,0.570000X1.950000*%
G04 APERTURE END LIST*
D10*
%TO.C,CN1*%
X98200000Y-128450000D03*
X93200000Y-128450000D03*
X88200000Y-128450000D03*
%TD*%
D11*
%TO.C,U3*%
X88400000Y-97010000D03*
X88400000Y-97660000D03*
X88400000Y-98310000D03*
X88400000Y-98960000D03*
X88400000Y-99600000D03*
X88400000Y-100260000D03*
X88400000Y-100900000D03*
X88400000Y-101550000D03*
X88400000Y-102200000D03*
X88400000Y-102850000D03*
X94120000Y-102850000D03*
X94120000Y-102200000D03*
X94120000Y-101550000D03*
X94120000Y-100900000D03*
X94120000Y-100260000D03*
X94120000Y-99600000D03*
X94120000Y-98960000D03*
X94120000Y-98310000D03*
X94120000Y-97660000D03*
X94120000Y-97010000D03*
%TD*%
D12*
%TO.C,R13*%
X83300000Y-98200000D03*
X83300000Y-97200000D03*
%TD*%
D13*
%TO.C,D6*%
X146050000Y-104900000D03*
X143950000Y-104900000D03*
%TD*%
D14*
%TO.C,Q13*%
X109680000Y-104850000D03*
X109680000Y-102950000D03*
X107800000Y-103900000D03*
%TD*%
D15*
%TO.C,C1*%
X105730000Y-104407500D03*
X105730000Y-102847500D03*
%TD*%
D16*
%TO.C,U5*%
X80512500Y-108765000D03*
X80512500Y-110035000D03*
X86887500Y-110035000D03*
X86887500Y-108765000D03*
%TD*%
D13*
%TO.C,D2*%
X93650000Y-105100000D03*
X91550000Y-105100000D03*
%TD*%
D17*
%TO.C,R15*%
X80600000Y-103580000D03*
X80600000Y-105220000D03*
%TD*%
D18*
%TO.C,X1*%
X84120000Y-101085000D03*
X86320000Y-101085000D03*
X86320000Y-99325000D03*
X84120000Y-99325000D03*
%TD*%
D19*
%TO.C,U6*%
X119587500Y-104535000D03*
X119587500Y-103265000D03*
X113212500Y-103265000D03*
X113212500Y-104535000D03*
%TD*%
D14*
%TO.C,Q15*%
X142040000Y-104950000D03*
X142040000Y-103050000D03*
X140160000Y-104000000D03*
%TD*%
%TO.C,Q16*%
X160040000Y-105250000D03*
X160040000Y-103350000D03*
X158160000Y-104300000D03*
%TD*%
D20*
%TO.C,U4*%
X166130000Y-97300000D03*
X166130000Y-95000000D03*
X166130000Y-92700000D03*
D21*
X160160000Y-94000000D03*
X160160000Y-95000000D03*
D22*
X160160000Y-95000000D03*
D21*
X160160000Y-96000000D03*
%TD*%
D23*
%TO.C,C2*%
X173300000Y-102140000D03*
X173300000Y-103700000D03*
%TD*%
D24*
%TO.C,H1*%
X82000000Y-92000000D03*
D25*
X82000000Y-92000000D03*
%TD*%
D26*
%TO.C,R24*%
X156000000Y-106520000D03*
X156000000Y-104880000D03*
%TD*%
D27*
%TO.C,Q12*%
X82920000Y-105050000D03*
X82920000Y-106950000D03*
X84800000Y-106000000D03*
%TD*%
D28*
%TO.C,R16*%
X81841478Y-103652050D03*
X83481478Y-103652050D03*
%TD*%
D29*
%TO.C,J2*%
X108950000Y-93038272D03*
X108950000Y-98078272D03*
X111490000Y-93038272D03*
X111490000Y-98078272D03*
X114030000Y-93038272D03*
X114030000Y-98078272D03*
X116570000Y-93038272D03*
X116570000Y-98078272D03*
X119110000Y-93038272D03*
X119110000Y-98078272D03*
X121650000Y-93038272D03*
X121650000Y-98078272D03*
X124190000Y-93038272D03*
X124190000Y-98078272D03*
X126730000Y-93038272D03*
X126730000Y-98078272D03*
X129270000Y-93038272D03*
X129270000Y-98078272D03*
X131810000Y-93038272D03*
X131810000Y-98078272D03*
X134350000Y-93038272D03*
X134350000Y-98078272D03*
X136890000Y-93038272D03*
X136890000Y-98078272D03*
X139430000Y-93038272D03*
X139430000Y-98078272D03*
X141970000Y-93038272D03*
X141970000Y-98078272D03*
X144510000Y-93038272D03*
X144510000Y-98078272D03*
X147050000Y-93038272D03*
X147050000Y-98078272D03*
%TD*%
D30*
%TO.C,C16*%
X168220000Y-92700000D03*
X169780000Y-92700000D03*
%TD*%
D17*
%TO.C,R25*%
X156000000Y-107780000D03*
X156000000Y-109420000D03*
%TD*%
D31*
%TO.C,R4*%
X96330000Y-104147500D03*
X96330000Y-105147500D03*
%TD*%
D32*
%TO.C,RELAY4*%
X141120000Y-107020000D03*
X141120000Y-117180000D03*
X141120000Y-124800000D03*
X148740000Y-124800000D03*
X148740000Y-107020000D03*
%TD*%
D26*
%TO.C,R30*%
X86900000Y-107120000D03*
X86900000Y-105480000D03*
%TD*%
D32*
%TO.C,RELAY2*%
X106620000Y-107020000D03*
X106620000Y-117180000D03*
X106620000Y-124800000D03*
X114240000Y-124800000D03*
X114240000Y-107020000D03*
%TD*%
D33*
%TO.C,H8*%
X177000000Y-89485000D03*
%TD*%
D34*
%TO.C,J3*%
X175895000Y-108220000D03*
D35*
X175895000Y-105680000D03*
X175895000Y-103140000D03*
X175895000Y-100600000D03*
%TD*%
D36*
%TO.C,R14*%
X87700000Y-95800000D03*
X86700000Y-95800000D03*
%TD*%
D17*
%TO.C,R29*%
X161700000Y-103580000D03*
X161700000Y-105220000D03*
%TD*%
D13*
%TO.C,D8*%
X165550000Y-104900000D03*
X163450000Y-104900000D03*
%TD*%
D23*
%TO.C,C3*%
X86620000Y-102625000D03*
X86620000Y-104185000D03*
%TD*%
D30*
%TO.C,C18*%
X168320000Y-95000000D03*
X169880000Y-95000000D03*
%TD*%
D33*
%TO.C,H7*%
X79000000Y-89500000D03*
%TD*%
D26*
%TO.C,R27*%
X167000000Y-103320000D03*
X167000000Y-101680000D03*
%TD*%
D19*
%TO.C,U8*%
X154287500Y-104535000D03*
X154287500Y-103265000D03*
X147912500Y-103265000D03*
X147912500Y-104535000D03*
%TD*%
D37*
%TO.C,D9*%
X99000000Y-110190000D03*
X99000000Y-108610000D03*
%TD*%
D38*
%TO.C,D3*%
X175375000Y-98005000D03*
X176955000Y-98005000D03*
%TD*%
D17*
%TO.C,R22*%
X138400000Y-105280000D03*
X138400000Y-106920000D03*
%TD*%
D26*
%TO.C,R21*%
X138400000Y-104120000D03*
X138400000Y-102480000D03*
%TD*%
D39*
%TO.C,R23*%
X127800000Y-103000000D03*
X126160000Y-103000000D03*
%TD*%
%TO.C,R19*%
X120320000Y-107700000D03*
X118680000Y-107700000D03*
%TD*%
D30*
%TO.C,C5*%
X83640000Y-102405000D03*
X85200000Y-102405000D03*
%TD*%
D14*
%TO.C,Q14*%
X124100000Y-105000000D03*
X124100000Y-103100000D03*
X122220000Y-104050000D03*
%TD*%
D33*
%TO.C,H9*%
X177000000Y-137000000D03*
%TD*%
D19*
%TO.C,U9*%
X164987500Y-101635000D03*
X164987500Y-100365000D03*
X158612500Y-100365000D03*
X158612500Y-101635000D03*
%TD*%
D40*
%TO.C,R1*%
X173200000Y-98285000D03*
X174200000Y-98285000D03*
%TD*%
D38*
%TO.C,D1*%
X83610000Y-96000000D03*
X85190000Y-96000000D03*
%TD*%
D17*
%TO.C,R17*%
X79200000Y-103580000D03*
X79200000Y-105220000D03*
%TD*%
D39*
%TO.C,R28*%
X165820000Y-103200000D03*
X164180000Y-103200000D03*
%TD*%
D41*
%TO.C,C4*%
X86000000Y-98005000D03*
X84440000Y-98005000D03*
%TD*%
D10*
%TO.C,CN3*%
X122700000Y-128450000D03*
X127700000Y-128450000D03*
X132700000Y-128450000D03*
%TD*%
D28*
%TO.C,R34*%
X167680000Y-110000000D03*
X169320000Y-110000000D03*
%TD*%
D32*
%TO.C,RELAY3*%
X123690000Y-107155000D03*
X123690000Y-117315000D03*
X123690000Y-124935000D03*
X131310000Y-124935000D03*
X131310000Y-107155000D03*
%TD*%
D36*
%TO.C,R6*%
X170600000Y-103900000D03*
X169600000Y-103900000D03*
%TD*%
D17*
%TO.C,R20*%
X111400000Y-103180000D03*
X111400000Y-104820000D03*
%TD*%
D28*
%TO.C,R32*%
X133280000Y-109800000D03*
X134920000Y-109800000D03*
%TD*%
D42*
%TO.C,D4*%
X104200000Y-110250000D03*
X104200000Y-108150000D03*
%TD*%
D39*
%TO.C,R26*%
X146320000Y-103000000D03*
X144680000Y-103000000D03*
%TD*%
D37*
%TO.C,D11*%
X133400000Y-108290000D03*
X133400000Y-106710000D03*
%TD*%
D28*
%TO.C,R33*%
X150580000Y-109800000D03*
X152220000Y-109800000D03*
%TD*%
D13*
%TO.C,D5*%
X127950000Y-104900000D03*
X125850000Y-104900000D03*
%TD*%
D35*
%TO.C,J5*%
X95140000Y-94200000D03*
X92600000Y-94200000D03*
D34*
X90060000Y-94200000D03*
%TD*%
D37*
%TO.C,D13*%
X168100000Y-108390000D03*
X168100000Y-106810000D03*
%TD*%
D43*
%TO.C,U1*%
X104450000Y-98275000D03*
X103800000Y-98275000D03*
X103150000Y-98275000D03*
X102500000Y-98275000D03*
X101850000Y-98275000D03*
X101200000Y-98275000D03*
X100550000Y-98275000D03*
X99900000Y-98275000D03*
X99250000Y-98275000D03*
X98600000Y-98275000D03*
X97950000Y-98275000D03*
X97300000Y-98275000D03*
X97300000Y-104000000D03*
X97950000Y-104000000D03*
X98600000Y-104000000D03*
X99250000Y-104000000D03*
X99900000Y-104000000D03*
X100550000Y-104000000D03*
X101200000Y-104000000D03*
X101850000Y-104000000D03*
X102500000Y-104000000D03*
X103150000Y-104000000D03*
X103800000Y-104000000D03*
X104450000Y-104000000D03*
%TD*%
D19*
%TO.C,U7*%
X136100000Y-104500000D03*
X136100000Y-103230000D03*
X129725000Y-103230000D03*
X129725000Y-104500000D03*
%TD*%
D37*
%TO.C,D12*%
X150800000Y-108180000D03*
X150800000Y-106600000D03*
%TD*%
%TO.C,D10*%
X116400000Y-107890000D03*
X116400000Y-106310000D03*
%TD*%
D10*
%TO.C,CN2*%
X105450000Y-128450000D03*
X110450000Y-128450000D03*
X115450000Y-128450000D03*
%TD*%
%TO.C,CN5*%
X157200000Y-128450000D03*
X162200000Y-128450000D03*
X167200000Y-128450000D03*
%TD*%
D32*
%TO.C,RELAY5*%
X158190000Y-107155000D03*
X158190000Y-117315000D03*
X158190000Y-124935000D03*
X165810000Y-124935000D03*
X165810000Y-107155000D03*
%TD*%
D12*
%TO.C,R10*%
X168300000Y-105200000D03*
X168300000Y-104200000D03*
%TD*%
D44*
%TO.C,S1*%
X81000000Y-97700000D03*
X81000000Y-101850000D03*
%TD*%
D28*
%TO.C,R31*%
X116180000Y-109900000D03*
X117820000Y-109900000D03*
%TD*%
D32*
%TO.C,RELAY1*%
X89190000Y-107155000D03*
X89190000Y-117315000D03*
X89190000Y-124935000D03*
X96810000Y-124935000D03*
X96810000Y-107155000D03*
%TD*%
D39*
%TO.C,R18*%
X120320000Y-106200000D03*
X118680000Y-106200000D03*
%TD*%
D10*
%TO.C,CN4*%
X139950000Y-128450000D03*
X144950000Y-128450000D03*
X149950000Y-128450000D03*
%TD*%
D45*
%TO.C,U2*%
X172110000Y-96890000D03*
X170840000Y-96890000D03*
X169560000Y-96890000D03*
X168290000Y-96890000D03*
X168290000Y-102310000D03*
X169560000Y-102310000D03*
X170840000Y-102310000D03*
X172110000Y-102310000D03*
%TD*%
M02*
