M48
; DRILL file KiCad 10.0.1 date 2026-05-13T09:28:10
; FORMAT={-:-/ absolute / inch / decimal}
; #@! TF.CreationDate,2026-05-13T09:28:10+02:00
; #@! TF.GenerationSoftware,Kicad,Pcbnew,10.0.1
; #@! TF.FileFunction,Plated,1,2,PTH
FMAT,2
INCH
; #@! TA.AperFunction,Plated,PTH,ViaDrill
T1C0.0118
; #@! TA.AperFunction,Plated,PTH,ComponentDrill
T2C0.0118
; #@! TA.AperFunction,Plated,PTH,ComponentDrill
T3C0.0374
; #@! TA.AperFunction,Plated,PTH,ComponentDrill
T4C0.0394
; #@! TA.AperFunction,Plated,PTH,ComponentDrill
T5C0.0600
; #@! TA.AperFunction,Plated,PTH,ComponentDrill
T6C0.1063
%
G90
G05
T1
X3.2205Y-4.0787
X3.2756Y-3.7717
X3.2992Y-3.8661
X3.3858Y-4.0787
X3.4094Y-4.1024
X3.4331Y-5.3228
X3.4567Y-3.9843
X3.5512Y-4.1654
X3.5669Y-3.9055
X3.5984Y-3.937
X3.622Y-4.2677
X3.6299Y-3.9606
X3.6535Y-3.9843
X3.685Y-4.0059
X3.685Y-4.0315
X3.811Y-4.1181
X3.811Y-4.1614
X3.8189Y-4.0551
X3.8291Y-3.9957
X3.8504Y-4.0551
X3.874Y-3.9055
X3.874Y-4.2126
X3.9449Y-4.0079
X4.0315Y-4.1339
X4.063Y-4.2126
X4.1102Y-4.1811
X4.1235Y-5.3228
X4.189Y-3.8504
X4.1969Y-4.0551
X4.2416Y-4.1654
X4.2598Y-4.0551
X4.3307Y-4.3071
X4.3346Y-3.6201
X4.3346Y-3.6811
X4.3346Y-3.7087
X4.3406Y-3.8583
X4.3465Y-4.0551
X4.3465Y-4.0866
X4.439Y-3.6181
X4.439Y-3.6811
X4.439Y-3.7126
X4.439Y-3.8583
X4.5118Y-4.189
X4.5374Y-3.8583
X4.5512Y-3.6811
X4.5512Y-3.7087
X4.5531Y-3.6122
X4.5644Y-4.2126
X4.6358Y-3.8583
X4.7343Y-3.8583
X4.7382Y-3.6181
X4.7382Y-3.7087
X4.7402Y-3.6772
X4.8139Y-5.3228
X4.8386Y-3.6201
X4.8386Y-3.6772
X4.8386Y-3.7087
X4.845Y-3.8608
X4.932Y-4.1654
X4.9409Y-3.622
X4.9409Y-3.6772
X4.9409Y-3.7087
X4.9434Y-3.8608
X5.1299Y-3.8622
X5.1378Y-3.6201
X5.1378Y-3.689
X5.1378Y-3.7126
X5.2126Y-4.2362
X5.2303Y-3.8602
X5.2382Y-3.624
X5.2382Y-3.689
X5.2402Y-3.7165
X5.2548Y-4.2126
X5.3307Y-3.8602
X5.3386Y-3.622
X5.3386Y-3.689
X5.3386Y-3.7205
X5.4272Y-3.8602
X5.5042Y-5.3228
X5.5295Y-3.8583
X5.6224Y-4.1654
X5.6299Y-3.8583
X5.6457Y-3.7047
X5.7343Y-3.8563
X5.8268Y-3.6811
X5.8268Y-3.7087
X5.8327Y-3.6201
X5.8346Y-3.8602
X5.9134Y-4.2362
X5.9452Y-4.2126
X6.1102Y-4.0866
X6.1946Y-5.3228
X6.1969Y-3.6457
X6.1969Y-4.0236
X6.2913Y-4.0236
X6.3127Y-4.1654
X6.5197Y-3.9213
X6.5669Y-3.9921
X6.6142Y-3.8189
X6.6299Y-3.8031
X6.6356Y-4.2126
X6.6457Y-3.7874
X6.6693Y-3.7717
X6.7317Y-3.9134
X6.7317Y-3.9685
X6.7317Y-4.0236
X6.7717Y-3.748
X6.7874Y-3.9055
X6.8088Y-4.0765
T2
X6.3055Y-3.7008
X6.3055Y-3.7402
X6.3055Y-3.7795
T3
X3.626Y-5.2187
X3.7244Y-5.2187
X3.8228Y-5.2187
X4.3164Y-5.2187
X4.4148Y-5.2187
X4.5132Y-5.2187
X5.0068Y-5.2187
X5.1052Y-5.2187
X5.2036Y-5.2187
X5.6972Y-5.2187
X5.7956Y-5.2187
X5.894Y-5.2187
X6.3875Y-5.2187
X6.486Y-5.2187
X6.5844Y-5.2187
T4
X3.5559Y-3.7008
X3.6559Y-3.7008
X3.7559Y-3.7008
X6.925Y-3.9606
X6.925Y-4.0606
X6.925Y-4.1606
X6.925Y-4.2606
T5
X3.4882Y-4.4803
X3.4882Y-4.9606
X3.7244Y-4.4016
X3.9606Y-4.4803
X3.9606Y-4.9606
X4.1786Y-4.4803
X4.1786Y-4.9606
X4.4148Y-4.4016
X4.651Y-4.4803
X4.651Y-4.9606
X4.869Y-4.4803
X4.869Y-4.9606
X5.1052Y-4.4016
X5.3414Y-4.4803
X5.3414Y-4.9606
X5.5594Y-4.4803
X5.5594Y-4.9606
X5.7956Y-4.4016
X6.0318Y-4.4803
X6.0318Y-4.9606
X6.2497Y-4.4803
X6.2497Y-4.9606
X6.486Y-4.4016
X6.7222Y-4.4803
X6.7222Y-4.9606
T6
X3.2283Y-3.622
M30
