%TF.GenerationSoftware,KiCad,Pcbnew,10.0.1*%
%TF.CreationDate,2026-05-15T22:30:41+02:00*%
%TF.ProjectId,MMS3_hat_relay,4d4d5333-5f68-4617-945f-72656c61792e,R0*%
%TF.SameCoordinates,Original*%
%TF.FileFunction,Legend,Top*%
%TF.FilePolarity,Positive*%
%FSLAX46Y46*%
G04 Gerber Fmt 4.6, Leading zero omitted, Abs format (unit mm)*
G04 Created by KiCad (PCBNEW 10.0.1) date 2026-05-15 22:30:41*
%MOMM*%
%LPD*%
G01*
G04 APERTURE LIST*
G04 Aperture macros list*
%AMRoundRect*
0 Rectangle with rounded corners*
0 $1 Rounding radius*
0 $2 $3 $4 $5 $6 $7 $8 $9 X,Y pos of 4 corners*
0 Add a 4 corners polygon primitive as box body*
4,1,4,$2,$3,$4,$5,$6,$7,$8,$9,$2,$3,0*
0 Add four circle primitives for the rounded corners*
1,1,$1+$1,$2,$3*
1,1,$1+$1,$4,$5*
1,1,$1+$1,$6,$7*
1,1,$1+$1,$8,$9*
0 Add four rect primitives between the rounded corners*
20,1,$1+$1,$2,$3,$4,$5,0*
20,1,$1+$1,$4,$5,$6,$7,0*
20,1,$1+$1,$6,$7,$8,$9,0*
20,1,$1+$1,$8,$9,$2,$3,0*%
G04 Aperture macros list end*
%ADD10C,0.150000*%
%ADD11C,0.100000*%
%ADD12C,0.200000*%
%ADD13C,0.500000*%
%ADD14C,0.060000*%
%ADD15C,0.250000*%
%ADD16C,0.120000*%
%ADD17C,0.127000*%
%ADD18C,2.500000*%
%ADD19RoundRect,0.100000X-0.640000X-0.100000X0.640000X-0.100000X0.640000X0.100000X-0.640000X0.100000X0*%
%ADD20RoundRect,0.159000X0.189000X-0.159000X0.189000X0.159000X-0.189000X0.159000X-0.189000X-0.159000X0*%
%ADD21RoundRect,0.131500X0.206500X0.131500X-0.206500X0.131500X-0.206500X-0.131500X0.206500X-0.131500X0*%
%ADD22RoundRect,0.150000X0.590000X0.150000X-0.590000X0.150000X-0.590000X-0.150000X0.590000X-0.150000X0*%
%ADD23RoundRect,0.244000X0.269000X-0.244000X0.269000X0.244000X-0.269000X0.244000X-0.269000X-0.244000X0*%
%ADD24RoundRect,0.150000X-0.662500X-0.150000X0.662500X-0.150000X0.662500X0.150000X-0.662500X0.150000X0*%
%ADD25RoundRect,0.219000X-0.294000X0.219000X-0.294000X-0.219000X0.294000X-0.219000X0.294000X0.219000X0*%
%ADD26RoundRect,0.250000X-0.450000X-0.350000X0.450000X-0.350000X0.450000X0.350000X-0.450000X0.350000X0*%
%ADD27RoundRect,0.150000X0.662500X0.150000X-0.662500X0.150000X-0.662500X-0.150000X0.662500X-0.150000X0*%
%ADD28RoundRect,0.250000X-1.000000X-0.300000X1.000000X-0.300000X1.000000X0.300000X-1.000000X0.300000X0*%
%ADD29C,0.500000*%
%ADD30RoundRect,0.250000X-0.920000X-1.550000X0.920000X-1.550000X0.920000X1.550000X-0.920000X1.550000X0*%
%ADD31RoundRect,0.244000X-0.269000X0.244000X-0.269000X-0.244000X0.269000X-0.244000X0.269000X0.244000X0*%
%ADD32C,3.100000*%
%ADD33C,4.700000*%
%ADD34RoundRect,0.219000X0.294000X-0.219000X0.294000X0.219000X-0.294000X0.219000X-0.294000X-0.219000X0*%
%ADD35RoundRect,0.150000X-0.590000X-0.150000X0.590000X-0.150000X0.590000X0.150000X-0.590000X0.150000X0*%
%ADD36RoundRect,0.219000X-0.219000X-0.294000X0.219000X-0.294000X0.219000X0.294000X-0.219000X0.294000X0*%
%ADD37R,1.000000X3.000000*%
%ADD38RoundRect,0.244000X-0.244000X-0.269000X0.244000X-0.269000X0.244000X0.269000X-0.244000X0.269000X0*%
%ADD39RoundRect,0.159000X-0.189000X0.159000X-0.189000X-0.159000X0.189000X-0.159000X0.189000X0.159000X0*%
%ADD40C,2.200000*%
%ADD41C,1.296000*%
%ADD42R,1.700000X1.700000*%
%ADD43C,1.700000*%
%ADD44RoundRect,0.159000X0.159000X0.189000X-0.159000X0.189000X-0.159000X-0.189000X0.159000X-0.189000X0*%
%ADD45RoundRect,0.239000X0.274000X-0.239000X0.274000X0.239000X-0.274000X0.239000X-0.274000X-0.239000X0*%
%ADD46RoundRect,0.239000X-0.239000X-0.274000X0.239000X-0.274000X0.239000X0.274000X-0.239000X0.274000X0*%
%ADD47C,2.700000*%
%ADD48RoundRect,0.219000X0.219000X0.294000X-0.219000X0.294000X-0.219000X-0.294000X0.219000X-0.294000X0*%
%ADD49RoundRect,0.159000X-0.159000X-0.189000X0.159000X-0.189000X0.159000X0.189000X-0.159000X0.189000X0*%
%ADD50RoundRect,0.244000X0.244000X0.269000X-0.244000X0.269000X-0.244000X-0.269000X0.244000X-0.269000X0*%
%ADD51RoundRect,0.131500X0.131500X-0.206500X0.131500X0.206500X-0.131500X0.206500X-0.131500X-0.206500X0*%
%ADD52RoundRect,0.100000X-0.100000X0.637500X-0.100000X-0.637500X0.100000X-0.637500X0.100000X0.637500X0*%
%ADD53RoundRect,0.287778X-0.714222X0.489222X-0.714222X-0.489222X0.714222X-0.489222X0.714222X0.489222X0*%
%ADD54O,0.570000X1.950000*%
G04 APERTURE END LIST*
D10*
X172954819Y-101438094D02*
X172954819Y-100819047D01*
X172954819Y-100819047D02*
X173335771Y-101152380D01*
X173335771Y-101152380D02*
X173335771Y-101009523D01*
X173335771Y-101009523D02*
X173383390Y-100914285D01*
X173383390Y-100914285D02*
X173431009Y-100866666D01*
X173431009Y-100866666D02*
X173526247Y-100819047D01*
X173526247Y-100819047D02*
X173764342Y-100819047D01*
X173764342Y-100819047D02*
X173859580Y-100866666D01*
X173859580Y-100866666D02*
X173907200Y-100914285D01*
X173907200Y-100914285D02*
X173954819Y-101009523D01*
X173954819Y-101009523D02*
X173954819Y-101295237D01*
X173954819Y-101295237D02*
X173907200Y-101390475D01*
X173907200Y-101390475D02*
X173859580Y-101438094D01*
X172954819Y-100533332D02*
X173954819Y-100199999D01*
X173954819Y-100199999D02*
X172954819Y-99866666D01*
X172954819Y-99628570D02*
X172954819Y-99009523D01*
X172954819Y-99009523D02*
X173335771Y-99342856D01*
X173335771Y-99342856D02*
X173335771Y-99199999D01*
X173335771Y-99199999D02*
X173383390Y-99104761D01*
X173383390Y-99104761D02*
X173431009Y-99057142D01*
X173431009Y-99057142D02*
X173526247Y-99009523D01*
X173526247Y-99009523D02*
X173764342Y-99009523D01*
X173764342Y-99009523D02*
X173859580Y-99057142D01*
X173859580Y-99057142D02*
X173907200Y-99104761D01*
X173907200Y-99104761D02*
X173954819Y-99199999D01*
X173954819Y-99199999D02*
X173954819Y-99485713D01*
X173954819Y-99485713D02*
X173907200Y-99580951D01*
X173907200Y-99580951D02*
X173859580Y-99628570D01*
X172407200Y-109914285D02*
X172454819Y-109771428D01*
X172454819Y-109771428D02*
X172454819Y-109533333D01*
X172454819Y-109533333D02*
X172407200Y-109438095D01*
X172407200Y-109438095D02*
X172359580Y-109390476D01*
X172359580Y-109390476D02*
X172264342Y-109342857D01*
X172264342Y-109342857D02*
X172169104Y-109342857D01*
X172169104Y-109342857D02*
X172073866Y-109390476D01*
X172073866Y-109390476D02*
X172026247Y-109438095D01*
X172026247Y-109438095D02*
X171978628Y-109533333D01*
X171978628Y-109533333D02*
X171931009Y-109723809D01*
X171931009Y-109723809D02*
X171883390Y-109819047D01*
X171883390Y-109819047D02*
X171835771Y-109866666D01*
X171835771Y-109866666D02*
X171740533Y-109914285D01*
X171740533Y-109914285D02*
X171645295Y-109914285D01*
X171645295Y-109914285D02*
X171550057Y-109866666D01*
X171550057Y-109866666D02*
X171502438Y-109819047D01*
X171502438Y-109819047D02*
X171454819Y-109723809D01*
X171454819Y-109723809D02*
X171454819Y-109485714D01*
X171454819Y-109485714D02*
X171502438Y-109342857D01*
X172454819Y-108914285D02*
X171454819Y-108914285D01*
X171454819Y-108914285D02*
X171454819Y-108676190D01*
X171454819Y-108676190D02*
X171502438Y-108533333D01*
X171502438Y-108533333D02*
X171597676Y-108438095D01*
X171597676Y-108438095D02*
X171692914Y-108390476D01*
X171692914Y-108390476D02*
X171883390Y-108342857D01*
X171883390Y-108342857D02*
X172026247Y-108342857D01*
X172026247Y-108342857D02*
X172216723Y-108390476D01*
X172216723Y-108390476D02*
X172311961Y-108438095D01*
X172311961Y-108438095D02*
X172407200Y-108533333D01*
X172407200Y-108533333D02*
X172454819Y-108676190D01*
X172454819Y-108676190D02*
X172454819Y-108914285D01*
X172169104Y-107961904D02*
X172169104Y-107485714D01*
X172454819Y-108057142D02*
X171454819Y-107723809D01*
X171454819Y-107723809D02*
X172454819Y-107390476D01*
D11*
X176800000Y-111000000D02*
X80200000Y-111000000D01*
D12*
X84462696Y-113745863D02*
X85462696Y-113745863D01*
X85462696Y-113745863D02*
X84748411Y-114045863D01*
X84748411Y-114045863D02*
X85462696Y-114345863D01*
X85462696Y-114345863D02*
X84462696Y-114345863D01*
X84462696Y-114774434D02*
X85462696Y-114774434D01*
X85462696Y-114774434D02*
X84748411Y-115074434D01*
X84748411Y-115074434D02*
X85462696Y-115374434D01*
X85462696Y-115374434D02*
X84462696Y-115374434D01*
X84510316Y-115760148D02*
X84462696Y-115888720D01*
X84462696Y-115888720D02*
X84462696Y-116103005D01*
X84462696Y-116103005D02*
X84510316Y-116188720D01*
X84510316Y-116188720D02*
X84557935Y-116231577D01*
X84557935Y-116231577D02*
X84653173Y-116274434D01*
X84653173Y-116274434D02*
X84748411Y-116274434D01*
X84748411Y-116274434D02*
X84843649Y-116231577D01*
X84843649Y-116231577D02*
X84891268Y-116188720D01*
X84891268Y-116188720D02*
X84938887Y-116103005D01*
X84938887Y-116103005D02*
X84986506Y-115931577D01*
X84986506Y-115931577D02*
X85034125Y-115845862D01*
X85034125Y-115845862D02*
X85081744Y-115803005D01*
X85081744Y-115803005D02*
X85176982Y-115760148D01*
X85176982Y-115760148D02*
X85272220Y-115760148D01*
X85272220Y-115760148D02*
X85367458Y-115803005D01*
X85367458Y-115803005D02*
X85415077Y-115845862D01*
X85415077Y-115845862D02*
X85462696Y-115931577D01*
X85462696Y-115931577D02*
X85462696Y-116145862D01*
X85462696Y-116145862D02*
X85415077Y-116274434D01*
X85462696Y-116574434D02*
X85462696Y-117131577D01*
X85462696Y-117131577D02*
X85081744Y-116831577D01*
X85081744Y-116831577D02*
X85081744Y-116960148D01*
X85081744Y-116960148D02*
X85034125Y-117045863D01*
X85034125Y-117045863D02*
X84986506Y-117088720D01*
X84986506Y-117088720D02*
X84891268Y-117131577D01*
X84891268Y-117131577D02*
X84653173Y-117131577D01*
X84653173Y-117131577D02*
X84557935Y-117088720D01*
X84557935Y-117088720D02*
X84510316Y-117045863D01*
X84510316Y-117045863D02*
X84462696Y-116960148D01*
X84462696Y-116960148D02*
X84462696Y-116703005D01*
X84462696Y-116703005D02*
X84510316Y-116617291D01*
X84510316Y-116617291D02*
X84557935Y-116574434D01*
X84462696Y-118203005D02*
X85462696Y-118203005D01*
X84986506Y-118203005D02*
X84986506Y-118717291D01*
X84462696Y-118717291D02*
X85462696Y-118717291D01*
X84462696Y-119531577D02*
X84986506Y-119531577D01*
X84986506Y-119531577D02*
X85081744Y-119488719D01*
X85081744Y-119488719D02*
X85129363Y-119403005D01*
X85129363Y-119403005D02*
X85129363Y-119231577D01*
X85129363Y-119231577D02*
X85081744Y-119145862D01*
X84510316Y-119531577D02*
X84462696Y-119445862D01*
X84462696Y-119445862D02*
X84462696Y-119231577D01*
X84462696Y-119231577D02*
X84510316Y-119145862D01*
X84510316Y-119145862D02*
X84605554Y-119103005D01*
X84605554Y-119103005D02*
X84700792Y-119103005D01*
X84700792Y-119103005D02*
X84796030Y-119145862D01*
X84796030Y-119145862D02*
X84843649Y-119231577D01*
X84843649Y-119231577D02*
X84843649Y-119445862D01*
X84843649Y-119445862D02*
X84891268Y-119531577D01*
X85129363Y-119831577D02*
X85129363Y-120174434D01*
X85462696Y-119960148D02*
X84605554Y-119960148D01*
X84605554Y-119960148D02*
X84510316Y-120003005D01*
X84510316Y-120003005D02*
X84462696Y-120088720D01*
X84462696Y-120088720D02*
X84462696Y-120174434D01*
X84462696Y-121160148D02*
X85129363Y-121160148D01*
X84938887Y-121160148D02*
X85034125Y-121203005D01*
X85034125Y-121203005D02*
X85081744Y-121245863D01*
X85081744Y-121245863D02*
X85129363Y-121331577D01*
X85129363Y-121331577D02*
X85129363Y-121417291D01*
X84510316Y-122060148D02*
X84462696Y-121974434D01*
X84462696Y-121974434D02*
X84462696Y-121803006D01*
X84462696Y-121803006D02*
X84510316Y-121717291D01*
X84510316Y-121717291D02*
X84605554Y-121674434D01*
X84605554Y-121674434D02*
X84986506Y-121674434D01*
X84986506Y-121674434D02*
X85081744Y-121717291D01*
X85081744Y-121717291D02*
X85129363Y-121803006D01*
X85129363Y-121803006D02*
X85129363Y-121974434D01*
X85129363Y-121974434D02*
X85081744Y-122060148D01*
X85081744Y-122060148D02*
X84986506Y-122103006D01*
X84986506Y-122103006D02*
X84891268Y-122103006D01*
X84891268Y-122103006D02*
X84796030Y-121674434D01*
X84462696Y-122617292D02*
X84510316Y-122531577D01*
X84510316Y-122531577D02*
X84605554Y-122488720D01*
X84605554Y-122488720D02*
X85462696Y-122488720D01*
X84462696Y-123345864D02*
X84986506Y-123345864D01*
X84986506Y-123345864D02*
X85081744Y-123303006D01*
X85081744Y-123303006D02*
X85129363Y-123217292D01*
X85129363Y-123217292D02*
X85129363Y-123045864D01*
X85129363Y-123045864D02*
X85081744Y-122960149D01*
X84510316Y-123345864D02*
X84462696Y-123260149D01*
X84462696Y-123260149D02*
X84462696Y-123045864D01*
X84462696Y-123045864D02*
X84510316Y-122960149D01*
X84510316Y-122960149D02*
X84605554Y-122917292D01*
X84605554Y-122917292D02*
X84700792Y-122917292D01*
X84700792Y-122917292D02*
X84796030Y-122960149D01*
X84796030Y-122960149D02*
X84843649Y-123045864D01*
X84843649Y-123045864D02*
X84843649Y-123260149D01*
X84843649Y-123260149D02*
X84891268Y-123345864D01*
X85129363Y-123688721D02*
X84462696Y-123903007D01*
X85129363Y-124117292D02*
X84462696Y-123903007D01*
X84462696Y-123903007D02*
X84224601Y-123817292D01*
X84224601Y-123817292D02*
X84176982Y-123774435D01*
X84176982Y-123774435D02*
X84129363Y-123688721D01*
X83852752Y-113617292D02*
X82852752Y-113917292D01*
X82852752Y-113917292D02*
X83852752Y-114217292D01*
X82900372Y-114860149D02*
X82852752Y-114774435D01*
X82852752Y-114774435D02*
X82852752Y-114603007D01*
X82852752Y-114603007D02*
X82900372Y-114517292D01*
X82900372Y-114517292D02*
X82995610Y-114474435D01*
X82995610Y-114474435D02*
X83376562Y-114474435D01*
X83376562Y-114474435D02*
X83471800Y-114517292D01*
X83471800Y-114517292D02*
X83519419Y-114603007D01*
X83519419Y-114603007D02*
X83519419Y-114774435D01*
X83519419Y-114774435D02*
X83471800Y-114860149D01*
X83471800Y-114860149D02*
X83376562Y-114903007D01*
X83376562Y-114903007D02*
X83281324Y-114903007D01*
X83281324Y-114903007D02*
X83186086Y-114474435D01*
X82852752Y-115288721D02*
X83519419Y-115288721D01*
X83328943Y-115288721D02*
X83424181Y-115331578D01*
X83424181Y-115331578D02*
X83471800Y-115374436D01*
X83471800Y-115374436D02*
X83519419Y-115460150D01*
X83519419Y-115460150D02*
X83519419Y-115545864D01*
X82900372Y-115803007D02*
X82852752Y-115888721D01*
X82852752Y-115888721D02*
X82852752Y-116060150D01*
X82852752Y-116060150D02*
X82900372Y-116145864D01*
X82900372Y-116145864D02*
X82995610Y-116188721D01*
X82995610Y-116188721D02*
X83043229Y-116188721D01*
X83043229Y-116188721D02*
X83138467Y-116145864D01*
X83138467Y-116145864D02*
X83186086Y-116060150D01*
X83186086Y-116060150D02*
X83186086Y-115931579D01*
X83186086Y-115931579D02*
X83233705Y-115845864D01*
X83233705Y-115845864D02*
X83328943Y-115803007D01*
X83328943Y-115803007D02*
X83376562Y-115803007D01*
X83376562Y-115803007D02*
X83471800Y-115845864D01*
X83471800Y-115845864D02*
X83519419Y-115931579D01*
X83519419Y-115931579D02*
X83519419Y-116060150D01*
X83519419Y-116060150D02*
X83471800Y-116145864D01*
X82852752Y-116574435D02*
X83519419Y-116574435D01*
X83852752Y-116574435D02*
X83805133Y-116531578D01*
X83805133Y-116531578D02*
X83757514Y-116574435D01*
X83757514Y-116574435D02*
X83805133Y-116617292D01*
X83805133Y-116617292D02*
X83852752Y-116574435D01*
X83852752Y-116574435D02*
X83757514Y-116574435D01*
X82852752Y-117131578D02*
X82900372Y-117045863D01*
X82900372Y-117045863D02*
X82947991Y-117003006D01*
X82947991Y-117003006D02*
X83043229Y-116960149D01*
X83043229Y-116960149D02*
X83328943Y-116960149D01*
X83328943Y-116960149D02*
X83424181Y-117003006D01*
X83424181Y-117003006D02*
X83471800Y-117045863D01*
X83471800Y-117045863D02*
X83519419Y-117131578D01*
X83519419Y-117131578D02*
X83519419Y-117260149D01*
X83519419Y-117260149D02*
X83471800Y-117345863D01*
X83471800Y-117345863D02*
X83424181Y-117388721D01*
X83424181Y-117388721D02*
X83328943Y-117431578D01*
X83328943Y-117431578D02*
X83043229Y-117431578D01*
X83043229Y-117431578D02*
X82947991Y-117388721D01*
X82947991Y-117388721D02*
X82900372Y-117345863D01*
X82900372Y-117345863D02*
X82852752Y-117260149D01*
X82852752Y-117260149D02*
X82852752Y-117131578D01*
X83519419Y-117817292D02*
X82852752Y-117817292D01*
X83424181Y-117817292D02*
X83471800Y-117860149D01*
X83471800Y-117860149D02*
X83519419Y-117945864D01*
X83519419Y-117945864D02*
X83519419Y-118074435D01*
X83519419Y-118074435D02*
X83471800Y-118160149D01*
X83471800Y-118160149D02*
X83376562Y-118203007D01*
X83376562Y-118203007D02*
X82852752Y-118203007D01*
X82852752Y-119788721D02*
X82852752Y-119274435D01*
X82852752Y-119531578D02*
X83852752Y-119531578D01*
X83852752Y-119531578D02*
X83709895Y-119445864D01*
X83709895Y-119445864D02*
X83614657Y-119360149D01*
X83614657Y-119360149D02*
X83567038Y-119274435D01*
X82947991Y-120174435D02*
X82900372Y-120217292D01*
X82900372Y-120217292D02*
X82852752Y-120174435D01*
X82852752Y-120174435D02*
X82900372Y-120131578D01*
X82900372Y-120131578D02*
X82947991Y-120174435D01*
X82947991Y-120174435D02*
X82852752Y-120174435D01*
X83852752Y-120774435D02*
X83852752Y-120860149D01*
X83852752Y-120860149D02*
X83805133Y-120945863D01*
X83805133Y-120945863D02*
X83757514Y-120988721D01*
X83757514Y-120988721D02*
X83662276Y-121031578D01*
X83662276Y-121031578D02*
X83471800Y-121074435D01*
X83471800Y-121074435D02*
X83233705Y-121074435D01*
X83233705Y-121074435D02*
X83043229Y-121031578D01*
X83043229Y-121031578D02*
X82947991Y-120988721D01*
X82947991Y-120988721D02*
X82900372Y-120945863D01*
X82900372Y-120945863D02*
X82852752Y-120860149D01*
X82852752Y-120860149D02*
X82852752Y-120774435D01*
X82852752Y-120774435D02*
X82900372Y-120688721D01*
X82900372Y-120688721D02*
X82947991Y-120645863D01*
X82947991Y-120645863D02*
X83043229Y-120603006D01*
X83043229Y-120603006D02*
X83233705Y-120560149D01*
X83233705Y-120560149D02*
X83471800Y-120560149D01*
X83471800Y-120560149D02*
X83662276Y-120603006D01*
X83662276Y-120603006D02*
X83757514Y-120645863D01*
X83757514Y-120645863D02*
X83805133Y-120688721D01*
X83805133Y-120688721D02*
X83852752Y-120774435D01*
X81242808Y-113745863D02*
X82242808Y-113745863D01*
X82242808Y-113745863D02*
X81528523Y-114045863D01*
X81528523Y-114045863D02*
X82242808Y-114345863D01*
X82242808Y-114345863D02*
X81242808Y-114345863D01*
X81242808Y-115160149D02*
X81766618Y-115160149D01*
X81766618Y-115160149D02*
X81861856Y-115117291D01*
X81861856Y-115117291D02*
X81909475Y-115031577D01*
X81909475Y-115031577D02*
X81909475Y-114860149D01*
X81909475Y-114860149D02*
X81861856Y-114774434D01*
X81290428Y-115160149D02*
X81242808Y-115074434D01*
X81242808Y-115074434D02*
X81242808Y-114860149D01*
X81242808Y-114860149D02*
X81290428Y-114774434D01*
X81290428Y-114774434D02*
X81385666Y-114731577D01*
X81385666Y-114731577D02*
X81480904Y-114731577D01*
X81480904Y-114731577D02*
X81576142Y-114774434D01*
X81576142Y-114774434D02*
X81623761Y-114860149D01*
X81623761Y-114860149D02*
X81623761Y-115074434D01*
X81623761Y-115074434D02*
X81671380Y-115160149D01*
X81242808Y-115974435D02*
X82242808Y-115974435D01*
X81290428Y-115974435D02*
X81242808Y-115888720D01*
X81242808Y-115888720D02*
X81242808Y-115717292D01*
X81242808Y-115717292D02*
X81290428Y-115631577D01*
X81290428Y-115631577D02*
X81338047Y-115588720D01*
X81338047Y-115588720D02*
X81433285Y-115545863D01*
X81433285Y-115545863D02*
X81718999Y-115545863D01*
X81718999Y-115545863D02*
X81814237Y-115588720D01*
X81814237Y-115588720D02*
X81861856Y-115631577D01*
X81861856Y-115631577D02*
X81909475Y-115717292D01*
X81909475Y-115717292D02*
X81909475Y-115888720D01*
X81909475Y-115888720D02*
X81861856Y-115974435D01*
X81290428Y-116745863D02*
X81242808Y-116660149D01*
X81242808Y-116660149D02*
X81242808Y-116488721D01*
X81242808Y-116488721D02*
X81290428Y-116403006D01*
X81290428Y-116403006D02*
X81385666Y-116360149D01*
X81385666Y-116360149D02*
X81766618Y-116360149D01*
X81766618Y-116360149D02*
X81861856Y-116403006D01*
X81861856Y-116403006D02*
X81909475Y-116488721D01*
X81909475Y-116488721D02*
X81909475Y-116660149D01*
X81909475Y-116660149D02*
X81861856Y-116745863D01*
X81861856Y-116745863D02*
X81766618Y-116788721D01*
X81766618Y-116788721D02*
X81671380Y-116788721D01*
X81671380Y-116788721D02*
X81576142Y-116360149D01*
X81242808Y-117860149D02*
X82242808Y-117860149D01*
X81861856Y-117860149D02*
X81909475Y-117945864D01*
X81909475Y-117945864D02*
X81909475Y-118117292D01*
X81909475Y-118117292D02*
X81861856Y-118203006D01*
X81861856Y-118203006D02*
X81814237Y-118245864D01*
X81814237Y-118245864D02*
X81718999Y-118288721D01*
X81718999Y-118288721D02*
X81433285Y-118288721D01*
X81433285Y-118288721D02*
X81338047Y-118245864D01*
X81338047Y-118245864D02*
X81290428Y-118203006D01*
X81290428Y-118203006D02*
X81242808Y-118117292D01*
X81242808Y-118117292D02*
X81242808Y-117945864D01*
X81242808Y-117945864D02*
X81290428Y-117860149D01*
X81909475Y-118588721D02*
X81242808Y-118803007D01*
X81909475Y-119017292D02*
X81242808Y-118803007D01*
X81242808Y-118803007D02*
X81004713Y-118717292D01*
X81004713Y-118717292D02*
X80957094Y-118674435D01*
X80957094Y-118674435D02*
X80909475Y-118588721D01*
X80632864Y-113660149D02*
X79632864Y-113874435D01*
X79632864Y-113874435D02*
X80347150Y-114045863D01*
X80347150Y-114045863D02*
X79632864Y-114217292D01*
X79632864Y-114217292D02*
X80632864Y-114431578D01*
X79632864Y-114903006D02*
X79680484Y-114817291D01*
X79680484Y-114817291D02*
X79728103Y-114774434D01*
X79728103Y-114774434D02*
X79823341Y-114731577D01*
X79823341Y-114731577D02*
X80109055Y-114731577D01*
X80109055Y-114731577D02*
X80204293Y-114774434D01*
X80204293Y-114774434D02*
X80251912Y-114817291D01*
X80251912Y-114817291D02*
X80299531Y-114903006D01*
X80299531Y-114903006D02*
X80299531Y-115031577D01*
X80299531Y-115031577D02*
X80251912Y-115117291D01*
X80251912Y-115117291D02*
X80204293Y-115160149D01*
X80204293Y-115160149D02*
X80109055Y-115203006D01*
X80109055Y-115203006D02*
X79823341Y-115203006D01*
X79823341Y-115203006D02*
X79728103Y-115160149D01*
X79728103Y-115160149D02*
X79680484Y-115117291D01*
X79680484Y-115117291D02*
X79632864Y-115031577D01*
X79632864Y-115031577D02*
X79632864Y-114903006D01*
X80299531Y-115588720D02*
X79442388Y-115588720D01*
X79442388Y-115588720D02*
X79347150Y-115545863D01*
X79347150Y-115545863D02*
X79299531Y-115460149D01*
X79299531Y-115460149D02*
X79299531Y-115417292D01*
X80632864Y-115588720D02*
X80585245Y-115545863D01*
X80585245Y-115545863D02*
X80537626Y-115588720D01*
X80537626Y-115588720D02*
X80585245Y-115631577D01*
X80585245Y-115631577D02*
X80632864Y-115588720D01*
X80632864Y-115588720D02*
X80537626Y-115588720D01*
X79680484Y-116403006D02*
X79632864Y-116317291D01*
X79632864Y-116317291D02*
X79632864Y-116145863D01*
X79632864Y-116145863D02*
X79680484Y-116060148D01*
X79680484Y-116060148D02*
X79728103Y-116017291D01*
X79728103Y-116017291D02*
X79823341Y-115974434D01*
X79823341Y-115974434D02*
X80109055Y-115974434D01*
X80109055Y-115974434D02*
X80204293Y-116017291D01*
X80204293Y-116017291D02*
X80251912Y-116060148D01*
X80251912Y-116060148D02*
X80299531Y-116145863D01*
X80299531Y-116145863D02*
X80299531Y-116317291D01*
X80299531Y-116317291D02*
X80251912Y-116403006D01*
X79632864Y-116788720D02*
X80299531Y-116788720D01*
X80632864Y-116788720D02*
X80585245Y-116745863D01*
X80585245Y-116745863D02*
X80537626Y-116788720D01*
X80537626Y-116788720D02*
X80585245Y-116831577D01*
X80585245Y-116831577D02*
X80632864Y-116788720D01*
X80632864Y-116788720D02*
X80537626Y-116788720D01*
X79680484Y-117560148D02*
X79632864Y-117474434D01*
X79632864Y-117474434D02*
X79632864Y-117303006D01*
X79632864Y-117303006D02*
X79680484Y-117217291D01*
X79680484Y-117217291D02*
X79775722Y-117174434D01*
X79775722Y-117174434D02*
X80156674Y-117174434D01*
X80156674Y-117174434D02*
X80251912Y-117217291D01*
X80251912Y-117217291D02*
X80299531Y-117303006D01*
X80299531Y-117303006D02*
X80299531Y-117474434D01*
X80299531Y-117474434D02*
X80251912Y-117560148D01*
X80251912Y-117560148D02*
X80156674Y-117603006D01*
X80156674Y-117603006D02*
X80061436Y-117603006D01*
X80061436Y-117603006D02*
X79966198Y-117174434D01*
X79680484Y-118374435D02*
X79632864Y-118288720D01*
X79632864Y-118288720D02*
X79632864Y-118117292D01*
X79632864Y-118117292D02*
X79680484Y-118031577D01*
X79680484Y-118031577D02*
X79728103Y-117988720D01*
X79728103Y-117988720D02*
X79823341Y-117945863D01*
X79823341Y-117945863D02*
X80109055Y-117945863D01*
X80109055Y-117945863D02*
X80204293Y-117988720D01*
X80204293Y-117988720D02*
X80251912Y-118031577D01*
X80251912Y-118031577D02*
X80299531Y-118117292D01*
X80299531Y-118117292D02*
X80299531Y-118288720D01*
X80299531Y-118288720D02*
X80251912Y-118374435D01*
X79632864Y-118760149D02*
X80632864Y-118760149D01*
X79632864Y-119145864D02*
X80156674Y-119145864D01*
X80156674Y-119145864D02*
X80251912Y-119103006D01*
X80251912Y-119103006D02*
X80299531Y-119017292D01*
X80299531Y-119017292D02*
X80299531Y-118888721D01*
X80299531Y-118888721D02*
X80251912Y-118803006D01*
X80251912Y-118803006D02*
X80204293Y-118760149D01*
X79680484Y-120217292D02*
X79632864Y-120345864D01*
X79632864Y-120345864D02*
X79632864Y-120560149D01*
X79632864Y-120560149D02*
X79680484Y-120645864D01*
X79680484Y-120645864D02*
X79728103Y-120688721D01*
X79728103Y-120688721D02*
X79823341Y-120731578D01*
X79823341Y-120731578D02*
X79918579Y-120731578D01*
X79918579Y-120731578D02*
X80013817Y-120688721D01*
X80013817Y-120688721D02*
X80061436Y-120645864D01*
X80061436Y-120645864D02*
X80109055Y-120560149D01*
X80109055Y-120560149D02*
X80156674Y-120388721D01*
X80156674Y-120388721D02*
X80204293Y-120303006D01*
X80204293Y-120303006D02*
X80251912Y-120260149D01*
X80251912Y-120260149D02*
X80347150Y-120217292D01*
X80347150Y-120217292D02*
X80442388Y-120217292D01*
X80442388Y-120217292D02*
X80537626Y-120260149D01*
X80537626Y-120260149D02*
X80585245Y-120303006D01*
X80585245Y-120303006D02*
X80632864Y-120388721D01*
X80632864Y-120388721D02*
X80632864Y-120603006D01*
X80632864Y-120603006D02*
X80585245Y-120731578D01*
X80299531Y-121031578D02*
X80299531Y-121503007D01*
X80299531Y-121503007D02*
X79632864Y-121031578D01*
X79632864Y-121031578D02*
X79632864Y-121503007D01*
X79632864Y-122231578D02*
X80156674Y-122231578D01*
X80156674Y-122231578D02*
X80251912Y-122188720D01*
X80251912Y-122188720D02*
X80299531Y-122103006D01*
X80299531Y-122103006D02*
X80299531Y-121931578D01*
X80299531Y-121931578D02*
X80251912Y-121845863D01*
X79680484Y-122231578D02*
X79632864Y-122145863D01*
X79632864Y-122145863D02*
X79632864Y-121931578D01*
X79632864Y-121931578D02*
X79680484Y-121845863D01*
X79680484Y-121845863D02*
X79775722Y-121803006D01*
X79775722Y-121803006D02*
X79870960Y-121803006D01*
X79870960Y-121803006D02*
X79966198Y-121845863D01*
X79966198Y-121845863D02*
X80013817Y-121931578D01*
X80013817Y-121931578D02*
X80013817Y-122145863D01*
X80013817Y-122145863D02*
X80061436Y-122231578D01*
X80299531Y-122531578D02*
X80299531Y-122874435D01*
X79632864Y-122660149D02*
X80490007Y-122660149D01*
X80490007Y-122660149D02*
X80585245Y-122703006D01*
X80585245Y-122703006D02*
X80632864Y-122788721D01*
X80632864Y-122788721D02*
X80632864Y-122874435D01*
X79632864Y-123174435D02*
X80299531Y-123174435D01*
X80109055Y-123174435D02*
X80204293Y-123217292D01*
X80204293Y-123217292D02*
X80251912Y-123260150D01*
X80251912Y-123260150D02*
X80299531Y-123345864D01*
X80299531Y-123345864D02*
X80299531Y-123431578D01*
X79632864Y-124117293D02*
X80156674Y-124117293D01*
X80156674Y-124117293D02*
X80251912Y-124074435D01*
X80251912Y-124074435D02*
X80299531Y-123988721D01*
X80299531Y-123988721D02*
X80299531Y-123817293D01*
X80299531Y-123817293D02*
X80251912Y-123731578D01*
X79680484Y-124117293D02*
X79632864Y-124031578D01*
X79632864Y-124031578D02*
X79632864Y-123817293D01*
X79632864Y-123817293D02*
X79680484Y-123731578D01*
X79680484Y-123731578D02*
X79775722Y-123688721D01*
X79775722Y-123688721D02*
X79870960Y-123688721D01*
X79870960Y-123688721D02*
X79966198Y-123731578D01*
X79966198Y-123731578D02*
X80013817Y-123817293D01*
X80013817Y-123817293D02*
X80013817Y-124031578D01*
X80013817Y-124031578D02*
X80061436Y-124117293D01*
X80299531Y-124545864D02*
X79632864Y-124545864D01*
X80204293Y-124545864D02*
X80251912Y-124588721D01*
X80251912Y-124588721D02*
X80299531Y-124674436D01*
X80299531Y-124674436D02*
X80299531Y-124803007D01*
X80299531Y-124803007D02*
X80251912Y-124888721D01*
X80251912Y-124888721D02*
X80156674Y-124931579D01*
X80156674Y-124931579D02*
X79632864Y-124931579D01*
X80680484Y-124803007D02*
X80537626Y-124674436D01*
X79680484Y-125317293D02*
X79632864Y-125403007D01*
X79632864Y-125403007D02*
X79632864Y-125574436D01*
X79632864Y-125574436D02*
X79680484Y-125660150D01*
X79680484Y-125660150D02*
X79775722Y-125703007D01*
X79775722Y-125703007D02*
X79823341Y-125703007D01*
X79823341Y-125703007D02*
X79918579Y-125660150D01*
X79918579Y-125660150D02*
X79966198Y-125574436D01*
X79966198Y-125574436D02*
X79966198Y-125445865D01*
X79966198Y-125445865D02*
X80013817Y-125360150D01*
X80013817Y-125360150D02*
X80109055Y-125317293D01*
X80109055Y-125317293D02*
X80156674Y-125317293D01*
X80156674Y-125317293D02*
X80251912Y-125360150D01*
X80251912Y-125360150D02*
X80299531Y-125445865D01*
X80299531Y-125445865D02*
X80299531Y-125574436D01*
X80299531Y-125574436D02*
X80251912Y-125660150D01*
X79632864Y-126088721D02*
X80632864Y-126088721D01*
X80013817Y-126174436D02*
X79632864Y-126431578D01*
X80299531Y-126431578D02*
X79918579Y-126088721D01*
X79632864Y-126817292D02*
X80299531Y-126817292D01*
X80632864Y-126817292D02*
X80585245Y-126774435D01*
X80585245Y-126774435D02*
X80537626Y-126817292D01*
X80537626Y-126817292D02*
X80585245Y-126860149D01*
X80585245Y-126860149D02*
X80632864Y-126817292D01*
X80632864Y-126817292D02*
X80537626Y-126817292D01*
D10*
X173877200Y-107190475D02*
X173924819Y-107047618D01*
X173924819Y-107047618D02*
X173924819Y-106809523D01*
X173924819Y-106809523D02*
X173877200Y-106714285D01*
X173877200Y-106714285D02*
X173829580Y-106666666D01*
X173829580Y-106666666D02*
X173734342Y-106619047D01*
X173734342Y-106619047D02*
X173639104Y-106619047D01*
X173639104Y-106619047D02*
X173543866Y-106666666D01*
X173543866Y-106666666D02*
X173496247Y-106714285D01*
X173496247Y-106714285D02*
X173448628Y-106809523D01*
X173448628Y-106809523D02*
X173401009Y-106999999D01*
X173401009Y-106999999D02*
X173353390Y-107095237D01*
X173353390Y-107095237D02*
X173305771Y-107142856D01*
X173305771Y-107142856D02*
X173210533Y-107190475D01*
X173210533Y-107190475D02*
X173115295Y-107190475D01*
X173115295Y-107190475D02*
X173020057Y-107142856D01*
X173020057Y-107142856D02*
X172972438Y-107095237D01*
X172972438Y-107095237D02*
X172924819Y-106999999D01*
X172924819Y-106999999D02*
X172924819Y-106761904D01*
X172924819Y-106761904D02*
X172972438Y-106619047D01*
X173829580Y-105619047D02*
X173877200Y-105666666D01*
X173877200Y-105666666D02*
X173924819Y-105809523D01*
X173924819Y-105809523D02*
X173924819Y-105904761D01*
X173924819Y-105904761D02*
X173877200Y-106047618D01*
X173877200Y-106047618D02*
X173781961Y-106142856D01*
X173781961Y-106142856D02*
X173686723Y-106190475D01*
X173686723Y-106190475D02*
X173496247Y-106238094D01*
X173496247Y-106238094D02*
X173353390Y-106238094D01*
X173353390Y-106238094D02*
X173162914Y-106190475D01*
X173162914Y-106190475D02*
X173067676Y-106142856D01*
X173067676Y-106142856D02*
X172972438Y-106047618D01*
X172972438Y-106047618D02*
X172924819Y-105904761D01*
X172924819Y-105904761D02*
X172924819Y-105809523D01*
X172924819Y-105809523D02*
X172972438Y-105666666D01*
X172972438Y-105666666D02*
X173020057Y-105619047D01*
X173924819Y-104714285D02*
X173924819Y-105190475D01*
X173924819Y-105190475D02*
X172924819Y-105190475D01*
X85609523Y-125659580D02*
X85561904Y-125707200D01*
X85561904Y-125707200D02*
X85419047Y-125754819D01*
X85419047Y-125754819D02*
X85323809Y-125754819D01*
X85323809Y-125754819D02*
X85180952Y-125707200D01*
X85180952Y-125707200D02*
X85085714Y-125611961D01*
X85085714Y-125611961D02*
X85038095Y-125516723D01*
X85038095Y-125516723D02*
X84990476Y-125326247D01*
X84990476Y-125326247D02*
X84990476Y-125183390D01*
X84990476Y-125183390D02*
X85038095Y-124992914D01*
X85038095Y-124992914D02*
X85085714Y-124897676D01*
X85085714Y-124897676D02*
X85180952Y-124802438D01*
X85180952Y-124802438D02*
X85323809Y-124754819D01*
X85323809Y-124754819D02*
X85419047Y-124754819D01*
X85419047Y-124754819D02*
X85561904Y-124802438D01*
X85561904Y-124802438D02*
X85609523Y-124850057D01*
X86038095Y-125754819D02*
X86038095Y-124754819D01*
X86038095Y-124754819D02*
X86609523Y-125754819D01*
X86609523Y-125754819D02*
X86609523Y-124754819D01*
X87609523Y-125754819D02*
X87038095Y-125754819D01*
X87323809Y-125754819D02*
X87323809Y-124754819D01*
X87323809Y-124754819D02*
X87228571Y-124897676D01*
X87228571Y-124897676D02*
X87133333Y-124992914D01*
X87133333Y-124992914D02*
X87038095Y-125040533D01*
X84438095Y-90154819D02*
X84438095Y-89154819D01*
X84438095Y-89631009D02*
X85009523Y-89631009D01*
X85009523Y-90154819D02*
X85009523Y-89154819D01*
X86009523Y-90154819D02*
X85438095Y-90154819D01*
X85723809Y-90154819D02*
X85723809Y-89154819D01*
X85723809Y-89154819D02*
X85628571Y-89297676D01*
X85628571Y-89297676D02*
X85533333Y-89392914D01*
X85533333Y-89392914D02*
X85438095Y-89440533D01*
X139354819Y-117580952D02*
X138878628Y-117914285D01*
X139354819Y-118152380D02*
X138354819Y-118152380D01*
X138354819Y-118152380D02*
X138354819Y-117771428D01*
X138354819Y-117771428D02*
X138402438Y-117676190D01*
X138402438Y-117676190D02*
X138450057Y-117628571D01*
X138450057Y-117628571D02*
X138545295Y-117580952D01*
X138545295Y-117580952D02*
X138688152Y-117580952D01*
X138688152Y-117580952D02*
X138783390Y-117628571D01*
X138783390Y-117628571D02*
X138831009Y-117676190D01*
X138831009Y-117676190D02*
X138878628Y-117771428D01*
X138878628Y-117771428D02*
X138878628Y-118152380D01*
X138831009Y-117152380D02*
X138831009Y-116819047D01*
X139354819Y-116676190D02*
X139354819Y-117152380D01*
X139354819Y-117152380D02*
X138354819Y-117152380D01*
X138354819Y-117152380D02*
X138354819Y-116676190D01*
X139354819Y-115771428D02*
X139354819Y-116247618D01*
X139354819Y-116247618D02*
X138354819Y-116247618D01*
X139069104Y-115485713D02*
X139069104Y-115009523D01*
X139354819Y-115580951D02*
X138354819Y-115247618D01*
X138354819Y-115247618D02*
X139354819Y-114914285D01*
X138878628Y-114390475D02*
X139354819Y-114390475D01*
X138354819Y-114723808D02*
X138878628Y-114390475D01*
X138878628Y-114390475D02*
X138354819Y-114057142D01*
X138688152Y-113295237D02*
X139354819Y-113295237D01*
X138307200Y-113533332D02*
X139021485Y-113771427D01*
X139021485Y-113771427D02*
X139021485Y-113152380D01*
X104554819Y-117480952D02*
X104078628Y-117814285D01*
X104554819Y-118052380D02*
X103554819Y-118052380D01*
X103554819Y-118052380D02*
X103554819Y-117671428D01*
X103554819Y-117671428D02*
X103602438Y-117576190D01*
X103602438Y-117576190D02*
X103650057Y-117528571D01*
X103650057Y-117528571D02*
X103745295Y-117480952D01*
X103745295Y-117480952D02*
X103888152Y-117480952D01*
X103888152Y-117480952D02*
X103983390Y-117528571D01*
X103983390Y-117528571D02*
X104031009Y-117576190D01*
X104031009Y-117576190D02*
X104078628Y-117671428D01*
X104078628Y-117671428D02*
X104078628Y-118052380D01*
X104031009Y-117052380D02*
X104031009Y-116719047D01*
X104554819Y-116576190D02*
X104554819Y-117052380D01*
X104554819Y-117052380D02*
X103554819Y-117052380D01*
X103554819Y-117052380D02*
X103554819Y-116576190D01*
X104554819Y-115671428D02*
X104554819Y-116147618D01*
X104554819Y-116147618D02*
X103554819Y-116147618D01*
X104269104Y-115385713D02*
X104269104Y-114909523D01*
X104554819Y-115480951D02*
X103554819Y-115147618D01*
X103554819Y-115147618D02*
X104554819Y-114814285D01*
X104078628Y-114290475D02*
X104554819Y-114290475D01*
X103554819Y-114623808D02*
X104078628Y-114290475D01*
X104078628Y-114290475D02*
X103554819Y-113957142D01*
X103650057Y-113671427D02*
X103602438Y-113623808D01*
X103602438Y-113623808D02*
X103554819Y-113528570D01*
X103554819Y-113528570D02*
X103554819Y-113290475D01*
X103554819Y-113290475D02*
X103602438Y-113195237D01*
X103602438Y-113195237D02*
X103650057Y-113147618D01*
X103650057Y-113147618D02*
X103745295Y-113099999D01*
X103745295Y-113099999D02*
X103840533Y-113099999D01*
X103840533Y-113099999D02*
X103983390Y-113147618D01*
X103983390Y-113147618D02*
X104554819Y-113719046D01*
X104554819Y-113719046D02*
X104554819Y-113099999D01*
X120009523Y-125959580D02*
X119961904Y-126007200D01*
X119961904Y-126007200D02*
X119819047Y-126054819D01*
X119819047Y-126054819D02*
X119723809Y-126054819D01*
X119723809Y-126054819D02*
X119580952Y-126007200D01*
X119580952Y-126007200D02*
X119485714Y-125911961D01*
X119485714Y-125911961D02*
X119438095Y-125816723D01*
X119438095Y-125816723D02*
X119390476Y-125626247D01*
X119390476Y-125626247D02*
X119390476Y-125483390D01*
X119390476Y-125483390D02*
X119438095Y-125292914D01*
X119438095Y-125292914D02*
X119485714Y-125197676D01*
X119485714Y-125197676D02*
X119580952Y-125102438D01*
X119580952Y-125102438D02*
X119723809Y-125054819D01*
X119723809Y-125054819D02*
X119819047Y-125054819D01*
X119819047Y-125054819D02*
X119961904Y-125102438D01*
X119961904Y-125102438D02*
X120009523Y-125150057D01*
X120438095Y-126054819D02*
X120438095Y-125054819D01*
X120438095Y-125054819D02*
X121009523Y-126054819D01*
X121009523Y-126054819D02*
X121009523Y-125054819D01*
X121390476Y-125054819D02*
X122009523Y-125054819D01*
X122009523Y-125054819D02*
X121676190Y-125435771D01*
X121676190Y-125435771D02*
X121819047Y-125435771D01*
X121819047Y-125435771D02*
X121914285Y-125483390D01*
X121914285Y-125483390D02*
X121961904Y-125531009D01*
X121961904Y-125531009D02*
X122009523Y-125626247D01*
X122009523Y-125626247D02*
X122009523Y-125864342D01*
X122009523Y-125864342D02*
X121961904Y-125959580D01*
X121961904Y-125959580D02*
X121914285Y-126007200D01*
X121914285Y-126007200D02*
X121819047Y-126054819D01*
X121819047Y-126054819D02*
X121533333Y-126054819D01*
X121533333Y-126054819D02*
X121438095Y-126007200D01*
X121438095Y-126007200D02*
X121390476Y-125959580D01*
X122054819Y-117480952D02*
X121578628Y-117814285D01*
X122054819Y-118052380D02*
X121054819Y-118052380D01*
X121054819Y-118052380D02*
X121054819Y-117671428D01*
X121054819Y-117671428D02*
X121102438Y-117576190D01*
X121102438Y-117576190D02*
X121150057Y-117528571D01*
X121150057Y-117528571D02*
X121245295Y-117480952D01*
X121245295Y-117480952D02*
X121388152Y-117480952D01*
X121388152Y-117480952D02*
X121483390Y-117528571D01*
X121483390Y-117528571D02*
X121531009Y-117576190D01*
X121531009Y-117576190D02*
X121578628Y-117671428D01*
X121578628Y-117671428D02*
X121578628Y-118052380D01*
X121531009Y-117052380D02*
X121531009Y-116719047D01*
X122054819Y-116576190D02*
X122054819Y-117052380D01*
X122054819Y-117052380D02*
X121054819Y-117052380D01*
X121054819Y-117052380D02*
X121054819Y-116576190D01*
X122054819Y-115671428D02*
X122054819Y-116147618D01*
X122054819Y-116147618D02*
X121054819Y-116147618D01*
X121769104Y-115385713D02*
X121769104Y-114909523D01*
X122054819Y-115480951D02*
X121054819Y-115147618D01*
X121054819Y-115147618D02*
X122054819Y-114814285D01*
X121578628Y-114290475D02*
X122054819Y-114290475D01*
X121054819Y-114623808D02*
X121578628Y-114290475D01*
X121578628Y-114290475D02*
X121054819Y-113957142D01*
X121054819Y-113719046D02*
X121054819Y-113099999D01*
X121054819Y-113099999D02*
X121435771Y-113433332D01*
X121435771Y-113433332D02*
X121435771Y-113290475D01*
X121435771Y-113290475D02*
X121483390Y-113195237D01*
X121483390Y-113195237D02*
X121531009Y-113147618D01*
X121531009Y-113147618D02*
X121626247Y-113099999D01*
X121626247Y-113099999D02*
X121864342Y-113099999D01*
X121864342Y-113099999D02*
X121959580Y-113147618D01*
X121959580Y-113147618D02*
X122007200Y-113195237D01*
X122007200Y-113195237D02*
X122054819Y-113290475D01*
X122054819Y-113290475D02*
X122054819Y-113576189D01*
X122054819Y-113576189D02*
X122007200Y-113671427D01*
X122007200Y-113671427D02*
X121959580Y-113719046D01*
X87066666Y-92454819D02*
X87066666Y-93169104D01*
X87066666Y-93169104D02*
X87019047Y-93311961D01*
X87019047Y-93311961D02*
X86923809Y-93407200D01*
X86923809Y-93407200D02*
X86780952Y-93454819D01*
X86780952Y-93454819D02*
X86685714Y-93454819D01*
X88019047Y-92454819D02*
X87542857Y-92454819D01*
X87542857Y-92454819D02*
X87495238Y-92931009D01*
X87495238Y-92931009D02*
X87542857Y-92883390D01*
X87542857Y-92883390D02*
X87638095Y-92835771D01*
X87638095Y-92835771D02*
X87876190Y-92835771D01*
X87876190Y-92835771D02*
X87971428Y-92883390D01*
X87971428Y-92883390D02*
X88019047Y-92931009D01*
X88019047Y-92931009D02*
X88066666Y-93026247D01*
X88066666Y-93026247D02*
X88066666Y-93264342D01*
X88066666Y-93264342D02*
X88019047Y-93359580D01*
X88019047Y-93359580D02*
X87971428Y-93407200D01*
X87971428Y-93407200D02*
X87876190Y-93454819D01*
X87876190Y-93454819D02*
X87638095Y-93454819D01*
X87638095Y-93454819D02*
X87542857Y-93407200D01*
X87542857Y-93407200D02*
X87495238Y-93359580D01*
X105179819Y-101899404D02*
X105989342Y-101899404D01*
X105989342Y-101899404D02*
X106084580Y-101851785D01*
X106084580Y-101851785D02*
X106132200Y-101804166D01*
X106132200Y-101804166D02*
X106179819Y-101708928D01*
X106179819Y-101708928D02*
X106179819Y-101518452D01*
X106179819Y-101518452D02*
X106132200Y-101423214D01*
X106132200Y-101423214D02*
X106084580Y-101375595D01*
X106084580Y-101375595D02*
X105989342Y-101327976D01*
X105989342Y-101327976D02*
X105179819Y-101327976D01*
X106179819Y-100327976D02*
X106179819Y-100899404D01*
X106179819Y-100613690D02*
X105179819Y-100613690D01*
X105179819Y-100613690D02*
X105322676Y-100708928D01*
X105322676Y-100708928D02*
X105417914Y-100804166D01*
X105417914Y-100804166D02*
X105465533Y-100899404D01*
X102809523Y-125959580D02*
X102761904Y-126007200D01*
X102761904Y-126007200D02*
X102619047Y-126054819D01*
X102619047Y-126054819D02*
X102523809Y-126054819D01*
X102523809Y-126054819D02*
X102380952Y-126007200D01*
X102380952Y-126007200D02*
X102285714Y-125911961D01*
X102285714Y-125911961D02*
X102238095Y-125816723D01*
X102238095Y-125816723D02*
X102190476Y-125626247D01*
X102190476Y-125626247D02*
X102190476Y-125483390D01*
X102190476Y-125483390D02*
X102238095Y-125292914D01*
X102238095Y-125292914D02*
X102285714Y-125197676D01*
X102285714Y-125197676D02*
X102380952Y-125102438D01*
X102380952Y-125102438D02*
X102523809Y-125054819D01*
X102523809Y-125054819D02*
X102619047Y-125054819D01*
X102619047Y-125054819D02*
X102761904Y-125102438D01*
X102761904Y-125102438D02*
X102809523Y-125150057D01*
X103238095Y-126054819D02*
X103238095Y-125054819D01*
X103238095Y-125054819D02*
X103809523Y-126054819D01*
X103809523Y-126054819D02*
X103809523Y-125054819D01*
X104238095Y-125150057D02*
X104285714Y-125102438D01*
X104285714Y-125102438D02*
X104380952Y-125054819D01*
X104380952Y-125054819D02*
X104619047Y-125054819D01*
X104619047Y-125054819D02*
X104714285Y-125102438D01*
X104714285Y-125102438D02*
X104761904Y-125150057D01*
X104761904Y-125150057D02*
X104809523Y-125245295D01*
X104809523Y-125245295D02*
X104809523Y-125340533D01*
X104809523Y-125340533D02*
X104761904Y-125483390D01*
X104761904Y-125483390D02*
X104190476Y-126054819D01*
X104190476Y-126054819D02*
X104809523Y-126054819D01*
X154609523Y-125959580D02*
X154561904Y-126007200D01*
X154561904Y-126007200D02*
X154419047Y-126054819D01*
X154419047Y-126054819D02*
X154323809Y-126054819D01*
X154323809Y-126054819D02*
X154180952Y-126007200D01*
X154180952Y-126007200D02*
X154085714Y-125911961D01*
X154085714Y-125911961D02*
X154038095Y-125816723D01*
X154038095Y-125816723D02*
X153990476Y-125626247D01*
X153990476Y-125626247D02*
X153990476Y-125483390D01*
X153990476Y-125483390D02*
X154038095Y-125292914D01*
X154038095Y-125292914D02*
X154085714Y-125197676D01*
X154085714Y-125197676D02*
X154180952Y-125102438D01*
X154180952Y-125102438D02*
X154323809Y-125054819D01*
X154323809Y-125054819D02*
X154419047Y-125054819D01*
X154419047Y-125054819D02*
X154561904Y-125102438D01*
X154561904Y-125102438D02*
X154609523Y-125150057D01*
X155038095Y-126054819D02*
X155038095Y-125054819D01*
X155038095Y-125054819D02*
X155609523Y-126054819D01*
X155609523Y-126054819D02*
X155609523Y-125054819D01*
X156561904Y-125054819D02*
X156085714Y-125054819D01*
X156085714Y-125054819D02*
X156038095Y-125531009D01*
X156038095Y-125531009D02*
X156085714Y-125483390D01*
X156085714Y-125483390D02*
X156180952Y-125435771D01*
X156180952Y-125435771D02*
X156419047Y-125435771D01*
X156419047Y-125435771D02*
X156514285Y-125483390D01*
X156514285Y-125483390D02*
X156561904Y-125531009D01*
X156561904Y-125531009D02*
X156609523Y-125626247D01*
X156609523Y-125626247D02*
X156609523Y-125864342D01*
X156609523Y-125864342D02*
X156561904Y-125959580D01*
X156561904Y-125959580D02*
X156514285Y-126007200D01*
X156514285Y-126007200D02*
X156419047Y-126054819D01*
X156419047Y-126054819D02*
X156180952Y-126054819D01*
X156180952Y-126054819D02*
X156085714Y-126007200D01*
X156085714Y-126007200D02*
X156038095Y-125959580D01*
X156454819Y-117580952D02*
X155978628Y-117914285D01*
X156454819Y-118152380D02*
X155454819Y-118152380D01*
X155454819Y-118152380D02*
X155454819Y-117771428D01*
X155454819Y-117771428D02*
X155502438Y-117676190D01*
X155502438Y-117676190D02*
X155550057Y-117628571D01*
X155550057Y-117628571D02*
X155645295Y-117580952D01*
X155645295Y-117580952D02*
X155788152Y-117580952D01*
X155788152Y-117580952D02*
X155883390Y-117628571D01*
X155883390Y-117628571D02*
X155931009Y-117676190D01*
X155931009Y-117676190D02*
X155978628Y-117771428D01*
X155978628Y-117771428D02*
X155978628Y-118152380D01*
X155931009Y-117152380D02*
X155931009Y-116819047D01*
X156454819Y-116676190D02*
X156454819Y-117152380D01*
X156454819Y-117152380D02*
X155454819Y-117152380D01*
X155454819Y-117152380D02*
X155454819Y-116676190D01*
X156454819Y-115771428D02*
X156454819Y-116247618D01*
X156454819Y-116247618D02*
X155454819Y-116247618D01*
X156169104Y-115485713D02*
X156169104Y-115009523D01*
X156454819Y-115580951D02*
X155454819Y-115247618D01*
X155454819Y-115247618D02*
X156454819Y-114914285D01*
X155978628Y-114390475D02*
X156454819Y-114390475D01*
X155454819Y-114723808D02*
X155978628Y-114390475D01*
X155978628Y-114390475D02*
X155454819Y-114057142D01*
X155454819Y-113247618D02*
X155454819Y-113723808D01*
X155454819Y-113723808D02*
X155931009Y-113771427D01*
X155931009Y-113771427D02*
X155883390Y-113723808D01*
X155883390Y-113723808D02*
X155835771Y-113628570D01*
X155835771Y-113628570D02*
X155835771Y-113390475D01*
X155835771Y-113390475D02*
X155883390Y-113295237D01*
X155883390Y-113295237D02*
X155931009Y-113247618D01*
X155931009Y-113247618D02*
X156026247Y-113199999D01*
X156026247Y-113199999D02*
X156264342Y-113199999D01*
X156264342Y-113199999D02*
X156359580Y-113247618D01*
X156359580Y-113247618D02*
X156407200Y-113295237D01*
X156407200Y-113295237D02*
X156454819Y-113390475D01*
X156454819Y-113390475D02*
X156454819Y-113628570D01*
X156454819Y-113628570D02*
X156407200Y-113723808D01*
X156407200Y-113723808D02*
X156359580Y-113771427D01*
X87454819Y-117280952D02*
X86978628Y-117614285D01*
X87454819Y-117852380D02*
X86454819Y-117852380D01*
X86454819Y-117852380D02*
X86454819Y-117471428D01*
X86454819Y-117471428D02*
X86502438Y-117376190D01*
X86502438Y-117376190D02*
X86550057Y-117328571D01*
X86550057Y-117328571D02*
X86645295Y-117280952D01*
X86645295Y-117280952D02*
X86788152Y-117280952D01*
X86788152Y-117280952D02*
X86883390Y-117328571D01*
X86883390Y-117328571D02*
X86931009Y-117376190D01*
X86931009Y-117376190D02*
X86978628Y-117471428D01*
X86978628Y-117471428D02*
X86978628Y-117852380D01*
X86931009Y-116852380D02*
X86931009Y-116519047D01*
X87454819Y-116376190D02*
X87454819Y-116852380D01*
X87454819Y-116852380D02*
X86454819Y-116852380D01*
X86454819Y-116852380D02*
X86454819Y-116376190D01*
X87454819Y-115471428D02*
X87454819Y-115947618D01*
X87454819Y-115947618D02*
X86454819Y-115947618D01*
X87169104Y-115185713D02*
X87169104Y-114709523D01*
X87454819Y-115280951D02*
X86454819Y-114947618D01*
X86454819Y-114947618D02*
X87454819Y-114614285D01*
X86978628Y-114090475D02*
X87454819Y-114090475D01*
X86454819Y-114423808D02*
X86978628Y-114090475D01*
X86978628Y-114090475D02*
X86454819Y-113757142D01*
X87454819Y-112899999D02*
X87454819Y-113471427D01*
X87454819Y-113185713D02*
X86454819Y-113185713D01*
X86454819Y-113185713D02*
X86597676Y-113280951D01*
X86597676Y-113280951D02*
X86692914Y-113376189D01*
X86692914Y-113376189D02*
X86740533Y-113471427D01*
X137409523Y-125859580D02*
X137361904Y-125907200D01*
X137361904Y-125907200D02*
X137219047Y-125954819D01*
X137219047Y-125954819D02*
X137123809Y-125954819D01*
X137123809Y-125954819D02*
X136980952Y-125907200D01*
X136980952Y-125907200D02*
X136885714Y-125811961D01*
X136885714Y-125811961D02*
X136838095Y-125716723D01*
X136838095Y-125716723D02*
X136790476Y-125526247D01*
X136790476Y-125526247D02*
X136790476Y-125383390D01*
X136790476Y-125383390D02*
X136838095Y-125192914D01*
X136838095Y-125192914D02*
X136885714Y-125097676D01*
X136885714Y-125097676D02*
X136980952Y-125002438D01*
X136980952Y-125002438D02*
X137123809Y-124954819D01*
X137123809Y-124954819D02*
X137219047Y-124954819D01*
X137219047Y-124954819D02*
X137361904Y-125002438D01*
X137361904Y-125002438D02*
X137409523Y-125050057D01*
X137838095Y-125954819D02*
X137838095Y-124954819D01*
X137838095Y-124954819D02*
X138409523Y-125954819D01*
X138409523Y-125954819D02*
X138409523Y-124954819D01*
X139314285Y-125288152D02*
X139314285Y-125954819D01*
X139076190Y-124907200D02*
X138838095Y-125621485D01*
X138838095Y-125621485D02*
X139457142Y-125621485D01*
%TO.C,CN1*%
D13*
X86620000Y-129870000D02*
G75*
G02*
X86120000Y-129870000I-250000J0D01*
G01*
X86120000Y-129870000D02*
G75*
G02*
X86620000Y-129870000I250000J0D01*
G01*
D14*
X85030000Y-138450000D02*
G75*
G02*
X84970000Y-138450000I-30000J0D01*
G01*
X84970000Y-138450000D02*
G75*
G02*
X85030000Y-138450000I30000J0D01*
G01*
D15*
X101400000Y-138450000D02*
X85000000Y-138450000D01*
X101400000Y-126450000D02*
X101400000Y-138450000D01*
X85000000Y-138450000D02*
X85000000Y-126460000D01*
X85000000Y-126450000D02*
X101400000Y-126450000D01*
%TO.C,U3*%
D10*
X91260000Y-96550000D02*
X89060000Y-96550000D01*
X91260000Y-96550000D02*
X93460000Y-96550000D01*
X91260000Y-103310000D02*
X89060000Y-103310000D01*
X91260000Y-103310000D02*
X93460000Y-103310000D01*
D16*
X87400000Y-97005000D02*
X87070000Y-97245000D01*
X87070000Y-96765000D01*
X87400000Y-97005000D01*
G36*
X87400000Y-97005000D02*
G01*
X87070000Y-97245000D01*
X87070000Y-96765000D01*
X87400000Y-97005000D01*
G37*
%TO.C,D6*%
D10*
X146610000Y-104050000D02*
X143950000Y-104050000D01*
X146610000Y-105750000D02*
X143950000Y-105750000D01*
X146610000Y-105750000D02*
X146610000Y-104050000D01*
%TO.C,Q13*%
X108740000Y-102340000D02*
X108090000Y-102340000D01*
X108740000Y-102340000D02*
X109390000Y-102340000D01*
X108740000Y-105460000D02*
X108090000Y-105460000D01*
X108740000Y-105460000D02*
X109390000Y-105460000D01*
D16*
X110142500Y-105740000D02*
X109662500Y-105740000D01*
X109902500Y-105410000D01*
X110142500Y-105740000D01*
G36*
X110142500Y-105740000D02*
G01*
X109662500Y-105740000D01*
X109902500Y-105410000D01*
X110142500Y-105740000D01*
G37*
%TO.C,U5*%
X81390000Y-107990000D02*
X81390000Y-108205000D01*
X81390000Y-110810000D02*
X81390000Y-110595000D01*
X83700000Y-107990000D02*
X81390000Y-107990000D01*
X83700000Y-107990000D02*
X86010000Y-107990000D01*
X83700000Y-110810000D02*
X81390000Y-110810000D01*
X83700000Y-110810000D02*
X86010000Y-110810000D01*
X86010000Y-107990000D02*
X86010000Y-108205000D01*
X86010000Y-110810000D02*
X86010000Y-110595000D01*
X80600000Y-108205000D02*
X80360000Y-107875000D01*
X80840000Y-107875000D01*
X80600000Y-108205000D01*
G36*
X80600000Y-108205000D02*
G01*
X80360000Y-107875000D01*
X80840000Y-107875000D01*
X80600000Y-108205000D01*
G37*
%TO.C,D2*%
D10*
X94210000Y-104250000D02*
X91550000Y-104250000D01*
X94210000Y-105950000D02*
X91550000Y-105950000D01*
X94210000Y-105950000D02*
X94210000Y-104250000D01*
%TO.C,X1*%
X83220000Y-100555000D02*
X83220000Y-101905000D01*
X83220000Y-101905000D02*
X84820000Y-101905000D01*
%TO.C,U6*%
D16*
X114090000Y-102490000D02*
X114090000Y-102705000D01*
X114090000Y-105310000D02*
X114090000Y-105095000D01*
X116400000Y-102490000D02*
X114090000Y-102490000D01*
X116400000Y-102490000D02*
X118710000Y-102490000D01*
X116400000Y-105310000D02*
X114090000Y-105310000D01*
X116400000Y-105310000D02*
X118710000Y-105310000D01*
X118710000Y-102490000D02*
X118710000Y-102705000D01*
X118710000Y-105310000D02*
X118710000Y-105095000D01*
X119740000Y-105425000D02*
X119260000Y-105425000D01*
X119500000Y-105095000D01*
X119740000Y-105425000D01*
G36*
X119740000Y-105425000D02*
G01*
X119260000Y-105425000D01*
X119500000Y-105095000D01*
X119740000Y-105425000D01*
G37*
%TO.C,Q15*%
D10*
X141100000Y-102440000D02*
X140450000Y-102440000D01*
X141100000Y-102440000D02*
X141750000Y-102440000D01*
X141100000Y-105560000D02*
X140450000Y-105560000D01*
X141100000Y-105560000D02*
X141750000Y-105560000D01*
D16*
X142502500Y-105840000D02*
X142022500Y-105840000D01*
X142262500Y-105510000D01*
X142502500Y-105840000D01*
G36*
X142502500Y-105840000D02*
G01*
X142022500Y-105840000D01*
X142262500Y-105510000D01*
X142502500Y-105840000D01*
G37*
%TO.C,Q16*%
D10*
X159100000Y-102740000D02*
X158450000Y-102740000D01*
X159100000Y-102740000D02*
X159750000Y-102740000D01*
X159100000Y-105860000D02*
X158450000Y-105860000D01*
X159100000Y-105860000D02*
X159750000Y-105860000D01*
D16*
X160502500Y-106140000D02*
X160022500Y-106140000D01*
X160262500Y-105810000D01*
X160502500Y-106140000D01*
G36*
X160502500Y-106140000D02*
G01*
X160022500Y-106140000D01*
X160262500Y-105810000D01*
X160502500Y-106140000D01*
G37*
%TO.C,U4*%
D10*
X161590000Y-91670000D02*
X164530000Y-91670000D01*
X161590000Y-98330000D02*
X161590000Y-91670000D01*
X164530000Y-91670000D02*
X164530000Y-98330000D01*
X164530000Y-98330000D02*
X161590000Y-98330000D01*
X164940000Y-98000000D02*
G75*
G02*
X164880000Y-98000000I-30000J0D01*
G01*
X164880000Y-98000000D02*
G75*
G02*
X164940000Y-98000000I30000J0D01*
G01*
%TO.C,Q12*%
X83860000Y-104440000D02*
X83210000Y-104440000D01*
X83860000Y-104440000D02*
X84510000Y-104440000D01*
X83860000Y-107560000D02*
X83210000Y-107560000D01*
X83860000Y-107560000D02*
X84510000Y-107560000D01*
D16*
X82697500Y-104490000D02*
X82457500Y-104160000D01*
X82937500Y-104160000D01*
X82697500Y-104490000D01*
G36*
X82697500Y-104490000D02*
G01*
X82457500Y-104160000D01*
X82937500Y-104160000D01*
X82697500Y-104490000D01*
G37*
%TO.C,J2*%
X107620000Y-92958272D02*
X108190000Y-92958272D01*
X107620000Y-98158272D02*
X107620000Y-92958272D01*
X107620000Y-98158272D02*
X108190000Y-98158272D01*
X108190000Y-92958272D02*
X108190000Y-91598272D01*
X109710000Y-92958272D02*
X110730000Y-92958272D01*
X109710000Y-98158272D02*
X110730000Y-98158272D01*
X112250000Y-92958272D02*
X113270000Y-92958272D01*
X112250000Y-98158272D02*
X113270000Y-98158272D01*
X114790000Y-92958272D02*
X115810000Y-92958272D01*
X114790000Y-98158272D02*
X115810000Y-98158272D01*
X117330000Y-92958272D02*
X118350000Y-92958272D01*
X117330000Y-98158272D02*
X118350000Y-98158272D01*
X119870000Y-92958272D02*
X120890000Y-92958272D01*
X119870000Y-98158272D02*
X120890000Y-98158272D01*
X122410000Y-92958272D02*
X123430000Y-92958272D01*
X122410000Y-98158272D02*
X123430000Y-98158272D01*
X124950000Y-92958272D02*
X125970000Y-92958272D01*
X124950000Y-98158272D02*
X125970000Y-98158272D01*
X127490000Y-92958272D02*
X128510000Y-92958272D01*
X127490000Y-98158272D02*
X128510000Y-98158272D01*
X130030000Y-92958272D02*
X131050000Y-92958272D01*
X130030000Y-98158272D02*
X131050000Y-98158272D01*
X132570000Y-92958272D02*
X133590000Y-92958272D01*
X132570000Y-98158272D02*
X133590000Y-98158272D01*
X135110000Y-92958272D02*
X136130000Y-92958272D01*
X135110000Y-98158272D02*
X136130000Y-98158272D01*
X137650000Y-92958272D02*
X138670000Y-92958272D01*
X137650000Y-98158272D02*
X138670000Y-98158272D01*
X140190000Y-92958272D02*
X141210000Y-92958272D01*
X140190000Y-98158272D02*
X141210000Y-98158272D01*
X142730000Y-92958272D02*
X143750000Y-92958272D01*
X142730000Y-98158272D02*
X143750000Y-98158272D01*
X145270000Y-92958272D02*
X146290000Y-92958272D01*
X145270000Y-98158272D02*
X146290000Y-98158272D01*
X147810000Y-92958272D02*
X148380000Y-92958272D01*
X147810000Y-98158272D02*
X148380000Y-98158272D01*
X148380000Y-98158272D02*
X148380000Y-92958272D01*
%TO.C,RELAY4*%
D15*
X139840000Y-105980000D02*
X149840000Y-105980000D01*
X139840000Y-125980000D02*
X139840000Y-105980000D01*
X142430000Y-106680000D02*
X147430000Y-106680000D01*
X142430000Y-107680000D02*
X142430000Y-106680000D01*
X147430000Y-106680000D02*
X147430000Y-107680000D01*
X147430000Y-107680000D02*
X142430000Y-107680000D01*
X149840000Y-105980000D02*
X149840000Y-125980000D01*
X149840000Y-125980000D02*
X139840000Y-125980000D01*
D14*
X139960000Y-105910000D02*
G75*
G02*
X139900000Y-105910000I-30000J0D01*
G01*
X139900000Y-105910000D02*
G75*
G02*
X139960000Y-105910000I30000J0D01*
G01*
%TO.C,RELAY2*%
D15*
X105340000Y-105980000D02*
X115340000Y-105980000D01*
X105340000Y-125980000D02*
X105340000Y-105980000D01*
X107930000Y-106680000D02*
X112930000Y-106680000D01*
X107930000Y-107680000D02*
X107930000Y-106680000D01*
X112930000Y-106680000D02*
X112930000Y-107680000D01*
X112930000Y-107680000D02*
X107930000Y-107680000D01*
X115340000Y-105980000D02*
X115340000Y-125980000D01*
X115340000Y-125980000D02*
X105340000Y-125980000D01*
D14*
X105460000Y-105910000D02*
G75*
G02*
X105400000Y-105910000I-30000J0D01*
G01*
X105400000Y-105910000D02*
G75*
G02*
X105460000Y-105910000I30000J0D01*
G01*
%TO.C,J3*%
D16*
X174515000Y-106950000D02*
X174515000Y-99220000D01*
X177275000Y-99220000D02*
X174515000Y-99220000D01*
X177275000Y-106950000D02*
X174515000Y-106950000D01*
X177275000Y-106950000D02*
X177275000Y-99220000D01*
X177275000Y-108220000D02*
X177275000Y-109600000D01*
X177275000Y-109600000D02*
X175895000Y-109600000D01*
%TO.C,D8*%
D10*
X166110000Y-104050000D02*
X163450000Y-104050000D01*
X166110000Y-105750000D02*
X163450000Y-105750000D01*
X166110000Y-105750000D02*
X166110000Y-104050000D01*
%TO.C,U8*%
D16*
X148790000Y-102490000D02*
X148790000Y-102705000D01*
X148790000Y-105310000D02*
X148790000Y-105095000D01*
X151100000Y-102490000D02*
X148790000Y-102490000D01*
X151100000Y-102490000D02*
X153410000Y-102490000D01*
X151100000Y-105310000D02*
X148790000Y-105310000D01*
X151100000Y-105310000D02*
X153410000Y-105310000D01*
X153410000Y-102490000D02*
X153410000Y-102705000D01*
X153410000Y-105310000D02*
X153410000Y-105095000D01*
X154440000Y-105425000D02*
X153960000Y-105425000D01*
X154200000Y-105095000D01*
X154440000Y-105425000D01*
G36*
X154440000Y-105425000D02*
G01*
X153960000Y-105425000D01*
X154200000Y-105095000D01*
X154440000Y-105425000D01*
G37*
%TO.C,D9*%
D10*
X98270000Y-108600000D02*
X98270000Y-110890000D01*
X98270000Y-110890000D02*
X99730000Y-110890000D01*
X99730000Y-110890000D02*
X99730000Y-108600000D01*
%TO.C,D3*%
X174675000Y-97275000D02*
X174675000Y-98735000D01*
X174675000Y-98735000D02*
X176965000Y-98735000D01*
X176965000Y-97275000D02*
X174675000Y-97275000D01*
%TO.C,Q14*%
X123160000Y-102490000D02*
X122510000Y-102490000D01*
X123160000Y-102490000D02*
X123810000Y-102490000D01*
X123160000Y-105610000D02*
X122510000Y-105610000D01*
X123160000Y-105610000D02*
X123810000Y-105610000D01*
D16*
X124562500Y-105890000D02*
X124082500Y-105890000D01*
X124322500Y-105560000D01*
X124562500Y-105890000D01*
G36*
X124562500Y-105890000D02*
G01*
X124082500Y-105890000D01*
X124322500Y-105560000D01*
X124562500Y-105890000D01*
G37*
%TO.C,U9*%
X159490000Y-99590000D02*
X159490000Y-99805000D01*
X159490000Y-102410000D02*
X159490000Y-102195000D01*
X161800000Y-99590000D02*
X159490000Y-99590000D01*
X161800000Y-99590000D02*
X164110000Y-99590000D01*
X161800000Y-102410000D02*
X159490000Y-102410000D01*
X161800000Y-102410000D02*
X164110000Y-102410000D01*
X164110000Y-99590000D02*
X164110000Y-99805000D01*
X164110000Y-102410000D02*
X164110000Y-102195000D01*
X165140000Y-102525000D02*
X164660000Y-102525000D01*
X164900000Y-102195000D01*
X165140000Y-102525000D01*
G36*
X165140000Y-102525000D02*
G01*
X164660000Y-102525000D01*
X164900000Y-102195000D01*
X165140000Y-102525000D01*
G37*
%TO.C,D1*%
D10*
X82910000Y-95270000D02*
X82910000Y-96730000D01*
X82910000Y-96730000D02*
X85200000Y-96730000D01*
X85200000Y-95270000D02*
X82910000Y-95270000D01*
%TO.C,CN3*%
D15*
X119500000Y-126450000D02*
X135900000Y-126450000D01*
X119500000Y-138450000D02*
X119500000Y-126460000D01*
X135900000Y-126450000D02*
X135900000Y-138450000D01*
X135900000Y-138450000D02*
X119500000Y-138450000D01*
D14*
X119530000Y-138450000D02*
G75*
G02*
X119470000Y-138450000I-30000J0D01*
G01*
X119470000Y-138450000D02*
G75*
G02*
X119530000Y-138450000I30000J0D01*
G01*
D13*
X121120000Y-129870000D02*
G75*
G02*
X120620000Y-129870000I-250000J0D01*
G01*
X120620000Y-129870000D02*
G75*
G02*
X121120000Y-129870000I250000J0D01*
G01*
%TO.C,RELAY3*%
D15*
X122410000Y-106115000D02*
X132410000Y-106115000D01*
X122410000Y-126115000D02*
X122410000Y-106115000D01*
X125000000Y-106815000D02*
X130000000Y-106815000D01*
X125000000Y-107815000D02*
X125000000Y-106815000D01*
X130000000Y-106815000D02*
X130000000Y-107815000D01*
X130000000Y-107815000D02*
X125000000Y-107815000D01*
X132410000Y-106115000D02*
X132410000Y-126115000D01*
X132410000Y-126115000D02*
X122410000Y-126115000D01*
D14*
X122530000Y-106045000D02*
G75*
G02*
X122470000Y-106045000I-30000J0D01*
G01*
X122470000Y-106045000D02*
G75*
G02*
X122530000Y-106045000I30000J0D01*
G01*
%TO.C,D4*%
D10*
X103350000Y-110810000D02*
X103350000Y-108150000D01*
X103350000Y-110810000D02*
X105050000Y-110810000D01*
X105050000Y-110810000D02*
X105050000Y-108150000D01*
%TO.C,D11*%
X132670000Y-106700000D02*
X132670000Y-108990000D01*
X132670000Y-108990000D02*
X134130000Y-108990000D01*
X134130000Y-108990000D02*
X134130000Y-106700000D01*
%TO.C,D5*%
X128510000Y-104050000D02*
X125850000Y-104050000D01*
X128510000Y-105750000D02*
X125850000Y-105750000D01*
X128510000Y-105750000D02*
X128510000Y-104050000D01*
%TO.C,J5*%
D16*
X96520000Y-95580000D02*
X96520000Y-92820000D01*
X91330000Y-95580000D02*
X96520000Y-95580000D01*
X91330000Y-95580000D02*
X91330000Y-92820000D01*
X91330000Y-92820000D02*
X96520000Y-92820000D01*
X90060000Y-95580000D02*
X88680000Y-95580000D01*
X88680000Y-95580000D02*
X88680000Y-94200000D01*
%TO.C,D13*%
D10*
X167370000Y-106800000D02*
X167370000Y-109090000D01*
X167370000Y-109090000D02*
X168830000Y-109090000D01*
X168830000Y-109090000D02*
X168830000Y-106800000D01*
%TO.C,U1*%
D16*
X96840000Y-103447500D02*
X96840000Y-98827500D01*
X104910000Y-98827500D02*
X104910000Y-103447500D01*
X104455000Y-97277500D02*
X104215000Y-96947500D01*
X104695000Y-96947500D01*
X104455000Y-97277500D01*
G36*
X104455000Y-97277500D02*
G01*
X104215000Y-96947500D01*
X104695000Y-96947500D01*
X104455000Y-97277500D01*
G37*
%TO.C,U7*%
X130602500Y-102455000D02*
X130602500Y-102670000D01*
X130602500Y-105275000D02*
X130602500Y-105060000D01*
X132912500Y-102455000D02*
X130602500Y-102455000D01*
X132912500Y-102455000D02*
X135222500Y-102455000D01*
X132912500Y-105275000D02*
X130602500Y-105275000D01*
X132912500Y-105275000D02*
X135222500Y-105275000D01*
X135222500Y-102455000D02*
X135222500Y-102670000D01*
X135222500Y-105275000D02*
X135222500Y-105060000D01*
X136252500Y-105390000D02*
X135772500Y-105390000D01*
X136012500Y-105060000D01*
X136252500Y-105390000D01*
G36*
X136252500Y-105390000D02*
G01*
X135772500Y-105390000D01*
X136012500Y-105060000D01*
X136252500Y-105390000D01*
G37*
%TO.C,D12*%
D10*
X150070000Y-106590000D02*
X150070000Y-108880000D01*
X150070000Y-108880000D02*
X151530000Y-108880000D01*
X151530000Y-108880000D02*
X151530000Y-106590000D01*
%TO.C,D10*%
X115670000Y-106300000D02*
X115670000Y-108590000D01*
X115670000Y-108590000D02*
X117130000Y-108590000D01*
X117130000Y-108590000D02*
X117130000Y-106300000D01*
%TO.C,CN2*%
D15*
X102250000Y-126450000D02*
X118650000Y-126450000D01*
X102250000Y-138450000D02*
X102250000Y-126460000D01*
X118650000Y-126450000D02*
X118650000Y-138450000D01*
X118650000Y-138450000D02*
X102250000Y-138450000D01*
D14*
X102280000Y-138450000D02*
G75*
G02*
X102220000Y-138450000I-30000J0D01*
G01*
X102220000Y-138450000D02*
G75*
G02*
X102280000Y-138450000I30000J0D01*
G01*
D13*
X103870000Y-129870000D02*
G75*
G02*
X103370000Y-129870000I-250000J0D01*
G01*
X103370000Y-129870000D02*
G75*
G02*
X103870000Y-129870000I250000J0D01*
G01*
%TO.C,CN5*%
D15*
X154000000Y-126450000D02*
X170400000Y-126450000D01*
X154000000Y-138450000D02*
X154000000Y-126460000D01*
X170400000Y-126450000D02*
X170400000Y-138450000D01*
X170400000Y-138450000D02*
X154000000Y-138450000D01*
D14*
X154030000Y-138450000D02*
G75*
G02*
X153970000Y-138450000I-30000J0D01*
G01*
X153970000Y-138450000D02*
G75*
G02*
X154030000Y-138450000I30000J0D01*
G01*
D13*
X155620000Y-129870000D02*
G75*
G02*
X155120000Y-129870000I-250000J0D01*
G01*
X155120000Y-129870000D02*
G75*
G02*
X155620000Y-129870000I250000J0D01*
G01*
%TO.C,RELAY5*%
D15*
X156910000Y-106115000D02*
X166910000Y-106115000D01*
X156910000Y-126115000D02*
X156910000Y-106115000D01*
X159500000Y-106815000D02*
X164500000Y-106815000D01*
X159500000Y-107815000D02*
X159500000Y-106815000D01*
X164500000Y-106815000D02*
X164500000Y-107815000D01*
X164500000Y-107815000D02*
X159500000Y-107815000D01*
X166910000Y-106115000D02*
X166910000Y-126115000D01*
X166910000Y-126115000D02*
X156910000Y-126115000D01*
D14*
X157030000Y-106045000D02*
G75*
G02*
X156970000Y-106045000I-30000J0D01*
G01*
X156970000Y-106045000D02*
G75*
G02*
X157030000Y-106045000I30000J0D01*
G01*
%TO.C,S1*%
D17*
X79550000Y-97775000D02*
X79780000Y-97775000D01*
X79550000Y-101775000D02*
X79550000Y-97775000D01*
X79550000Y-101775000D02*
X79780000Y-101775000D01*
X82220000Y-97775000D02*
X82450000Y-97775000D01*
X82450000Y-97775000D02*
X82450000Y-101775000D01*
X82450000Y-101775000D02*
X82220000Y-101775000D01*
%TO.C,RELAY1*%
D15*
X87910000Y-106115000D02*
X97910000Y-106115000D01*
X87910000Y-126115000D02*
X87910000Y-106115000D01*
X90500000Y-106815000D02*
X95500000Y-106815000D01*
X90500000Y-107815000D02*
X90500000Y-106815000D01*
X95500000Y-106815000D02*
X95500000Y-107815000D01*
X95500000Y-107815000D02*
X90500000Y-107815000D01*
X97910000Y-106115000D02*
X97910000Y-126115000D01*
X97910000Y-126115000D02*
X87910000Y-126115000D01*
D14*
X88030000Y-106045000D02*
G75*
G02*
X87970000Y-106045000I-30000J0D01*
G01*
X87970000Y-106045000D02*
G75*
G02*
X88030000Y-106045000I30000J0D01*
G01*
%TO.C,CN4*%
D15*
X136750000Y-126450000D02*
X153150000Y-126450000D01*
X136750000Y-138450000D02*
X136750000Y-126460000D01*
X153150000Y-126450000D02*
X153150000Y-138450000D01*
X153150000Y-138450000D02*
X136750000Y-138450000D01*
D14*
X136780000Y-138450000D02*
G75*
G02*
X136720000Y-138450000I-30000J0D01*
G01*
X136720000Y-138450000D02*
G75*
G02*
X136780000Y-138450000I30000J0D01*
G01*
D13*
X138370000Y-129870000D02*
G75*
G02*
X137870000Y-129870000I-250000J0D01*
G01*
X137870000Y-129870000D02*
G75*
G02*
X138370000Y-129870000I250000J0D01*
G01*
%TO.C,U2*%
D10*
X167700000Y-97690000D02*
X167790000Y-97690000D01*
X167700000Y-101510000D02*
X167700000Y-97690000D01*
X167700000Y-101510000D02*
X167790000Y-101510000D01*
X172700000Y-97690000D02*
X172610000Y-97690000D01*
X172700000Y-97690000D02*
X172700000Y-101510000D01*
X172700000Y-101510000D02*
X172610000Y-101510000D01*
X172730000Y-97350000D02*
G75*
G02*
X172670000Y-97350000I-30000J0D01*
G01*
X172670000Y-97350000D02*
G75*
G02*
X172730000Y-97350000I30000J0D01*
G01*
%TD*%
%LPC*%
D18*
%TO.C,CN1*%
X98200000Y-128450000D03*
X93200000Y-128450000D03*
X88200000Y-128450000D03*
%TD*%
D19*
%TO.C,U3*%
X88400000Y-97010000D03*
X88400000Y-97660000D03*
X88400000Y-98310000D03*
X88400000Y-98960000D03*
X88400000Y-99600000D03*
X88400000Y-100260000D03*
X88400000Y-100900000D03*
X88400000Y-101550000D03*
X88400000Y-102200000D03*
X88400000Y-102850000D03*
X94120000Y-102850000D03*
X94120000Y-102200000D03*
X94120000Y-101550000D03*
X94120000Y-100900000D03*
X94120000Y-100260000D03*
X94120000Y-99600000D03*
X94120000Y-98960000D03*
X94120000Y-98310000D03*
X94120000Y-97660000D03*
X94120000Y-97010000D03*
%TD*%
D20*
%TO.C,R13*%
X83300000Y-98200000D03*
X83300000Y-97200000D03*
%TD*%
D21*
%TO.C,D6*%
X146050000Y-104900000D03*
X143950000Y-104900000D03*
%TD*%
D22*
%TO.C,Q13*%
X109680000Y-104850000D03*
X109680000Y-102950000D03*
X107800000Y-103900000D03*
%TD*%
D23*
%TO.C,C1*%
X105730000Y-104407500D03*
X105730000Y-102847500D03*
%TD*%
D24*
%TO.C,U5*%
X80512500Y-108765000D03*
X80512500Y-110035000D03*
X86887500Y-110035000D03*
X86887500Y-108765000D03*
%TD*%
D21*
%TO.C,D2*%
X93650000Y-105100000D03*
X91550000Y-105100000D03*
%TD*%
D25*
%TO.C,R15*%
X80600000Y-103580000D03*
X80600000Y-105220000D03*
%TD*%
D26*
%TO.C,X1*%
X84120000Y-101085000D03*
X86320000Y-101085000D03*
X86320000Y-99325000D03*
X84120000Y-99325000D03*
%TD*%
D27*
%TO.C,U6*%
X119587500Y-104535000D03*
X119587500Y-103265000D03*
X113212500Y-103265000D03*
X113212500Y-104535000D03*
%TD*%
D22*
%TO.C,Q15*%
X142040000Y-104950000D03*
X142040000Y-103050000D03*
X140160000Y-104000000D03*
%TD*%
%TO.C,Q16*%
X160040000Y-105250000D03*
X160040000Y-103350000D03*
X158160000Y-104300000D03*
%TD*%
D28*
%TO.C,U4*%
X166130000Y-97300000D03*
X166130000Y-95000000D03*
X166130000Y-92700000D03*
D29*
X160160000Y-94000000D03*
X160160000Y-95000000D03*
D30*
X160160000Y-95000000D03*
D29*
X160160000Y-96000000D03*
%TD*%
D31*
%TO.C,C2*%
X173300000Y-102140000D03*
X173300000Y-103700000D03*
%TD*%
D32*
%TO.C,H1*%
X82000000Y-92000000D03*
D33*
X82000000Y-92000000D03*
%TD*%
D34*
%TO.C,R24*%
X156000000Y-106520000D03*
X156000000Y-104880000D03*
%TD*%
D35*
%TO.C,Q12*%
X82920000Y-105050000D03*
X82920000Y-106950000D03*
X84800000Y-106000000D03*
%TD*%
D36*
%TO.C,R16*%
X81841478Y-103652050D03*
X83481478Y-103652050D03*
%TD*%
D37*
%TO.C,J2*%
X108950000Y-93038272D03*
X108950000Y-98078272D03*
X111490000Y-93038272D03*
X111490000Y-98078272D03*
X114030000Y-93038272D03*
X114030000Y-98078272D03*
X116570000Y-93038272D03*
X116570000Y-98078272D03*
X119110000Y-93038272D03*
X119110000Y-98078272D03*
X121650000Y-93038272D03*
X121650000Y-98078272D03*
X124190000Y-93038272D03*
X124190000Y-98078272D03*
X126730000Y-93038272D03*
X126730000Y-98078272D03*
X129270000Y-93038272D03*
X129270000Y-98078272D03*
X131810000Y-93038272D03*
X131810000Y-98078272D03*
X134350000Y-93038272D03*
X134350000Y-98078272D03*
X136890000Y-93038272D03*
X136890000Y-98078272D03*
X139430000Y-93038272D03*
X139430000Y-98078272D03*
X141970000Y-93038272D03*
X141970000Y-98078272D03*
X144510000Y-93038272D03*
X144510000Y-98078272D03*
X147050000Y-93038272D03*
X147050000Y-98078272D03*
%TD*%
D38*
%TO.C,C16*%
X168220000Y-92700000D03*
X169780000Y-92700000D03*
%TD*%
D25*
%TO.C,R25*%
X156000000Y-107780000D03*
X156000000Y-109420000D03*
%TD*%
D39*
%TO.C,R4*%
X96330000Y-104147500D03*
X96330000Y-105147500D03*
%TD*%
D40*
%TO.C,RELAY4*%
X141120000Y-107020000D03*
X141120000Y-117180000D03*
X141120000Y-124800000D03*
X148740000Y-124800000D03*
X148740000Y-107020000D03*
%TD*%
D34*
%TO.C,R30*%
X86900000Y-107120000D03*
X86900000Y-105480000D03*
%TD*%
D40*
%TO.C,RELAY2*%
X106620000Y-107020000D03*
X106620000Y-117180000D03*
X106620000Y-124800000D03*
X114240000Y-124800000D03*
X114240000Y-107020000D03*
%TD*%
D41*
%TO.C,H8*%
X177000000Y-89485000D03*
%TD*%
D42*
%TO.C,J3*%
X175895000Y-108220000D03*
D43*
X175895000Y-105680000D03*
X175895000Y-103140000D03*
X175895000Y-100600000D03*
%TD*%
D44*
%TO.C,R14*%
X87700000Y-95800000D03*
X86700000Y-95800000D03*
%TD*%
D25*
%TO.C,R29*%
X161700000Y-103580000D03*
X161700000Y-105220000D03*
%TD*%
D21*
%TO.C,D8*%
X165550000Y-104900000D03*
X163450000Y-104900000D03*
%TD*%
D31*
%TO.C,C3*%
X86620000Y-102625000D03*
X86620000Y-104185000D03*
%TD*%
D38*
%TO.C,C18*%
X168320000Y-95000000D03*
X169880000Y-95000000D03*
%TD*%
D41*
%TO.C,H7*%
X79000000Y-89500000D03*
%TD*%
D34*
%TO.C,R27*%
X167000000Y-103320000D03*
X167000000Y-101680000D03*
%TD*%
D27*
%TO.C,U8*%
X154287500Y-104535000D03*
X154287500Y-103265000D03*
X147912500Y-103265000D03*
X147912500Y-104535000D03*
%TD*%
D45*
%TO.C,D9*%
X99000000Y-110190000D03*
X99000000Y-108610000D03*
%TD*%
D46*
%TO.C,D3*%
X175375000Y-98005000D03*
X176955000Y-98005000D03*
%TD*%
D25*
%TO.C,R22*%
X138400000Y-105280000D03*
X138400000Y-106920000D03*
%TD*%
D47*
%TO.C,H6*%
X153000000Y-94000000D03*
%TD*%
D34*
%TO.C,R21*%
X138400000Y-104120000D03*
X138400000Y-102480000D03*
%TD*%
D48*
%TO.C,R23*%
X127800000Y-103000000D03*
X126160000Y-103000000D03*
%TD*%
%TO.C,R19*%
X120320000Y-107700000D03*
X118680000Y-107700000D03*
%TD*%
D38*
%TO.C,C5*%
X83640000Y-102405000D03*
X85200000Y-102405000D03*
%TD*%
D22*
%TO.C,Q14*%
X124100000Y-105000000D03*
X124100000Y-103100000D03*
X122220000Y-104050000D03*
%TD*%
D41*
%TO.C,H9*%
X177000000Y-137000000D03*
%TD*%
D27*
%TO.C,U9*%
X164987500Y-101635000D03*
X164987500Y-100365000D03*
X158612500Y-100365000D03*
X158612500Y-101635000D03*
%TD*%
D49*
%TO.C,R1*%
X173200000Y-98285000D03*
X174200000Y-98285000D03*
%TD*%
D47*
%TO.C,H5*%
X103000000Y-94000000D03*
%TD*%
D46*
%TO.C,D1*%
X83610000Y-96000000D03*
X85190000Y-96000000D03*
%TD*%
D25*
%TO.C,R17*%
X79200000Y-103580000D03*
X79200000Y-105220000D03*
%TD*%
D48*
%TO.C,R28*%
X165820000Y-103200000D03*
X164180000Y-103200000D03*
%TD*%
D47*
%TO.C,H2*%
X174000000Y-134000000D03*
%TD*%
D50*
%TO.C,C4*%
X86000000Y-98005000D03*
X84440000Y-98005000D03*
%TD*%
D18*
%TO.C,CN3*%
X122700000Y-128450000D03*
X127700000Y-128450000D03*
X132700000Y-128450000D03*
%TD*%
D36*
%TO.C,R34*%
X167680000Y-110000000D03*
X169320000Y-110000000D03*
%TD*%
D40*
%TO.C,RELAY3*%
X123690000Y-107155000D03*
X123690000Y-117315000D03*
X123690000Y-124935000D03*
X131310000Y-124935000D03*
X131310000Y-107155000D03*
%TD*%
D44*
%TO.C,R6*%
X170600000Y-103900000D03*
X169600000Y-103900000D03*
%TD*%
D25*
%TO.C,R20*%
X111400000Y-103180000D03*
X111400000Y-104820000D03*
%TD*%
D36*
%TO.C,R32*%
X133280000Y-109800000D03*
X134920000Y-109800000D03*
%TD*%
D51*
%TO.C,D4*%
X104200000Y-110250000D03*
X104200000Y-108150000D03*
%TD*%
D48*
%TO.C,R26*%
X146320000Y-103000000D03*
X144680000Y-103000000D03*
%TD*%
D47*
%TO.C,H4*%
X174000000Y-92000000D03*
%TD*%
D45*
%TO.C,D11*%
X133400000Y-108290000D03*
X133400000Y-106710000D03*
%TD*%
D36*
%TO.C,R33*%
X150580000Y-109800000D03*
X152220000Y-109800000D03*
%TD*%
D21*
%TO.C,D5*%
X127950000Y-104900000D03*
X125850000Y-104900000D03*
%TD*%
D43*
%TO.C,J5*%
X95140000Y-94200000D03*
X92600000Y-94200000D03*
D42*
X90060000Y-94200000D03*
%TD*%
D45*
%TO.C,D13*%
X168100000Y-108390000D03*
X168100000Y-106810000D03*
%TD*%
D52*
%TO.C,U1*%
X104450000Y-98275000D03*
X103800000Y-98275000D03*
X103150000Y-98275000D03*
X102500000Y-98275000D03*
X101850000Y-98275000D03*
X101200000Y-98275000D03*
X100550000Y-98275000D03*
X99900000Y-98275000D03*
X99250000Y-98275000D03*
X98600000Y-98275000D03*
X97950000Y-98275000D03*
X97300000Y-98275000D03*
X97300000Y-104000000D03*
X97950000Y-104000000D03*
X98600000Y-104000000D03*
X99250000Y-104000000D03*
X99900000Y-104000000D03*
X100550000Y-104000000D03*
X101200000Y-104000000D03*
X101850000Y-104000000D03*
X102500000Y-104000000D03*
X103150000Y-104000000D03*
X103800000Y-104000000D03*
X104450000Y-104000000D03*
%TD*%
D27*
%TO.C,U7*%
X136100000Y-104500000D03*
X136100000Y-103230000D03*
X129725000Y-103230000D03*
X129725000Y-104500000D03*
%TD*%
D45*
%TO.C,D12*%
X150800000Y-108180000D03*
X150800000Y-106600000D03*
%TD*%
%TO.C,D10*%
X116400000Y-107890000D03*
X116400000Y-106310000D03*
%TD*%
D18*
%TO.C,CN2*%
X105450000Y-128450000D03*
X110450000Y-128450000D03*
X115450000Y-128450000D03*
%TD*%
%TO.C,CN5*%
X157200000Y-128450000D03*
X162200000Y-128450000D03*
X167200000Y-128450000D03*
%TD*%
D40*
%TO.C,RELAY5*%
X158190000Y-107155000D03*
X158190000Y-117315000D03*
X158190000Y-124935000D03*
X165810000Y-124935000D03*
X165810000Y-107155000D03*
%TD*%
D20*
%TO.C,R10*%
X168300000Y-105200000D03*
X168300000Y-104200000D03*
%TD*%
D53*
%TO.C,S1*%
X81000000Y-97700000D03*
X81000000Y-101850000D03*
%TD*%
D36*
%TO.C,R31*%
X116180000Y-109900000D03*
X117820000Y-109900000D03*
%TD*%
D47*
%TO.C,H3*%
X82000000Y-134000000D03*
%TD*%
D40*
%TO.C,RELAY1*%
X89190000Y-107155000D03*
X89190000Y-117315000D03*
X89190000Y-124935000D03*
X96810000Y-124935000D03*
X96810000Y-107155000D03*
%TD*%
D48*
%TO.C,R18*%
X120320000Y-106200000D03*
X118680000Y-106200000D03*
%TD*%
D18*
%TO.C,CN4*%
X139950000Y-128450000D03*
X144950000Y-128450000D03*
X149950000Y-128450000D03*
%TD*%
D54*
%TO.C,U2*%
X172110000Y-96890000D03*
X170840000Y-96890000D03*
X169560000Y-96890000D03*
X168290000Y-96890000D03*
X168290000Y-102310000D03*
X169560000Y-102310000D03*
X170840000Y-102310000D03*
X172110000Y-102310000D03*
%TD*%
%LPD*%
M02*
