%TF.GenerationSoftware,KiCad,Pcbnew,10.0.1*%
%TF.CreationDate,2026-05-13T09:28:10+02:00*%
%TF.ProjectId,MMS3_hat_relay,4d4d5333-5f68-4617-945f-72656c61792e,R0*%
%TF.SameCoordinates,Original*%
%TF.FileFunction,Legend,Top*%
%TF.FilePolarity,Positive*%
%FSLAX46Y46*%
G04 Gerber Fmt 4.6, Leading zero omitted, Abs format (unit mm)*
G04 Created by KiCad (PCBNEW 10.0.1) date 2026-05-13 09:28:10*
%MOMM*%
%LPD*%
G01*
G04 APERTURE LIST*
G04 Aperture macros list*
%AMRoundRect*
0 Rectangle with rounded corners*
0 $1 Rounding radius*
0 $2 $3 $4 $5 $6 $7 $8 $9 X,Y pos of 4 corners*
0 Add a 4 corners polygon primitive as box body*
4,1,4,$2,$3,$4,$5,$6,$7,$8,$9,$2,$3,0*
0 Add four circle primitives for the rounded corners*
1,1,$1+$1,$2,$3*
1,1,$1+$1,$4,$5*
1,1,$1+$1,$6,$7*
1,1,$1+$1,$8,$9*
0 Add four rect primitives between the rounded corners*
20,1,$1+$1,$2,$3,$4,$5,0*
20,1,$1+$1,$4,$5,$6,$7,0*
20,1,$1+$1,$6,$7,$8,$9,0*
20,1,$1+$1,$8,$9,$2,$3,0*%
G04 Aperture macros list end*
%ADD10C,0.100000*%
%ADD11C,0.200000*%
%ADD12C,0.150000*%
%ADD13C,0.400000*%
%ADD14C,0.600000*%
%ADD15C,0.250000*%
%ADD16C,0.300000*%
%ADD17C,0.060000*%
%ADD18C,0.120000*%
%ADD19C,0.127000*%
%ADD20RoundRect,0.219000X0.219000X0.294000X-0.219000X0.294000X-0.219000X-0.294000X0.219000X-0.294000X0*%
%ADD21C,2.794000*%
%ADD22RoundRect,0.219000X-0.219000X-0.294000X0.219000X-0.294000X0.219000X0.294000X-0.219000X0.294000X0*%
%ADD23RoundRect,0.150000X-0.150000X0.590000X-0.150000X-0.590000X0.150000X-0.590000X0.150000X0.590000X0*%
%ADD24RoundRect,0.159000X-0.189000X0.159000X-0.189000X-0.159000X0.189000X-0.159000X0.189000X0.159000X0*%
%ADD25RoundRect,0.244000X0.244000X0.269000X-0.244000X0.269000X-0.244000X-0.269000X0.244000X-0.269000X0*%
%ADD26RoundRect,0.150000X0.662500X0.150000X-0.662500X0.150000X-0.662500X-0.150000X0.662500X-0.150000X0*%
%ADD27RoundRect,0.159000X0.189000X-0.159000X0.189000X0.159000X-0.189000X0.159000X-0.189000X-0.159000X0*%
%ADD28RoundRect,0.250000X-0.600000X-0.725000X0.600000X-0.725000X0.600000X0.725000X-0.600000X0.725000X0*%
%ADD29O,1.700000X1.950000*%
%ADD30RoundRect,0.219000X-0.294000X0.219000X-0.294000X-0.219000X0.294000X-0.219000X0.294000X0.219000X0*%
%ADD31RoundRect,0.131500X-0.206500X-0.131500X0.206500X-0.131500X0.206500X0.131500X-0.206500X0.131500X0*%
%ADD32RoundRect,0.239000X-0.239000X-0.274000X0.239000X-0.274000X0.239000X0.274000X-0.239000X0.274000X0*%
%ADD33RoundRect,0.250000X-1.000000X-0.300000X1.000000X-0.300000X1.000000X0.300000X-1.000000X0.300000X0*%
%ADD34C,0.500000*%
%ADD35RoundRect,0.250000X-0.920000X-1.550000X0.920000X-1.550000X0.920000X1.550000X-0.920000X1.550000X0*%
%ADD36C,3.100000*%
%ADD37C,4.700000*%
%ADD38R,1.000000X3.000000*%
%ADD39RoundRect,0.244000X-0.244000X-0.269000X0.244000X-0.269000X0.244000X0.269000X-0.244000X0.269000X0*%
%ADD40C,1.296000*%
%ADD41RoundRect,0.159000X0.159000X0.189000X-0.159000X0.189000X-0.159000X-0.189000X0.159000X-0.189000X0*%
%ADD42R,1.700000X1.700000*%
%ADD43C,1.700000*%
%ADD44O,1.950000X0.570000*%
%ADD45RoundRect,0.244000X-0.269000X0.244000X-0.269000X-0.244000X0.269000X-0.244000X0.269000X0.244000X0*%
%ADD46C,2.700000*%
%ADD47RoundRect,0.244000X0.269000X-0.244000X0.269000X0.244000X-0.269000X0.244000X-0.269000X-0.244000X0*%
%ADD48RoundRect,0.159000X-0.159000X-0.189000X0.159000X-0.189000X0.159000X0.189000X-0.159000X0.189000X0*%
%ADD49RoundRect,0.100000X-0.100000X0.637500X-0.100000X-0.637500X0.100000X-0.637500X0.100000X0.637500X0*%
%ADD50RoundRect,0.100000X-0.640000X-0.100000X0.640000X-0.100000X0.640000X0.100000X-0.640000X0.100000X0*%
%ADD51RoundRect,0.287778X-0.714222X0.489222X-0.714222X-0.489222X0.714222X-0.489222X0.714222X0.489222X0*%
%ADD52RoundRect,0.250000X-0.450000X-0.350000X0.450000X-0.350000X0.450000X0.350000X-0.450000X0.350000X0*%
G04 APERTURE END LIST*
D10*
X78689467Y-129776165D02*
X86910534Y-129776165D01*
X86910534Y-131423836D01*
X78689467Y-131423836D01*
X78689467Y-129776165D01*
X79400000Y-128800000D02*
X80200000Y-128800000D01*
X79800000Y-126300000D02*
X79800000Y-128100000D01*
X79800000Y-129400000D02*
X79400000Y-128800000D01*
X80200000Y-128800000D02*
X79800000Y-129400000D01*
X81600000Y-126300000D02*
X79800000Y-126300000D01*
X82200000Y-125500000D02*
X82200000Y-124100000D01*
X82800000Y-126300000D02*
X82200000Y-125500000D01*
X84800000Y-126300000D02*
X83000000Y-126300000D01*
X84800000Y-128100000D02*
X84800000Y-126300000D01*
X174500000Y-97385000D02*
X172700000Y-97385000D01*
X174500000Y-97385000D02*
X173900000Y-96985000D01*
X174500000Y-97385000D02*
X173900000Y-97785000D01*
X79198113Y-130997536D02*
X79198113Y-130397536D01*
X79198113Y-130397536D02*
X79540970Y-130997536D01*
X79540970Y-130997536D02*
X79540970Y-130397536D01*
X79940969Y-130397536D02*
X80055255Y-130397536D01*
X80055255Y-130397536D02*
X80112398Y-130426107D01*
X80112398Y-130426107D02*
X80169541Y-130483250D01*
X80169541Y-130483250D02*
X80198112Y-130597536D01*
X80198112Y-130597536D02*
X80198112Y-130797536D01*
X80198112Y-130797536D02*
X80169541Y-130911822D01*
X80169541Y-130911822D02*
X80112398Y-130968965D01*
X80112398Y-130968965D02*
X80055255Y-130997536D01*
X80055255Y-130997536D02*
X79940969Y-130997536D01*
X79940969Y-130997536D02*
X79883827Y-130968965D01*
X79883827Y-130968965D02*
X79826684Y-130911822D01*
X79826684Y-130911822D02*
X79798112Y-130797536D01*
X79798112Y-130797536D02*
X79798112Y-130597536D01*
X79798112Y-130597536D02*
X79826684Y-130483250D01*
X79826684Y-130483250D02*
X79883827Y-130426107D01*
X79883827Y-130426107D02*
X79940969Y-130397536D01*
X81055255Y-131197536D02*
X81055255Y-130340393D01*
X82283827Y-130940393D02*
X82255255Y-130968965D01*
X82255255Y-130968965D02*
X82169541Y-130997536D01*
X82169541Y-130997536D02*
X82112398Y-130997536D01*
X82112398Y-130997536D02*
X82026684Y-130968965D01*
X82026684Y-130968965D02*
X81969541Y-130911822D01*
X81969541Y-130911822D02*
X81940970Y-130854679D01*
X81940970Y-130854679D02*
X81912398Y-130740393D01*
X81912398Y-130740393D02*
X81912398Y-130654679D01*
X81912398Y-130654679D02*
X81940970Y-130540393D01*
X81940970Y-130540393D02*
X81969541Y-130483250D01*
X81969541Y-130483250D02*
X82026684Y-130426107D01*
X82026684Y-130426107D02*
X82112398Y-130397536D01*
X82112398Y-130397536D02*
X82169541Y-130397536D01*
X82169541Y-130397536D02*
X82255255Y-130426107D01*
X82255255Y-130426107D02*
X82283827Y-130454679D01*
X82655255Y-130397536D02*
X82769541Y-130397536D01*
X82769541Y-130397536D02*
X82826684Y-130426107D01*
X82826684Y-130426107D02*
X82883827Y-130483250D01*
X82883827Y-130483250D02*
X82912398Y-130597536D01*
X82912398Y-130597536D02*
X82912398Y-130797536D01*
X82912398Y-130797536D02*
X82883827Y-130911822D01*
X82883827Y-130911822D02*
X82826684Y-130968965D01*
X82826684Y-130968965D02*
X82769541Y-130997536D01*
X82769541Y-130997536D02*
X82655255Y-130997536D01*
X82655255Y-130997536D02*
X82598113Y-130968965D01*
X82598113Y-130968965D02*
X82540970Y-130911822D01*
X82540970Y-130911822D02*
X82512398Y-130797536D01*
X82512398Y-130797536D02*
X82512398Y-130597536D01*
X82512398Y-130597536D02*
X82540970Y-130483250D01*
X82540970Y-130483250D02*
X82598113Y-130426107D01*
X82598113Y-130426107D02*
X82655255Y-130397536D01*
X83169541Y-130997536D02*
X83169541Y-130397536D01*
X83169541Y-130397536D02*
X83369541Y-130826107D01*
X83369541Y-130826107D02*
X83569541Y-130397536D01*
X83569541Y-130397536D02*
X83569541Y-130997536D01*
X84455255Y-131197536D02*
X84455255Y-130340393D01*
X85340970Y-130997536D02*
X85340970Y-130397536D01*
X85340970Y-130397536D02*
X85683827Y-130997536D01*
X85683827Y-130997536D02*
X85683827Y-130397536D01*
X86312398Y-130940393D02*
X86283826Y-130968965D01*
X86283826Y-130968965D02*
X86198112Y-130997536D01*
X86198112Y-130997536D02*
X86140969Y-130997536D01*
X86140969Y-130997536D02*
X86055255Y-130968965D01*
X86055255Y-130968965D02*
X85998112Y-130911822D01*
X85998112Y-130911822D02*
X85969541Y-130854679D01*
X85969541Y-130854679D02*
X85940969Y-130740393D01*
X85940969Y-130740393D02*
X85940969Y-130654679D01*
X85940969Y-130654679D02*
X85969541Y-130540393D01*
X85969541Y-130540393D02*
X85998112Y-130483250D01*
X85998112Y-130483250D02*
X86055255Y-130426107D01*
X86055255Y-130426107D02*
X86140969Y-130397536D01*
X86140969Y-130397536D02*
X86198112Y-130397536D01*
X86198112Y-130397536D02*
X86283826Y-130426107D01*
X86283826Y-130426107D02*
X86312398Y-130454679D01*
D11*
X80237303Y-118454136D02*
X79237303Y-118454136D01*
X79237303Y-118454136D02*
X79951588Y-118154136D01*
X79951588Y-118154136D02*
X79237303Y-117854136D01*
X79237303Y-117854136D02*
X80237303Y-117854136D01*
X80237303Y-117425565D02*
X79237303Y-117425565D01*
X79237303Y-117425565D02*
X79951588Y-117125565D01*
X79951588Y-117125565D02*
X79237303Y-116825565D01*
X79237303Y-116825565D02*
X80237303Y-116825565D01*
X80189684Y-116439851D02*
X80237303Y-116311280D01*
X80237303Y-116311280D02*
X80237303Y-116096994D01*
X80237303Y-116096994D02*
X80189684Y-116011280D01*
X80189684Y-116011280D02*
X80142064Y-115968422D01*
X80142064Y-115968422D02*
X80046826Y-115925565D01*
X80046826Y-115925565D02*
X79951588Y-115925565D01*
X79951588Y-115925565D02*
X79856350Y-115968422D01*
X79856350Y-115968422D02*
X79808731Y-116011280D01*
X79808731Y-116011280D02*
X79761112Y-116096994D01*
X79761112Y-116096994D02*
X79713493Y-116268422D01*
X79713493Y-116268422D02*
X79665874Y-116354137D01*
X79665874Y-116354137D02*
X79618255Y-116396994D01*
X79618255Y-116396994D02*
X79523017Y-116439851D01*
X79523017Y-116439851D02*
X79427779Y-116439851D01*
X79427779Y-116439851D02*
X79332541Y-116396994D01*
X79332541Y-116396994D02*
X79284922Y-116354137D01*
X79284922Y-116354137D02*
X79237303Y-116268422D01*
X79237303Y-116268422D02*
X79237303Y-116054137D01*
X79237303Y-116054137D02*
X79284922Y-115925565D01*
X79237303Y-115625565D02*
X79237303Y-115068422D01*
X79237303Y-115068422D02*
X79618255Y-115368422D01*
X79618255Y-115368422D02*
X79618255Y-115239851D01*
X79618255Y-115239851D02*
X79665874Y-115154137D01*
X79665874Y-115154137D02*
X79713493Y-115111279D01*
X79713493Y-115111279D02*
X79808731Y-115068422D01*
X79808731Y-115068422D02*
X80046826Y-115068422D01*
X80046826Y-115068422D02*
X80142064Y-115111279D01*
X80142064Y-115111279D02*
X80189684Y-115154137D01*
X80189684Y-115154137D02*
X80237303Y-115239851D01*
X80237303Y-115239851D02*
X80237303Y-115496994D01*
X80237303Y-115496994D02*
X80189684Y-115582708D01*
X80189684Y-115582708D02*
X80142064Y-115625565D01*
X80237303Y-113996994D02*
X79237303Y-113996994D01*
X79713493Y-113996994D02*
X79713493Y-113482708D01*
X80237303Y-113482708D02*
X79237303Y-113482708D01*
X80237303Y-112668423D02*
X79713493Y-112668423D01*
X79713493Y-112668423D02*
X79618255Y-112711280D01*
X79618255Y-112711280D02*
X79570636Y-112796994D01*
X79570636Y-112796994D02*
X79570636Y-112968423D01*
X79570636Y-112968423D02*
X79618255Y-113054137D01*
X80189684Y-112668423D02*
X80237303Y-112754137D01*
X80237303Y-112754137D02*
X80237303Y-112968423D01*
X80237303Y-112968423D02*
X80189684Y-113054137D01*
X80189684Y-113054137D02*
X80094445Y-113096994D01*
X80094445Y-113096994D02*
X79999207Y-113096994D01*
X79999207Y-113096994D02*
X79903969Y-113054137D01*
X79903969Y-113054137D02*
X79856350Y-112968423D01*
X79856350Y-112968423D02*
X79856350Y-112754137D01*
X79856350Y-112754137D02*
X79808731Y-112668423D01*
X79570636Y-112368422D02*
X79570636Y-112025565D01*
X79237303Y-112239851D02*
X80094445Y-112239851D01*
X80094445Y-112239851D02*
X80189684Y-112196994D01*
X80189684Y-112196994D02*
X80237303Y-112111279D01*
X80237303Y-112111279D02*
X80237303Y-112025565D01*
X80237303Y-111039851D02*
X79570636Y-111039851D01*
X79761112Y-111039851D02*
X79665874Y-110996994D01*
X79665874Y-110996994D02*
X79618255Y-110954137D01*
X79618255Y-110954137D02*
X79570636Y-110868422D01*
X79570636Y-110868422D02*
X79570636Y-110782708D01*
X80189684Y-110139851D02*
X80237303Y-110225565D01*
X80237303Y-110225565D02*
X80237303Y-110396994D01*
X80237303Y-110396994D02*
X80189684Y-110482708D01*
X80189684Y-110482708D02*
X80094445Y-110525565D01*
X80094445Y-110525565D02*
X79713493Y-110525565D01*
X79713493Y-110525565D02*
X79618255Y-110482708D01*
X79618255Y-110482708D02*
X79570636Y-110396994D01*
X79570636Y-110396994D02*
X79570636Y-110225565D01*
X79570636Y-110225565D02*
X79618255Y-110139851D01*
X79618255Y-110139851D02*
X79713493Y-110096994D01*
X79713493Y-110096994D02*
X79808731Y-110096994D01*
X79808731Y-110096994D02*
X79903969Y-110525565D01*
X80237303Y-109582707D02*
X80189684Y-109668422D01*
X80189684Y-109668422D02*
X80094445Y-109711279D01*
X80094445Y-109711279D02*
X79237303Y-109711279D01*
X80237303Y-108854136D02*
X79713493Y-108854136D01*
X79713493Y-108854136D02*
X79618255Y-108896993D01*
X79618255Y-108896993D02*
X79570636Y-108982707D01*
X79570636Y-108982707D02*
X79570636Y-109154136D01*
X79570636Y-109154136D02*
X79618255Y-109239850D01*
X80189684Y-108854136D02*
X80237303Y-108939850D01*
X80237303Y-108939850D02*
X80237303Y-109154136D01*
X80237303Y-109154136D02*
X80189684Y-109239850D01*
X80189684Y-109239850D02*
X80094445Y-109282707D01*
X80094445Y-109282707D02*
X79999207Y-109282707D01*
X79999207Y-109282707D02*
X79903969Y-109239850D01*
X79903969Y-109239850D02*
X79856350Y-109154136D01*
X79856350Y-109154136D02*
X79856350Y-108939850D01*
X79856350Y-108939850D02*
X79808731Y-108854136D01*
X79570636Y-108511278D02*
X80237303Y-108296992D01*
X79570636Y-108082707D02*
X80237303Y-108296992D01*
X80237303Y-108296992D02*
X80475398Y-108382707D01*
X80475398Y-108382707D02*
X80523017Y-108425564D01*
X80523017Y-108425564D02*
X80570636Y-108511278D01*
X80847247Y-118582707D02*
X81847247Y-118282707D01*
X81847247Y-118282707D02*
X80847247Y-117982707D01*
X81799628Y-117339850D02*
X81847247Y-117425564D01*
X81847247Y-117425564D02*
X81847247Y-117596993D01*
X81847247Y-117596993D02*
X81799628Y-117682707D01*
X81799628Y-117682707D02*
X81704389Y-117725564D01*
X81704389Y-117725564D02*
X81323437Y-117725564D01*
X81323437Y-117725564D02*
X81228199Y-117682707D01*
X81228199Y-117682707D02*
X81180580Y-117596993D01*
X81180580Y-117596993D02*
X81180580Y-117425564D01*
X81180580Y-117425564D02*
X81228199Y-117339850D01*
X81228199Y-117339850D02*
X81323437Y-117296993D01*
X81323437Y-117296993D02*
X81418675Y-117296993D01*
X81418675Y-117296993D02*
X81513913Y-117725564D01*
X81847247Y-116911278D02*
X81180580Y-116911278D01*
X81371056Y-116911278D02*
X81275818Y-116868421D01*
X81275818Y-116868421D02*
X81228199Y-116825564D01*
X81228199Y-116825564D02*
X81180580Y-116739849D01*
X81180580Y-116739849D02*
X81180580Y-116654135D01*
X81799628Y-116396992D02*
X81847247Y-116311278D01*
X81847247Y-116311278D02*
X81847247Y-116139849D01*
X81847247Y-116139849D02*
X81799628Y-116054135D01*
X81799628Y-116054135D02*
X81704389Y-116011278D01*
X81704389Y-116011278D02*
X81656770Y-116011278D01*
X81656770Y-116011278D02*
X81561532Y-116054135D01*
X81561532Y-116054135D02*
X81513913Y-116139849D01*
X81513913Y-116139849D02*
X81513913Y-116268421D01*
X81513913Y-116268421D02*
X81466294Y-116354135D01*
X81466294Y-116354135D02*
X81371056Y-116396992D01*
X81371056Y-116396992D02*
X81323437Y-116396992D01*
X81323437Y-116396992D02*
X81228199Y-116354135D01*
X81228199Y-116354135D02*
X81180580Y-116268421D01*
X81180580Y-116268421D02*
X81180580Y-116139849D01*
X81180580Y-116139849D02*
X81228199Y-116054135D01*
X81847247Y-115625564D02*
X81180580Y-115625564D01*
X80847247Y-115625564D02*
X80894866Y-115668421D01*
X80894866Y-115668421D02*
X80942485Y-115625564D01*
X80942485Y-115625564D02*
X80894866Y-115582707D01*
X80894866Y-115582707D02*
X80847247Y-115625564D01*
X80847247Y-115625564D02*
X80942485Y-115625564D01*
X81847247Y-115068421D02*
X81799628Y-115154136D01*
X81799628Y-115154136D02*
X81752008Y-115196993D01*
X81752008Y-115196993D02*
X81656770Y-115239850D01*
X81656770Y-115239850D02*
X81371056Y-115239850D01*
X81371056Y-115239850D02*
X81275818Y-115196993D01*
X81275818Y-115196993D02*
X81228199Y-115154136D01*
X81228199Y-115154136D02*
X81180580Y-115068421D01*
X81180580Y-115068421D02*
X81180580Y-114939850D01*
X81180580Y-114939850D02*
X81228199Y-114854136D01*
X81228199Y-114854136D02*
X81275818Y-114811279D01*
X81275818Y-114811279D02*
X81371056Y-114768421D01*
X81371056Y-114768421D02*
X81656770Y-114768421D01*
X81656770Y-114768421D02*
X81752008Y-114811279D01*
X81752008Y-114811279D02*
X81799628Y-114854136D01*
X81799628Y-114854136D02*
X81847247Y-114939850D01*
X81847247Y-114939850D02*
X81847247Y-115068421D01*
X81180580Y-114382707D02*
X81847247Y-114382707D01*
X81275818Y-114382707D02*
X81228199Y-114339850D01*
X81228199Y-114339850D02*
X81180580Y-114254135D01*
X81180580Y-114254135D02*
X81180580Y-114125564D01*
X81180580Y-114125564D02*
X81228199Y-114039850D01*
X81228199Y-114039850D02*
X81323437Y-113996993D01*
X81323437Y-113996993D02*
X81847247Y-113996993D01*
X81847247Y-112411278D02*
X81847247Y-112925564D01*
X81847247Y-112668421D02*
X80847247Y-112668421D01*
X80847247Y-112668421D02*
X80990104Y-112754135D01*
X80990104Y-112754135D02*
X81085342Y-112839850D01*
X81085342Y-112839850D02*
X81132961Y-112925564D01*
X81752008Y-112025564D02*
X81799628Y-111982707D01*
X81799628Y-111982707D02*
X81847247Y-112025564D01*
X81847247Y-112025564D02*
X81799628Y-112068421D01*
X81799628Y-112068421D02*
X81752008Y-112025564D01*
X81752008Y-112025564D02*
X81847247Y-112025564D01*
X80847247Y-111425564D02*
X80847247Y-111339850D01*
X80847247Y-111339850D02*
X80894866Y-111254136D01*
X80894866Y-111254136D02*
X80942485Y-111211279D01*
X80942485Y-111211279D02*
X81037723Y-111168421D01*
X81037723Y-111168421D02*
X81228199Y-111125564D01*
X81228199Y-111125564D02*
X81466294Y-111125564D01*
X81466294Y-111125564D02*
X81656770Y-111168421D01*
X81656770Y-111168421D02*
X81752008Y-111211279D01*
X81752008Y-111211279D02*
X81799628Y-111254136D01*
X81799628Y-111254136D02*
X81847247Y-111339850D01*
X81847247Y-111339850D02*
X81847247Y-111425564D01*
X81847247Y-111425564D02*
X81799628Y-111511279D01*
X81799628Y-111511279D02*
X81752008Y-111554136D01*
X81752008Y-111554136D02*
X81656770Y-111596993D01*
X81656770Y-111596993D02*
X81466294Y-111639850D01*
X81466294Y-111639850D02*
X81228199Y-111639850D01*
X81228199Y-111639850D02*
X81037723Y-111596993D01*
X81037723Y-111596993D02*
X80942485Y-111554136D01*
X80942485Y-111554136D02*
X80894866Y-111511279D01*
X80894866Y-111511279D02*
X80847247Y-111425564D01*
X83457191Y-118454136D02*
X82457191Y-118454136D01*
X82457191Y-118454136D02*
X83171476Y-118154136D01*
X83171476Y-118154136D02*
X82457191Y-117854136D01*
X82457191Y-117854136D02*
X83457191Y-117854136D01*
X83457191Y-117039851D02*
X82933381Y-117039851D01*
X82933381Y-117039851D02*
X82838143Y-117082708D01*
X82838143Y-117082708D02*
X82790524Y-117168422D01*
X82790524Y-117168422D02*
X82790524Y-117339851D01*
X82790524Y-117339851D02*
X82838143Y-117425565D01*
X83409572Y-117039851D02*
X83457191Y-117125565D01*
X83457191Y-117125565D02*
X83457191Y-117339851D01*
X83457191Y-117339851D02*
X83409572Y-117425565D01*
X83409572Y-117425565D02*
X83314333Y-117468422D01*
X83314333Y-117468422D02*
X83219095Y-117468422D01*
X83219095Y-117468422D02*
X83123857Y-117425565D01*
X83123857Y-117425565D02*
X83076238Y-117339851D01*
X83076238Y-117339851D02*
X83076238Y-117125565D01*
X83076238Y-117125565D02*
X83028619Y-117039851D01*
X83457191Y-116225565D02*
X82457191Y-116225565D01*
X83409572Y-116225565D02*
X83457191Y-116311279D01*
X83457191Y-116311279D02*
X83457191Y-116482707D01*
X83457191Y-116482707D02*
X83409572Y-116568422D01*
X83409572Y-116568422D02*
X83361952Y-116611279D01*
X83361952Y-116611279D02*
X83266714Y-116654136D01*
X83266714Y-116654136D02*
X82981000Y-116654136D01*
X82981000Y-116654136D02*
X82885762Y-116611279D01*
X82885762Y-116611279D02*
X82838143Y-116568422D01*
X82838143Y-116568422D02*
X82790524Y-116482707D01*
X82790524Y-116482707D02*
X82790524Y-116311279D01*
X82790524Y-116311279D02*
X82838143Y-116225565D01*
X83409572Y-115454136D02*
X83457191Y-115539850D01*
X83457191Y-115539850D02*
X83457191Y-115711279D01*
X83457191Y-115711279D02*
X83409572Y-115796993D01*
X83409572Y-115796993D02*
X83314333Y-115839850D01*
X83314333Y-115839850D02*
X82933381Y-115839850D01*
X82933381Y-115839850D02*
X82838143Y-115796993D01*
X82838143Y-115796993D02*
X82790524Y-115711279D01*
X82790524Y-115711279D02*
X82790524Y-115539850D01*
X82790524Y-115539850D02*
X82838143Y-115454136D01*
X82838143Y-115454136D02*
X82933381Y-115411279D01*
X82933381Y-115411279D02*
X83028619Y-115411279D01*
X83028619Y-115411279D02*
X83123857Y-115839850D01*
X83457191Y-114339850D02*
X82457191Y-114339850D01*
X82838143Y-114339850D02*
X82790524Y-114254136D01*
X82790524Y-114254136D02*
X82790524Y-114082707D01*
X82790524Y-114082707D02*
X82838143Y-113996993D01*
X82838143Y-113996993D02*
X82885762Y-113954136D01*
X82885762Y-113954136D02*
X82981000Y-113911278D01*
X82981000Y-113911278D02*
X83266714Y-113911278D01*
X83266714Y-113911278D02*
X83361952Y-113954136D01*
X83361952Y-113954136D02*
X83409572Y-113996993D01*
X83409572Y-113996993D02*
X83457191Y-114082707D01*
X83457191Y-114082707D02*
X83457191Y-114254136D01*
X83457191Y-114254136D02*
X83409572Y-114339850D01*
X82790524Y-113611278D02*
X83457191Y-113396992D01*
X82790524Y-113182707D02*
X83457191Y-113396992D01*
X83457191Y-113396992D02*
X83695286Y-113482707D01*
X83695286Y-113482707D02*
X83742905Y-113525564D01*
X83742905Y-113525564D02*
X83790524Y-113611278D01*
X84067135Y-118539850D02*
X85067135Y-118325564D01*
X85067135Y-118325564D02*
X84352849Y-118154136D01*
X84352849Y-118154136D02*
X85067135Y-117982707D01*
X85067135Y-117982707D02*
X84067135Y-117768422D01*
X85067135Y-117296993D02*
X85019516Y-117382708D01*
X85019516Y-117382708D02*
X84971896Y-117425565D01*
X84971896Y-117425565D02*
X84876658Y-117468422D01*
X84876658Y-117468422D02*
X84590944Y-117468422D01*
X84590944Y-117468422D02*
X84495706Y-117425565D01*
X84495706Y-117425565D02*
X84448087Y-117382708D01*
X84448087Y-117382708D02*
X84400468Y-117296993D01*
X84400468Y-117296993D02*
X84400468Y-117168422D01*
X84400468Y-117168422D02*
X84448087Y-117082708D01*
X84448087Y-117082708D02*
X84495706Y-117039851D01*
X84495706Y-117039851D02*
X84590944Y-116996993D01*
X84590944Y-116996993D02*
X84876658Y-116996993D01*
X84876658Y-116996993D02*
X84971896Y-117039851D01*
X84971896Y-117039851D02*
X85019516Y-117082708D01*
X85019516Y-117082708D02*
X85067135Y-117168422D01*
X85067135Y-117168422D02*
X85067135Y-117296993D01*
X84400468Y-116611279D02*
X85257611Y-116611279D01*
X85257611Y-116611279D02*
X85352849Y-116654136D01*
X85352849Y-116654136D02*
X85400468Y-116739850D01*
X85400468Y-116739850D02*
X85400468Y-116782707D01*
X84067135Y-116611279D02*
X84114754Y-116654136D01*
X84114754Y-116654136D02*
X84162373Y-116611279D01*
X84162373Y-116611279D02*
X84114754Y-116568422D01*
X84114754Y-116568422D02*
X84067135Y-116611279D01*
X84067135Y-116611279D02*
X84162373Y-116611279D01*
X85019516Y-115796994D02*
X85067135Y-115882708D01*
X85067135Y-115882708D02*
X85067135Y-116054136D01*
X85067135Y-116054136D02*
X85019516Y-116139851D01*
X85019516Y-116139851D02*
X84971896Y-116182708D01*
X84971896Y-116182708D02*
X84876658Y-116225565D01*
X84876658Y-116225565D02*
X84590944Y-116225565D01*
X84590944Y-116225565D02*
X84495706Y-116182708D01*
X84495706Y-116182708D02*
X84448087Y-116139851D01*
X84448087Y-116139851D02*
X84400468Y-116054136D01*
X84400468Y-116054136D02*
X84400468Y-115882708D01*
X84400468Y-115882708D02*
X84448087Y-115796994D01*
X85067135Y-115411279D02*
X84400468Y-115411279D01*
X84067135Y-115411279D02*
X84114754Y-115454136D01*
X84114754Y-115454136D02*
X84162373Y-115411279D01*
X84162373Y-115411279D02*
X84114754Y-115368422D01*
X84114754Y-115368422D02*
X84067135Y-115411279D01*
X84067135Y-115411279D02*
X84162373Y-115411279D01*
X85019516Y-114639851D02*
X85067135Y-114725565D01*
X85067135Y-114725565D02*
X85067135Y-114896994D01*
X85067135Y-114896994D02*
X85019516Y-114982708D01*
X85019516Y-114982708D02*
X84924277Y-115025565D01*
X84924277Y-115025565D02*
X84543325Y-115025565D01*
X84543325Y-115025565D02*
X84448087Y-114982708D01*
X84448087Y-114982708D02*
X84400468Y-114896994D01*
X84400468Y-114896994D02*
X84400468Y-114725565D01*
X84400468Y-114725565D02*
X84448087Y-114639851D01*
X84448087Y-114639851D02*
X84543325Y-114596994D01*
X84543325Y-114596994D02*
X84638563Y-114596994D01*
X84638563Y-114596994D02*
X84733801Y-115025565D01*
X85019516Y-113825565D02*
X85067135Y-113911279D01*
X85067135Y-113911279D02*
X85067135Y-114082707D01*
X85067135Y-114082707D02*
X85019516Y-114168422D01*
X85019516Y-114168422D02*
X84971896Y-114211279D01*
X84971896Y-114211279D02*
X84876658Y-114254136D01*
X84876658Y-114254136D02*
X84590944Y-114254136D01*
X84590944Y-114254136D02*
X84495706Y-114211279D01*
X84495706Y-114211279D02*
X84448087Y-114168422D01*
X84448087Y-114168422D02*
X84400468Y-114082707D01*
X84400468Y-114082707D02*
X84400468Y-113911279D01*
X84400468Y-113911279D02*
X84448087Y-113825565D01*
X85067135Y-113439850D02*
X84067135Y-113439850D01*
X85067135Y-113054136D02*
X84543325Y-113054136D01*
X84543325Y-113054136D02*
X84448087Y-113096993D01*
X84448087Y-113096993D02*
X84400468Y-113182707D01*
X84400468Y-113182707D02*
X84400468Y-113311278D01*
X84400468Y-113311278D02*
X84448087Y-113396993D01*
X84448087Y-113396993D02*
X84495706Y-113439850D01*
X85019516Y-111982707D02*
X85067135Y-111854136D01*
X85067135Y-111854136D02*
X85067135Y-111639850D01*
X85067135Y-111639850D02*
X85019516Y-111554136D01*
X85019516Y-111554136D02*
X84971896Y-111511278D01*
X84971896Y-111511278D02*
X84876658Y-111468421D01*
X84876658Y-111468421D02*
X84781420Y-111468421D01*
X84781420Y-111468421D02*
X84686182Y-111511278D01*
X84686182Y-111511278D02*
X84638563Y-111554136D01*
X84638563Y-111554136D02*
X84590944Y-111639850D01*
X84590944Y-111639850D02*
X84543325Y-111811278D01*
X84543325Y-111811278D02*
X84495706Y-111896993D01*
X84495706Y-111896993D02*
X84448087Y-111939850D01*
X84448087Y-111939850D02*
X84352849Y-111982707D01*
X84352849Y-111982707D02*
X84257611Y-111982707D01*
X84257611Y-111982707D02*
X84162373Y-111939850D01*
X84162373Y-111939850D02*
X84114754Y-111896993D01*
X84114754Y-111896993D02*
X84067135Y-111811278D01*
X84067135Y-111811278D02*
X84067135Y-111596993D01*
X84067135Y-111596993D02*
X84114754Y-111468421D01*
X84400468Y-111168421D02*
X84400468Y-110696993D01*
X84400468Y-110696993D02*
X85067135Y-111168421D01*
X85067135Y-111168421D02*
X85067135Y-110696993D01*
X85067135Y-109968422D02*
X84543325Y-109968422D01*
X84543325Y-109968422D02*
X84448087Y-110011279D01*
X84448087Y-110011279D02*
X84400468Y-110096993D01*
X84400468Y-110096993D02*
X84400468Y-110268422D01*
X84400468Y-110268422D02*
X84448087Y-110354136D01*
X85019516Y-109968422D02*
X85067135Y-110054136D01*
X85067135Y-110054136D02*
X85067135Y-110268422D01*
X85067135Y-110268422D02*
X85019516Y-110354136D01*
X85019516Y-110354136D02*
X84924277Y-110396993D01*
X84924277Y-110396993D02*
X84829039Y-110396993D01*
X84829039Y-110396993D02*
X84733801Y-110354136D01*
X84733801Y-110354136D02*
X84686182Y-110268422D01*
X84686182Y-110268422D02*
X84686182Y-110054136D01*
X84686182Y-110054136D02*
X84638563Y-109968422D01*
X84400468Y-109668421D02*
X84400468Y-109325564D01*
X85067135Y-109539850D02*
X84209992Y-109539850D01*
X84209992Y-109539850D02*
X84114754Y-109496993D01*
X84114754Y-109496993D02*
X84067135Y-109411278D01*
X84067135Y-109411278D02*
X84067135Y-109325564D01*
X85067135Y-109025564D02*
X84400468Y-109025564D01*
X84590944Y-109025564D02*
X84495706Y-108982707D01*
X84495706Y-108982707D02*
X84448087Y-108939850D01*
X84448087Y-108939850D02*
X84400468Y-108854135D01*
X84400468Y-108854135D02*
X84400468Y-108768421D01*
X85067135Y-108082707D02*
X84543325Y-108082707D01*
X84543325Y-108082707D02*
X84448087Y-108125564D01*
X84448087Y-108125564D02*
X84400468Y-108211278D01*
X84400468Y-108211278D02*
X84400468Y-108382707D01*
X84400468Y-108382707D02*
X84448087Y-108468421D01*
X85019516Y-108082707D02*
X85067135Y-108168421D01*
X85067135Y-108168421D02*
X85067135Y-108382707D01*
X85067135Y-108382707D02*
X85019516Y-108468421D01*
X85019516Y-108468421D02*
X84924277Y-108511278D01*
X84924277Y-108511278D02*
X84829039Y-108511278D01*
X84829039Y-108511278D02*
X84733801Y-108468421D01*
X84733801Y-108468421D02*
X84686182Y-108382707D01*
X84686182Y-108382707D02*
X84686182Y-108168421D01*
X84686182Y-108168421D02*
X84638563Y-108082707D01*
X84400468Y-107654135D02*
X85067135Y-107654135D01*
X84495706Y-107654135D02*
X84448087Y-107611278D01*
X84448087Y-107611278D02*
X84400468Y-107525563D01*
X84400468Y-107525563D02*
X84400468Y-107396992D01*
X84400468Y-107396992D02*
X84448087Y-107311278D01*
X84448087Y-107311278D02*
X84543325Y-107268421D01*
X84543325Y-107268421D02*
X85067135Y-107268421D01*
X84019516Y-107396992D02*
X84162373Y-107525563D01*
X85019516Y-106882706D02*
X85067135Y-106796992D01*
X85067135Y-106796992D02*
X85067135Y-106625563D01*
X85067135Y-106625563D02*
X85019516Y-106539849D01*
X85019516Y-106539849D02*
X84924277Y-106496992D01*
X84924277Y-106496992D02*
X84876658Y-106496992D01*
X84876658Y-106496992D02*
X84781420Y-106539849D01*
X84781420Y-106539849D02*
X84733801Y-106625563D01*
X84733801Y-106625563D02*
X84733801Y-106754135D01*
X84733801Y-106754135D02*
X84686182Y-106839849D01*
X84686182Y-106839849D02*
X84590944Y-106882706D01*
X84590944Y-106882706D02*
X84543325Y-106882706D01*
X84543325Y-106882706D02*
X84448087Y-106839849D01*
X84448087Y-106839849D02*
X84400468Y-106754135D01*
X84400468Y-106754135D02*
X84400468Y-106625563D01*
X84400468Y-106625563D02*
X84448087Y-106539849D01*
X85067135Y-106111278D02*
X84067135Y-106111278D01*
X84686182Y-106025564D02*
X85067135Y-105768421D01*
X84400468Y-105768421D02*
X84781420Y-106111278D01*
X85067135Y-105382707D02*
X84400468Y-105382707D01*
X84067135Y-105382707D02*
X84114754Y-105425564D01*
X84114754Y-105425564D02*
X84162373Y-105382707D01*
X84162373Y-105382707D02*
X84114754Y-105339850D01*
X84114754Y-105339850D02*
X84067135Y-105382707D01*
X84067135Y-105382707D02*
X84162373Y-105382707D01*
D12*
X170602228Y-98542856D02*
X170649847Y-98399999D01*
X170649847Y-98399999D02*
X170649847Y-98161904D01*
X170649847Y-98161904D02*
X170602228Y-98066666D01*
X170602228Y-98066666D02*
X170554608Y-98019047D01*
X170554608Y-98019047D02*
X170459370Y-97971428D01*
X170459370Y-97971428D02*
X170364132Y-97971428D01*
X170364132Y-97971428D02*
X170268894Y-98019047D01*
X170268894Y-98019047D02*
X170221275Y-98066666D01*
X170221275Y-98066666D02*
X170173656Y-98161904D01*
X170173656Y-98161904D02*
X170126037Y-98352380D01*
X170126037Y-98352380D02*
X170078418Y-98447618D01*
X170078418Y-98447618D02*
X170030799Y-98495237D01*
X170030799Y-98495237D02*
X169935561Y-98542856D01*
X169935561Y-98542856D02*
X169840323Y-98542856D01*
X169840323Y-98542856D02*
X169745085Y-98495237D01*
X169745085Y-98495237D02*
X169697466Y-98447618D01*
X169697466Y-98447618D02*
X169649847Y-98352380D01*
X169649847Y-98352380D02*
X169649847Y-98114285D01*
X169649847Y-98114285D02*
X169697466Y-97971428D01*
X170126037Y-97542856D02*
X170126037Y-97209523D01*
X170649847Y-97066666D02*
X170649847Y-97542856D01*
X170649847Y-97542856D02*
X169649847Y-97542856D01*
X169649847Y-97542856D02*
X169649847Y-97066666D01*
X170649847Y-96161904D02*
X170649847Y-96638094D01*
X170649847Y-96638094D02*
X169649847Y-96638094D01*
X172259791Y-98042857D02*
X172259791Y-98519047D01*
X172259791Y-98519047D02*
X171259791Y-98519047D01*
X171735981Y-97709523D02*
X171735981Y-97376190D01*
X172259791Y-97233333D02*
X172259791Y-97709523D01*
X172259791Y-97709523D02*
X171259791Y-97709523D01*
X171259791Y-97709523D02*
X171259791Y-97233333D01*
X172259791Y-96804761D02*
X171259791Y-96804761D01*
X171259791Y-96804761D02*
X171259791Y-96566666D01*
X171259791Y-96566666D02*
X171307410Y-96423809D01*
X171307410Y-96423809D02*
X171402648Y-96328571D01*
X171402648Y-96328571D02*
X171497886Y-96280952D01*
X171497886Y-96280952D02*
X171688362Y-96233333D01*
X171688362Y-96233333D02*
X171831219Y-96233333D01*
X171831219Y-96233333D02*
X172021695Y-96280952D01*
X172021695Y-96280952D02*
X172116933Y-96328571D01*
X172116933Y-96328571D02*
X172212172Y-96423809D01*
X172212172Y-96423809D02*
X172259791Y-96566666D01*
X172259791Y-96566666D02*
X172259791Y-96804761D01*
X172407200Y-109814285D02*
X172454819Y-109671428D01*
X172454819Y-109671428D02*
X172454819Y-109433333D01*
X172454819Y-109433333D02*
X172407200Y-109338095D01*
X172407200Y-109338095D02*
X172359580Y-109290476D01*
X172359580Y-109290476D02*
X172264342Y-109242857D01*
X172264342Y-109242857D02*
X172169104Y-109242857D01*
X172169104Y-109242857D02*
X172073866Y-109290476D01*
X172073866Y-109290476D02*
X172026247Y-109338095D01*
X172026247Y-109338095D02*
X171978628Y-109433333D01*
X171978628Y-109433333D02*
X171931009Y-109623809D01*
X171931009Y-109623809D02*
X171883390Y-109719047D01*
X171883390Y-109719047D02*
X171835771Y-109766666D01*
X171835771Y-109766666D02*
X171740533Y-109814285D01*
X171740533Y-109814285D02*
X171645295Y-109814285D01*
X171645295Y-109814285D02*
X171550057Y-109766666D01*
X171550057Y-109766666D02*
X171502438Y-109719047D01*
X171502438Y-109719047D02*
X171454819Y-109623809D01*
X171454819Y-109623809D02*
X171454819Y-109385714D01*
X171454819Y-109385714D02*
X171502438Y-109242857D01*
X172454819Y-108814285D02*
X171454819Y-108814285D01*
X171454819Y-108814285D02*
X171454819Y-108576190D01*
X171454819Y-108576190D02*
X171502438Y-108433333D01*
X171502438Y-108433333D02*
X171597676Y-108338095D01*
X171597676Y-108338095D02*
X171692914Y-108290476D01*
X171692914Y-108290476D02*
X171883390Y-108242857D01*
X171883390Y-108242857D02*
X172026247Y-108242857D01*
X172026247Y-108242857D02*
X172216723Y-108290476D01*
X172216723Y-108290476D02*
X172311961Y-108338095D01*
X172311961Y-108338095D02*
X172407200Y-108433333D01*
X172407200Y-108433333D02*
X172454819Y-108576190D01*
X172454819Y-108576190D02*
X172454819Y-108814285D01*
X172169104Y-107861904D02*
X172169104Y-107385714D01*
X172454819Y-107957142D02*
X171454819Y-107623809D01*
X171454819Y-107623809D02*
X172454819Y-107290476D01*
X171597438Y-103161904D02*
X171549819Y-103257142D01*
X171549819Y-103257142D02*
X171549819Y-103399999D01*
X171549819Y-103399999D02*
X171597438Y-103542856D01*
X171597438Y-103542856D02*
X171692676Y-103638094D01*
X171692676Y-103638094D02*
X171787914Y-103685713D01*
X171787914Y-103685713D02*
X171978390Y-103733332D01*
X171978390Y-103733332D02*
X172121247Y-103733332D01*
X172121247Y-103733332D02*
X172311723Y-103685713D01*
X172311723Y-103685713D02*
X172406961Y-103638094D01*
X172406961Y-103638094D02*
X172502200Y-103542856D01*
X172502200Y-103542856D02*
X172549819Y-103399999D01*
X172549819Y-103399999D02*
X172549819Y-103304761D01*
X172549819Y-103304761D02*
X172502200Y-103161904D01*
X172502200Y-103161904D02*
X172454580Y-103114285D01*
X172454580Y-103114285D02*
X172121247Y-103114285D01*
X172121247Y-103114285D02*
X172121247Y-103304761D01*
X172549819Y-102685713D02*
X171549819Y-102685713D01*
X171549819Y-102685713D02*
X172549819Y-102114285D01*
X172549819Y-102114285D02*
X171549819Y-102114285D01*
X172549819Y-101638094D02*
X171549819Y-101638094D01*
X171549819Y-101638094D02*
X171549819Y-101399999D01*
X171549819Y-101399999D02*
X171597438Y-101257142D01*
X171597438Y-101257142D02*
X171692676Y-101161904D01*
X171692676Y-101161904D02*
X171787914Y-101114285D01*
X171787914Y-101114285D02*
X171978390Y-101066666D01*
X171978390Y-101066666D02*
X172121247Y-101066666D01*
X172121247Y-101066666D02*
X172311723Y-101114285D01*
X172311723Y-101114285D02*
X172406961Y-101161904D01*
X172406961Y-101161904D02*
X172502200Y-101257142D01*
X172502200Y-101257142D02*
X172549819Y-101399999D01*
X172549819Y-101399999D02*
X172549819Y-101638094D01*
X173877200Y-106850475D02*
X173924819Y-106707618D01*
X173924819Y-106707618D02*
X173924819Y-106469523D01*
X173924819Y-106469523D02*
X173877200Y-106374285D01*
X173877200Y-106374285D02*
X173829580Y-106326666D01*
X173829580Y-106326666D02*
X173734342Y-106279047D01*
X173734342Y-106279047D02*
X173639104Y-106279047D01*
X173639104Y-106279047D02*
X173543866Y-106326666D01*
X173543866Y-106326666D02*
X173496247Y-106374285D01*
X173496247Y-106374285D02*
X173448628Y-106469523D01*
X173448628Y-106469523D02*
X173401009Y-106659999D01*
X173401009Y-106659999D02*
X173353390Y-106755237D01*
X173353390Y-106755237D02*
X173305771Y-106802856D01*
X173305771Y-106802856D02*
X173210533Y-106850475D01*
X173210533Y-106850475D02*
X173115295Y-106850475D01*
X173115295Y-106850475D02*
X173020057Y-106802856D01*
X173020057Y-106802856D02*
X172972438Y-106755237D01*
X172972438Y-106755237D02*
X172924819Y-106659999D01*
X172924819Y-106659999D02*
X172924819Y-106421904D01*
X172924819Y-106421904D02*
X172972438Y-106279047D01*
X173829580Y-105279047D02*
X173877200Y-105326666D01*
X173877200Y-105326666D02*
X173924819Y-105469523D01*
X173924819Y-105469523D02*
X173924819Y-105564761D01*
X173924819Y-105564761D02*
X173877200Y-105707618D01*
X173877200Y-105707618D02*
X173781961Y-105802856D01*
X173781961Y-105802856D02*
X173686723Y-105850475D01*
X173686723Y-105850475D02*
X173496247Y-105898094D01*
X173496247Y-105898094D02*
X173353390Y-105898094D01*
X173353390Y-105898094D02*
X173162914Y-105850475D01*
X173162914Y-105850475D02*
X173067676Y-105802856D01*
X173067676Y-105802856D02*
X172972438Y-105707618D01*
X172972438Y-105707618D02*
X172924819Y-105564761D01*
X172924819Y-105564761D02*
X172924819Y-105469523D01*
X172924819Y-105469523D02*
X172972438Y-105326666D01*
X172972438Y-105326666D02*
X173020057Y-105279047D01*
X173924819Y-104374285D02*
X173924819Y-104850475D01*
X173924819Y-104850475D02*
X172924819Y-104850475D01*
X173124819Y-102048094D02*
X173124819Y-101429047D01*
X173124819Y-101429047D02*
X173505771Y-101762380D01*
X173505771Y-101762380D02*
X173505771Y-101619523D01*
X173505771Y-101619523D02*
X173553390Y-101524285D01*
X173553390Y-101524285D02*
X173601009Y-101476666D01*
X173601009Y-101476666D02*
X173696247Y-101429047D01*
X173696247Y-101429047D02*
X173934342Y-101429047D01*
X173934342Y-101429047D02*
X174029580Y-101476666D01*
X174029580Y-101476666D02*
X174077200Y-101524285D01*
X174077200Y-101524285D02*
X174124819Y-101619523D01*
X174124819Y-101619523D02*
X174124819Y-101905237D01*
X174124819Y-101905237D02*
X174077200Y-102000475D01*
X174077200Y-102000475D02*
X174029580Y-102048094D01*
X173124819Y-101143332D02*
X174124819Y-100809999D01*
X174124819Y-100809999D02*
X173124819Y-100476666D01*
X173124819Y-100238570D02*
X173124819Y-99619523D01*
X173124819Y-99619523D02*
X173505771Y-99952856D01*
X173505771Y-99952856D02*
X173505771Y-99809999D01*
X173505771Y-99809999D02*
X173553390Y-99714761D01*
X173553390Y-99714761D02*
X173601009Y-99667142D01*
X173601009Y-99667142D02*
X173696247Y-99619523D01*
X173696247Y-99619523D02*
X173934342Y-99619523D01*
X173934342Y-99619523D02*
X174029580Y-99667142D01*
X174029580Y-99667142D02*
X174077200Y-99714761D01*
X174077200Y-99714761D02*
X174124819Y-99809999D01*
X174124819Y-99809999D02*
X174124819Y-100095713D01*
X174124819Y-100095713D02*
X174077200Y-100190951D01*
X174077200Y-100190951D02*
X174029580Y-100238570D01*
D11*
X80267219Y-123530326D02*
X79267219Y-123530326D01*
X79267219Y-123530326D02*
X80267219Y-122958898D01*
X80267219Y-122958898D02*
X79267219Y-122958898D01*
X79267219Y-122292231D02*
X79267219Y-122101755D01*
X79267219Y-122101755D02*
X79314838Y-122006517D01*
X79314838Y-122006517D02*
X79410076Y-121911279D01*
X79410076Y-121911279D02*
X79600552Y-121863660D01*
X79600552Y-121863660D02*
X79933885Y-121863660D01*
X79933885Y-121863660D02*
X80124361Y-121911279D01*
X80124361Y-121911279D02*
X80219600Y-122006517D01*
X80219600Y-122006517D02*
X80267219Y-122101755D01*
X80267219Y-122101755D02*
X80267219Y-122292231D01*
X80267219Y-122292231D02*
X80219600Y-122387469D01*
X80219600Y-122387469D02*
X80124361Y-122482707D01*
X80124361Y-122482707D02*
X79933885Y-122530326D01*
X79933885Y-122530326D02*
X79600552Y-122530326D01*
X79600552Y-122530326D02*
X79410076Y-122482707D01*
X79410076Y-122482707D02*
X79314838Y-122387469D01*
X79314838Y-122387469D02*
X79267219Y-122292231D01*
X82571980Y-122758898D02*
X82619600Y-122806517D01*
X82619600Y-122806517D02*
X82667219Y-122949374D01*
X82667219Y-122949374D02*
X82667219Y-123044612D01*
X82667219Y-123044612D02*
X82619600Y-123187469D01*
X82619600Y-123187469D02*
X82524361Y-123282707D01*
X82524361Y-123282707D02*
X82429123Y-123330326D01*
X82429123Y-123330326D02*
X82238647Y-123377945D01*
X82238647Y-123377945D02*
X82095790Y-123377945D01*
X82095790Y-123377945D02*
X81905314Y-123330326D01*
X81905314Y-123330326D02*
X81810076Y-123282707D01*
X81810076Y-123282707D02*
X81714838Y-123187469D01*
X81714838Y-123187469D02*
X81667219Y-123044612D01*
X81667219Y-123044612D02*
X81667219Y-122949374D01*
X81667219Y-122949374D02*
X81714838Y-122806517D01*
X81714838Y-122806517D02*
X81762457Y-122758898D01*
X81667219Y-122139850D02*
X81667219Y-121949374D01*
X81667219Y-121949374D02*
X81714838Y-121854136D01*
X81714838Y-121854136D02*
X81810076Y-121758898D01*
X81810076Y-121758898D02*
X82000552Y-121711279D01*
X82000552Y-121711279D02*
X82333885Y-121711279D01*
X82333885Y-121711279D02*
X82524361Y-121758898D01*
X82524361Y-121758898D02*
X82619600Y-121854136D01*
X82619600Y-121854136D02*
X82667219Y-121949374D01*
X82667219Y-121949374D02*
X82667219Y-122139850D01*
X82667219Y-122139850D02*
X82619600Y-122235088D01*
X82619600Y-122235088D02*
X82524361Y-122330326D01*
X82524361Y-122330326D02*
X82333885Y-122377945D01*
X82333885Y-122377945D02*
X82000552Y-122377945D01*
X82000552Y-122377945D02*
X81810076Y-122330326D01*
X81810076Y-122330326D02*
X81714838Y-122235088D01*
X81714838Y-122235088D02*
X81667219Y-122139850D01*
X82667219Y-121282707D02*
X81667219Y-121282707D01*
X81667219Y-121282707D02*
X82381504Y-120949374D01*
X82381504Y-120949374D02*
X81667219Y-120616041D01*
X81667219Y-120616041D02*
X82667219Y-120616041D01*
X84867219Y-123530326D02*
X83867219Y-123530326D01*
X83867219Y-123530326D02*
X84867219Y-122958898D01*
X84867219Y-122958898D02*
X83867219Y-122958898D01*
X84771980Y-121911279D02*
X84819600Y-121958898D01*
X84819600Y-121958898D02*
X84867219Y-122101755D01*
X84867219Y-122101755D02*
X84867219Y-122196993D01*
X84867219Y-122196993D02*
X84819600Y-122339850D01*
X84819600Y-122339850D02*
X84724361Y-122435088D01*
X84724361Y-122435088D02*
X84629123Y-122482707D01*
X84629123Y-122482707D02*
X84438647Y-122530326D01*
X84438647Y-122530326D02*
X84295790Y-122530326D01*
X84295790Y-122530326D02*
X84105314Y-122482707D01*
X84105314Y-122482707D02*
X84010076Y-122435088D01*
X84010076Y-122435088D02*
X83914838Y-122339850D01*
X83914838Y-122339850D02*
X83867219Y-122196993D01*
X83867219Y-122196993D02*
X83867219Y-122101755D01*
X83867219Y-122101755D02*
X83914838Y-121958898D01*
X83914838Y-121958898D02*
X83962457Y-121911279D01*
D13*
X86139347Y-133934438D02*
X86139347Y-131934438D01*
X87282204Y-133934438D02*
X86425061Y-132791580D01*
X87282204Y-131934438D02*
X86139347Y-133077295D01*
X89186966Y-133934438D02*
X88044109Y-133934438D01*
X88615537Y-133934438D02*
X88615537Y-131934438D01*
X88615537Y-131934438D02*
X88425061Y-132220152D01*
X88425061Y-132220152D02*
X88234585Y-132410628D01*
X88234585Y-132410628D02*
X88044109Y-132505866D01*
D14*
X101509021Y-134401657D02*
X101509021Y-131401657D01*
X103223307Y-134401657D02*
X101937593Y-132687371D01*
X103223307Y-131401657D02*
X101509021Y-133115942D01*
X104366164Y-131687371D02*
X104509021Y-131544514D01*
X104509021Y-131544514D02*
X104794736Y-131401657D01*
X104794736Y-131401657D02*
X105509021Y-131401657D01*
X105509021Y-131401657D02*
X105794736Y-131544514D01*
X105794736Y-131544514D02*
X105937593Y-131687371D01*
X105937593Y-131687371D02*
X106080450Y-131973085D01*
X106080450Y-131973085D02*
X106080450Y-132258800D01*
X106080450Y-132258800D02*
X105937593Y-132687371D01*
X105937593Y-132687371D02*
X104223307Y-134401657D01*
X104223307Y-134401657D02*
X106080450Y-134401657D01*
X119109021Y-134401657D02*
X119109021Y-131401657D01*
X120823307Y-134401657D02*
X119537593Y-132687371D01*
X120823307Y-131401657D02*
X119109021Y-133115942D01*
X121823307Y-131401657D02*
X123680450Y-131401657D01*
X123680450Y-131401657D02*
X122680450Y-132544514D01*
X122680450Y-132544514D02*
X123109021Y-132544514D01*
X123109021Y-132544514D02*
X123394736Y-132687371D01*
X123394736Y-132687371D02*
X123537593Y-132830228D01*
X123537593Y-132830228D02*
X123680450Y-133115942D01*
X123680450Y-133115942D02*
X123680450Y-133830228D01*
X123680450Y-133830228D02*
X123537593Y-134115942D01*
X123537593Y-134115942D02*
X123394736Y-134258800D01*
X123394736Y-134258800D02*
X123109021Y-134401657D01*
X123109021Y-134401657D02*
X122251878Y-134401657D01*
X122251878Y-134401657D02*
X121966164Y-134258800D01*
X121966164Y-134258800D02*
X121823307Y-134115942D01*
X136709021Y-134601657D02*
X136709021Y-131601657D01*
X138423307Y-134601657D02*
X137137593Y-132887371D01*
X138423307Y-131601657D02*
X136709021Y-133315942D01*
X140994736Y-132601657D02*
X140994736Y-134601657D01*
X140280450Y-131458800D02*
X139566164Y-133601657D01*
X139566164Y-133601657D02*
X141423307Y-133601657D01*
X154109021Y-134401657D02*
X154109021Y-131401657D01*
X155823307Y-134401657D02*
X154537593Y-132687371D01*
X155823307Y-131401657D02*
X154109021Y-133115942D01*
X158537593Y-131401657D02*
X157109021Y-131401657D01*
X157109021Y-131401657D02*
X156966164Y-132830228D01*
X156966164Y-132830228D02*
X157109021Y-132687371D01*
X157109021Y-132687371D02*
X157394736Y-132544514D01*
X157394736Y-132544514D02*
X158109021Y-132544514D01*
X158109021Y-132544514D02*
X158394736Y-132687371D01*
X158394736Y-132687371D02*
X158537593Y-132830228D01*
X158537593Y-132830228D02*
X158680450Y-133115942D01*
X158680450Y-133115942D02*
X158680450Y-133830228D01*
X158680450Y-133830228D02*
X158537593Y-134115942D01*
X158537593Y-134115942D02*
X158394736Y-134258800D01*
X158394736Y-134258800D02*
X158109021Y-134401657D01*
X158109021Y-134401657D02*
X157394736Y-134401657D01*
X157394736Y-134401657D02*
X157109021Y-134258800D01*
X157109021Y-134258800D02*
X156966164Y-134115942D01*
D12*
X112999999Y-109854819D02*
X112666666Y-109378628D01*
X112428571Y-109854819D02*
X112428571Y-108854819D01*
X112428571Y-108854819D02*
X112809523Y-108854819D01*
X112809523Y-108854819D02*
X112904761Y-108902438D01*
X112904761Y-108902438D02*
X112952380Y-108950057D01*
X112952380Y-108950057D02*
X112999999Y-109045295D01*
X112999999Y-109045295D02*
X112999999Y-109188152D01*
X112999999Y-109188152D02*
X112952380Y-109283390D01*
X112952380Y-109283390D02*
X112904761Y-109331009D01*
X112904761Y-109331009D02*
X112809523Y-109378628D01*
X112809523Y-109378628D02*
X112428571Y-109378628D01*
X113904761Y-109854819D02*
X113428571Y-109854819D01*
X113428571Y-109854819D02*
X113428571Y-108854819D01*
X114428571Y-109378628D02*
X114428571Y-109854819D01*
X114095238Y-108854819D02*
X114428571Y-109378628D01*
X114428571Y-109378628D02*
X114761904Y-108854819D01*
X115047619Y-108950057D02*
X115095238Y-108902438D01*
X115095238Y-108902438D02*
X115190476Y-108854819D01*
X115190476Y-108854819D02*
X115428571Y-108854819D01*
X115428571Y-108854819D02*
X115523809Y-108902438D01*
X115523809Y-108902438D02*
X115571428Y-108950057D01*
X115571428Y-108950057D02*
X115619047Y-109045295D01*
X115619047Y-109045295D02*
X115619047Y-109140533D01*
X115619047Y-109140533D02*
X115571428Y-109283390D01*
X115571428Y-109283390D02*
X115000000Y-109854819D01*
X115000000Y-109854819D02*
X115619047Y-109854819D01*
X163934116Y-129854819D02*
X163934116Y-130569104D01*
X163934116Y-130569104D02*
X163886497Y-130711961D01*
X163886497Y-130711961D02*
X163791259Y-130807200D01*
X163791259Y-130807200D02*
X163648402Y-130854819D01*
X163648402Y-130854819D02*
X163553164Y-130854819D01*
X164934116Y-130854819D02*
X164362688Y-130854819D01*
X164648402Y-130854819D02*
X164648402Y-129854819D01*
X164648402Y-129854819D02*
X164553164Y-129997676D01*
X164553164Y-129997676D02*
X164457926Y-130092914D01*
X164457926Y-130092914D02*
X164362688Y-130140533D01*
X165553164Y-129854819D02*
X165648402Y-129854819D01*
X165648402Y-129854819D02*
X165743640Y-129902438D01*
X165743640Y-129902438D02*
X165791259Y-129950057D01*
X165791259Y-129950057D02*
X165838878Y-130045295D01*
X165838878Y-130045295D02*
X165886497Y-130235771D01*
X165886497Y-130235771D02*
X165886497Y-130473866D01*
X165886497Y-130473866D02*
X165838878Y-130664342D01*
X165838878Y-130664342D02*
X165791259Y-130759580D01*
X165791259Y-130759580D02*
X165743640Y-130807200D01*
X165743640Y-130807200D02*
X165648402Y-130854819D01*
X165648402Y-130854819D02*
X165553164Y-130854819D01*
X165553164Y-130854819D02*
X165457926Y-130807200D01*
X165457926Y-130807200D02*
X165410307Y-130759580D01*
X165410307Y-130759580D02*
X165362688Y-130664342D01*
X165362688Y-130664342D02*
X165315069Y-130473866D01*
X165315069Y-130473866D02*
X165315069Y-130235771D01*
X165315069Y-130235771D02*
X165362688Y-130045295D01*
X165362688Y-130045295D02*
X165410307Y-129950057D01*
X165410307Y-129950057D02*
X165457926Y-129902438D01*
X165457926Y-129902438D02*
X165553164Y-129854819D01*
X130671819Y-109604819D02*
X130338486Y-109128628D01*
X130100391Y-109604819D02*
X130100391Y-108604819D01*
X130100391Y-108604819D02*
X130481343Y-108604819D01*
X130481343Y-108604819D02*
X130576581Y-108652438D01*
X130576581Y-108652438D02*
X130624200Y-108700057D01*
X130624200Y-108700057D02*
X130671819Y-108795295D01*
X130671819Y-108795295D02*
X130671819Y-108938152D01*
X130671819Y-108938152D02*
X130624200Y-109033390D01*
X130624200Y-109033390D02*
X130576581Y-109081009D01*
X130576581Y-109081009D02*
X130481343Y-109128628D01*
X130481343Y-109128628D02*
X130100391Y-109128628D01*
X131576581Y-109604819D02*
X131100391Y-109604819D01*
X131100391Y-109604819D02*
X131100391Y-108604819D01*
X132100391Y-109128628D02*
X132100391Y-109604819D01*
X131767058Y-108604819D02*
X132100391Y-109128628D01*
X132100391Y-109128628D02*
X132433724Y-108604819D01*
X132671820Y-108604819D02*
X133290867Y-108604819D01*
X133290867Y-108604819D02*
X132957534Y-108985771D01*
X132957534Y-108985771D02*
X133100391Y-108985771D01*
X133100391Y-108985771D02*
X133195629Y-109033390D01*
X133195629Y-109033390D02*
X133243248Y-109081009D01*
X133243248Y-109081009D02*
X133290867Y-109176247D01*
X133290867Y-109176247D02*
X133290867Y-109414342D01*
X133290867Y-109414342D02*
X133243248Y-109509580D01*
X133243248Y-109509580D02*
X133195629Y-109557200D01*
X133195629Y-109557200D02*
X133100391Y-109604819D01*
X133100391Y-109604819D02*
X132814677Y-109604819D01*
X132814677Y-109604819D02*
X132719439Y-109557200D01*
X132719439Y-109557200D02*
X132671820Y-109509580D01*
X84438095Y-90154819D02*
X84438095Y-89154819D01*
X84438095Y-89631009D02*
X85009523Y-89631009D01*
X85009523Y-90154819D02*
X85009523Y-89154819D01*
X86009523Y-90154819D02*
X85438095Y-90154819D01*
X85723809Y-90154819D02*
X85723809Y-89154819D01*
X85723809Y-89154819D02*
X85628571Y-89297676D01*
X85628571Y-89297676D02*
X85533333Y-89392914D01*
X85533333Y-89392914D02*
X85438095Y-89440533D01*
X94999999Y-109854819D02*
X94666666Y-109378628D01*
X94428571Y-109854819D02*
X94428571Y-108854819D01*
X94428571Y-108854819D02*
X94809523Y-108854819D01*
X94809523Y-108854819D02*
X94904761Y-108902438D01*
X94904761Y-108902438D02*
X94952380Y-108950057D01*
X94952380Y-108950057D02*
X94999999Y-109045295D01*
X94999999Y-109045295D02*
X94999999Y-109188152D01*
X94999999Y-109188152D02*
X94952380Y-109283390D01*
X94952380Y-109283390D02*
X94904761Y-109331009D01*
X94904761Y-109331009D02*
X94809523Y-109378628D01*
X94809523Y-109378628D02*
X94428571Y-109378628D01*
X95904761Y-109854819D02*
X95428571Y-109854819D01*
X95428571Y-109854819D02*
X95428571Y-108854819D01*
X96428571Y-109378628D02*
X96428571Y-109854819D01*
X96095238Y-108854819D02*
X96428571Y-109378628D01*
X96428571Y-109378628D02*
X96761904Y-108854819D01*
X97619047Y-109854819D02*
X97047619Y-109854819D01*
X97333333Y-109854819D02*
X97333333Y-108854819D01*
X97333333Y-108854819D02*
X97238095Y-108997676D01*
X97238095Y-108997676D02*
X97142857Y-109092914D01*
X97142857Y-109092914D02*
X97047619Y-109140533D01*
X95066666Y-130054819D02*
X95066666Y-130769104D01*
X95066666Y-130769104D02*
X95019047Y-130911961D01*
X95019047Y-130911961D02*
X94923809Y-131007200D01*
X94923809Y-131007200D02*
X94780952Y-131054819D01*
X94780952Y-131054819D02*
X94685714Y-131054819D01*
X95971428Y-130054819D02*
X95780952Y-130054819D01*
X95780952Y-130054819D02*
X95685714Y-130102438D01*
X95685714Y-130102438D02*
X95638095Y-130150057D01*
X95638095Y-130150057D02*
X95542857Y-130292914D01*
X95542857Y-130292914D02*
X95495238Y-130483390D01*
X95495238Y-130483390D02*
X95495238Y-130864342D01*
X95495238Y-130864342D02*
X95542857Y-130959580D01*
X95542857Y-130959580D02*
X95590476Y-131007200D01*
X95590476Y-131007200D02*
X95685714Y-131054819D01*
X95685714Y-131054819D02*
X95876190Y-131054819D01*
X95876190Y-131054819D02*
X95971428Y-131007200D01*
X95971428Y-131007200D02*
X96019047Y-130959580D01*
X96019047Y-130959580D02*
X96066666Y-130864342D01*
X96066666Y-130864342D02*
X96066666Y-130626247D01*
X96066666Y-130626247D02*
X96019047Y-130531009D01*
X96019047Y-130531009D02*
X95971428Y-130483390D01*
X95971428Y-130483390D02*
X95876190Y-130435771D01*
X95876190Y-130435771D02*
X95685714Y-130435771D01*
X95685714Y-130435771D02*
X95590476Y-130483390D01*
X95590476Y-130483390D02*
X95542857Y-130531009D01*
X95542857Y-130531009D02*
X95495238Y-130626247D01*
X146866666Y-130254819D02*
X146866666Y-130969104D01*
X146866666Y-130969104D02*
X146819047Y-131111961D01*
X146819047Y-131111961D02*
X146723809Y-131207200D01*
X146723809Y-131207200D02*
X146580952Y-131254819D01*
X146580952Y-131254819D02*
X146485714Y-131254819D01*
X147390476Y-131254819D02*
X147580952Y-131254819D01*
X147580952Y-131254819D02*
X147676190Y-131207200D01*
X147676190Y-131207200D02*
X147723809Y-131159580D01*
X147723809Y-131159580D02*
X147819047Y-131016723D01*
X147819047Y-131016723D02*
X147866666Y-130826247D01*
X147866666Y-130826247D02*
X147866666Y-130445295D01*
X147866666Y-130445295D02*
X147819047Y-130350057D01*
X147819047Y-130350057D02*
X147771428Y-130302438D01*
X147771428Y-130302438D02*
X147676190Y-130254819D01*
X147676190Y-130254819D02*
X147485714Y-130254819D01*
X147485714Y-130254819D02*
X147390476Y-130302438D01*
X147390476Y-130302438D02*
X147342857Y-130350057D01*
X147342857Y-130350057D02*
X147295238Y-130445295D01*
X147295238Y-130445295D02*
X147295238Y-130683390D01*
X147295238Y-130683390D02*
X147342857Y-130778628D01*
X147342857Y-130778628D02*
X147390476Y-130826247D01*
X147390476Y-130826247D02*
X147485714Y-130873866D01*
X147485714Y-130873866D02*
X147676190Y-130873866D01*
X147676190Y-130873866D02*
X147771428Y-130826247D01*
X147771428Y-130826247D02*
X147819047Y-130778628D01*
X147819047Y-130778628D02*
X147866666Y-130683390D01*
X147999999Y-109654819D02*
X147666666Y-109178628D01*
X147428571Y-109654819D02*
X147428571Y-108654819D01*
X147428571Y-108654819D02*
X147809523Y-108654819D01*
X147809523Y-108654819D02*
X147904761Y-108702438D01*
X147904761Y-108702438D02*
X147952380Y-108750057D01*
X147952380Y-108750057D02*
X147999999Y-108845295D01*
X147999999Y-108845295D02*
X147999999Y-108988152D01*
X147999999Y-108988152D02*
X147952380Y-109083390D01*
X147952380Y-109083390D02*
X147904761Y-109131009D01*
X147904761Y-109131009D02*
X147809523Y-109178628D01*
X147809523Y-109178628D02*
X147428571Y-109178628D01*
X148904761Y-109654819D02*
X148428571Y-109654819D01*
X148428571Y-109654819D02*
X148428571Y-108654819D01*
X149428571Y-109178628D02*
X149428571Y-109654819D01*
X149095238Y-108654819D02*
X149428571Y-109178628D01*
X149428571Y-109178628D02*
X149761904Y-108654819D01*
X150523809Y-108988152D02*
X150523809Y-109654819D01*
X150285714Y-108607200D02*
X150047619Y-109321485D01*
X150047619Y-109321485D02*
X150666666Y-109321485D01*
X106304819Y-101561904D02*
X107114342Y-101561904D01*
X107114342Y-101561904D02*
X107209580Y-101514285D01*
X107209580Y-101514285D02*
X107257200Y-101466666D01*
X107257200Y-101466666D02*
X107304819Y-101371428D01*
X107304819Y-101371428D02*
X107304819Y-101180952D01*
X107304819Y-101180952D02*
X107257200Y-101085714D01*
X107257200Y-101085714D02*
X107209580Y-101038095D01*
X107209580Y-101038095D02*
X107114342Y-100990476D01*
X107114342Y-100990476D02*
X106304819Y-100990476D01*
X107304819Y-99990476D02*
X107304819Y-100561904D01*
X107304819Y-100276190D02*
X106304819Y-100276190D01*
X106304819Y-100276190D02*
X106447676Y-100371428D01*
X106447676Y-100371428D02*
X106542914Y-100466666D01*
X106542914Y-100466666D02*
X106590533Y-100561904D01*
X112666666Y-130054819D02*
X112666666Y-130769104D01*
X112666666Y-130769104D02*
X112619047Y-130911961D01*
X112619047Y-130911961D02*
X112523809Y-131007200D01*
X112523809Y-131007200D02*
X112380952Y-131054819D01*
X112380952Y-131054819D02*
X112285714Y-131054819D01*
X113047619Y-130054819D02*
X113714285Y-130054819D01*
X113714285Y-130054819D02*
X113285714Y-131054819D01*
X165799999Y-109854819D02*
X165466666Y-109378628D01*
X165228571Y-109854819D02*
X165228571Y-108854819D01*
X165228571Y-108854819D02*
X165609523Y-108854819D01*
X165609523Y-108854819D02*
X165704761Y-108902438D01*
X165704761Y-108902438D02*
X165752380Y-108950057D01*
X165752380Y-108950057D02*
X165799999Y-109045295D01*
X165799999Y-109045295D02*
X165799999Y-109188152D01*
X165799999Y-109188152D02*
X165752380Y-109283390D01*
X165752380Y-109283390D02*
X165704761Y-109331009D01*
X165704761Y-109331009D02*
X165609523Y-109378628D01*
X165609523Y-109378628D02*
X165228571Y-109378628D01*
X166704761Y-109854819D02*
X166228571Y-109854819D01*
X166228571Y-109854819D02*
X166228571Y-108854819D01*
X167228571Y-109378628D02*
X167228571Y-109854819D01*
X166895238Y-108854819D02*
X167228571Y-109378628D01*
X167228571Y-109378628D02*
X167561904Y-108854819D01*
X168371428Y-108854819D02*
X167895238Y-108854819D01*
X167895238Y-108854819D02*
X167847619Y-109331009D01*
X167847619Y-109331009D02*
X167895238Y-109283390D01*
X167895238Y-109283390D02*
X167990476Y-109235771D01*
X167990476Y-109235771D02*
X168228571Y-109235771D01*
X168228571Y-109235771D02*
X168323809Y-109283390D01*
X168323809Y-109283390D02*
X168371428Y-109331009D01*
X168371428Y-109331009D02*
X168419047Y-109426247D01*
X168419047Y-109426247D02*
X168419047Y-109664342D01*
X168419047Y-109664342D02*
X168371428Y-109759580D01*
X168371428Y-109759580D02*
X168323809Y-109807200D01*
X168323809Y-109807200D02*
X168228571Y-109854819D01*
X168228571Y-109854819D02*
X167990476Y-109854819D01*
X167990476Y-109854819D02*
X167895238Y-109807200D01*
X167895238Y-109807200D02*
X167847619Y-109759580D01*
X87394819Y-94333333D02*
X88109104Y-94333333D01*
X88109104Y-94333333D02*
X88251961Y-94380952D01*
X88251961Y-94380952D02*
X88347200Y-94476190D01*
X88347200Y-94476190D02*
X88394819Y-94619047D01*
X88394819Y-94619047D02*
X88394819Y-94714285D01*
X87394819Y-93380952D02*
X87394819Y-93857142D01*
X87394819Y-93857142D02*
X87871009Y-93904761D01*
X87871009Y-93904761D02*
X87823390Y-93857142D01*
X87823390Y-93857142D02*
X87775771Y-93761904D01*
X87775771Y-93761904D02*
X87775771Y-93523809D01*
X87775771Y-93523809D02*
X87823390Y-93428571D01*
X87823390Y-93428571D02*
X87871009Y-93380952D01*
X87871009Y-93380952D02*
X87966247Y-93333333D01*
X87966247Y-93333333D02*
X88204342Y-93333333D01*
X88204342Y-93333333D02*
X88299580Y-93380952D01*
X88299580Y-93380952D02*
X88347200Y-93428571D01*
X88347200Y-93428571D02*
X88394819Y-93523809D01*
X88394819Y-93523809D02*
X88394819Y-93761904D01*
X88394819Y-93761904D02*
X88347200Y-93857142D01*
X88347200Y-93857142D02*
X88299580Y-93904761D01*
X129266666Y-130054819D02*
X129266666Y-130769104D01*
X129266666Y-130769104D02*
X129219047Y-130911961D01*
X129219047Y-130911961D02*
X129123809Y-131007200D01*
X129123809Y-131007200D02*
X128980952Y-131054819D01*
X128980952Y-131054819D02*
X128885714Y-131054819D01*
X129885714Y-130483390D02*
X129790476Y-130435771D01*
X129790476Y-130435771D02*
X129742857Y-130388152D01*
X129742857Y-130388152D02*
X129695238Y-130292914D01*
X129695238Y-130292914D02*
X129695238Y-130245295D01*
X129695238Y-130245295D02*
X129742857Y-130150057D01*
X129742857Y-130150057D02*
X129790476Y-130102438D01*
X129790476Y-130102438D02*
X129885714Y-130054819D01*
X129885714Y-130054819D02*
X130076190Y-130054819D01*
X130076190Y-130054819D02*
X130171428Y-130102438D01*
X130171428Y-130102438D02*
X130219047Y-130150057D01*
X130219047Y-130150057D02*
X130266666Y-130245295D01*
X130266666Y-130245295D02*
X130266666Y-130292914D01*
X130266666Y-130292914D02*
X130219047Y-130388152D01*
X130219047Y-130388152D02*
X130171428Y-130435771D01*
X130171428Y-130435771D02*
X130076190Y-130483390D01*
X130076190Y-130483390D02*
X129885714Y-130483390D01*
X129885714Y-130483390D02*
X129790476Y-130531009D01*
X129790476Y-130531009D02*
X129742857Y-130578628D01*
X129742857Y-130578628D02*
X129695238Y-130673866D01*
X129695238Y-130673866D02*
X129695238Y-130864342D01*
X129695238Y-130864342D02*
X129742857Y-130959580D01*
X129742857Y-130959580D02*
X129790476Y-131007200D01*
X129790476Y-131007200D02*
X129885714Y-131054819D01*
X129885714Y-131054819D02*
X130076190Y-131054819D01*
X130076190Y-131054819D02*
X130171428Y-131007200D01*
X130171428Y-131007200D02*
X130219047Y-130959580D01*
X130219047Y-130959580D02*
X130266666Y-130864342D01*
X130266666Y-130864342D02*
X130266666Y-130673866D01*
X130266666Y-130673866D02*
X130219047Y-130578628D01*
X130219047Y-130578628D02*
X130171428Y-130531009D01*
X130171428Y-130531009D02*
X130076190Y-130483390D01*
%TO.C,RLY2*%
D15*
X104335910Y-129400000D02*
X104335910Y-110200000D01*
X104335910Y-129400000D02*
X119935910Y-129400000D01*
D16*
X106135910Y-116610000D02*
X106135910Y-115590000D01*
X106135910Y-116610000D02*
X111085910Y-116610000D01*
X107875910Y-126070000D02*
X111825910Y-126070000D01*
D15*
X111135910Y-115130000D02*
X113135910Y-115130000D01*
X111135910Y-118130000D02*
X111135910Y-115130000D01*
X111845910Y-110200000D02*
X104335910Y-110200000D01*
D16*
X112835910Y-120530000D02*
X112835910Y-124540000D01*
X112835910Y-124540000D02*
X112835910Y-125050000D01*
X112835910Y-125050000D02*
X114445910Y-126700000D01*
X112865910Y-120500000D02*
X112835910Y-120530000D01*
D15*
X113135910Y-115130000D02*
X113135910Y-118130000D01*
X113135910Y-118130000D02*
X111135910Y-118130000D01*
D16*
X113185910Y-116610000D02*
X118135910Y-116610000D01*
X113935910Y-111870000D02*
X115865910Y-111870000D01*
X115865910Y-111870000D02*
X115865910Y-120500000D01*
X115865910Y-120500000D02*
X112865910Y-120500000D01*
D15*
X116385910Y-126000000D02*
X114155910Y-126000000D01*
D16*
X118135910Y-116610000D02*
X118135910Y-115590000D01*
D15*
X119935910Y-110200000D02*
X112425910Y-110200000D01*
X119935910Y-129400000D02*
X119935910Y-110200000D01*
D17*
X104365910Y-110200000D02*
G75*
G02*
X104305910Y-110200000I-30000J0D01*
G01*
X104305910Y-110200000D02*
G75*
G02*
X104365910Y-110200000I30000J0D01*
G01*
D15*
X105835910Y-111300000D02*
G75*
G02*
X104835910Y-111300000I-500000J0D01*
G01*
X104835910Y-111300000D02*
G75*
G02*
X105835910Y-111300000I500000J0D01*
G01*
%TO.C,Q16*%
D12*
X158783640Y-106400000D02*
X158783640Y-105750000D01*
X158783640Y-106400000D02*
X158783640Y-107050000D01*
X161903640Y-106400000D02*
X161903640Y-105750000D01*
X161903640Y-106400000D02*
X161903640Y-107050000D01*
D18*
X162183640Y-105477500D02*
X161853640Y-105237500D01*
X162183640Y-104997500D01*
X162183640Y-105477500D01*
G36*
X162183640Y-105477500D02*
G01*
X161853640Y-105237500D01*
X162183640Y-104997500D01*
X162183640Y-105477500D01*
G37*
%TO.C,U5*%
X94290000Y-106190000D02*
X94290000Y-106405000D01*
X94290000Y-109010000D02*
X94290000Y-108795000D01*
X96600000Y-106190000D02*
X94290000Y-106190000D01*
X96600000Y-106190000D02*
X98910000Y-106190000D01*
X96600000Y-109010000D02*
X94290000Y-109010000D01*
X96600000Y-109010000D02*
X98910000Y-109010000D01*
X98910000Y-106190000D02*
X98910000Y-106405000D01*
X98910000Y-109010000D02*
X98910000Y-108795000D01*
X99940000Y-109125000D02*
X99460000Y-109125000D01*
X99700000Y-108795000D01*
X99940000Y-109125000D01*
G36*
X99940000Y-109125000D02*
G01*
X99460000Y-109125000D01*
X99700000Y-108795000D01*
X99940000Y-109125000D01*
G37*
%TO.C,J10*%
X159683640Y-130145000D02*
X161103640Y-130145000D01*
X159683640Y-141865000D02*
X159683640Y-130145000D01*
X161103640Y-130145000D02*
X161103640Y-134645000D01*
X161103640Y-134645000D02*
X164743640Y-134645000D01*
X161943640Y-130455000D02*
X162543640Y-130455000D01*
X162243640Y-131055000D02*
X161943640Y-130455000D01*
X162543640Y-130455000D02*
X162243640Y-131055000D01*
X164743640Y-141865000D02*
X159683640Y-141865000D01*
X164743640Y-141865000D02*
X169803640Y-141865000D01*
X168383640Y-130145000D02*
X168383640Y-134645000D01*
X168383640Y-134645000D02*
X164743640Y-134645000D01*
X169803640Y-130145000D02*
X168383640Y-130145000D01*
X169803640Y-141865000D02*
X169803640Y-130145000D01*
X161993640Y-135755000D02*
X162493640Y-135755000D01*
X162493640Y-141255000D01*
X161993640Y-141255000D01*
X161993640Y-135755000D01*
X164493640Y-135755000D02*
X164993640Y-135755000D01*
X164993640Y-141255000D01*
X164493640Y-141255000D01*
X164493640Y-135755000D01*
X166993640Y-135755000D02*
X167493640Y-135755000D01*
X167493640Y-141255000D01*
X166993640Y-141255000D01*
X166993640Y-135755000D01*
%TO.C,D4*%
D12*
X106125910Y-108490000D02*
X106125910Y-110190000D01*
X106125910Y-108490000D02*
X108785910Y-108490000D01*
X106125910Y-110190000D02*
X108785910Y-110190000D01*
%TO.C,D10*%
X103645910Y-136470000D02*
X103645910Y-137930000D01*
X103645910Y-137930000D02*
X105935910Y-137930000D01*
X105935910Y-136470000D02*
X103645910Y-136470000D01*
%TO.C,U4*%
X161590000Y-91670000D02*
X164530000Y-91670000D01*
X161590000Y-98330000D02*
X161590000Y-91670000D01*
X164530000Y-91670000D02*
X164530000Y-98330000D01*
X164530000Y-98330000D02*
X161590000Y-98330000D01*
X164940000Y-98000000D02*
G75*
G02*
X164880000Y-98000000I-30000J0D01*
G01*
X164880000Y-98000000D02*
G75*
G02*
X164940000Y-98000000I30000J0D01*
G01*
%TO.C,RLY3*%
D15*
X121871820Y-129400000D02*
X121871820Y-110200000D01*
X121871820Y-129400000D02*
X137471820Y-129400000D01*
D16*
X123671820Y-116610000D02*
X123671820Y-115590000D01*
X123671820Y-116610000D02*
X128621820Y-116610000D01*
X125411820Y-126070000D02*
X129361820Y-126070000D01*
D15*
X128671820Y-115130000D02*
X130671820Y-115130000D01*
X128671820Y-118130000D02*
X128671820Y-115130000D01*
X129381820Y-110200000D02*
X121871820Y-110200000D01*
D16*
X130371820Y-120530000D02*
X130371820Y-124540000D01*
X130371820Y-124540000D02*
X130371820Y-125050000D01*
X130371820Y-125050000D02*
X131981820Y-126700000D01*
X130401820Y-120500000D02*
X130371820Y-120530000D01*
D15*
X130671820Y-115130000D02*
X130671820Y-118130000D01*
X130671820Y-118130000D02*
X128671820Y-118130000D01*
D16*
X130721820Y-116610000D02*
X135671820Y-116610000D01*
X131471820Y-111870000D02*
X133401820Y-111870000D01*
X133401820Y-111870000D02*
X133401820Y-120500000D01*
X133401820Y-120500000D02*
X130401820Y-120500000D01*
D15*
X133921820Y-126000000D02*
X131691820Y-126000000D01*
D16*
X135671820Y-116610000D02*
X135671820Y-115590000D01*
D15*
X137471820Y-110200000D02*
X129961820Y-110200000D01*
X137471820Y-129400000D02*
X137471820Y-110200000D01*
D17*
X121901820Y-110200000D02*
G75*
G02*
X121841820Y-110200000I-30000J0D01*
G01*
X121841820Y-110200000D02*
G75*
G02*
X121901820Y-110200000I30000J0D01*
G01*
D15*
X123371820Y-111300000D02*
G75*
G02*
X122371820Y-111300000I-500000J0D01*
G01*
X122371820Y-111300000D02*
G75*
G02*
X123371820Y-111300000I500000J0D01*
G01*
%TO.C,D1*%
D12*
X83720000Y-95070000D02*
X83720000Y-96530000D01*
X83720000Y-96530000D02*
X86010000Y-96530000D01*
X86010000Y-95070000D02*
X83720000Y-95070000D01*
%TO.C,J2*%
D18*
X107620000Y-92958272D02*
X108190000Y-92958272D01*
X107620000Y-98158272D02*
X107620000Y-92958272D01*
X107620000Y-98158272D02*
X108190000Y-98158272D01*
X108190000Y-92958272D02*
X108190000Y-91598272D01*
X109710000Y-92958272D02*
X110730000Y-92958272D01*
X109710000Y-98158272D02*
X110730000Y-98158272D01*
X112250000Y-92958272D02*
X113270000Y-92958272D01*
X112250000Y-98158272D02*
X113270000Y-98158272D01*
X114790000Y-92958272D02*
X115810000Y-92958272D01*
X114790000Y-98158272D02*
X115810000Y-98158272D01*
X117330000Y-92958272D02*
X118350000Y-92958272D01*
X117330000Y-98158272D02*
X118350000Y-98158272D01*
X119870000Y-92958272D02*
X120890000Y-92958272D01*
X119870000Y-98158272D02*
X120890000Y-98158272D01*
X122410000Y-92958272D02*
X123430000Y-92958272D01*
X122410000Y-98158272D02*
X123430000Y-98158272D01*
X124950000Y-92958272D02*
X125970000Y-92958272D01*
X124950000Y-98158272D02*
X125970000Y-98158272D01*
X127490000Y-92958272D02*
X128510000Y-92958272D01*
X127490000Y-98158272D02*
X128510000Y-98158272D01*
X130030000Y-92958272D02*
X131050000Y-92958272D01*
X130030000Y-98158272D02*
X131050000Y-98158272D01*
X132570000Y-92958272D02*
X133590000Y-92958272D01*
X132570000Y-98158272D02*
X133590000Y-98158272D01*
X135110000Y-92958272D02*
X136130000Y-92958272D01*
X135110000Y-98158272D02*
X136130000Y-98158272D01*
X137650000Y-92958272D02*
X138670000Y-92958272D01*
X137650000Y-98158272D02*
X138670000Y-98158272D01*
X140190000Y-92958272D02*
X141210000Y-92958272D01*
X140190000Y-98158272D02*
X141210000Y-98158272D01*
X142730000Y-92958272D02*
X143750000Y-92958272D01*
X142730000Y-98158272D02*
X143750000Y-98158272D01*
X145270000Y-92958272D02*
X146290000Y-92958272D01*
X145270000Y-98158272D02*
X146290000Y-98158272D01*
X147810000Y-92958272D02*
X148380000Y-92958272D01*
X147810000Y-98158272D02*
X148380000Y-98158272D01*
X148380000Y-98158272D02*
X148380000Y-92958272D01*
%TO.C,RLY1*%
D15*
X86800000Y-129400000D02*
X86800000Y-110200000D01*
X86800000Y-129400000D02*
X102400000Y-129400000D01*
D16*
X88600000Y-116610000D02*
X88600000Y-115590000D01*
X88600000Y-116610000D02*
X93550000Y-116610000D01*
X90340000Y-126070000D02*
X94290000Y-126070000D01*
D15*
X93600000Y-115130000D02*
X95600000Y-115130000D01*
X93600000Y-118130000D02*
X93600000Y-115130000D01*
X94310000Y-110200000D02*
X86800000Y-110200000D01*
D16*
X95300000Y-120530000D02*
X95300000Y-124540000D01*
X95300000Y-124540000D02*
X95300000Y-125050000D01*
X95300000Y-125050000D02*
X96910000Y-126700000D01*
X95330000Y-120500000D02*
X95300000Y-120530000D01*
D15*
X95600000Y-115130000D02*
X95600000Y-118130000D01*
X95600000Y-118130000D02*
X93600000Y-118130000D01*
D16*
X95650000Y-116610000D02*
X100600000Y-116610000D01*
X96400000Y-111870000D02*
X98330000Y-111870000D01*
X98330000Y-111870000D02*
X98330000Y-120500000D01*
X98330000Y-120500000D02*
X95330000Y-120500000D01*
D15*
X98850000Y-126000000D02*
X96620000Y-126000000D01*
D16*
X100600000Y-116610000D02*
X100600000Y-115590000D01*
D15*
X102400000Y-110200000D02*
X94890000Y-110200000D01*
X102400000Y-129400000D02*
X102400000Y-110200000D01*
D17*
X86830000Y-110200000D02*
G75*
G02*
X86770000Y-110200000I-30000J0D01*
G01*
X86770000Y-110200000D02*
G75*
G02*
X86830000Y-110200000I30000J0D01*
G01*
D15*
X88300000Y-111300000D02*
G75*
G02*
X87300000Y-111300000I-500000J0D01*
G01*
X87300000Y-111300000D02*
G75*
G02*
X88300000Y-111300000I500000J0D01*
G01*
%TO.C,J3*%
D18*
X174515000Y-106950000D02*
X174515000Y-99220000D01*
X177275000Y-99220000D02*
X174515000Y-99220000D01*
X177275000Y-106950000D02*
X174515000Y-106950000D01*
X177275000Y-106950000D02*
X177275000Y-99220000D01*
X177275000Y-108220000D02*
X177275000Y-109600000D01*
X177275000Y-109600000D02*
X175895000Y-109600000D01*
%TO.C,J6*%
X89540000Y-130145000D02*
X90960000Y-130145000D01*
X89540000Y-141865000D02*
X89540000Y-130145000D01*
X90960000Y-130145000D02*
X90960000Y-134645000D01*
X90960000Y-134645000D02*
X94600000Y-134645000D01*
X91800000Y-130455000D02*
X92400000Y-130455000D01*
X92100000Y-131055000D02*
X91800000Y-130455000D01*
X92400000Y-130455000D02*
X92100000Y-131055000D01*
X94600000Y-141865000D02*
X89540000Y-141865000D01*
X94600000Y-141865000D02*
X99660000Y-141865000D01*
X98240000Y-130145000D02*
X98240000Y-134645000D01*
X98240000Y-134645000D02*
X94600000Y-134645000D01*
X99660000Y-130145000D02*
X98240000Y-130145000D01*
X99660000Y-141865000D02*
X99660000Y-130145000D01*
X91850000Y-135755000D02*
X92350000Y-135755000D01*
X92350000Y-141255000D01*
X91850000Y-141255000D01*
X91850000Y-135755000D01*
X94350000Y-135755000D02*
X94850000Y-135755000D01*
X94850000Y-141255000D01*
X94350000Y-141255000D01*
X94350000Y-135755000D01*
X96850000Y-135755000D02*
X97350000Y-135755000D01*
X97350000Y-141255000D01*
X96850000Y-141255000D01*
X96850000Y-135755000D01*
%TO.C,Q12*%
D12*
X88640000Y-106400000D02*
X88640000Y-105750000D01*
X88640000Y-106400000D02*
X88640000Y-107050000D01*
X91760000Y-106400000D02*
X91760000Y-105750000D01*
X91760000Y-106400000D02*
X91760000Y-107050000D01*
D18*
X92040000Y-105477500D02*
X91710000Y-105237500D01*
X92040000Y-104997500D01*
X92040000Y-105477500D01*
G36*
X92040000Y-105477500D02*
G01*
X91710000Y-105237500D01*
X92040000Y-104997500D01*
X92040000Y-105477500D01*
G37*
%TO.C,D13*%
D12*
X156253640Y-136470000D02*
X156253640Y-137930000D01*
X156253640Y-137930000D02*
X158543640Y-137930000D01*
X158543640Y-136470000D02*
X156253640Y-136470000D01*
%TO.C,U2*%
X164890000Y-98900000D02*
X164890000Y-98990000D01*
X164890000Y-98900000D02*
X168710000Y-98900000D01*
X164890000Y-103900000D02*
X164890000Y-103810000D01*
X168710000Y-98900000D02*
X168710000Y-98990000D01*
X168710000Y-103900000D02*
X164890000Y-103900000D01*
X168710000Y-103900000D02*
X168710000Y-103810000D01*
X169080000Y-103900000D02*
G75*
G02*
X169020000Y-103900000I-30000J0D01*
G01*
X169020000Y-103900000D02*
G75*
G02*
X169080000Y-103900000I30000J0D01*
G01*
%TO.C,D6*%
X141197730Y-108490000D02*
X141197730Y-110190000D01*
X141197730Y-108490000D02*
X143857730Y-108490000D01*
X141197730Y-110190000D02*
X143857730Y-110190000D01*
%TO.C,D2*%
X88590000Y-108490000D02*
X88590000Y-110190000D01*
X88590000Y-108490000D02*
X91250000Y-108490000D01*
X88590000Y-110190000D02*
X91250000Y-110190000D01*
%TO.C,D3*%
X174675000Y-97275000D02*
X174675000Y-98735000D01*
X174675000Y-98735000D02*
X176965000Y-98735000D01*
X176965000Y-97275000D02*
X174675000Y-97275000D01*
%TO.C,J9*%
D18*
X142147730Y-130145000D02*
X143567730Y-130145000D01*
X142147730Y-141865000D02*
X142147730Y-130145000D01*
X143567730Y-130145000D02*
X143567730Y-134645000D01*
X143567730Y-134645000D02*
X147207730Y-134645000D01*
X144407730Y-130455000D02*
X145007730Y-130455000D01*
X144707730Y-131055000D02*
X144407730Y-130455000D01*
X145007730Y-130455000D02*
X144707730Y-131055000D01*
X147207730Y-141865000D02*
X142147730Y-141865000D01*
X147207730Y-141865000D02*
X152267730Y-141865000D01*
X150847730Y-130145000D02*
X150847730Y-134645000D01*
X150847730Y-134645000D02*
X147207730Y-134645000D01*
X152267730Y-130145000D02*
X150847730Y-130145000D01*
X152267730Y-141865000D02*
X152267730Y-130145000D01*
X144457730Y-135755000D02*
X144957730Y-135755000D01*
X144957730Y-141255000D01*
X144457730Y-141255000D01*
X144457730Y-135755000D01*
X146957730Y-135755000D02*
X147457730Y-135755000D01*
X147457730Y-141255000D01*
X146957730Y-141255000D01*
X146957730Y-135755000D01*
X149457730Y-135755000D02*
X149957730Y-135755000D01*
X149957730Y-141255000D01*
X149457730Y-141255000D01*
X149457730Y-135755000D01*
%TO.C,Q14*%
D12*
X123711820Y-106400000D02*
X123711820Y-105750000D01*
X123711820Y-106400000D02*
X123711820Y-107050000D01*
X126831820Y-106400000D02*
X126831820Y-105750000D01*
X126831820Y-106400000D02*
X126831820Y-107050000D01*
D18*
X127111820Y-105477500D02*
X126781820Y-105237500D01*
X127111820Y-104997500D01*
X127111820Y-105477500D01*
G36*
X127111820Y-105477500D02*
G01*
X126781820Y-105237500D01*
X127111820Y-104997500D01*
X127111820Y-105477500D01*
G37*
%TO.C,U7*%
X129361820Y-106190000D02*
X129361820Y-106405000D01*
X129361820Y-109010000D02*
X129361820Y-108795000D01*
X131671820Y-106190000D02*
X129361820Y-106190000D01*
X131671820Y-106190000D02*
X133981820Y-106190000D01*
X131671820Y-109010000D02*
X129361820Y-109010000D01*
X131671820Y-109010000D02*
X133981820Y-109010000D01*
X133981820Y-106190000D02*
X133981820Y-106405000D01*
X133981820Y-109010000D02*
X133981820Y-108795000D01*
X135011820Y-109125000D02*
X134531820Y-109125000D01*
X134771820Y-108795000D01*
X135011820Y-109125000D01*
G36*
X135011820Y-109125000D02*
G01*
X134531820Y-109125000D01*
X134771820Y-108795000D01*
X135011820Y-109125000D01*
G37*
%TO.C,RLY4*%
D15*
X139407730Y-129400000D02*
X139407730Y-110200000D01*
X139407730Y-129400000D02*
X155007730Y-129400000D01*
D16*
X141207730Y-116610000D02*
X141207730Y-115590000D01*
X141207730Y-116610000D02*
X146157730Y-116610000D01*
X142947730Y-126070000D02*
X146897730Y-126070000D01*
D15*
X146207730Y-115130000D02*
X148207730Y-115130000D01*
X146207730Y-118130000D02*
X146207730Y-115130000D01*
X146917730Y-110200000D02*
X139407730Y-110200000D01*
D16*
X147907730Y-120530000D02*
X147907730Y-124540000D01*
X147907730Y-124540000D02*
X147907730Y-125050000D01*
X147907730Y-125050000D02*
X149517730Y-126700000D01*
X147937730Y-120500000D02*
X147907730Y-120530000D01*
D15*
X148207730Y-115130000D02*
X148207730Y-118130000D01*
X148207730Y-118130000D02*
X146207730Y-118130000D01*
D16*
X148257730Y-116610000D02*
X153207730Y-116610000D01*
X149007730Y-111870000D02*
X150937730Y-111870000D01*
X150937730Y-111870000D02*
X150937730Y-120500000D01*
X150937730Y-120500000D02*
X147937730Y-120500000D01*
D15*
X151457730Y-126000000D02*
X149227730Y-126000000D01*
D16*
X153207730Y-116610000D02*
X153207730Y-115590000D01*
D15*
X155007730Y-110200000D02*
X147497730Y-110200000D01*
X155007730Y-129400000D02*
X155007730Y-110200000D01*
D17*
X139437730Y-110200000D02*
G75*
G02*
X139377730Y-110200000I-30000J0D01*
G01*
X139377730Y-110200000D02*
G75*
G02*
X139437730Y-110200000I30000J0D01*
G01*
D15*
X140907730Y-111300000D02*
G75*
G02*
X139907730Y-111300000I-500000J0D01*
G01*
X139907730Y-111300000D02*
G75*
G02*
X140907730Y-111300000I500000J0D01*
G01*
%TO.C,U6*%
D18*
X111825910Y-106190000D02*
X111825910Y-106405000D01*
X111825910Y-109010000D02*
X111825910Y-108795000D01*
X114135910Y-106190000D02*
X111825910Y-106190000D01*
X114135910Y-106190000D02*
X116445910Y-106190000D01*
X114135910Y-109010000D02*
X111825910Y-109010000D01*
X114135910Y-109010000D02*
X116445910Y-109010000D01*
X116445910Y-106190000D02*
X116445910Y-106405000D01*
X116445910Y-109010000D02*
X116445910Y-108795000D01*
X117475910Y-109125000D02*
X116995910Y-109125000D01*
X117235910Y-108795000D01*
X117475910Y-109125000D01*
G36*
X117475910Y-109125000D02*
G01*
X116995910Y-109125000D01*
X117235910Y-108795000D01*
X117475910Y-109125000D01*
G37*
%TO.C,Q13*%
D12*
X106175910Y-106400000D02*
X106175910Y-105750000D01*
X106175910Y-106400000D02*
X106175910Y-107050000D01*
X109295910Y-106400000D02*
X109295910Y-105750000D01*
X109295910Y-106400000D02*
X109295910Y-107050000D01*
D18*
X109575910Y-105477500D02*
X109245910Y-105237500D01*
X109575910Y-104997500D01*
X109575910Y-105477500D01*
G36*
X109575910Y-105477500D02*
G01*
X109245910Y-105237500D01*
X109575910Y-104997500D01*
X109575910Y-105477500D01*
G37*
%TO.C,D5*%
D12*
X123661820Y-108490000D02*
X123661820Y-110190000D01*
X123661820Y-108490000D02*
X126321820Y-108490000D01*
X123661820Y-110190000D02*
X126321820Y-110190000D01*
%TO.C,D11*%
X121181820Y-136470000D02*
X121181820Y-137930000D01*
X121181820Y-137930000D02*
X123471820Y-137930000D01*
X123471820Y-136470000D02*
X121181820Y-136470000D01*
%TO.C,U1*%
D18*
X97965000Y-103110000D02*
X97965000Y-98490000D01*
X106035000Y-98490000D02*
X106035000Y-103110000D01*
X105580000Y-96940000D02*
X105340000Y-96610000D01*
X105820000Y-96610000D01*
X105580000Y-96940000D01*
G36*
X105580000Y-96940000D02*
G01*
X105340000Y-96610000D01*
X105820000Y-96610000D01*
X105580000Y-96940000D01*
G37*
%TO.C,Q15*%
D12*
X141247730Y-106400000D02*
X141247730Y-105750000D01*
X141247730Y-106400000D02*
X141247730Y-107050000D01*
X144367730Y-106400000D02*
X144367730Y-105750000D01*
X144367730Y-106400000D02*
X144367730Y-107050000D01*
D18*
X144647730Y-105477500D02*
X144317730Y-105237500D01*
X144647730Y-104997500D01*
X144647730Y-105477500D01*
G36*
X144647730Y-105477500D02*
G01*
X144317730Y-105237500D01*
X144647730Y-104997500D01*
X144647730Y-105477500D01*
G37*
%TO.C,D8*%
D12*
X158733640Y-108490000D02*
X158733640Y-110190000D01*
X158733640Y-108490000D02*
X161393640Y-108490000D01*
X158733640Y-110190000D02*
X161393640Y-110190000D01*
%TO.C,J7*%
D18*
X107075910Y-130145000D02*
X108495910Y-130145000D01*
X107075910Y-141865000D02*
X107075910Y-130145000D01*
X108495910Y-130145000D02*
X108495910Y-134645000D01*
X108495910Y-134645000D02*
X112135910Y-134645000D01*
X109335910Y-130455000D02*
X109935910Y-130455000D01*
X109635910Y-131055000D02*
X109335910Y-130455000D01*
X109935910Y-130455000D02*
X109635910Y-131055000D01*
X112135910Y-141865000D02*
X107075910Y-141865000D01*
X112135910Y-141865000D02*
X117195910Y-141865000D01*
X115775910Y-130145000D02*
X115775910Y-134645000D01*
X115775910Y-134645000D02*
X112135910Y-134645000D01*
X117195910Y-130145000D02*
X115775910Y-130145000D01*
X117195910Y-141865000D02*
X117195910Y-130145000D01*
X109385910Y-135755000D02*
X109885910Y-135755000D01*
X109885910Y-141255000D01*
X109385910Y-141255000D01*
X109385910Y-135755000D01*
X111885910Y-135755000D02*
X112385910Y-135755000D01*
X112385910Y-141255000D01*
X111885910Y-141255000D01*
X111885910Y-135755000D01*
X114385910Y-135755000D02*
X114885910Y-135755000D01*
X114885910Y-141255000D01*
X114385910Y-141255000D01*
X114385910Y-135755000D01*
%TO.C,U3*%
D12*
X92200000Y-96820000D02*
X90000000Y-96820000D01*
X92200000Y-96820000D02*
X94400000Y-96820000D01*
X92200000Y-103580000D02*
X90000000Y-103580000D01*
X92200000Y-103580000D02*
X94400000Y-103580000D01*
D18*
X88340000Y-97275000D02*
X88010000Y-97515000D01*
X88010000Y-97035000D01*
X88340000Y-97275000D01*
G36*
X88340000Y-97275000D02*
G01*
X88010000Y-97515000D01*
X88010000Y-97035000D01*
X88340000Y-97275000D01*
G37*
%TO.C,RLY5*%
D15*
X156943640Y-129400000D02*
X156943640Y-110200000D01*
X156943640Y-129400000D02*
X172543640Y-129400000D01*
D16*
X158743640Y-116610000D02*
X158743640Y-115590000D01*
X158743640Y-116610000D02*
X163693640Y-116610000D01*
X160483640Y-126070000D02*
X164433640Y-126070000D01*
D15*
X163743640Y-115130000D02*
X165743640Y-115130000D01*
X163743640Y-118130000D02*
X163743640Y-115130000D01*
X164453640Y-110200000D02*
X156943640Y-110200000D01*
D16*
X165443640Y-120530000D02*
X165443640Y-124540000D01*
X165443640Y-124540000D02*
X165443640Y-125050000D01*
X165443640Y-125050000D02*
X167053640Y-126700000D01*
X165473640Y-120500000D02*
X165443640Y-120530000D01*
D15*
X165743640Y-115130000D02*
X165743640Y-118130000D01*
X165743640Y-118130000D02*
X163743640Y-118130000D01*
D16*
X165793640Y-116610000D02*
X170743640Y-116610000D01*
X166543640Y-111870000D02*
X168473640Y-111870000D01*
X168473640Y-111870000D02*
X168473640Y-120500000D01*
X168473640Y-120500000D02*
X165473640Y-120500000D01*
D15*
X168993640Y-126000000D02*
X166763640Y-126000000D01*
D16*
X170743640Y-116610000D02*
X170743640Y-115590000D01*
D15*
X172543640Y-110200000D02*
X165033640Y-110200000D01*
X172543640Y-129400000D02*
X172543640Y-110200000D01*
D17*
X156973640Y-110200000D02*
G75*
G02*
X156913640Y-110200000I-30000J0D01*
G01*
X156913640Y-110200000D02*
G75*
G02*
X156973640Y-110200000I30000J0D01*
G01*
D15*
X158443640Y-111300000D02*
G75*
G02*
X157443640Y-111300000I-500000J0D01*
G01*
X157443640Y-111300000D02*
G75*
G02*
X158443640Y-111300000I500000J0D01*
G01*
%TO.C,D9*%
D12*
X86110000Y-136470000D02*
X86110000Y-137930000D01*
X86110000Y-137930000D02*
X88400000Y-137930000D01*
X88400000Y-136470000D02*
X86110000Y-136470000D01*
%TO.C,U9*%
D18*
X164433640Y-106190000D02*
X164433640Y-106405000D01*
X164433640Y-109010000D02*
X164433640Y-108795000D01*
X166743640Y-106190000D02*
X164433640Y-106190000D01*
X166743640Y-106190000D02*
X169053640Y-106190000D01*
X166743640Y-109010000D02*
X164433640Y-109010000D01*
X166743640Y-109010000D02*
X169053640Y-109010000D01*
X169053640Y-106190000D02*
X169053640Y-106405000D01*
X169053640Y-109010000D02*
X169053640Y-108795000D01*
X170083640Y-109125000D02*
X169603640Y-109125000D01*
X169843640Y-108795000D01*
X170083640Y-109125000D01*
G36*
X170083640Y-109125000D02*
G01*
X169603640Y-109125000D01*
X169843640Y-108795000D01*
X170083640Y-109125000D01*
G37*
%TO.C,U8*%
X146897730Y-106190000D02*
X146897730Y-106405000D01*
X146897730Y-109010000D02*
X146897730Y-108795000D01*
X149207730Y-106190000D02*
X146897730Y-106190000D01*
X149207730Y-106190000D02*
X151517730Y-106190000D01*
X149207730Y-109010000D02*
X146897730Y-109010000D01*
X149207730Y-109010000D02*
X151517730Y-109010000D01*
X151517730Y-106190000D02*
X151517730Y-106405000D01*
X151517730Y-109010000D02*
X151517730Y-108795000D01*
X152547730Y-109125000D02*
X152067730Y-109125000D01*
X152307730Y-108795000D01*
X152547730Y-109125000D01*
G36*
X152547730Y-109125000D02*
G01*
X152067730Y-109125000D01*
X152307730Y-108795000D01*
X152547730Y-109125000D01*
G37*
%TO.C,J5*%
X88940000Y-95380000D02*
X88940000Y-94000000D01*
X90320000Y-95380000D02*
X88940000Y-95380000D01*
X91590000Y-92620000D02*
X96780000Y-92620000D01*
X91590000Y-95380000D02*
X91590000Y-92620000D01*
X91590000Y-95380000D02*
X96780000Y-95380000D01*
X96780000Y-95380000D02*
X96780000Y-92620000D01*
%TO.C,S1*%
D19*
X80310000Y-98075000D02*
X80540000Y-98075000D01*
X80310000Y-102075000D02*
X80310000Y-98075000D01*
X80310000Y-102075000D02*
X80540000Y-102075000D01*
X82980000Y-98075000D02*
X83210000Y-98075000D01*
X83210000Y-98075000D02*
X83210000Y-102075000D01*
X83210000Y-102075000D02*
X82980000Y-102075000D01*
%TO.C,X1*%
D12*
X83560000Y-100625000D02*
X83560000Y-101975000D01*
X83560000Y-101975000D02*
X85160000Y-101975000D01*
%TO.C,D12*%
X138717730Y-136470000D02*
X138717730Y-137930000D01*
X138717730Y-137930000D02*
X141007730Y-137930000D01*
X141007730Y-136470000D02*
X138717730Y-136470000D01*
%TO.C,J8*%
D18*
X124611820Y-130145000D02*
X126031820Y-130145000D01*
X124611820Y-141865000D02*
X124611820Y-130145000D01*
X126031820Y-130145000D02*
X126031820Y-134645000D01*
X126031820Y-134645000D02*
X129671820Y-134645000D01*
X126871820Y-130455000D02*
X127471820Y-130455000D01*
X127171820Y-131055000D02*
X126871820Y-130455000D01*
X127471820Y-130455000D02*
X127171820Y-131055000D01*
X129671820Y-141865000D02*
X124611820Y-141865000D01*
X129671820Y-141865000D02*
X134731820Y-141865000D01*
X133311820Y-130145000D02*
X133311820Y-134645000D01*
X133311820Y-134645000D02*
X129671820Y-134645000D01*
X134731820Y-130145000D02*
X133311820Y-130145000D01*
X134731820Y-141865000D02*
X134731820Y-130145000D01*
X126921820Y-135755000D02*
X127421820Y-135755000D01*
X127421820Y-141255000D01*
X126921820Y-141255000D01*
X126921820Y-135755000D01*
X129421820Y-135755000D02*
X129921820Y-135755000D01*
X129921820Y-141255000D01*
X129421820Y-141255000D01*
X129421820Y-135755000D01*
X131921820Y-135755000D02*
X132421820Y-135755000D01*
X132421820Y-141255000D01*
X131921820Y-141255000D01*
X131921820Y-135755000D01*
%TD*%
%LPC*%
D20*
%TO.C,R28*%
X167563640Y-105400000D03*
X165923640Y-105400000D03*
%TD*%
%TO.C,R25*%
X150240000Y-105400000D03*
X148600000Y-105400000D03*
%TD*%
%TO.C,R22*%
X132820000Y-105400000D03*
X131180000Y-105400000D03*
%TD*%
%TO.C,R19*%
X115020000Y-105400000D03*
X113380000Y-105400000D03*
%TD*%
%TO.C,R15*%
X97420000Y-105400000D03*
X95780000Y-105400000D03*
%TD*%
D21*
%TO.C,RLY2*%
X106135910Y-113800000D03*
X106135910Y-126000000D03*
X118135910Y-126000000D03*
X118135910Y-113800000D03*
X112135910Y-111800000D03*
%TD*%
D22*
%TO.C,R27*%
X169123640Y-105400000D03*
X170763640Y-105400000D03*
%TD*%
D23*
%TO.C,Q16*%
X161293640Y-105460000D03*
X159393640Y-105460000D03*
X160343640Y-107340000D03*
%TD*%
D24*
%TO.C,R10*%
X96549850Y-100418581D03*
X96549850Y-101418581D03*
%TD*%
D25*
%TO.C,C4*%
X86340000Y-97875000D03*
X84780000Y-97875000D03*
%TD*%
D26*
%TO.C,U5*%
X99787500Y-108235000D03*
X99787500Y-106965000D03*
X93412500Y-106965000D03*
X93412500Y-108235000D03*
%TD*%
D27*
%TO.C,R13*%
X79360000Y-98675000D03*
X79360000Y-97675000D03*
%TD*%
D28*
%TO.C,J10*%
X162243640Y-132555000D03*
D29*
X164743640Y-132555000D03*
X167243640Y-132555000D03*
%TD*%
D30*
%TO.C,R33*%
X138607730Y-109400000D03*
X138607730Y-111040000D03*
%TD*%
D31*
%TO.C,D4*%
X106685910Y-109340000D03*
X108785910Y-109340000D03*
%TD*%
D32*
%TO.C,D10*%
X104345910Y-137200000D03*
X105925910Y-137200000D03*
%TD*%
D33*
%TO.C,U4*%
X166130000Y-97300000D03*
X166130000Y-95000000D03*
X166130000Y-92700000D03*
D34*
X160160000Y-94000000D03*
X160160000Y-95000000D03*
D35*
X160160000Y-95000000D03*
D34*
X160160000Y-96000000D03*
%TD*%
D21*
%TO.C,RLY3*%
X123671820Y-113800000D03*
X123671820Y-126000000D03*
X135671820Y-126000000D03*
X135671820Y-113800000D03*
X129671820Y-111800000D03*
%TD*%
D36*
%TO.C,H1*%
X82000000Y-92000000D03*
D37*
X82000000Y-92000000D03*
%TD*%
D32*
%TO.C,D1*%
X84420000Y-95800000D03*
X86000000Y-95800000D03*
%TD*%
D38*
%TO.C,J2*%
X108950000Y-93038272D03*
X108950000Y-98078272D03*
X111490000Y-93038272D03*
X111490000Y-98078272D03*
X114030000Y-93038272D03*
X114030000Y-98078272D03*
X116570000Y-93038272D03*
X116570000Y-98078272D03*
X119110000Y-93038272D03*
X119110000Y-98078272D03*
X121650000Y-93038272D03*
X121650000Y-98078272D03*
X124190000Y-93038272D03*
X124190000Y-98078272D03*
X126730000Y-93038272D03*
X126730000Y-98078272D03*
X129270000Y-93038272D03*
X129270000Y-98078272D03*
X131810000Y-93038272D03*
X131810000Y-98078272D03*
X134350000Y-93038272D03*
X134350000Y-98078272D03*
X136890000Y-93038272D03*
X136890000Y-98078272D03*
X139430000Y-93038272D03*
X139430000Y-98078272D03*
X141970000Y-93038272D03*
X141970000Y-98078272D03*
X144510000Y-93038272D03*
X144510000Y-98078272D03*
X147050000Y-93038272D03*
X147050000Y-98078272D03*
%TD*%
D39*
%TO.C,C16*%
X168220000Y-92700000D03*
X169780000Y-92700000D03*
%TD*%
D22*
%TO.C,R17*%
X98980000Y-105400000D03*
X100620000Y-105400000D03*
%TD*%
D21*
%TO.C,RLY1*%
X88600000Y-113800000D03*
X88600000Y-126000000D03*
X100600000Y-126000000D03*
X100600000Y-113800000D03*
X94600000Y-111800000D03*
%TD*%
D27*
%TO.C,R14*%
X87210000Y-96300000D03*
X87210000Y-95300000D03*
%TD*%
D40*
%TO.C,H8*%
X177000000Y-89485000D03*
%TD*%
D41*
%TO.C,R6*%
X95500000Y-104200000D03*
X94500000Y-104200000D03*
%TD*%
D42*
%TO.C,J3*%
X175895000Y-108220000D03*
D43*
X175895000Y-105680000D03*
X175895000Y-103140000D03*
X175895000Y-100600000D03*
%TD*%
D28*
%TO.C,J6*%
X92100000Y-132555000D03*
D29*
X94600000Y-132555000D03*
X97100000Y-132555000D03*
%TD*%
D23*
%TO.C,Q12*%
X91150000Y-105460000D03*
X89250000Y-105460000D03*
X90200000Y-107340000D03*
%TD*%
D32*
%TO.C,D13*%
X156953640Y-137200000D03*
X158533640Y-137200000D03*
%TD*%
D39*
%TO.C,C18*%
X168320000Y-95000000D03*
X169880000Y-95000000D03*
%TD*%
D20*
%TO.C,R26*%
X146827730Y-105400000D03*
X145187730Y-105400000D03*
%TD*%
D40*
%TO.C,H7*%
X79000000Y-89500000D03*
%TD*%
D41*
%TO.C,R4*%
X97500000Y-103800000D03*
X96500000Y-103800000D03*
%TD*%
D44*
%TO.C,U2*%
X169510000Y-103310000D03*
X169510000Y-102040000D03*
X169510000Y-100760000D03*
X169510000Y-99490000D03*
X164090000Y-99490000D03*
X164090000Y-100760000D03*
X164090000Y-102040000D03*
X164090000Y-103310000D03*
%TD*%
D31*
%TO.C,D6*%
X141757730Y-109340000D03*
X143857730Y-109340000D03*
%TD*%
%TO.C,D2*%
X89150000Y-109340000D03*
X91250000Y-109340000D03*
%TD*%
D45*
%TO.C,C3*%
X87678732Y-102667107D03*
X87678732Y-104227107D03*
%TD*%
D32*
%TO.C,D3*%
X175375000Y-98005000D03*
X176955000Y-98005000D03*
%TD*%
D28*
%TO.C,J9*%
X144707730Y-132555000D03*
D29*
X147207730Y-132555000D03*
X149707730Y-132555000D03*
%TD*%
D46*
%TO.C,H6*%
X153000000Y-94000000D03*
%TD*%
D22*
%TO.C,R18*%
X116515910Y-105400000D03*
X118155910Y-105400000D03*
%TD*%
D39*
%TO.C,C1*%
X106820000Y-103800000D03*
X108380000Y-103800000D03*
%TD*%
D23*
%TO.C,Q14*%
X126221820Y-105460000D03*
X124321820Y-105460000D03*
X125271820Y-107340000D03*
%TD*%
D39*
%TO.C,C5*%
X84780000Y-102675000D03*
X86340000Y-102675000D03*
%TD*%
D26*
%TO.C,U7*%
X134859320Y-108235000D03*
X134859320Y-106965000D03*
X128484320Y-106965000D03*
X128484320Y-108235000D03*
%TD*%
D40*
%TO.C,H9*%
X177000000Y-137000000D03*
%TD*%
D47*
%TO.C,C2*%
X171900000Y-106145000D03*
X171900000Y-104585000D03*
%TD*%
D48*
%TO.C,R1*%
X173200000Y-98285000D03*
X174200000Y-98285000D03*
%TD*%
D46*
%TO.C,H5*%
X103000000Y-94000000D03*
%TD*%
D21*
%TO.C,RLY4*%
X141207730Y-113800000D03*
X141207730Y-126000000D03*
X153207730Y-126000000D03*
X153207730Y-113800000D03*
X147207730Y-111800000D03*
%TD*%
D30*
%TO.C,R32*%
X121071820Y-109400000D03*
X121071820Y-111040000D03*
%TD*%
D22*
%TO.C,R24*%
X151587730Y-105400000D03*
X153227730Y-105400000D03*
%TD*%
D46*
%TO.C,H2*%
X174000000Y-134000000D03*
%TD*%
D26*
%TO.C,U6*%
X117323410Y-108235000D03*
X117323410Y-106965000D03*
X110948410Y-106965000D03*
X110948410Y-108235000D03*
%TD*%
D20*
%TO.C,R29*%
X164363640Y-105400000D03*
X162723640Y-105400000D03*
%TD*%
D23*
%TO.C,Q13*%
X108685910Y-105460000D03*
X106785910Y-105460000D03*
X107735910Y-107340000D03*
%TD*%
D31*
%TO.C,D5*%
X124221820Y-109340000D03*
X126321820Y-109340000D03*
%TD*%
D32*
%TO.C,D11*%
X121881820Y-137200000D03*
X123461820Y-137200000D03*
%TD*%
D46*
%TO.C,H4*%
X174000000Y-92000000D03*
%TD*%
D49*
%TO.C,U1*%
X105575000Y-97937500D03*
X104925000Y-97937500D03*
X104275000Y-97937500D03*
X103625000Y-97937500D03*
X102975000Y-97937500D03*
X102325000Y-97937500D03*
X101675000Y-97937500D03*
X101025000Y-97937500D03*
X100375000Y-97937500D03*
X99725000Y-97937500D03*
X99075000Y-97937500D03*
X98425000Y-97937500D03*
X98425000Y-103662500D03*
X99075000Y-103662500D03*
X99725000Y-103662500D03*
X100375000Y-103662500D03*
X101025000Y-103662500D03*
X101675000Y-103662500D03*
X102325000Y-103662500D03*
X102975000Y-103662500D03*
X103625000Y-103662500D03*
X104275000Y-103662500D03*
X104925000Y-103662500D03*
X105575000Y-103662500D03*
%TD*%
D30*
%TO.C,R31*%
X103535910Y-109400000D03*
X103535910Y-111040000D03*
%TD*%
D22*
%TO.C,R21*%
X134051820Y-105400000D03*
X135691820Y-105400000D03*
%TD*%
D23*
%TO.C,Q15*%
X143757730Y-105460000D03*
X141857730Y-105460000D03*
X142807730Y-107340000D03*
%TD*%
D20*
%TO.C,R20*%
X111755910Y-105400000D03*
X110115910Y-105400000D03*
%TD*%
D31*
%TO.C,D8*%
X159293640Y-109340000D03*
X161393640Y-109340000D03*
%TD*%
D28*
%TO.C,J7*%
X109635910Y-132555000D03*
D29*
X112135910Y-132555000D03*
X114635910Y-132555000D03*
%TD*%
D30*
%TO.C,R34*%
X156143640Y-109400000D03*
X156143640Y-111040000D03*
%TD*%
D50*
%TO.C,U3*%
X89340000Y-97280000D03*
X89340000Y-97930000D03*
X89340000Y-98580000D03*
X89340000Y-99230000D03*
X89340000Y-99870000D03*
X89340000Y-100530000D03*
X89340000Y-101170000D03*
X89340000Y-101820000D03*
X89340000Y-102470000D03*
X89340000Y-103120000D03*
X95060000Y-103120000D03*
X95060000Y-102470000D03*
X95060000Y-101820000D03*
X95060000Y-101170000D03*
X95060000Y-100530000D03*
X95060000Y-99870000D03*
X95060000Y-99230000D03*
X95060000Y-98580000D03*
X95060000Y-97930000D03*
X95060000Y-97280000D03*
%TD*%
D21*
%TO.C,RLY5*%
X158743640Y-113800000D03*
X158743640Y-126000000D03*
X170743640Y-126000000D03*
X170743640Y-113800000D03*
X164743640Y-111800000D03*
%TD*%
D32*
%TO.C,D9*%
X86810000Y-137200000D03*
X88390000Y-137200000D03*
%TD*%
D26*
%TO.C,U9*%
X169931140Y-108235000D03*
X169931140Y-106965000D03*
X163556140Y-106965000D03*
X163556140Y-108235000D03*
%TD*%
%TO.C,U8*%
X152395230Y-108235000D03*
X152395230Y-106965000D03*
X146020230Y-106965000D03*
X146020230Y-108235000D03*
%TD*%
D42*
%TO.C,J5*%
X90320000Y-94000000D03*
D43*
X92860000Y-94000000D03*
X95400000Y-94000000D03*
%TD*%
D51*
%TO.C,S1*%
X81760000Y-98000000D03*
X81760000Y-102150000D03*
%TD*%
D20*
%TO.C,R16*%
X94220000Y-105400000D03*
X92580000Y-105400000D03*
%TD*%
D30*
%TO.C,R30*%
X86000000Y-109400000D03*
X86000000Y-111040000D03*
%TD*%
D46*
%TO.C,H3*%
X82000000Y-134000000D03*
%TD*%
D52*
%TO.C,X1*%
X84460000Y-101155000D03*
X86660000Y-101155000D03*
X86660000Y-99395000D03*
X84460000Y-99395000D03*
%TD*%
D32*
%TO.C,D12*%
X139417730Y-137200000D03*
X140997730Y-137200000D03*
%TD*%
D20*
%TO.C,R23*%
X129291820Y-105400000D03*
X127651820Y-105400000D03*
%TD*%
D28*
%TO.C,J8*%
X127171820Y-132555000D03*
D29*
X129671820Y-132555000D03*
X132171820Y-132555000D03*
%TD*%
%LPD*%
M02*
